%TF.GenerationSoftware,KiCad,Pcbnew,9.0.7-9.0.7~ubuntu24.04.1*%
%TF.CreationDate,2026-03-14T17:51:38+01:00*%
%TF.ProjectId,atiny85v-meter,6174696e-7938-4357-962d-6d657465722e,1.0*%
%TF.SameCoordinates,Original*%
%TF.FileFunction,Soldermask,Bot*%
%TF.FilePolarity,Negative*%
%FSLAX46Y46*%
G04 Gerber Fmt 4.6, Leading zero omitted, Abs format (unit mm)*
G04 Created by KiCad (PCBNEW 9.0.7-9.0.7~ubuntu24.04.1) date 2026-03-14 17:51:38*
%MOMM*%
%LPD*%
G01*
G04 APERTURE LIST*
G04 Aperture macros list*
%AMRoundRect*
0 Rectangle with rounded corners*
0 $1 Rounding radius*
0 $2 $3 $4 $5 $6 $7 $8 $9 X,Y pos of 4 corners*
0 Add a 4 corners polygon primitive as box body*
4,1,4,$2,$3,$4,$5,$6,$7,$8,$9,$2,$3,0*
0 Add four circle primitives for the rounded corners*
1,1,$1+$1,$2,$3*
1,1,$1+$1,$4,$5*
1,1,$1+$1,$6,$7*
1,1,$1+$1,$8,$9*
0 Add four rect primitives between the rounded corners*
20,1,$1+$1,$2,$3,$4,$5,0*
20,1,$1+$1,$4,$5,$6,$7,0*
20,1,$1+$1,$6,$7,$8,$9,0*
20,1,$1+$1,$8,$9,$2,$3,0*%
G04 Aperture macros list end*
%ADD10C,1.600000*%
%ADD11R,1.800000X1.800000*%
%ADD12C,1.800000*%
%ADD13R,1.905000X2.000000*%
%ADD14O,1.905000X2.000000*%
%ADD15C,1.440000*%
%ADD16RoundRect,0.250000X0.550000X-0.550000X0.550000X0.550000X-0.550000X0.550000X-0.550000X-0.550000X0*%
%ADD17C,4.100000*%
%ADD18C,7.400000*%
%ADD19RoundRect,0.250000X0.550000X-0.950000X0.550000X0.950000X-0.550000X0.950000X-0.550000X-0.950000X0*%
%ADD20O,1.600000X2.400000*%
%ADD21RoundRect,0.250000X-0.350000X0.350000X-0.350000X-0.350000X0.350000X-0.350000X0.350000X0.350000X0*%
%ADD22C,1.200000*%
%ADD23C,2.000000*%
%ADD24R,1.700000X1.700000*%
%ADD25C,1.700000*%
%ADD26RoundRect,0.250000X-0.350000X-0.350000X0.350000X-0.350000X0.350000X0.350000X-0.350000X0.350000X0*%
%ADD27RoundRect,0.250000X0.350000X-0.350000X0.350000X0.350000X-0.350000X0.350000X-0.350000X-0.350000X0*%
%ADD28RoundRect,0.250001X-0.949999X0.949999X-0.949999X-0.949999X0.949999X-0.949999X0.949999X0.949999X0*%
%ADD29C,2.400000*%
%ADD30RoundRect,0.250001X0.949999X-0.949999X0.949999X0.949999X-0.949999X0.949999X-0.949999X-0.949999X0*%
G04 APERTURE END LIST*
D10*
%TO.C,C9*%
X171196000Y-135300400D03*
X171196000Y-137800400D03*
%TD*%
%TO.C,R18*%
X139446000Y-129336800D03*
X139446000Y-121716800D03*
%TD*%
D11*
%TO.C,D16*%
X200253600Y-151434800D03*
D12*
X200253600Y-148894800D03*
%TD*%
D13*
%TO.C,U5*%
X127254000Y-118262400D03*
D14*
X129794000Y-118262400D03*
X132334000Y-118262400D03*
%TD*%
D10*
%TO.C,C7*%
X155854400Y-116453600D03*
X155854400Y-118953600D03*
%TD*%
D11*
%TO.C,D1*%
X116382800Y-151333200D03*
D12*
X116382800Y-148793200D03*
%TD*%
D11*
%TO.C,D6*%
X144272000Y-151333200D03*
D12*
X144272000Y-148793200D03*
%TD*%
D11*
%TO.C,D14*%
X189179200Y-151384000D03*
D12*
X189179200Y-148844000D03*
%TD*%
D11*
%TO.C,D4*%
X133096000Y-151384000D03*
D12*
X133096000Y-148844000D03*
%TD*%
D15*
%TO.C,RV1*%
X167543400Y-128981200D03*
X167543400Y-126441200D03*
X167543400Y-123901200D03*
%TD*%
D16*
%TO.C,U1*%
X152603200Y-140411200D03*
D10*
X155143200Y-140411200D03*
X157683200Y-140411200D03*
X160223200Y-140411200D03*
X160223200Y-132791200D03*
X157683200Y-132791200D03*
X155143200Y-132791200D03*
X152603200Y-132791200D03*
%TD*%
D17*
%TO.C,H2*%
X192989200Y-125679200D03*
D18*
X192989200Y-125679200D03*
%TD*%
D10*
%TO.C,C8*%
X126085600Y-135351200D03*
X126085600Y-137851200D03*
%TD*%
D13*
%TO.C,U6*%
X141224000Y-118145600D03*
D14*
X143764000Y-118145600D03*
X146304000Y-118145600D03*
%TD*%
D19*
%TO.C,U2*%
X128930400Y-140258800D03*
D20*
X131470400Y-140258800D03*
X134010400Y-140258800D03*
X136550400Y-140258800D03*
X139090400Y-140258800D03*
X141630400Y-140258800D03*
X144170400Y-140258800D03*
X146710400Y-140258800D03*
X146710400Y-132638800D03*
X144170400Y-132638800D03*
X141630400Y-132638800D03*
X139090400Y-132638800D03*
X136550400Y-132638800D03*
X134010400Y-132638800D03*
X131470400Y-132638800D03*
X128930400Y-132638800D03*
%TD*%
D11*
%TO.C,D7*%
X149758400Y-151333200D03*
D12*
X149758400Y-148793200D03*
%TD*%
D17*
%TO.C,H1*%
X127762000Y-125730000D03*
D18*
X127762000Y-125730000D03*
%TD*%
D11*
%TO.C,D2*%
X121920000Y-151384000D03*
D12*
X121920000Y-148844000D03*
%TD*%
D11*
%TO.C,D13*%
X183642000Y-151434800D03*
D12*
X183642000Y-148894800D03*
%TD*%
D16*
%TO.C,D17*%
X148793200Y-129362200D03*
D10*
X148793200Y-121742200D03*
%TD*%
%TO.C,C2*%
X149860000Y-135178800D03*
X149860000Y-137678800D03*
%TD*%
D11*
%TO.C,D8*%
X155549600Y-151333200D03*
D12*
X155549600Y-148793200D03*
%TD*%
D11*
%TO.C,D11*%
X172466000Y-151333200D03*
D12*
X172466000Y-148793200D03*
%TD*%
D11*
%TO.C,D12*%
X177952400Y-151333200D03*
D12*
X177952400Y-148793200D03*
%TD*%
D11*
%TO.C,D10*%
X166928800Y-151384000D03*
D12*
X166928800Y-148844000D03*
%TD*%
D19*
%TO.C,U3*%
X174091600Y-140258800D03*
D20*
X176631600Y-140258800D03*
X179171600Y-140258800D03*
X181711600Y-140258800D03*
X184251600Y-140258800D03*
X186791600Y-140258800D03*
X189331600Y-140258800D03*
X191871600Y-140258800D03*
X191871600Y-132638800D03*
X189331600Y-132638800D03*
X186791600Y-132638800D03*
X184251600Y-132638800D03*
X181711600Y-132638800D03*
X179171600Y-132638800D03*
X176631600Y-132638800D03*
X174091600Y-132638800D03*
%TD*%
D21*
%TO.C,C6*%
X151892000Y-117094000D03*
D22*
X151892000Y-118594000D03*
%TD*%
D19*
%TO.C,U4*%
X155346400Y-129844800D03*
D20*
X157886400Y-129844800D03*
X160426400Y-129844800D03*
X162966400Y-129844800D03*
X162966400Y-122224800D03*
X160426400Y-122224800D03*
X157886400Y-122224800D03*
X155346400Y-122224800D03*
%TD*%
D23*
%TO.C,SW1*%
X120628800Y-133860400D03*
X120628800Y-140360400D03*
X116128800Y-133860400D03*
X116128800Y-140360400D03*
%TD*%
D11*
%TO.C,D5*%
X138633200Y-151384000D03*
D12*
X138633200Y-148844000D03*
%TD*%
D10*
%TO.C,R20*%
X142671800Y-121716800D03*
X142671800Y-129336800D03*
%TD*%
%TO.C,C5*%
X119888000Y-121869200D03*
X119888000Y-119369200D03*
%TD*%
D11*
%TO.C,D3*%
X127508000Y-151333200D03*
D12*
X127508000Y-148793200D03*
%TD*%
D10*
%TO.C,R19*%
X145796000Y-121716800D03*
X145796000Y-129336800D03*
%TD*%
D21*
%TO.C,C1*%
X134772400Y-126796800D03*
D22*
X134772400Y-128296800D03*
%TD*%
D24*
%TO.C,J3*%
X167030400Y-139039600D03*
D25*
X164490400Y-139039600D03*
X167030400Y-136499600D03*
X164490400Y-136499600D03*
X167030400Y-133959600D03*
X164490400Y-133959600D03*
%TD*%
D24*
%TO.C,J8*%
X151917400Y-126847600D03*
D25*
X151917400Y-124307600D03*
%TD*%
D11*
%TO.C,D15*%
X194665600Y-151434800D03*
D12*
X194665600Y-148894800D03*
%TD*%
D26*
%TO.C,C3*%
X175741200Y-127965200D03*
D22*
X177241200Y-127965200D03*
%TD*%
D11*
%TO.C,D9*%
X161188400Y-151231600D03*
D12*
X161188400Y-148691600D03*
%TD*%
D27*
%TO.C,C4*%
X116179600Y-121381200D03*
D22*
X116179600Y-119881200D03*
%TD*%
D28*
%TO.C,J2*%
X118840900Y-125808800D03*
D29*
X118840900Y-129308800D03*
%TD*%
D30*
%TO.C,J1*%
X197967600Y-138120000D03*
D29*
X197967600Y-134620000D03*
%TD*%
M02*
