%TF.GenerationSoftware,KiCad,Pcbnew,9.0.7-9.0.7~ubuntu24.04.1*%
%TF.CreationDate,2026-03-14T17:51:37+01:00*%
%TF.ProjectId,atiny85v-meter,6174696e-7938-4357-962d-6d657465722e,1.0*%
%TF.SameCoordinates,Original*%
%TF.FileFunction,Copper,L1,Top*%
%TF.FilePolarity,Positive*%
%FSLAX46Y46*%
G04 Gerber Fmt 4.6, Leading zero omitted, Abs format (unit mm)*
G04 Created by KiCad (PCBNEW 9.0.7-9.0.7~ubuntu24.04.1) date 2026-03-14 17:51:37*
%MOMM*%
%LPD*%
G01*
G04 APERTURE LIST*
G04 Aperture macros list*
%AMRoundRect*
0 Rectangle with rounded corners*
0 $1 Rounding radius*
0 $2 $3 $4 $5 $6 $7 $8 $9 X,Y pos of 4 corners*
0 Add a 4 corners polygon primitive as box body*
4,1,4,$2,$3,$4,$5,$6,$7,$8,$9,$2,$3,0*
0 Add four circle primitives for the rounded corners*
1,1,$1+$1,$2,$3*
1,1,$1+$1,$4,$5*
1,1,$1+$1,$6,$7*
1,1,$1+$1,$8,$9*
0 Add four rect primitives between the rounded corners*
20,1,$1+$1,$2,$3,$4,$5,0*
20,1,$1+$1,$4,$5,$6,$7,0*
20,1,$1+$1,$6,$7,$8,$9,0*
20,1,$1+$1,$8,$9,$2,$3,0*%
G04 Aperture macros list end*
%TA.AperFunction,ComponentPad*%
%ADD10C,1.600000*%
%TD*%
%TA.AperFunction,SMDPad,CuDef*%
%ADD11RoundRect,0.250000X-0.625000X0.312500X-0.625000X-0.312500X0.625000X-0.312500X0.625000X0.312500X0*%
%TD*%
%TA.AperFunction,ComponentPad*%
%ADD12R,1.800000X1.800000*%
%TD*%
%TA.AperFunction,ComponentPad*%
%ADD13C,1.800000*%
%TD*%
%TA.AperFunction,ComponentPad*%
%ADD14R,1.905000X2.000000*%
%TD*%
%TA.AperFunction,ComponentPad*%
%ADD15O,1.905000X2.000000*%
%TD*%
%TA.AperFunction,ComponentPad*%
%ADD16C,1.440000*%
%TD*%
%TA.AperFunction,ComponentPad*%
%ADD17RoundRect,0.250000X0.550000X-0.550000X0.550000X0.550000X-0.550000X0.550000X-0.550000X-0.550000X0*%
%TD*%
%TA.AperFunction,ComponentPad*%
%ADD18C,4.100000*%
%TD*%
%TA.AperFunction,ConnectorPad*%
%ADD19C,7.400000*%
%TD*%
%TA.AperFunction,ComponentPad*%
%ADD20RoundRect,0.250000X0.550000X-0.950000X0.550000X0.950000X-0.550000X0.950000X-0.550000X-0.950000X0*%
%TD*%
%TA.AperFunction,ComponentPad*%
%ADD21O,1.600000X2.400000*%
%TD*%
%TA.AperFunction,ComponentPad*%
%ADD22RoundRect,0.250000X-0.350000X0.350000X-0.350000X-0.350000X0.350000X-0.350000X0.350000X0.350000X0*%
%TD*%
%TA.AperFunction,ComponentPad*%
%ADD23C,1.200000*%
%TD*%
%TA.AperFunction,ComponentPad*%
%ADD24C,2.000000*%
%TD*%
%TA.AperFunction,ComponentPad*%
%ADD25R,1.700000X1.700000*%
%TD*%
%TA.AperFunction,ComponentPad*%
%ADD26C,1.700000*%
%TD*%
%TA.AperFunction,ComponentPad*%
%ADD27RoundRect,0.250000X-0.350000X-0.350000X0.350000X-0.350000X0.350000X0.350000X-0.350000X0.350000X0*%
%TD*%
%TA.AperFunction,ComponentPad*%
%ADD28RoundRect,0.250000X0.350000X-0.350000X0.350000X0.350000X-0.350000X0.350000X-0.350000X-0.350000X0*%
%TD*%
%TA.AperFunction,ComponentPad*%
%ADD29RoundRect,0.250001X-0.949999X0.949999X-0.949999X-0.949999X0.949999X-0.949999X0.949999X0.949999X0*%
%TD*%
%TA.AperFunction,ComponentPad*%
%ADD30C,2.400000*%
%TD*%
%TA.AperFunction,ComponentPad*%
%ADD31RoundRect,0.250001X0.949999X-0.949999X0.949999X0.949999X-0.949999X0.949999X-0.949999X-0.949999X0*%
%TD*%
%TA.AperFunction,Conductor*%
%ADD32C,0.450000*%
%TD*%
%TA.AperFunction,Conductor*%
%ADD33C,0.250000*%
%TD*%
G04 APERTURE END LIST*
D10*
%TO.P,C9,1*%
%TO.N,+5V*%
X171196000Y-135300400D03*
%TO.P,C9,2*%
%TO.N,GND*%
X171196000Y-137800400D03*
%TD*%
D11*
%TO.P,R6,1*%
%TO.N,Net-(U2-QF)*%
X144068800Y-143571500D03*
%TO.P,R6,2*%
%TO.N,Net-(D6-A)*%
X144068800Y-146496500D03*
%TD*%
D10*
%TO.P,R18,1*%
%TO.N,GND*%
X139446000Y-129336800D03*
%TO.P,R18,2*%
%TO.N,Net-(U4A--)*%
X139446000Y-121716800D03*
%TD*%
D11*
%TO.P,R15,1*%
%TO.N,Net-(U3-QG)*%
X194665600Y-143723900D03*
%TO.P,R15,2*%
%TO.N,Net-(D15-A)*%
X194665600Y-146648900D03*
%TD*%
%TO.P,R10,1*%
%TO.N,Net-(U3-QB)*%
X166674800Y-143774700D03*
%TO.P,R10,2*%
%TO.N,Net-(D10-A)*%
X166674800Y-146699700D03*
%TD*%
%TO.P,R13,1*%
%TO.N,Net-(U3-QE)*%
X183489600Y-143723900D03*
%TO.P,R13,2*%
%TO.N,Net-(D13-A)*%
X183489600Y-146648900D03*
%TD*%
%TO.P,R14,1*%
%TO.N,Net-(U3-QF)*%
X189077600Y-143723900D03*
%TO.P,R14,2*%
%TO.N,Net-(D14-A)*%
X189077600Y-146648900D03*
%TD*%
D12*
%TO.P,D16,1,K*%
%TO.N,GND*%
X200253600Y-151434800D03*
D13*
%TO.P,D16,2,A*%
%TO.N,Net-(D16-A)*%
X200253600Y-148894800D03*
%TD*%
D11*
%TO.P,R16,1*%
%TO.N,Net-(U3-QH)*%
X200202800Y-143774700D03*
%TO.P,R16,2*%
%TO.N,Net-(D16-A)*%
X200202800Y-146699700D03*
%TD*%
D14*
%TO.P,U5,1,VI*%
%TO.N,Net-(J2-Pin_2)*%
X127254000Y-118262400D03*
D15*
%TO.P,U5,2,GND*%
%TO.N,GND*%
X129794000Y-118262400D03*
%TO.P,U5,3,VO*%
%TO.N,+9V*%
X132334000Y-118262400D03*
%TD*%
D10*
%TO.P,C7,1*%
%TO.N,+5V*%
X155854400Y-116453600D03*
%TO.P,C7,2*%
%TO.N,GND*%
X155854400Y-118953600D03*
%TD*%
D12*
%TO.P,D1,1,K*%
%TO.N,GND*%
X116382800Y-151333200D03*
D13*
%TO.P,D1,2,A*%
%TO.N,Net-(D1-A)*%
X116382800Y-148793200D03*
%TD*%
D12*
%TO.P,D6,1,K*%
%TO.N,GND*%
X144272000Y-151333200D03*
D13*
%TO.P,D6,2,A*%
%TO.N,Net-(D6-A)*%
X144272000Y-148793200D03*
%TD*%
D12*
%TO.P,D14,1,K*%
%TO.N,GND*%
X189179200Y-151384000D03*
D13*
%TO.P,D14,2,A*%
%TO.N,Net-(D14-A)*%
X189179200Y-148844000D03*
%TD*%
D12*
%TO.P,D4,1,K*%
%TO.N,GND*%
X133096000Y-151384000D03*
D13*
%TO.P,D4,2,A*%
%TO.N,Net-(D4-A)*%
X133096000Y-148844000D03*
%TD*%
D16*
%TO.P,RV1,1,1*%
%TO.N,Net-(U4A--)*%
X167543400Y-128981200D03*
%TO.P,RV1,2,2*%
X167543400Y-126441200D03*
%TO.P,RV1,3,3*%
%TO.N,Net-(D17-A)*%
X167543400Y-123901200D03*
%TD*%
D11*
%TO.P,R3,1*%
%TO.N,Net-(U2-QC)*%
X127406400Y-143622300D03*
%TO.P,R3,2*%
%TO.N,Net-(D3-A)*%
X127406400Y-146547300D03*
%TD*%
D17*
%TO.P,U1,1,~{RESET}/PB5*%
%TO.N,RESET*%
X152603200Y-140411200D03*
D10*
%TO.P,U1,2,XTAL1/PB3*%
%TO.N,Net-(U1-XTAL1{slash}PB3)*%
X155143200Y-140411200D03*
%TO.P,U1,3,XTAL2/PB4*%
%TO.N,Net-(U1-XTAL2{slash}PB4)*%
X157683200Y-140411200D03*
%TO.P,U1,4,GND*%
%TO.N,GND*%
X160223200Y-140411200D03*
%TO.P,U1,5,AREF/PB0*%
%TO.N,MOSI*%
X160223200Y-132791200D03*
%TO.P,U1,6,PB1*%
%TO.N,MISO*%
X157683200Y-132791200D03*
%TO.P,U1,7,PB2*%
%TO.N,SCK*%
X155143200Y-132791200D03*
%TO.P,U1,8,VCC*%
%TO.N,+5V*%
X152603200Y-132791200D03*
%TD*%
D18*
%TO.P,H2,1*%
%TO.N,N/C*%
X192989200Y-125679200D03*
D19*
X192989200Y-125679200D03*
%TD*%
D10*
%TO.P,C8,1*%
%TO.N,+5V*%
X126085600Y-135351200D03*
%TO.P,C8,2*%
%TO.N,GND*%
X126085600Y-137851200D03*
%TD*%
D14*
%TO.P,U6,1,VI*%
%TO.N,+9V*%
X141224000Y-118145600D03*
D15*
%TO.P,U6,2,GND*%
%TO.N,GND*%
X143764000Y-118145600D03*
%TO.P,U6,3,VO*%
%TO.N,+5V*%
X146304000Y-118145600D03*
%TD*%
D20*
%TO.P,U2,1,QB*%
%TO.N,Net-(U2-QB)*%
X128930400Y-140258800D03*
D21*
%TO.P,U2,2,QC*%
%TO.N,Net-(U2-QC)*%
X131470400Y-140258800D03*
%TO.P,U2,3,QD*%
%TO.N,Net-(U2-QD)*%
X134010400Y-140258800D03*
%TO.P,U2,4,QE*%
%TO.N,Net-(U2-QE)*%
X136550400Y-140258800D03*
%TO.P,U2,5,QF*%
%TO.N,Net-(U2-QF)*%
X139090400Y-140258800D03*
%TO.P,U2,6,QG*%
%TO.N,Net-(U2-QG)*%
X141630400Y-140258800D03*
%TO.P,U2,7,QH*%
%TO.N,Net-(U2-QH)*%
X144170400Y-140258800D03*
%TO.P,U2,8,GND*%
%TO.N,GND*%
X146710400Y-140258800D03*
%TO.P,U2,9,QH'*%
%TO.N,Net-(U2-QH')*%
X146710400Y-132638800D03*
%TO.P,U2,10,~{SRCLR}*%
%TO.N,+5V*%
X144170400Y-132638800D03*
%TO.P,U2,11,SRCLK*%
%TO.N,MISO*%
X141630400Y-132638800D03*
%TO.P,U2,12,RCLK*%
%TO.N,Net-(U1-XTAL1{slash}PB3)*%
X139090400Y-132638800D03*
%TO.P,U2,13,~{OE}*%
%TO.N,GND*%
X136550400Y-132638800D03*
%TO.P,U2,14,SER*%
%TO.N,MOSI*%
X134010400Y-132638800D03*
%TO.P,U2,15,QA*%
%TO.N,Net-(U2-QA)*%
X131470400Y-132638800D03*
%TO.P,U2,16,VCC*%
%TO.N,+5V*%
X128930400Y-132638800D03*
%TD*%
D11*
%TO.P,R11,1*%
%TO.N,Net-(U3-QC)*%
X172364400Y-143723900D03*
%TO.P,R11,2*%
%TO.N,Net-(D11-A)*%
X172364400Y-146648900D03*
%TD*%
D12*
%TO.P,D7,1,K*%
%TO.N,GND*%
X149758400Y-151333200D03*
D13*
%TO.P,D7,2,A*%
%TO.N,Net-(D7-A)*%
X149758400Y-148793200D03*
%TD*%
D11*
%TO.P,R5,1*%
%TO.N,Net-(U2-QE)*%
X138430000Y-143673100D03*
%TO.P,R5,2*%
%TO.N,Net-(D5-A)*%
X138430000Y-146598100D03*
%TD*%
D18*
%TO.P,H1,1*%
%TO.N,N/C*%
X127762000Y-125730000D03*
D19*
X127762000Y-125730000D03*
%TD*%
D11*
%TO.P,R2,1*%
%TO.N,Net-(U2-QB)*%
X121869200Y-143571500D03*
%TO.P,R2,2*%
%TO.N,Net-(D2-A)*%
X121869200Y-146496500D03*
%TD*%
D12*
%TO.P,D2,1,K*%
%TO.N,GND*%
X121920000Y-151384000D03*
D13*
%TO.P,D2,2,A*%
%TO.N,Net-(D2-A)*%
X121920000Y-148844000D03*
%TD*%
D12*
%TO.P,D13,1,K*%
%TO.N,GND*%
X183642000Y-151434800D03*
D13*
%TO.P,D13,2,A*%
%TO.N,Net-(D13-A)*%
X183642000Y-148894800D03*
%TD*%
D17*
%TO.P,D17,1,K*%
%TO.N,ADC*%
X148793200Y-129362200D03*
D10*
%TO.P,D17,2,A*%
%TO.N,Net-(D17-A)*%
X148793200Y-121742200D03*
%TD*%
%TO.P,C2,1*%
%TO.N,+5V*%
X149860000Y-135178800D03*
%TO.P,C2,2*%
%TO.N,GND*%
X149860000Y-137678800D03*
%TD*%
D12*
%TO.P,D8,1,K*%
%TO.N,GND*%
X155549600Y-151333200D03*
D13*
%TO.P,D8,2,A*%
%TO.N,Net-(D8-A)*%
X155549600Y-148793200D03*
%TD*%
D12*
%TO.P,D11,1,K*%
%TO.N,GND*%
X172466000Y-151333200D03*
D13*
%TO.P,D11,2,A*%
%TO.N,Net-(D11-A)*%
X172466000Y-148793200D03*
%TD*%
D12*
%TO.P,D12,1,K*%
%TO.N,GND*%
X177952400Y-151333200D03*
D13*
%TO.P,D12,2,A*%
%TO.N,Net-(D12-A)*%
X177952400Y-148793200D03*
%TD*%
D12*
%TO.P,D10,1,K*%
%TO.N,GND*%
X166928800Y-151384000D03*
D13*
%TO.P,D10,2,A*%
%TO.N,Net-(D10-A)*%
X166928800Y-148844000D03*
%TD*%
D20*
%TO.P,U3,1,QB*%
%TO.N,Net-(U3-QB)*%
X174091600Y-140258800D03*
D21*
%TO.P,U3,2,QC*%
%TO.N,Net-(U3-QC)*%
X176631600Y-140258800D03*
%TO.P,U3,3,QD*%
%TO.N,Net-(U3-QD)*%
X179171600Y-140258800D03*
%TO.P,U3,4,QE*%
%TO.N,Net-(U3-QE)*%
X181711600Y-140258800D03*
%TO.P,U3,5,QF*%
%TO.N,Net-(U3-QF)*%
X184251600Y-140258800D03*
%TO.P,U3,6,QG*%
%TO.N,Net-(U3-QG)*%
X186791600Y-140258800D03*
%TO.P,U3,7,QH*%
%TO.N,Net-(U3-QH)*%
X189331600Y-140258800D03*
%TO.P,U3,8,GND*%
%TO.N,GND*%
X191871600Y-140258800D03*
%TO.P,U3,9,QH'*%
%TO.N,unconnected-(U3-QH'-Pad9)*%
X191871600Y-132638800D03*
%TO.P,U3,10,~{SRCLR}*%
%TO.N,+5V*%
X189331600Y-132638800D03*
%TO.P,U3,11,SRCLK*%
%TO.N,MISO*%
X186791600Y-132638800D03*
%TO.P,U3,12,RCLK*%
%TO.N,Net-(U1-XTAL1{slash}PB3)*%
X184251600Y-132638800D03*
%TO.P,U3,13,~{OE}*%
%TO.N,GND*%
X181711600Y-132638800D03*
%TO.P,U3,14,SER*%
%TO.N,Net-(U2-QH')*%
X179171600Y-132638800D03*
%TO.P,U3,15,QA*%
%TO.N,Net-(U3-QA)*%
X176631600Y-132638800D03*
%TO.P,U3,16,VCC*%
%TO.N,+5V*%
X174091600Y-132638800D03*
%TD*%
D11*
%TO.P,R8,1*%
%TO.N,Net-(U2-QH)*%
X155397200Y-143673100D03*
%TO.P,R8,2*%
%TO.N,Net-(D8-A)*%
X155397200Y-146598100D03*
%TD*%
D22*
%TO.P,C6,1*%
%TO.N,+5V*%
X151892000Y-117094000D03*
D23*
%TO.P,C6,2*%
%TO.N,GND*%
X151892000Y-118594000D03*
%TD*%
D20*
%TO.P,U4,1*%
%TO.N,Net-(D17-A)*%
X155346400Y-129844800D03*
D21*
%TO.P,U4,2,-*%
%TO.N,Net-(U4A--)*%
X157886400Y-129844800D03*
%TO.P,U4,3,+*%
%TO.N,Net-(U4A-+)*%
X160426400Y-129844800D03*
%TO.P,U4,4,V-*%
%TO.N,GND*%
X162966400Y-129844800D03*
%TO.P,U4,5,+*%
%TO.N,unconnected-(U4B-+-Pad5)*%
X162966400Y-122224800D03*
%TO.P,U4,6,-*%
%TO.N,unconnected-(U4B---Pad6)*%
X160426400Y-122224800D03*
%TO.P,U4,7*%
%TO.N,unconnected-(U4-Pad7)*%
X157886400Y-122224800D03*
%TO.P,U4,8,V+*%
%TO.N,+9V*%
X155346400Y-122224800D03*
%TD*%
D24*
%TO.P,SW1,1,1*%
%TO.N,GND*%
X120628800Y-133860400D03*
X120628800Y-140360400D03*
%TO.P,SW1,2,2*%
%TO.N,Net-(U1-XTAL2{slash}PB4)*%
X116128800Y-133860400D03*
X116128800Y-140360400D03*
%TD*%
D12*
%TO.P,D5,1,K*%
%TO.N,GND*%
X138633200Y-151384000D03*
D13*
%TO.P,D5,2,A*%
%TO.N,Net-(D5-A)*%
X138633200Y-148844000D03*
%TD*%
D10*
%TO.P,R20,1*%
%TO.N,GND*%
X142671800Y-121716800D03*
%TO.P,R20,2*%
%TO.N,Net-(U4A-+)*%
X142671800Y-129336800D03*
%TD*%
%TO.P,C5,1*%
%TO.N,Net-(J2-Pin_2)*%
X119888000Y-121869200D03*
%TO.P,C5,2*%
%TO.N,GND*%
X119888000Y-119369200D03*
%TD*%
D12*
%TO.P,D3,1,K*%
%TO.N,GND*%
X127508000Y-151333200D03*
D13*
%TO.P,D3,2,A*%
%TO.N,Net-(D3-A)*%
X127508000Y-148793200D03*
%TD*%
D11*
%TO.P,R1,1*%
%TO.N,Net-(U2-QA)*%
X116433600Y-143622300D03*
%TO.P,R1,2*%
%TO.N,Net-(D1-A)*%
X116433600Y-146547300D03*
%TD*%
D10*
%TO.P,R19,1*%
%TO.N,GND*%
X145796000Y-121716800D03*
%TO.P,R19,2*%
%TO.N,ADC*%
X145796000Y-129336800D03*
%TD*%
D22*
%TO.P,C1,1*%
%TO.N,ADC*%
X134772400Y-126796800D03*
D23*
%TO.P,C1,2*%
%TO.N,GND*%
X134772400Y-128296800D03*
%TD*%
D25*
%TO.P,J3,1,Pin_1*%
%TO.N,GND*%
X167030400Y-139039600D03*
D26*
%TO.P,J3,2,Pin_2*%
%TO.N,RESET*%
X164490400Y-139039600D03*
%TO.P,J3,3,Pin_3*%
%TO.N,MOSI*%
X167030400Y-136499600D03*
%TO.P,J3,4,Pin_4*%
%TO.N,SCK*%
X164490400Y-136499600D03*
%TO.P,J3,5,Pin_5*%
%TO.N,+5V*%
X167030400Y-133959600D03*
%TO.P,J3,6,Pin_6*%
%TO.N,MISO*%
X164490400Y-133959600D03*
%TD*%
D25*
%TO.P,J8,1,Pin_1*%
%TO.N,ADC*%
X151917400Y-126847600D03*
D26*
%TO.P,J8,2,Pin_2*%
%TO.N,SCK*%
X151917400Y-124307600D03*
%TD*%
D11*
%TO.P,R9,1*%
%TO.N,Net-(U3-QA)*%
X161036000Y-143571500D03*
%TO.P,R9,2*%
%TO.N,Net-(D9-A)*%
X161036000Y-146496500D03*
%TD*%
D12*
%TO.P,D15,1,K*%
%TO.N,GND*%
X194665600Y-151434800D03*
D13*
%TO.P,D15,2,A*%
%TO.N,Net-(D15-A)*%
X194665600Y-148894800D03*
%TD*%
D27*
%TO.P,C3,1*%
%TO.N,Net-(U4A-+)*%
X175741200Y-127965200D03*
D23*
%TO.P,C3,2*%
%TO.N,Net-(J1-Pin_2)*%
X177241200Y-127965200D03*
%TD*%
D11*
%TO.P,R12,1*%
%TO.N,Net-(U3-QD)*%
X177901600Y-143673100D03*
%TO.P,R12,2*%
%TO.N,Net-(D12-A)*%
X177901600Y-146598100D03*
%TD*%
%TO.P,R4,1*%
%TO.N,Net-(U2-QD)*%
X132638800Y-143571500D03*
%TO.P,R4,2*%
%TO.N,Net-(D4-A)*%
X132638800Y-146496500D03*
%TD*%
%TO.P,R7,1*%
%TO.N,Net-(U2-QG)*%
X149606000Y-143571500D03*
%TO.P,R7,2*%
%TO.N,Net-(D7-A)*%
X149606000Y-146496500D03*
%TD*%
D12*
%TO.P,D9,1,K*%
%TO.N,GND*%
X161188400Y-151231600D03*
D13*
%TO.P,D9,2,A*%
%TO.N,Net-(D9-A)*%
X161188400Y-148691600D03*
%TD*%
D28*
%TO.P,C4,1*%
%TO.N,Net-(J2-Pin_2)*%
X116179600Y-121381200D03*
D23*
%TO.P,C4,2*%
%TO.N,GND*%
X116179600Y-119881200D03*
%TD*%
D29*
%TO.P,J2,1,Pin_1*%
%TO.N,GND*%
X118840900Y-125808800D03*
D30*
%TO.P,J2,2,Pin_2*%
%TO.N,Net-(J2-Pin_2)*%
X118840900Y-129308800D03*
%TD*%
D31*
%TO.P,J1,1,Pin_1*%
%TO.N,GND*%
X197967600Y-138120000D03*
D30*
%TO.P,J1,2,Pin_2*%
%TO.N,Net-(J1-Pin_2)*%
X197967600Y-134620000D03*
%TD*%
D32*
%TO.N,+9V*%
X133828400Y-118145600D02*
X133711600Y-118262400D01*
X141224000Y-118145600D02*
X133828400Y-118145600D01*
X132334000Y-118262400D02*
X133711600Y-118262400D01*
D33*
%TO.N,Net-(U2-QH')*%
X147176500Y-131113700D02*
X146710400Y-131113700D01*
X147441200Y-131378400D02*
X147176500Y-131113700D01*
X164654600Y-131378400D02*
X147441200Y-131378400D01*
X165370700Y-130662300D02*
X164654600Y-131378400D01*
X178720200Y-130662300D02*
X165370700Y-130662300D01*
X179171600Y-131113700D02*
X178720200Y-130662300D01*
X179171600Y-132638800D02*
X179171600Y-131113700D01*
X146710400Y-132638800D02*
X146710400Y-131113700D01*
%TO.N,Net-(U1-XTAL2{slash}PB4)*%
X156548000Y-141546400D02*
X157683200Y-140411200D01*
X150316100Y-141546400D02*
X156548000Y-141546400D01*
X147443500Y-138673800D02*
X150316100Y-141546400D01*
X127597200Y-138673800D02*
X147443500Y-138673800D01*
X127242500Y-139028500D02*
X127597200Y-138673800D01*
X117460700Y-139028500D02*
X127242500Y-139028500D01*
X116128800Y-140360400D02*
X117460700Y-139028500D01*
%TO.N,Net-(U3-QH)*%
X198212000Y-141783900D02*
X200202800Y-143774700D01*
X189331600Y-141783900D02*
X198212000Y-141783900D01*
X189331600Y-140258800D02*
X189331600Y-141783900D01*
%TO.N,Net-(U3-QG)*%
X193317000Y-142375300D02*
X194665600Y-143723900D01*
X187383000Y-142375300D02*
X193317000Y-142375300D01*
X186791600Y-141783900D02*
X187383000Y-142375300D01*
X186791600Y-140258800D02*
X186791600Y-141783900D01*
%TO.N,Net-(U3-QF)*%
X186191600Y-143723900D02*
X189077600Y-143723900D01*
X184251600Y-141783900D02*
X186191600Y-143723900D01*
X184251600Y-140258800D02*
X184251600Y-141783900D01*
%TO.N,Net-(U3-QE)*%
X183489600Y-143561900D02*
X183489600Y-143723900D01*
X181711600Y-141783900D02*
X183489600Y-143561900D01*
X181711600Y-140258800D02*
X181711600Y-141783900D01*
%TO.N,Net-(U3-QD)*%
X177901600Y-143053900D02*
X177901600Y-143673100D01*
X179171600Y-141783900D02*
X177901600Y-143053900D01*
X179171600Y-140258800D02*
X179171600Y-141783900D01*
%TO.N,Net-(U3-QC)*%
X174691600Y-143723900D02*
X172364400Y-143723900D01*
X176631600Y-141783900D02*
X174691600Y-143723900D01*
X176631600Y-140258800D02*
X176631600Y-141783900D01*
%TO.N,Net-(U3-QB)*%
X170190700Y-140258800D02*
X166674800Y-143774700D01*
X174091600Y-140258800D02*
X170190700Y-140258800D01*
%TO.N,Net-(U3-QA)*%
X165125800Y-143571500D02*
X161036000Y-143571500D01*
X169771700Y-138925600D02*
X165125800Y-143571500D01*
X171869900Y-138925600D02*
X169771700Y-138925600D01*
X176631600Y-134163900D02*
X171869900Y-138925600D01*
X176631600Y-132638800D02*
X176631600Y-134163900D01*
%TO.N,Net-(U2-QH)*%
X144170400Y-140258800D02*
X144170400Y-141783900D01*
X151728900Y-143673100D02*
X155397200Y-143673100D01*
X149839700Y-141783900D02*
X151728900Y-143673100D01*
X144170400Y-141783900D02*
X149839700Y-141783900D01*
%TO.N,Net-(U2-QG)*%
X141630400Y-140258800D02*
X141630400Y-141783900D01*
X148445200Y-142410700D02*
X149606000Y-143571500D01*
X142257200Y-142410700D02*
X148445200Y-142410700D01*
X141630400Y-141783900D02*
X142257200Y-142410700D01*
%TO.N,Net-(U2-QF)*%
X139090400Y-140258800D02*
X139090400Y-141783900D01*
X140878000Y-143571500D02*
X144068800Y-143571500D01*
X139090400Y-141783900D02*
X140878000Y-143571500D01*
%TO.N,Net-(U2-QE)*%
X138430000Y-143663500D02*
X138430000Y-143673100D01*
X136550400Y-141783900D02*
X138430000Y-143663500D01*
X136550400Y-140258800D02*
X136550400Y-141783900D01*
%TO.N,Net-(U2-QD)*%
X132638800Y-143155500D02*
X132638800Y-143571500D01*
X134010400Y-141783900D02*
X132638800Y-143155500D01*
X134010400Y-140258800D02*
X134010400Y-141783900D01*
%TO.N,Net-(U2-QC)*%
X129632000Y-143622300D02*
X127406400Y-143622300D01*
X131470400Y-141783900D02*
X129632000Y-143622300D01*
X131470400Y-140258800D02*
X131470400Y-141783900D01*
%TO.N,Net-(U2-QB)*%
X125181900Y-140258800D02*
X121869200Y-143571500D01*
X128930400Y-140258800D02*
X125181900Y-140258800D01*
%TO.N,Net-(U2-QA)*%
X114799500Y-141988200D02*
X116433600Y-143622300D01*
X114799500Y-139797900D02*
X114799500Y-141988200D01*
X117996200Y-136601200D02*
X114799500Y-139797900D01*
X129033100Y-136601200D02*
X117996200Y-136601200D01*
X131470400Y-134163900D02*
X129033100Y-136601200D01*
X131470400Y-132638800D02*
X131470400Y-134163900D01*
%TO.N,MISO*%
X148734900Y-134163900D02*
X141630400Y-134163900D01*
X148933400Y-133965400D02*
X148734900Y-134163900D01*
X156509000Y-133965400D02*
X148933400Y-133965400D01*
X157683200Y-132791200D02*
X156509000Y-133965400D01*
X141630400Y-132638800D02*
X141630400Y-134163900D01*
X178700000Y-134163900D02*
X186791600Y-134163900D01*
X177901600Y-133365500D02*
X178700000Y-134163900D01*
X177901600Y-131910100D02*
X177901600Y-133365500D01*
X177105100Y-131113600D02*
X177901600Y-131910100D01*
X167336400Y-131113600D02*
X177105100Y-131113600D01*
X164490400Y-133959600D02*
X167336400Y-131113600D01*
X186791600Y-132638800D02*
X186791600Y-134163900D01*
%TO.N,RESET*%
X153974800Y-139039600D02*
X152603200Y-140411200D01*
X164490400Y-139039600D02*
X153974800Y-139039600D01*
%TO.N,MOSI*%
X136151100Y-136304600D02*
X134010400Y-134163900D01*
X156709800Y-136304600D02*
X136151100Y-136304600D01*
X160223200Y-132791200D02*
X156709800Y-136304600D01*
X134010400Y-132638800D02*
X134010400Y-134163900D01*
X162661600Y-135229600D02*
X160223200Y-132791200D01*
X165760400Y-135229600D02*
X162661600Y-135229600D01*
X167030400Y-136499600D02*
X165760400Y-135229600D01*
%TO.N,Net-(D17-A)*%
X154023000Y-123901200D02*
X167543400Y-123901200D01*
X151864000Y-121742200D02*
X154023000Y-123901200D01*
X148793200Y-121742200D02*
X151864000Y-121742200D01*
%TO.N,Net-(D16-A)*%
X200202800Y-148844000D02*
X200202800Y-146699700D01*
X200253600Y-148894800D02*
X200202800Y-148844000D01*
%TO.N,Net-(D15-A)*%
X194665600Y-148894800D02*
X194665600Y-146648900D01*
%TO.N,Net-(D14-A)*%
X189077600Y-148742400D02*
X189077600Y-146648900D01*
X189179200Y-148844000D02*
X189077600Y-148742400D01*
%TO.N,Net-(D13-A)*%
X183489600Y-148742400D02*
X183489600Y-146648900D01*
X183642000Y-148894800D02*
X183489600Y-148742400D01*
%TO.N,Net-(D12-A)*%
X177901600Y-148742400D02*
X177901600Y-146598100D01*
X177952400Y-148793200D02*
X177901600Y-148742400D01*
%TO.N,Net-(D11-A)*%
X172364400Y-148691600D02*
X172364400Y-146648900D01*
X172466000Y-148793200D02*
X172364400Y-148691600D01*
%TO.N,Net-(D10-A)*%
X166674800Y-148590000D02*
X166674800Y-146699700D01*
X166928800Y-148844000D02*
X166674800Y-148590000D01*
%TO.N,Net-(D9-A)*%
X161036000Y-148539200D02*
X161036000Y-146496500D01*
X161188400Y-148691600D02*
X161036000Y-148539200D01*
%TO.N,Net-(D8-A)*%
X155397200Y-148640800D02*
X155397200Y-146598100D01*
X155549600Y-148793200D02*
X155397200Y-148640800D01*
%TO.N,Net-(D7-A)*%
X149606000Y-148640800D02*
X149606000Y-146496500D01*
X149758400Y-148793200D02*
X149606000Y-148640800D01*
%TO.N,Net-(D6-A)*%
X144068800Y-148590000D02*
X144068800Y-146496500D01*
X144272000Y-148793200D02*
X144068800Y-148590000D01*
%TO.N,Net-(D5-A)*%
X138430000Y-148640800D02*
X138430000Y-146598100D01*
X138633200Y-148844000D02*
X138430000Y-148640800D01*
%TO.N,Net-(D4-A)*%
X132638800Y-148386800D02*
X132638800Y-146496500D01*
X133096000Y-148844000D02*
X132638800Y-148386800D01*
%TO.N,Net-(D3-A)*%
X127406400Y-148691600D02*
X127406400Y-146547300D01*
X127508000Y-148793200D02*
X127406400Y-148691600D01*
%TO.N,Net-(D2-A)*%
X121869200Y-148793200D02*
X121869200Y-146496500D01*
X121920000Y-148844000D02*
X121869200Y-148793200D01*
%TO.N,Net-(D1-A)*%
X116433600Y-148742400D02*
X116433600Y-146547300D01*
X116382800Y-148793200D02*
X116433600Y-148742400D01*
D32*
%TO.N,Net-(J2-Pin_2)*%
X119400000Y-121381200D02*
X119888000Y-121869200D01*
X116179600Y-121381200D02*
X119400000Y-121381200D01*
D33*
%TO.N,Net-(U4A-+)*%
X160844400Y-127901700D02*
X160426400Y-128319700D01*
X175677700Y-127901700D02*
X160844400Y-127901700D01*
X175741200Y-127965200D02*
X175677700Y-127901700D01*
X160426400Y-129844800D02*
X160426400Y-128319700D01*
X160277900Y-128171200D02*
X160426400Y-128319700D01*
X143837400Y-128171200D02*
X160277900Y-128171200D01*
X142671800Y-129336800D02*
X143837400Y-128171200D01*
D32*
%TO.N,+5V*%
X155214000Y-117094000D02*
X151892000Y-117094000D01*
X155854400Y-116453600D02*
X155214000Y-117094000D01*
X148733200Y-117094000D02*
X147681600Y-118145600D01*
X151892000Y-117094000D02*
X148733200Y-117094000D01*
X146304000Y-118145600D02*
X147681600Y-118145600D01*
D33*
%TO.N,ADC*%
X138497200Y-130521600D02*
X134772400Y-126796800D01*
X144611200Y-130521600D02*
X138497200Y-130521600D01*
X145796000Y-129336800D02*
X144611200Y-130521600D01*
D32*
%TO.N,GND*%
X152251600Y-118953600D02*
X155854400Y-118953600D01*
X151892000Y-118594000D02*
X152251600Y-118953600D01*
X165658800Y-140411200D02*
X167030400Y-139039600D01*
X160223200Y-140411200D02*
X165658800Y-140411200D01*
X172466000Y-151333200D02*
X177952400Y-151333200D01*
X155549600Y-151333200D02*
X149758400Y-151333200D01*
X194665600Y-151434800D02*
X200253600Y-151434800D01*
X189179200Y-151384000D02*
X187854100Y-151384000D01*
X133096000Y-151384000D02*
X138633200Y-151384000D01*
X142896100Y-151384000D02*
X142946900Y-151333200D01*
X138633200Y-151384000D02*
X142896100Y-151384000D01*
X144272000Y-151333200D02*
X142946900Y-151333200D01*
X148918800Y-118594000D02*
X151892000Y-118594000D01*
X145796000Y-121716800D02*
X148918800Y-118594000D01*
X162665900Y-151384000D02*
X162513500Y-151231600D01*
X166928800Y-151384000D02*
X162665900Y-151384000D01*
X161188400Y-151231600D02*
X162513500Y-151231600D01*
X187803300Y-151434800D02*
X183642000Y-151434800D01*
X187854100Y-151384000D02*
X187803300Y-151434800D01*
X179379100Y-151434800D02*
X179277500Y-151333200D01*
X183642000Y-151434800D02*
X179379100Y-151434800D01*
X177952400Y-151333200D02*
X179277500Y-151333200D01*
X192385300Y-138120000D02*
X191871600Y-138633700D01*
X197967600Y-138120000D02*
X192385300Y-138120000D01*
X191871600Y-140258800D02*
X191871600Y-138633700D01*
X142671800Y-126111000D02*
X139446000Y-129336800D01*
X142671800Y-121716800D02*
X142671800Y-126111000D01*
X143764000Y-118145600D02*
X143764000Y-119570700D01*
X143764000Y-121716800D02*
X143764000Y-119570700D01*
X145796000Y-121716800D02*
X143764000Y-121716800D01*
X143764000Y-121716800D02*
X142671800Y-121716800D01*
X120206300Y-119687500D02*
X129794000Y-119687500D01*
X119888000Y-119369200D02*
X120206300Y-119687500D01*
X129794000Y-118262400D02*
X129794000Y-119687500D01*
X132976100Y-122869600D02*
X129794000Y-119687500D01*
X132976100Y-126718800D02*
X132976100Y-122869600D01*
X134554100Y-128296800D02*
X132976100Y-126718800D01*
X134772400Y-128296800D02*
X134554100Y-128296800D01*
%TD*%
M02*
