%TF.GenerationSoftware,KiCad,Pcbnew,9.0.7-9.0.7~ubuntu24.04.1*%
%TF.CreationDate,2026-03-14T17:51:37+01:00*%
%TF.ProjectId,atiny85v-meter,6174696e-7938-4357-962d-6d657465722e,1.0*%
%TF.SameCoordinates,Original*%
%TF.FileFunction,Copper,L2,Bot*%
%TF.FilePolarity,Positive*%
%FSLAX46Y46*%
G04 Gerber Fmt 4.6, Leading zero omitted, Abs format (unit mm)*
G04 Created by KiCad (PCBNEW 9.0.7-9.0.7~ubuntu24.04.1) date 2026-03-14 17:51:37*
%MOMM*%
%LPD*%
G01*
G04 APERTURE LIST*
G04 Aperture macros list*
%AMRoundRect*
0 Rectangle with rounded corners*
0 $1 Rounding radius*
0 $2 $3 $4 $5 $6 $7 $8 $9 X,Y pos of 4 corners*
0 Add a 4 corners polygon primitive as box body*
4,1,4,$2,$3,$4,$5,$6,$7,$8,$9,$2,$3,0*
0 Add four circle primitives for the rounded corners*
1,1,$1+$1,$2,$3*
1,1,$1+$1,$4,$5*
1,1,$1+$1,$6,$7*
1,1,$1+$1,$8,$9*
0 Add four rect primitives between the rounded corners*
20,1,$1+$1,$2,$3,$4,$5,0*
20,1,$1+$1,$4,$5,$6,$7,0*
20,1,$1+$1,$6,$7,$8,$9,0*
20,1,$1+$1,$8,$9,$2,$3,0*%
G04 Aperture macros list end*
%TA.AperFunction,ComponentPad*%
%ADD10C,1.600000*%
%TD*%
%TA.AperFunction,ComponentPad*%
%ADD11R,1.800000X1.800000*%
%TD*%
%TA.AperFunction,ComponentPad*%
%ADD12C,1.800000*%
%TD*%
%TA.AperFunction,ComponentPad*%
%ADD13R,1.905000X2.000000*%
%TD*%
%TA.AperFunction,ComponentPad*%
%ADD14O,1.905000X2.000000*%
%TD*%
%TA.AperFunction,ComponentPad*%
%ADD15C,1.440000*%
%TD*%
%TA.AperFunction,ComponentPad*%
%ADD16RoundRect,0.250000X0.550000X-0.550000X0.550000X0.550000X-0.550000X0.550000X-0.550000X-0.550000X0*%
%TD*%
%TA.AperFunction,ComponentPad*%
%ADD17C,4.100000*%
%TD*%
%TA.AperFunction,ConnectorPad*%
%ADD18C,7.400000*%
%TD*%
%TA.AperFunction,ComponentPad*%
%ADD19RoundRect,0.250000X0.550000X-0.950000X0.550000X0.950000X-0.550000X0.950000X-0.550000X-0.950000X0*%
%TD*%
%TA.AperFunction,ComponentPad*%
%ADD20O,1.600000X2.400000*%
%TD*%
%TA.AperFunction,ComponentPad*%
%ADD21RoundRect,0.250000X-0.350000X0.350000X-0.350000X-0.350000X0.350000X-0.350000X0.350000X0.350000X0*%
%TD*%
%TA.AperFunction,ComponentPad*%
%ADD22C,1.200000*%
%TD*%
%TA.AperFunction,ComponentPad*%
%ADD23C,2.000000*%
%TD*%
%TA.AperFunction,ComponentPad*%
%ADD24R,1.700000X1.700000*%
%TD*%
%TA.AperFunction,ComponentPad*%
%ADD25C,1.700000*%
%TD*%
%TA.AperFunction,ComponentPad*%
%ADD26RoundRect,0.250000X-0.350000X-0.350000X0.350000X-0.350000X0.350000X0.350000X-0.350000X0.350000X0*%
%TD*%
%TA.AperFunction,ComponentPad*%
%ADD27RoundRect,0.250000X0.350000X-0.350000X0.350000X0.350000X-0.350000X0.350000X-0.350000X-0.350000X0*%
%TD*%
%TA.AperFunction,ComponentPad*%
%ADD28RoundRect,0.250001X-0.949999X0.949999X-0.949999X-0.949999X0.949999X-0.949999X0.949999X0.949999X0*%
%TD*%
%TA.AperFunction,ComponentPad*%
%ADD29C,2.400000*%
%TD*%
%TA.AperFunction,ComponentPad*%
%ADD30RoundRect,0.250001X0.949999X-0.949999X0.949999X0.949999X-0.949999X0.949999X-0.949999X-0.949999X0*%
%TD*%
%TA.AperFunction,Conductor*%
%ADD31C,0.450000*%
%TD*%
%TA.AperFunction,Conductor*%
%ADD32C,0.250000*%
%TD*%
G04 APERTURE END LIST*
D10*
%TO.P,C9,1*%
%TO.N,+5V*%
X171196000Y-135300400D03*
%TO.P,C9,2*%
%TO.N,GND*%
X171196000Y-137800400D03*
%TD*%
%TO.P,R18,1*%
%TO.N,GND*%
X139446000Y-129336800D03*
%TO.P,R18,2*%
%TO.N,Net-(U4A--)*%
X139446000Y-121716800D03*
%TD*%
D11*
%TO.P,D16,1,K*%
%TO.N,GND*%
X200253600Y-151434800D03*
D12*
%TO.P,D16,2,A*%
%TO.N,Net-(D16-A)*%
X200253600Y-148894800D03*
%TD*%
D13*
%TO.P,U5,1,VI*%
%TO.N,Net-(J2-Pin_2)*%
X127254000Y-118262400D03*
D14*
%TO.P,U5,2,GND*%
%TO.N,GND*%
X129794000Y-118262400D03*
%TO.P,U5,3,VO*%
%TO.N,+9V*%
X132334000Y-118262400D03*
%TD*%
D10*
%TO.P,C7,1*%
%TO.N,+5V*%
X155854400Y-116453600D03*
%TO.P,C7,2*%
%TO.N,GND*%
X155854400Y-118953600D03*
%TD*%
D11*
%TO.P,D1,1,K*%
%TO.N,GND*%
X116382800Y-151333200D03*
D12*
%TO.P,D1,2,A*%
%TO.N,Net-(D1-A)*%
X116382800Y-148793200D03*
%TD*%
D11*
%TO.P,D6,1,K*%
%TO.N,GND*%
X144272000Y-151333200D03*
D12*
%TO.P,D6,2,A*%
%TO.N,Net-(D6-A)*%
X144272000Y-148793200D03*
%TD*%
D11*
%TO.P,D14,1,K*%
%TO.N,GND*%
X189179200Y-151384000D03*
D12*
%TO.P,D14,2,A*%
%TO.N,Net-(D14-A)*%
X189179200Y-148844000D03*
%TD*%
D11*
%TO.P,D4,1,K*%
%TO.N,GND*%
X133096000Y-151384000D03*
D12*
%TO.P,D4,2,A*%
%TO.N,Net-(D4-A)*%
X133096000Y-148844000D03*
%TD*%
D15*
%TO.P,RV1,1,1*%
%TO.N,Net-(U4A--)*%
X167543400Y-128981200D03*
%TO.P,RV1,2,2*%
X167543400Y-126441200D03*
%TO.P,RV1,3,3*%
%TO.N,Net-(D17-A)*%
X167543400Y-123901200D03*
%TD*%
D16*
%TO.P,U1,1,~{RESET}/PB5*%
%TO.N,RESET*%
X152603200Y-140411200D03*
D10*
%TO.P,U1,2,XTAL1/PB3*%
%TO.N,Net-(U1-XTAL1{slash}PB3)*%
X155143200Y-140411200D03*
%TO.P,U1,3,XTAL2/PB4*%
%TO.N,Net-(U1-XTAL2{slash}PB4)*%
X157683200Y-140411200D03*
%TO.P,U1,4,GND*%
%TO.N,GND*%
X160223200Y-140411200D03*
%TO.P,U1,5,AREF/PB0*%
%TO.N,MOSI*%
X160223200Y-132791200D03*
%TO.P,U1,6,PB1*%
%TO.N,MISO*%
X157683200Y-132791200D03*
%TO.P,U1,7,PB2*%
%TO.N,SCK*%
X155143200Y-132791200D03*
%TO.P,U1,8,VCC*%
%TO.N,+5V*%
X152603200Y-132791200D03*
%TD*%
D17*
%TO.P,H2,1*%
%TO.N,N/C*%
X192989200Y-125679200D03*
D18*
X192989200Y-125679200D03*
%TD*%
D10*
%TO.P,C8,1*%
%TO.N,+5V*%
X126085600Y-135351200D03*
%TO.P,C8,2*%
%TO.N,GND*%
X126085600Y-137851200D03*
%TD*%
D13*
%TO.P,U6,1,VI*%
%TO.N,+9V*%
X141224000Y-118145600D03*
D14*
%TO.P,U6,2,GND*%
%TO.N,GND*%
X143764000Y-118145600D03*
%TO.P,U6,3,VO*%
%TO.N,+5V*%
X146304000Y-118145600D03*
%TD*%
D19*
%TO.P,U2,1,QB*%
%TO.N,Net-(U2-QB)*%
X128930400Y-140258800D03*
D20*
%TO.P,U2,2,QC*%
%TO.N,Net-(U2-QC)*%
X131470400Y-140258800D03*
%TO.P,U2,3,QD*%
%TO.N,Net-(U2-QD)*%
X134010400Y-140258800D03*
%TO.P,U2,4,QE*%
%TO.N,Net-(U2-QE)*%
X136550400Y-140258800D03*
%TO.P,U2,5,QF*%
%TO.N,Net-(U2-QF)*%
X139090400Y-140258800D03*
%TO.P,U2,6,QG*%
%TO.N,Net-(U2-QG)*%
X141630400Y-140258800D03*
%TO.P,U2,7,QH*%
%TO.N,Net-(U2-QH)*%
X144170400Y-140258800D03*
%TO.P,U2,8,GND*%
%TO.N,GND*%
X146710400Y-140258800D03*
%TO.P,U2,9,QH'*%
%TO.N,Net-(U2-QH')*%
X146710400Y-132638800D03*
%TO.P,U2,10,~{SRCLR}*%
%TO.N,+5V*%
X144170400Y-132638800D03*
%TO.P,U2,11,SRCLK*%
%TO.N,MISO*%
X141630400Y-132638800D03*
%TO.P,U2,12,RCLK*%
%TO.N,Net-(U1-XTAL1{slash}PB3)*%
X139090400Y-132638800D03*
%TO.P,U2,13,~{OE}*%
%TO.N,GND*%
X136550400Y-132638800D03*
%TO.P,U2,14,SER*%
%TO.N,MOSI*%
X134010400Y-132638800D03*
%TO.P,U2,15,QA*%
%TO.N,Net-(U2-QA)*%
X131470400Y-132638800D03*
%TO.P,U2,16,VCC*%
%TO.N,+5V*%
X128930400Y-132638800D03*
%TD*%
D11*
%TO.P,D7,1,K*%
%TO.N,GND*%
X149758400Y-151333200D03*
D12*
%TO.P,D7,2,A*%
%TO.N,Net-(D7-A)*%
X149758400Y-148793200D03*
%TD*%
D17*
%TO.P,H1,1*%
%TO.N,N/C*%
X127762000Y-125730000D03*
D18*
X127762000Y-125730000D03*
%TD*%
D11*
%TO.P,D2,1,K*%
%TO.N,GND*%
X121920000Y-151384000D03*
D12*
%TO.P,D2,2,A*%
%TO.N,Net-(D2-A)*%
X121920000Y-148844000D03*
%TD*%
D11*
%TO.P,D13,1,K*%
%TO.N,GND*%
X183642000Y-151434800D03*
D12*
%TO.P,D13,2,A*%
%TO.N,Net-(D13-A)*%
X183642000Y-148894800D03*
%TD*%
D16*
%TO.P,D17,1,K*%
%TO.N,ADC*%
X148793200Y-129362200D03*
D10*
%TO.P,D17,2,A*%
%TO.N,Net-(D17-A)*%
X148793200Y-121742200D03*
%TD*%
%TO.P,C2,1*%
%TO.N,+5V*%
X149860000Y-135178800D03*
%TO.P,C2,2*%
%TO.N,GND*%
X149860000Y-137678800D03*
%TD*%
D11*
%TO.P,D8,1,K*%
%TO.N,GND*%
X155549600Y-151333200D03*
D12*
%TO.P,D8,2,A*%
%TO.N,Net-(D8-A)*%
X155549600Y-148793200D03*
%TD*%
D11*
%TO.P,D11,1,K*%
%TO.N,GND*%
X172466000Y-151333200D03*
D12*
%TO.P,D11,2,A*%
%TO.N,Net-(D11-A)*%
X172466000Y-148793200D03*
%TD*%
D11*
%TO.P,D12,1,K*%
%TO.N,GND*%
X177952400Y-151333200D03*
D12*
%TO.P,D12,2,A*%
%TO.N,Net-(D12-A)*%
X177952400Y-148793200D03*
%TD*%
D11*
%TO.P,D10,1,K*%
%TO.N,GND*%
X166928800Y-151384000D03*
D12*
%TO.P,D10,2,A*%
%TO.N,Net-(D10-A)*%
X166928800Y-148844000D03*
%TD*%
D19*
%TO.P,U3,1,QB*%
%TO.N,Net-(U3-QB)*%
X174091600Y-140258800D03*
D20*
%TO.P,U3,2,QC*%
%TO.N,Net-(U3-QC)*%
X176631600Y-140258800D03*
%TO.P,U3,3,QD*%
%TO.N,Net-(U3-QD)*%
X179171600Y-140258800D03*
%TO.P,U3,4,QE*%
%TO.N,Net-(U3-QE)*%
X181711600Y-140258800D03*
%TO.P,U3,5,QF*%
%TO.N,Net-(U3-QF)*%
X184251600Y-140258800D03*
%TO.P,U3,6,QG*%
%TO.N,Net-(U3-QG)*%
X186791600Y-140258800D03*
%TO.P,U3,7,QH*%
%TO.N,Net-(U3-QH)*%
X189331600Y-140258800D03*
%TO.P,U3,8,GND*%
%TO.N,GND*%
X191871600Y-140258800D03*
%TO.P,U3,9,QH'*%
%TO.N,unconnected-(U3-QH'-Pad9)*%
X191871600Y-132638800D03*
%TO.P,U3,10,~{SRCLR}*%
%TO.N,+5V*%
X189331600Y-132638800D03*
%TO.P,U3,11,SRCLK*%
%TO.N,MISO*%
X186791600Y-132638800D03*
%TO.P,U3,12,RCLK*%
%TO.N,Net-(U1-XTAL1{slash}PB3)*%
X184251600Y-132638800D03*
%TO.P,U3,13,~{OE}*%
%TO.N,GND*%
X181711600Y-132638800D03*
%TO.P,U3,14,SER*%
%TO.N,Net-(U2-QH')*%
X179171600Y-132638800D03*
%TO.P,U3,15,QA*%
%TO.N,Net-(U3-QA)*%
X176631600Y-132638800D03*
%TO.P,U3,16,VCC*%
%TO.N,+5V*%
X174091600Y-132638800D03*
%TD*%
D21*
%TO.P,C6,1*%
%TO.N,+5V*%
X151892000Y-117094000D03*
D22*
%TO.P,C6,2*%
%TO.N,GND*%
X151892000Y-118594000D03*
%TD*%
D19*
%TO.P,U4,1*%
%TO.N,Net-(D17-A)*%
X155346400Y-129844800D03*
D20*
%TO.P,U4,2,-*%
%TO.N,Net-(U4A--)*%
X157886400Y-129844800D03*
%TO.P,U4,3,+*%
%TO.N,Net-(U4A-+)*%
X160426400Y-129844800D03*
%TO.P,U4,4,V-*%
%TO.N,GND*%
X162966400Y-129844800D03*
%TO.P,U4,5,+*%
%TO.N,unconnected-(U4B-+-Pad5)*%
X162966400Y-122224800D03*
%TO.P,U4,6,-*%
%TO.N,unconnected-(U4B---Pad6)*%
X160426400Y-122224800D03*
%TO.P,U4,7*%
%TO.N,unconnected-(U4-Pad7)*%
X157886400Y-122224800D03*
%TO.P,U4,8,V+*%
%TO.N,+9V*%
X155346400Y-122224800D03*
%TD*%
D23*
%TO.P,SW1,1,1*%
%TO.N,GND*%
X120628800Y-133860400D03*
X120628800Y-140360400D03*
%TO.P,SW1,2,2*%
%TO.N,Net-(U1-XTAL2{slash}PB4)*%
X116128800Y-133860400D03*
X116128800Y-140360400D03*
%TD*%
D11*
%TO.P,D5,1,K*%
%TO.N,GND*%
X138633200Y-151384000D03*
D12*
%TO.P,D5,2,A*%
%TO.N,Net-(D5-A)*%
X138633200Y-148844000D03*
%TD*%
D10*
%TO.P,R20,1*%
%TO.N,GND*%
X142671800Y-121716800D03*
%TO.P,R20,2*%
%TO.N,Net-(U4A-+)*%
X142671800Y-129336800D03*
%TD*%
%TO.P,C5,1*%
%TO.N,Net-(J2-Pin_2)*%
X119888000Y-121869200D03*
%TO.P,C5,2*%
%TO.N,GND*%
X119888000Y-119369200D03*
%TD*%
D11*
%TO.P,D3,1,K*%
%TO.N,GND*%
X127508000Y-151333200D03*
D12*
%TO.P,D3,2,A*%
%TO.N,Net-(D3-A)*%
X127508000Y-148793200D03*
%TD*%
D10*
%TO.P,R19,1*%
%TO.N,GND*%
X145796000Y-121716800D03*
%TO.P,R19,2*%
%TO.N,ADC*%
X145796000Y-129336800D03*
%TD*%
D21*
%TO.P,C1,1*%
%TO.N,ADC*%
X134772400Y-126796800D03*
D22*
%TO.P,C1,2*%
%TO.N,GND*%
X134772400Y-128296800D03*
%TD*%
D24*
%TO.P,J3,1,Pin_1*%
%TO.N,GND*%
X167030400Y-139039600D03*
D25*
%TO.P,J3,2,Pin_2*%
%TO.N,RESET*%
X164490400Y-139039600D03*
%TO.P,J3,3,Pin_3*%
%TO.N,MOSI*%
X167030400Y-136499600D03*
%TO.P,J3,4,Pin_4*%
%TO.N,SCK*%
X164490400Y-136499600D03*
%TO.P,J3,5,Pin_5*%
%TO.N,+5V*%
X167030400Y-133959600D03*
%TO.P,J3,6,Pin_6*%
%TO.N,MISO*%
X164490400Y-133959600D03*
%TD*%
D24*
%TO.P,J8,1,Pin_1*%
%TO.N,ADC*%
X151917400Y-126847600D03*
D25*
%TO.P,J8,2,Pin_2*%
%TO.N,SCK*%
X151917400Y-124307600D03*
%TD*%
D11*
%TO.P,D15,1,K*%
%TO.N,GND*%
X194665600Y-151434800D03*
D12*
%TO.P,D15,2,A*%
%TO.N,Net-(D15-A)*%
X194665600Y-148894800D03*
%TD*%
D26*
%TO.P,C3,1*%
%TO.N,Net-(U4A-+)*%
X175741200Y-127965200D03*
D22*
%TO.P,C3,2*%
%TO.N,Net-(J1-Pin_2)*%
X177241200Y-127965200D03*
%TD*%
D11*
%TO.P,D9,1,K*%
%TO.N,GND*%
X161188400Y-151231600D03*
D12*
%TO.P,D9,2,A*%
%TO.N,Net-(D9-A)*%
X161188400Y-148691600D03*
%TD*%
D27*
%TO.P,C4,1*%
%TO.N,Net-(J2-Pin_2)*%
X116179600Y-121381200D03*
D22*
%TO.P,C4,2*%
%TO.N,GND*%
X116179600Y-119881200D03*
%TD*%
D28*
%TO.P,J2,1,Pin_1*%
%TO.N,GND*%
X118840900Y-125808800D03*
D29*
%TO.P,J2,2,Pin_2*%
%TO.N,Net-(J2-Pin_2)*%
X118840900Y-129308800D03*
%TD*%
D30*
%TO.P,J1,1,Pin_1*%
%TO.N,GND*%
X197967600Y-138120000D03*
D29*
%TO.P,J1,2,Pin_2*%
%TO.N,Net-(J1-Pin_2)*%
X197967600Y-134620000D03*
%TD*%
D31*
%TO.N,+9V*%
X155346400Y-122224800D02*
X155346400Y-120599700D01*
X152298300Y-120599700D02*
X155346400Y-120599700D01*
X148385600Y-116687000D02*
X152298300Y-120599700D01*
X142682600Y-116687000D02*
X148385600Y-116687000D01*
X141224000Y-118145600D02*
X142682600Y-116687000D01*
D32*
%TO.N,Net-(U1-XTAL1{slash}PB3)*%
X141375300Y-136448800D02*
X139090400Y-134163900D01*
X151180800Y-136448800D02*
X141375300Y-136448800D01*
X155143200Y-140411200D02*
X151180800Y-136448800D01*
X139090400Y-132638800D02*
X139090400Y-134163900D01*
X156292900Y-139261500D02*
X155143200Y-140411200D01*
X160976800Y-139261500D02*
X156292900Y-139261500D01*
X161950200Y-140234900D02*
X160976800Y-139261500D01*
X170995900Y-140234900D02*
X161950200Y-140234900D01*
X172530400Y-138700400D02*
X170995900Y-140234900D01*
X179715100Y-138700400D02*
X172530400Y-138700400D01*
X184251600Y-134163900D02*
X179715100Y-138700400D01*
X184251600Y-132638800D02*
X184251600Y-134163900D01*
%TO.N,Net-(U1-XTAL2{slash}PB4)*%
X116128800Y-140360400D02*
X116128800Y-133860400D01*
%TO.N,Net-(U4A--)*%
X167543400Y-126441200D02*
X167543400Y-128981200D01*
X140615200Y-120547600D02*
X139446000Y-121716800D01*
X150480700Y-120547600D02*
X140615200Y-120547600D01*
X157886400Y-127953300D02*
X150480700Y-120547600D01*
X157886400Y-129844800D02*
X157886400Y-127953300D01*
X165154700Y-131369900D02*
X167543400Y-128981200D01*
X157886400Y-131369900D02*
X165154700Y-131369900D01*
X157886400Y-129844800D02*
X157886400Y-131369900D01*
%TO.N,MISO*%
X158851600Y-133959600D02*
X157683200Y-132791200D01*
X164490400Y-133959600D02*
X158851600Y-133959600D01*
%TO.N,SCK*%
X153728400Y-131376400D02*
X155143200Y-132791200D01*
X153728400Y-126118600D02*
X153728400Y-131376400D01*
X151917400Y-124307600D02*
X153728400Y-126118600D01*
X158851600Y-136499600D02*
X164490400Y-136499600D01*
X155143200Y-132791200D02*
X158851600Y-136499600D01*
%TO.N,Net-(D17-A)*%
X155346400Y-126058700D02*
X155346400Y-129844800D01*
X151029900Y-121742200D02*
X155346400Y-126058700D01*
X148793200Y-121742200D02*
X151029900Y-121742200D01*
D31*
%TO.N,Net-(J2-Pin_2)*%
X116179600Y-126647500D02*
X116179600Y-121381200D01*
X118840900Y-129308800D02*
X116179600Y-126647500D01*
X122269600Y-121869200D02*
X125876400Y-118262400D01*
X119888000Y-121869200D02*
X122269600Y-121869200D01*
X127254000Y-118262400D02*
X125876400Y-118262400D01*
D32*
%TO.N,Net-(J1-Pin_2)*%
X179739500Y-130463500D02*
X177241200Y-127965200D01*
X193811100Y-130463500D02*
X179739500Y-130463500D01*
X197967600Y-134620000D02*
X193811100Y-130463500D01*
D31*
%TO.N,+5V*%
X127172900Y-134263900D02*
X126085600Y-135351200D01*
X128930400Y-134263900D02*
X127172900Y-134263900D01*
X128930400Y-132638800D02*
X128930400Y-134263900D01*
X152247600Y-132791200D02*
X152603200Y-132791200D01*
X149860000Y-135178800D02*
X152247600Y-132791200D01*
X148945100Y-134263900D02*
X149860000Y-135178800D01*
X144170400Y-134263900D02*
X148945100Y-134263900D01*
X144170400Y-132638800D02*
X144170400Y-134263900D01*
X144170400Y-132638800D02*
X144170400Y-131013700D01*
X142545300Y-131013700D02*
X144170400Y-131013700D01*
X140671200Y-129139600D02*
X142545300Y-131013700D01*
X140671200Y-128819000D02*
X140671200Y-129139600D01*
X135841800Y-123989600D02*
X140671200Y-128819000D01*
X135841800Y-123588600D02*
X135841800Y-123989600D01*
X139510900Y-119919500D02*
X135841800Y-123588600D01*
X144530100Y-119919500D02*
X139510900Y-119919500D01*
X146304000Y-118145600D02*
X144530100Y-119919500D01*
X128930400Y-130901000D02*
X128930400Y-132638800D01*
X135841800Y-123989600D02*
X128930400Y-130901000D01*
X169855200Y-133959600D02*
X171196000Y-135300400D01*
X167030400Y-133959600D02*
X169855200Y-133959600D01*
X172232500Y-134263900D02*
X171196000Y-135300400D01*
X174091600Y-134263900D02*
X172232500Y-134263900D01*
X174091600Y-132824200D02*
X174091600Y-134263900D01*
X174091600Y-132824200D02*
X174091600Y-132638800D01*
X174091600Y-131013700D02*
X189331600Y-131013700D01*
X174091600Y-132638800D02*
X174091600Y-131013700D01*
X189331600Y-132638800D02*
X189331600Y-131013700D01*
X174091600Y-128827600D02*
X174091600Y-131013700D01*
X161717600Y-116453600D02*
X174091600Y-128827600D01*
X155854400Y-116453600D02*
X161717600Y-116453600D01*
D32*
%TO.N,ADC*%
X151917400Y-126847600D02*
X150742300Y-126847600D01*
X148793200Y-129336800D02*
X145796000Y-129336800D01*
X150742300Y-127387700D02*
X148793200Y-129336800D01*
X150742300Y-126847600D02*
X150742300Y-127387700D01*
X148793200Y-129336800D02*
X148793200Y-129362200D01*
D31*
%TO.N,GND*%
X117944200Y-119881200D02*
X118660100Y-120597100D01*
X116179600Y-119881200D02*
X117944200Y-119881200D01*
X118660100Y-120597100D02*
X119888000Y-119369200D01*
X118660100Y-125628000D02*
X118840900Y-125808800D01*
X118660100Y-120597100D02*
X118660100Y-125628000D01*
X156791300Y-118953600D02*
X155854400Y-118953600D01*
X159156400Y-121318700D02*
X156791300Y-118953600D01*
X159156400Y-124409700D02*
X159156400Y-121318700D01*
X162966400Y-128219700D02*
X159156400Y-124409700D01*
X162966400Y-129844800D02*
X162966400Y-128219700D01*
X126132100Y-151384000D02*
X121920000Y-151384000D01*
X126182900Y-151333200D02*
X126132100Y-151384000D01*
X127508000Y-151333200D02*
X126182900Y-151333200D01*
X144272000Y-151333200D02*
X145597100Y-151333200D01*
X147688700Y-150588600D02*
X146710400Y-150588600D01*
X148433300Y-151333200D02*
X147688700Y-150588600D01*
X146341700Y-150588600D02*
X145597100Y-151333200D01*
X146710400Y-150588600D02*
X146341700Y-150588600D01*
X149758400Y-151333200D02*
X148433300Y-151333200D01*
X181711600Y-132638800D02*
X181711600Y-134263900D01*
X169956800Y-139039600D02*
X171196000Y-137800400D01*
X167030400Y-139039600D02*
X169956800Y-139039600D01*
X178175100Y-137800400D02*
X181711600Y-134263900D01*
X171196000Y-137800400D02*
X178175100Y-137800400D01*
X194665600Y-151434800D02*
X193340500Y-151434800D01*
X191871600Y-140258800D02*
X191871600Y-150639400D01*
X191248900Y-150639400D02*
X191871600Y-150639400D01*
X190504300Y-151384000D02*
X191248900Y-150639400D01*
X192545100Y-150639400D02*
X193340500Y-151434800D01*
X191871600Y-150639400D02*
X192545100Y-150639400D01*
X189179200Y-151384000D02*
X190504300Y-151384000D01*
X119037400Y-150003700D02*
X120539700Y-150003700D01*
X117707900Y-151333200D02*
X119037400Y-150003700D01*
X121920000Y-151384000D02*
X120539700Y-150003700D01*
X116382800Y-151333200D02*
X117707900Y-151333200D01*
X137769100Y-131013700D02*
X136550400Y-131013700D01*
X139446000Y-129336800D02*
X137769100Y-131013700D01*
X136550400Y-132638800D02*
X136550400Y-131013700D01*
X136550400Y-130074800D02*
X136550400Y-131013700D01*
X134772400Y-128296800D02*
X136550400Y-130074800D01*
X158352400Y-149855500D02*
X159812300Y-149855500D01*
X156874700Y-151333200D02*
X158352400Y-149855500D01*
X161188400Y-151231600D02*
X159812300Y-149855500D01*
X159812300Y-140822100D02*
X160223200Y-140411200D01*
X159812300Y-149855500D02*
X159812300Y-140822100D01*
X155549600Y-151333200D02*
X156874700Y-151333200D01*
X120539700Y-140449500D02*
X120628800Y-140360400D01*
X120539700Y-150003700D02*
X120539700Y-140449500D01*
X120628800Y-140360400D02*
X123138000Y-137851200D01*
X123138000Y-137851200D02*
X126085600Y-137851200D01*
X120628800Y-127596700D02*
X120628800Y-133860400D01*
X118840900Y-125808800D02*
X120628800Y-127596700D01*
X123138000Y-136369600D02*
X123138000Y-137851200D01*
X120628800Y-133860400D02*
X123138000Y-136369600D01*
X128883900Y-151384000D02*
X128833100Y-151333200D01*
X133096000Y-151384000D02*
X128883900Y-151384000D01*
X127508000Y-151333200D02*
X128833100Y-151333200D01*
X146710400Y-140258800D02*
X146710400Y-150588600D01*
X148905100Y-138633700D02*
X149860000Y-137678800D01*
X146710400Y-138633700D02*
X148905100Y-138633700D01*
X146710400Y-140258800D02*
X146710400Y-138633700D01*
X168304700Y-151333200D02*
X168253900Y-151384000D01*
X172466000Y-151333200D02*
X168304700Y-151333200D01*
X166928800Y-151384000D02*
X168253900Y-151384000D01*
%TD*%
%TA.AperFunction,Conductor*%
%TO.N,GND*%
G36*
X160510474Y-114659249D02*
G01*
X161079750Y-114918489D01*
X161107789Y-114936120D01*
X161794311Y-115508886D01*
X161833178Y-115566948D01*
X161834483Y-115636805D01*
X161797814Y-115696279D01*
X161734812Y-115726487D01*
X161714874Y-115728100D01*
X156997981Y-115728100D01*
X156930942Y-115708415D01*
X156897663Y-115676985D01*
X156846369Y-115606384D01*
X156701613Y-115461628D01*
X156536013Y-115341315D01*
X156536012Y-115341314D01*
X156536010Y-115341313D01*
X156479053Y-115312291D01*
X156353623Y-115248381D01*
X156158934Y-115185122D01*
X155984395Y-115157478D01*
X155956752Y-115153100D01*
X155752048Y-115153100D01*
X155727729Y-115156951D01*
X155549865Y-115185122D01*
X155355176Y-115248381D01*
X155172786Y-115341315D01*
X155007186Y-115461628D01*
X154862428Y-115606386D01*
X154742115Y-115771986D01*
X154649181Y-115954376D01*
X154585922Y-116149065D01*
X154553900Y-116351248D01*
X154553900Y-116555951D01*
X154585922Y-116758134D01*
X154649181Y-116952823D01*
X154697893Y-117048424D01*
X154723014Y-117097727D01*
X154742115Y-117135213D01*
X154862428Y-117300813D01*
X155007186Y-117445571D01*
X155172785Y-117565884D01*
X155172787Y-117565885D01*
X155172790Y-117565887D01*
X155226778Y-117593395D01*
X155277574Y-117641369D01*
X155294369Y-117709190D01*
X155271832Y-117775325D01*
X155226778Y-117814365D01*
X155173044Y-117841743D01*
X155128477Y-117874123D01*
X155128477Y-117874124D01*
X155807954Y-118553600D01*
X155801739Y-118553600D01*
X155700006Y-118580859D01*
X155608794Y-118633520D01*
X155534320Y-118707994D01*
X155481659Y-118799206D01*
X155454400Y-118900939D01*
X155454400Y-118907153D01*
X154774924Y-118227677D01*
X154774923Y-118227677D01*
X154742543Y-118272244D01*
X154649644Y-118454568D01*
X154586409Y-118649182D01*
X154554400Y-118851282D01*
X154554400Y-119055917D01*
X154586409Y-119258017D01*
X154649644Y-119452631D01*
X154742542Y-119634952D01*
X154773320Y-119677315D01*
X154796800Y-119743121D01*
X154780975Y-119811175D01*
X154730869Y-119859870D01*
X154673002Y-119874200D01*
X152650174Y-119874200D01*
X152620733Y-119865555D01*
X152590747Y-119859032D01*
X152585731Y-119855277D01*
X152583135Y-119854515D01*
X152562493Y-119837881D01*
X152450072Y-119725460D01*
X152416587Y-119664137D01*
X152421571Y-119594445D01*
X152463443Y-119538512D01*
X152464860Y-119537466D01*
X152474736Y-119530288D01*
X151833302Y-118888854D01*
X151852504Y-118894000D01*
X151931496Y-118894000D01*
X152007796Y-118873556D01*
X152076205Y-118834060D01*
X152132060Y-118778205D01*
X152171556Y-118709796D01*
X152192000Y-118633496D01*
X152192000Y-118554504D01*
X152186854Y-118535301D01*
X152828289Y-119176736D01*
X152832803Y-119170525D01*
X152911408Y-119016257D01*
X152964914Y-118851584D01*
X152992000Y-118680571D01*
X152992000Y-118507428D01*
X152964914Y-118336415D01*
X152911407Y-118171740D01*
X152836054Y-118023854D01*
X152823157Y-117955185D01*
X152840997Y-117902465D01*
X152926814Y-117763334D01*
X152981999Y-117596797D01*
X152992500Y-117494009D01*
X152992499Y-116693992D01*
X152981999Y-116591203D01*
X152926814Y-116424666D01*
X152834712Y-116275344D01*
X152710656Y-116151288D01*
X152561334Y-116059186D01*
X152394797Y-116004001D01*
X152394795Y-116004000D01*
X152292010Y-115993500D01*
X151491998Y-115993500D01*
X151491980Y-115993501D01*
X151389203Y-116004000D01*
X151389200Y-116004001D01*
X151222668Y-116059185D01*
X151222663Y-116059187D01*
X151073342Y-116151289D01*
X150949289Y-116275342D01*
X150857187Y-116424663D01*
X150857186Y-116424666D01*
X150802001Y-116591203D01*
X150802001Y-116591204D01*
X150802000Y-116591204D01*
X150791500Y-116693983D01*
X150791500Y-117494001D01*
X150791501Y-117494019D01*
X150802000Y-117596796D01*
X150802001Y-117596797D01*
X150857185Y-117763331D01*
X150857189Y-117763340D01*
X150894597Y-117823988D01*
X150913037Y-117891380D01*
X150892114Y-117958044D01*
X150838472Y-118002813D01*
X150769141Y-118011474D01*
X150706134Y-117981277D01*
X150701377Y-117976765D01*
X148848083Y-116123470D01*
X148848082Y-116123469D01*
X148731429Y-116045525D01*
X148729253Y-116044071D01*
X148720943Y-116040629D01*
X148597220Y-115989381D01*
X148597214Y-115989379D01*
X148457057Y-115961500D01*
X148457055Y-115961500D01*
X142611145Y-115961500D01*
X142611143Y-115961500D01*
X142470985Y-115989379D01*
X142470979Y-115989381D01*
X142338947Y-116044070D01*
X142220117Y-116123469D01*
X141734805Y-116608781D01*
X141673482Y-116642266D01*
X141647124Y-116645100D01*
X140223629Y-116645100D01*
X140223623Y-116645101D01*
X140164016Y-116651508D01*
X140029171Y-116701802D01*
X140029164Y-116701806D01*
X139913955Y-116788052D01*
X139913952Y-116788055D01*
X139827706Y-116903264D01*
X139827702Y-116903271D01*
X139777408Y-117038117D01*
X139774738Y-117062958D01*
X139771000Y-117097727D01*
X139771000Y-118142697D01*
X139771001Y-119070000D01*
X139751316Y-119137039D01*
X139698513Y-119182794D01*
X139647001Y-119194000D01*
X139439443Y-119194000D01*
X139299285Y-119221879D01*
X139299279Y-119221881D01*
X139167248Y-119276570D01*
X139048417Y-119355969D01*
X135278269Y-123126117D01*
X135221169Y-123211573D01*
X135221170Y-123211574D01*
X135198870Y-123244948D01*
X135144181Y-123376979D01*
X135144179Y-123376985D01*
X135116300Y-123517142D01*
X135116300Y-123637725D01*
X135096615Y-123704764D01*
X135079981Y-123725406D01*
X132077938Y-126727448D01*
X132016615Y-126760933D01*
X131946923Y-126755949D01*
X131890990Y-126714077D01*
X131866573Y-126648613D01*
X131868639Y-126615580D01*
X131922047Y-126347085D01*
X131962500Y-125936357D01*
X131962500Y-125523643D01*
X131922047Y-125112915D01*
X131910183Y-125053269D01*
X131841535Y-124708151D01*
X131841532Y-124708140D01*
X131841531Y-124708137D01*
X131841530Y-124708131D01*
X131721726Y-124313187D01*
X131563787Y-123931889D01*
X131543148Y-123893277D01*
X131369240Y-123567918D01*
X131369239Y-123567916D01*
X131369234Y-123567907D01*
X131139942Y-123224747D01*
X130878119Y-122905714D01*
X130878118Y-122905713D01*
X130878114Y-122905708D01*
X130586291Y-122613885D01*
X130267258Y-122352062D01*
X130267257Y-122352061D01*
X130267253Y-122352058D01*
X129924093Y-122122766D01*
X129924088Y-122122763D01*
X129924081Y-122122759D01*
X129560118Y-121928216D01*
X129560113Y-121928214D01*
X129513929Y-121909084D01*
X129358136Y-121844552D01*
X129178814Y-121770274D01*
X128783859Y-121650467D01*
X128783848Y-121650464D01*
X128379084Y-121569952D01*
X128069741Y-121539485D01*
X127968357Y-121529500D01*
X127555643Y-121529500D01*
X127461966Y-121538726D01*
X127144915Y-121569952D01*
X126740151Y-121650464D01*
X126740140Y-121650467D01*
X126345185Y-121770274D01*
X125963886Y-121928214D01*
X125963881Y-121928216D01*
X125599918Y-122122759D01*
X125599900Y-122122770D01*
X125256755Y-122352052D01*
X125256741Y-122352062D01*
X124937708Y-122613885D01*
X124645885Y-122905708D01*
X124384062Y-123224741D01*
X124384052Y-123224755D01*
X124154770Y-123567900D01*
X124154759Y-123567918D01*
X123960216Y-123931881D01*
X123960214Y-123931886D01*
X123802274Y-124313185D01*
X123682467Y-124708140D01*
X123682464Y-124708151D01*
X123601952Y-125112915D01*
X123582530Y-125310116D01*
X123561500Y-125523643D01*
X123561500Y-125936357D01*
X123565616Y-125978144D01*
X123601952Y-126347084D01*
X123682464Y-126751848D01*
X123682467Y-126751859D01*
X123802274Y-127146814D01*
X123902347Y-127388411D01*
X123954185Y-127513559D01*
X123960214Y-127528113D01*
X123960216Y-127528118D01*
X124154759Y-127892081D01*
X124154763Y-127892088D01*
X124154766Y-127892093D01*
X124328723Y-128152439D01*
X124384052Y-128235244D01*
X124384062Y-128235258D01*
X124645885Y-128554291D01*
X124937708Y-128846114D01*
X124937713Y-128846118D01*
X124937714Y-128846119D01*
X125256747Y-129107942D01*
X125599907Y-129337234D01*
X125599916Y-129337239D01*
X125599918Y-129337240D01*
X125963881Y-129531783D01*
X125963883Y-129531783D01*
X125963889Y-129531787D01*
X126345187Y-129689726D01*
X126740131Y-129809530D01*
X126740137Y-129809531D01*
X126740140Y-129809532D01*
X126740151Y-129809535D01*
X127123212Y-129885730D01*
X127144915Y-129890047D01*
X127555643Y-129930500D01*
X127555646Y-129930500D01*
X127968354Y-129930500D01*
X127968357Y-129930500D01*
X128379085Y-129890047D01*
X128647577Y-129836640D01*
X128717167Y-129842867D01*
X128772344Y-129885730D01*
X128795589Y-129951620D01*
X128779521Y-130019617D01*
X128759448Y-130045938D01*
X128366872Y-130438514D01*
X128366866Y-130438521D01*
X128322507Y-130504911D01*
X128322507Y-130504912D01*
X128304989Y-130531129D01*
X128287471Y-130557346D01*
X128287469Y-130557349D01*
X128232781Y-130689379D01*
X128232779Y-130689385D01*
X128204900Y-130829542D01*
X128204900Y-131095219D01*
X128185215Y-131162258D01*
X128153787Y-131195535D01*
X128105461Y-131230647D01*
X128083178Y-131246836D01*
X127938428Y-131391586D01*
X127818115Y-131557186D01*
X127725181Y-131739576D01*
X127661922Y-131934265D01*
X127634154Y-132109590D01*
X127629900Y-132136448D01*
X127629900Y-133141152D01*
X127634278Y-133168795D01*
X127661922Y-133343334D01*
X127672563Y-133376081D01*
X127674558Y-133445923D01*
X127638478Y-133505756D01*
X127575777Y-133536584D01*
X127554632Y-133538400D01*
X127101443Y-133538400D01*
X126994973Y-133559579D01*
X126988498Y-133560867D01*
X126968037Y-133564936D01*
X126961279Y-133566281D01*
X126829247Y-133620970D01*
X126710417Y-133700369D01*
X126381226Y-134029560D01*
X126319903Y-134063045D01*
X126274147Y-134064352D01*
X126197984Y-134052289D01*
X126187952Y-134050700D01*
X125983248Y-134050700D01*
X125973216Y-134052289D01*
X125781065Y-134082722D01*
X125586376Y-134145981D01*
X125403986Y-134238915D01*
X125238386Y-134359228D01*
X125093628Y-134503986D01*
X124973315Y-134669586D01*
X124880381Y-134851976D01*
X124817122Y-135046665D01*
X124785100Y-135248848D01*
X124785100Y-135453551D01*
X124817122Y-135655734D01*
X124880381Y-135850423D01*
X124973315Y-136032813D01*
X125093628Y-136198413D01*
X125238386Y-136343171D01*
X125403985Y-136463484D01*
X125403987Y-136463485D01*
X125403990Y-136463487D01*
X125457978Y-136490995D01*
X125508774Y-136538969D01*
X125525569Y-136606790D01*
X125503032Y-136672925D01*
X125457978Y-136711965D01*
X125404244Y-136739343D01*
X125359677Y-136771723D01*
X125359677Y-136771724D01*
X126039154Y-137451200D01*
X126032939Y-137451200D01*
X125931206Y-137478459D01*
X125839994Y-137531120D01*
X125765520Y-137605594D01*
X125712859Y-137696806D01*
X125685600Y-137798539D01*
X125685600Y-137804753D01*
X125006124Y-137125277D01*
X125006123Y-137125277D01*
X124973743Y-137169844D01*
X124880844Y-137352168D01*
X124817609Y-137546782D01*
X124785600Y-137748882D01*
X124785600Y-137953517D01*
X124817609Y-138155617D01*
X124880844Y-138350231D01*
X124973741Y-138532550D01*
X124973747Y-138532559D01*
X125006123Y-138577121D01*
X125006124Y-138577122D01*
X125685600Y-137897646D01*
X125685600Y-137903861D01*
X125712859Y-138005594D01*
X125765520Y-138096806D01*
X125839994Y-138171280D01*
X125931206Y-138223941D01*
X126032939Y-138251200D01*
X126039153Y-138251200D01*
X125359676Y-138930674D01*
X125404250Y-138963059D01*
X125586568Y-139055955D01*
X125781182Y-139119190D01*
X125983283Y-139151200D01*
X126187917Y-139151200D01*
X126301810Y-139133161D01*
X126390017Y-139119190D01*
X126584631Y-139055955D01*
X126766949Y-138963059D01*
X126811521Y-138930674D01*
X126132047Y-138251200D01*
X126138261Y-138251200D01*
X126239994Y-138223941D01*
X126331206Y-138171280D01*
X126405680Y-138096806D01*
X126458341Y-138005594D01*
X126485600Y-137903861D01*
X126485600Y-137897647D01*
X127165074Y-138577121D01*
X127197459Y-138532549D01*
X127290355Y-138350231D01*
X127353590Y-138155617D01*
X127385600Y-137953517D01*
X127385600Y-137748882D01*
X127353590Y-137546782D01*
X127290355Y-137352168D01*
X127197459Y-137169850D01*
X127165074Y-137125277D01*
X127165074Y-137125276D01*
X126485600Y-137804751D01*
X126485600Y-137798539D01*
X126458341Y-137696806D01*
X126405680Y-137605594D01*
X126331206Y-137531120D01*
X126239994Y-137478459D01*
X126138261Y-137451200D01*
X126132046Y-137451200D01*
X126811522Y-136771724D01*
X126811521Y-136771723D01*
X126766959Y-136739347D01*
X126766950Y-136739341D01*
X126713221Y-136711965D01*
X126662425Y-136663991D01*
X126645630Y-136596170D01*
X126668167Y-136530035D01*
X126713221Y-136490995D01*
X126767210Y-136463487D01*
X126863797Y-136393313D01*
X126932813Y-136343171D01*
X126932815Y-136343168D01*
X126932819Y-136343166D01*
X127077566Y-136198419D01*
X127077568Y-136198415D01*
X127077571Y-136198413D01*
X127179621Y-136057951D01*
X127197887Y-136032810D01*
X127290820Y-135850419D01*
X127354077Y-135655734D01*
X127386100Y-135453552D01*
X127386100Y-135248848D01*
X127372447Y-135162651D01*
X127373148Y-135157225D01*
X127371236Y-135152098D01*
X127377577Y-135122948D01*
X127381401Y-135093360D01*
X127385234Y-135087753D01*
X127386089Y-135083825D01*
X127407240Y-135055571D01*
X127437095Y-135025717D01*
X127498419Y-134992233D01*
X127524775Y-134989400D01*
X129001857Y-134989400D01*
X129096151Y-134970642D01*
X129142020Y-134961519D01*
X129274053Y-134906829D01*
X129392879Y-134827432D01*
X129493932Y-134726379D01*
X129573329Y-134607553D01*
X129628019Y-134475520D01*
X129651150Y-134359234D01*
X129655900Y-134335357D01*
X129655900Y-134182380D01*
X129675585Y-134115341D01*
X129707014Y-134082062D01*
X129777619Y-134030766D01*
X129922366Y-133886019D01*
X129922368Y-133886015D01*
X129922371Y-133886013D01*
X130042684Y-133720414D01*
X130042686Y-133720411D01*
X130042687Y-133720410D01*
X130089916Y-133627717D01*
X130137889Y-133576923D01*
X130205710Y-133560128D01*
X130271845Y-133582665D01*
X130310883Y-133627717D01*
X130334067Y-133673217D01*
X130358115Y-133720414D01*
X130478428Y-133886013D01*
X130623186Y-134030771D01*
X130769939Y-134137391D01*
X130788790Y-134151087D01*
X130881074Y-134198108D01*
X130971176Y-134244018D01*
X130971178Y-134244018D01*
X130971181Y-134244020D01*
X131075537Y-134277927D01*
X131165865Y-134307277D01*
X131266957Y-134323288D01*
X131368048Y-134339300D01*
X131368049Y-134339300D01*
X131572751Y-134339300D01*
X131572752Y-134339300D01*
X131774934Y-134307277D01*
X131969619Y-134244020D01*
X132152010Y-134151087D01*
X132257787Y-134074236D01*
X132317613Y-134030771D01*
X132317615Y-134030768D01*
X132317619Y-134030766D01*
X132462366Y-133886019D01*
X132462368Y-133886015D01*
X132462371Y-133886013D01*
X132582684Y-133720414D01*
X132582686Y-133720411D01*
X132582687Y-133720410D01*
X132629916Y-133627717D01*
X132677889Y-133576923D01*
X132745710Y-133560128D01*
X132811845Y-133582665D01*
X132850883Y-133627717D01*
X132874067Y-133673217D01*
X132898115Y-133720414D01*
X133018428Y-133886013D01*
X133163186Y-134030771D01*
X133309939Y-134137391D01*
X133328790Y-134151087D01*
X133421074Y-134198108D01*
X133511176Y-134244018D01*
X133511178Y-134244018D01*
X133511181Y-134244020D01*
X133615537Y-134277927D01*
X133705865Y-134307277D01*
X133806957Y-134323288D01*
X133908048Y-134339300D01*
X133908049Y-134339300D01*
X134112751Y-134339300D01*
X134112752Y-134339300D01*
X134314934Y-134307277D01*
X134509619Y-134244020D01*
X134692010Y-134151087D01*
X134797787Y-134074236D01*
X134857613Y-134030771D01*
X134857615Y-134030768D01*
X134857619Y-134030766D01*
X135002366Y-133886019D01*
X135002368Y-133886015D01*
X135002371Y-133886013D01*
X135122684Y-133720414D01*
X135122686Y-133720411D01*
X135122687Y-133720410D01*
X135170195Y-133627169D01*
X135218170Y-133576374D01*
X135285991Y-133559579D01*
X135352125Y-133582116D01*
X135391165Y-133627170D01*
X135438540Y-133720149D01*
X135558817Y-133885694D01*
X135558817Y-133885695D01*
X135703504Y-134030382D01*
X135869050Y-134150659D01*
X136051368Y-134243554D01*
X136245978Y-134306788D01*
X136300400Y-134315407D01*
X136300400Y-132954486D01*
X136304794Y-132958880D01*
X136396006Y-133011541D01*
X136497739Y-133038800D01*
X136603061Y-133038800D01*
X136704794Y-133011541D01*
X136796006Y-132958880D01*
X136800400Y-132954486D01*
X136800400Y-134315406D01*
X136854821Y-134306788D01*
X137049431Y-134243554D01*
X137231749Y-134150659D01*
X137397294Y-134030382D01*
X137397295Y-134030382D01*
X137541982Y-133885695D01*
X137541982Y-133885694D01*
X137662261Y-133720147D01*
X137709634Y-133627171D01*
X137757608Y-133576375D01*
X137825428Y-133559579D01*
X137891564Y-133582116D01*
X137930603Y-133627169D01*
X137978113Y-133720411D01*
X138098428Y-133886013D01*
X138098434Y-133886019D01*
X138243181Y-134030766D01*
X138408790Y-134151087D01*
X138408798Y-134151091D01*
X138409576Y-134151568D01*
X138409811Y-134151827D01*
X138412732Y-134153950D01*
X138412286Y-134154563D01*
X138456455Y-134203376D01*
X138466411Y-134233108D01*
X138488935Y-134346346D01*
X138488940Y-134346361D01*
X138536085Y-134460181D01*
X138536088Y-134460186D01*
X138560814Y-134497190D01*
X138604542Y-134562633D01*
X138691667Y-134649758D01*
X138691669Y-134649759D01*
X138702048Y-134660138D01*
X140976563Y-136934655D01*
X140976567Y-136934658D01*
X141079010Y-137003109D01*
X141079011Y-137003109D01*
X141079015Y-137003112D01*
X141145697Y-137030732D01*
X141192848Y-137050263D01*
X141211188Y-137053911D01*
X141248857Y-137061403D01*
X141313691Y-137074301D01*
X141313694Y-137074301D01*
X141443021Y-137074301D01*
X141443041Y-137074300D01*
X148518842Y-137074300D01*
X148585881Y-137093985D01*
X148631636Y-137146789D01*
X148641580Y-137215947D01*
X148636773Y-137236619D01*
X148592009Y-137374382D01*
X148560000Y-137576482D01*
X148560000Y-137781117D01*
X148592009Y-137983217D01*
X148655244Y-138177831D01*
X148748141Y-138360150D01*
X148748147Y-138360159D01*
X148780523Y-138404721D01*
X148780524Y-138404722D01*
X149460000Y-137725246D01*
X149460000Y-137731461D01*
X149487259Y-137833194D01*
X149539920Y-137924406D01*
X149614394Y-137998880D01*
X149705606Y-138051541D01*
X149807339Y-138078800D01*
X149813553Y-138078800D01*
X149134076Y-138758274D01*
X149178650Y-138790659D01*
X149360968Y-138883555D01*
X149555582Y-138946790D01*
X149757683Y-138978800D01*
X149962317Y-138978800D01*
X150164417Y-138946790D01*
X150359031Y-138883555D01*
X150541349Y-138790659D01*
X150585921Y-138758274D01*
X149906447Y-138078800D01*
X149912661Y-138078800D01*
X150014394Y-138051541D01*
X150105606Y-137998880D01*
X150180080Y-137924406D01*
X150232741Y-137833194D01*
X150260000Y-137731461D01*
X150260000Y-137725247D01*
X150939474Y-138404721D01*
X150971859Y-138360149D01*
X151064755Y-138177831D01*
X151127990Y-137983217D01*
X151160000Y-137781117D01*
X151160000Y-137611952D01*
X151179685Y-137544913D01*
X151232489Y-137499158D01*
X151301647Y-137489214D01*
X151365203Y-137518239D01*
X151371681Y-137524271D01*
X152746429Y-138899019D01*
X152779914Y-138960342D01*
X152774930Y-139030034D01*
X152733058Y-139085967D01*
X152667594Y-139110384D01*
X152658748Y-139110700D01*
X152003198Y-139110700D01*
X152003180Y-139110701D01*
X151900403Y-139121200D01*
X151900400Y-139121201D01*
X151733868Y-139176385D01*
X151733863Y-139176387D01*
X151584542Y-139268489D01*
X151460489Y-139392542D01*
X151368387Y-139541863D01*
X151368385Y-139541868D01*
X151346609Y-139607584D01*
X151313201Y-139708403D01*
X151313201Y-139708404D01*
X151313200Y-139708404D01*
X151302700Y-139811183D01*
X151302700Y-141011201D01*
X151302701Y-141011218D01*
X151313200Y-141113996D01*
X151313201Y-141113999D01*
X151357330Y-141247170D01*
X151368386Y-141280534D01*
X151460488Y-141429856D01*
X151584544Y-141553912D01*
X151733866Y-141646014D01*
X151900403Y-141701199D01*
X152003191Y-141711700D01*
X153203208Y-141711699D01*
X153305997Y-141701199D01*
X153472534Y-141646014D01*
X153621856Y-141553912D01*
X153745912Y-141429856D01*
X153838014Y-141280534D01*
X153865155Y-141198627D01*
X153904926Y-141141184D01*
X153969442Y-141114361D01*
X154038218Y-141126676D01*
X154083177Y-141164747D01*
X154110328Y-141202116D01*
X154151234Y-141258419D01*
X154295986Y-141403171D01*
X154416426Y-141490674D01*
X154461590Y-141523487D01*
X154577807Y-141582703D01*
X154643976Y-141616418D01*
X154643978Y-141616418D01*
X154643981Y-141616420D01*
X154728073Y-141643743D01*
X154838665Y-141679677D01*
X154939757Y-141695688D01*
X155040848Y-141711700D01*
X155040849Y-141711700D01*
X155245551Y-141711700D01*
X155245552Y-141711700D01*
X155447734Y-141679677D01*
X155642419Y-141616420D01*
X155824810Y-141523487D01*
X155917790Y-141455932D01*
X155990413Y-141403171D01*
X155990415Y-141403168D01*
X155990419Y-141403166D01*
X156135166Y-141258419D01*
X156135168Y-141258415D01*
X156135171Y-141258413D01*
X156255484Y-141092814D01*
X156255486Y-141092811D01*
X156255487Y-141092810D01*
X156302716Y-141000117D01*
X156350689Y-140949323D01*
X156418510Y-140932528D01*
X156484645Y-140955065D01*
X156523683Y-141000117D01*
X156529340Y-141011218D01*
X156570915Y-141092814D01*
X156691228Y-141258413D01*
X156835986Y-141403171D01*
X156956426Y-141490674D01*
X157001590Y-141523487D01*
X157117807Y-141582703D01*
X157183976Y-141616418D01*
X157183978Y-141616418D01*
X157183981Y-141616420D01*
X157268073Y-141643743D01*
X157378665Y-141679677D01*
X157479757Y-141695688D01*
X157580848Y-141711700D01*
X157580849Y-141711700D01*
X157785551Y-141711700D01*
X157785552Y-141711700D01*
X157987734Y-141679677D01*
X158182419Y-141616420D01*
X158364810Y-141523487D01*
X158457790Y-141455932D01*
X158530413Y-141403171D01*
X158530415Y-141403168D01*
X158530419Y-141403166D01*
X158675166Y-141258419D01*
X158675168Y-141258415D01*
X158675171Y-141258413D01*
X158780094Y-141113997D01*
X158795487Y-141092810D01*
X158842995Y-140999569D01*
X158890969Y-140948773D01*
X158958790Y-140931978D01*
X159024925Y-140954515D01*
X159063965Y-140999569D01*
X159111341Y-141092550D01*
X159111347Y-141092559D01*
X159143723Y-141137121D01*
X159143724Y-141137122D01*
X159823200Y-140457646D01*
X159823200Y-140463861D01*
X159850459Y-140565594D01*
X159903120Y-140656806D01*
X159977594Y-140731280D01*
X160068806Y-140783941D01*
X160170539Y-140811200D01*
X160176753Y-140811200D01*
X159497276Y-141490674D01*
X159541850Y-141523059D01*
X159724168Y-141615955D01*
X159918782Y-141679190D01*
X160120883Y-141711200D01*
X160325517Y-141711200D01*
X160527617Y-141679190D01*
X160722231Y-141615955D01*
X160904549Y-141523059D01*
X160949121Y-141490674D01*
X160269647Y-140811200D01*
X160275861Y-140811200D01*
X160377594Y-140783941D01*
X160468806Y-140731280D01*
X160543280Y-140656806D01*
X160595941Y-140565594D01*
X160623200Y-140463861D01*
X160623200Y-140457647D01*
X161302674Y-141137121D01*
X161335059Y-141092549D01*
X161427956Y-140910228D01*
X161449949Y-140842541D01*
X161489386Y-140784865D01*
X161553744Y-140757666D01*
X161622591Y-140769580D01*
X161636767Y-140777753D01*
X161653914Y-140789211D01*
X161767748Y-140836363D01*
X161888588Y-140860399D01*
X161888592Y-140860400D01*
X161888593Y-140860400D01*
X171057508Y-140860400D01*
X171057508Y-140860399D01*
X171128605Y-140846258D01*
X171178352Y-140836363D01*
X171211692Y-140822552D01*
X171292186Y-140789212D01*
X171343409Y-140754984D01*
X171394633Y-140720758D01*
X171481758Y-140633633D01*
X171481758Y-140633631D01*
X171491966Y-140623424D01*
X171491967Y-140623421D01*
X172579420Y-139535970D01*
X172640742Y-139502486D01*
X172710434Y-139507470D01*
X172766367Y-139549342D01*
X172790784Y-139614806D01*
X172791100Y-139623652D01*
X172791100Y-141258801D01*
X172791101Y-141258818D01*
X172801600Y-141361596D01*
X172801601Y-141361599D01*
X172824220Y-141429857D01*
X172856786Y-141528134D01*
X172948888Y-141677456D01*
X173072944Y-141801512D01*
X173222266Y-141893614D01*
X173388803Y-141948799D01*
X173491591Y-141959300D01*
X174691608Y-141959299D01*
X174794397Y-141948799D01*
X174960934Y-141893614D01*
X175110256Y-141801512D01*
X175234312Y-141677456D01*
X175326414Y-141528134D01*
X175353555Y-141446227D01*
X175393326Y-141388784D01*
X175457842Y-141361961D01*
X175526618Y-141374276D01*
X175571577Y-141412347D01*
X175597567Y-141448118D01*
X175639634Y-141506019D01*
X175784386Y-141650771D01*
X175922298Y-141750968D01*
X175949990Y-141771087D01*
X176053745Y-141823953D01*
X176132376Y-141864018D01*
X176132378Y-141864018D01*
X176132381Y-141864020D01*
X176223456Y-141893612D01*
X176327065Y-141927277D01*
X176428157Y-141943288D01*
X176529248Y-141959300D01*
X176529249Y-141959300D01*
X176733951Y-141959300D01*
X176733952Y-141959300D01*
X176936134Y-141927277D01*
X177130819Y-141864020D01*
X177313210Y-141771087D01*
X177439026Y-141679677D01*
X177478813Y-141650771D01*
X177478815Y-141650768D01*
X177478819Y-141650766D01*
X177623566Y-141506019D01*
X177623568Y-141506015D01*
X177623571Y-141506013D01*
X177743884Y-141340414D01*
X177743883Y-141340414D01*
X177743887Y-141340410D01*
X177791116Y-141247717D01*
X177839089Y-141196923D01*
X177906910Y-141180128D01*
X177973045Y-141202665D01*
X178012083Y-141247717D01*
X178017740Y-141258818D01*
X178059315Y-141340414D01*
X178179628Y-141506013D01*
X178324386Y-141650771D01*
X178462298Y-141750968D01*
X178489990Y-141771087D01*
X178593745Y-141823953D01*
X178672376Y-141864018D01*
X178672378Y-141864018D01*
X178672381Y-141864020D01*
X178763456Y-141893612D01*
X178867065Y-141927277D01*
X178968157Y-141943288D01*
X179069248Y-141959300D01*
X179069249Y-141959300D01*
X179273951Y-141959300D01*
X179273952Y-141959300D01*
X179476134Y-141927277D01*
X179670819Y-141864020D01*
X179853210Y-141771087D01*
X179979026Y-141679677D01*
X180018813Y-141650771D01*
X180018815Y-141650768D01*
X180018819Y-141650766D01*
X180163566Y-141506019D01*
X180163568Y-141506015D01*
X180163571Y-141506013D01*
X180283884Y-141340414D01*
X180283883Y-141340414D01*
X180283887Y-141340410D01*
X180331116Y-141247717D01*
X180379089Y-141196923D01*
X180446910Y-141180128D01*
X180513045Y-141202665D01*
X180552083Y-141247717D01*
X180557740Y-141258818D01*
X180599315Y-141340414D01*
X180719628Y-141506013D01*
X180864386Y-141650771D01*
X181002298Y-141750968D01*
X181029990Y-141771087D01*
X181133745Y-141823953D01*
X181212376Y-141864018D01*
X181212378Y-141864018D01*
X181212381Y-141864020D01*
X181303456Y-141893612D01*
X181407065Y-141927277D01*
X181508157Y-141943288D01*
X181609248Y-141959300D01*
X181609249Y-141959300D01*
X181813951Y-141959300D01*
X181813952Y-141959300D01*
X182016134Y-141927277D01*
X182210819Y-141864020D01*
X182393210Y-141771087D01*
X182519026Y-141679677D01*
X182558813Y-141650771D01*
X182558815Y-141650768D01*
X182558819Y-141650766D01*
X182703566Y-141506019D01*
X182703568Y-141506015D01*
X182703571Y-141506013D01*
X182823884Y-141340414D01*
X182823883Y-141340414D01*
X182823887Y-141340410D01*
X182871116Y-141247717D01*
X182919089Y-141196923D01*
X182986910Y-141180128D01*
X183053045Y-141202665D01*
X183092083Y-141247717D01*
X183097740Y-141258818D01*
X183139315Y-141340414D01*
X183259628Y-141506013D01*
X183404386Y-141650771D01*
X183542298Y-141750968D01*
X183569990Y-141771087D01*
X183673745Y-141823953D01*
X183752376Y-141864018D01*
X183752378Y-141864018D01*
X183752381Y-141864020D01*
X183843456Y-141893612D01*
X183947065Y-141927277D01*
X184048157Y-141943288D01*
X184149248Y-141959300D01*
X184149249Y-141959300D01*
X184353951Y-141959300D01*
X184353952Y-141959300D01*
X184556134Y-141927277D01*
X184750819Y-141864020D01*
X184933210Y-141771087D01*
X185059026Y-141679677D01*
X185098813Y-141650771D01*
X185098815Y-141650768D01*
X185098819Y-141650766D01*
X185243566Y-141506019D01*
X185243568Y-141506015D01*
X185243571Y-141506013D01*
X185363884Y-141340414D01*
X185363883Y-141340414D01*
X185363887Y-141340410D01*
X185411116Y-141247717D01*
X185459089Y-141196923D01*
X185526910Y-141180128D01*
X185593045Y-141202665D01*
X185632083Y-141247717D01*
X185637740Y-141258818D01*
X185679315Y-141340414D01*
X185799628Y-141506013D01*
X185944386Y-141650771D01*
X186082298Y-141750968D01*
X186109990Y-141771087D01*
X186213745Y-141823953D01*
X186292376Y-141864018D01*
X186292378Y-141864018D01*
X186292381Y-141864020D01*
X186383456Y-141893612D01*
X186487065Y-141927277D01*
X186588157Y-141943288D01*
X186689248Y-141959300D01*
X186689249Y-141959300D01*
X186893951Y-141959300D01*
X186893952Y-141959300D01*
X187096134Y-141927277D01*
X187290819Y-141864020D01*
X187473210Y-141771087D01*
X187599026Y-141679677D01*
X187638813Y-141650771D01*
X187638815Y-141650768D01*
X187638819Y-141650766D01*
X187783566Y-141506019D01*
X187783568Y-141506015D01*
X187783571Y-141506013D01*
X187903884Y-141340414D01*
X187903883Y-141340414D01*
X187903887Y-141340410D01*
X187951116Y-141247717D01*
X187999089Y-141196923D01*
X188066910Y-141180128D01*
X188133045Y-141202665D01*
X188172083Y-141247717D01*
X188177740Y-141258818D01*
X188219315Y-141340414D01*
X188339628Y-141506013D01*
X188484386Y-141650771D01*
X188622298Y-141750968D01*
X188649990Y-141771087D01*
X188753745Y-141823953D01*
X188832376Y-141864018D01*
X188832378Y-141864018D01*
X188832381Y-141864020D01*
X188923456Y-141893612D01*
X189027065Y-141927277D01*
X189128157Y-141943288D01*
X189229248Y-141959300D01*
X189229249Y-141959300D01*
X189433951Y-141959300D01*
X189433952Y-141959300D01*
X189636134Y-141927277D01*
X189830819Y-141864020D01*
X190013210Y-141771087D01*
X190139026Y-141679677D01*
X190178813Y-141650771D01*
X190178815Y-141650768D01*
X190178819Y-141650766D01*
X190323566Y-141506019D01*
X190323568Y-141506015D01*
X190323571Y-141506013D01*
X190443884Y-141340414D01*
X190443883Y-141340414D01*
X190443887Y-141340410D01*
X190491395Y-141247169D01*
X190539370Y-141196374D01*
X190607191Y-141179579D01*
X190673325Y-141202116D01*
X190712365Y-141247170D01*
X190759740Y-141340149D01*
X190880017Y-141505694D01*
X190880017Y-141505695D01*
X191024704Y-141650382D01*
X191190250Y-141770659D01*
X191372568Y-141863554D01*
X191567178Y-141926788D01*
X191621600Y-141935407D01*
X191621600Y-140574486D01*
X191625994Y-140578880D01*
X191717206Y-140631541D01*
X191818939Y-140658800D01*
X191924261Y-140658800D01*
X192025994Y-140631541D01*
X192117206Y-140578880D01*
X192121600Y-140574486D01*
X192121600Y-141935406D01*
X192176021Y-141926788D01*
X192370631Y-141863554D01*
X192552949Y-141770659D01*
X192718494Y-141650382D01*
X192718495Y-141650382D01*
X192863182Y-141505695D01*
X192863182Y-141505694D01*
X192983459Y-141340149D01*
X193076355Y-141157831D01*
X193139590Y-140963217D01*
X193171600Y-140761117D01*
X193171600Y-140508800D01*
X192187286Y-140508800D01*
X192191680Y-140504406D01*
X192244341Y-140413194D01*
X192271600Y-140311461D01*
X192271600Y-140206139D01*
X192244341Y-140104406D01*
X192191680Y-140013194D01*
X192187286Y-140008800D01*
X193171600Y-140008800D01*
X193171600Y-139756482D01*
X193139590Y-139554382D01*
X193076355Y-139359768D01*
X192983459Y-139177450D01*
X192863182Y-139011905D01*
X192863182Y-139011904D01*
X192718495Y-138867217D01*
X192552949Y-138746940D01*
X192370629Y-138654044D01*
X192176013Y-138590809D01*
X192121600Y-138582190D01*
X192121600Y-139943114D01*
X192117206Y-139938720D01*
X192025994Y-139886059D01*
X191924261Y-139858800D01*
X191818939Y-139858800D01*
X191717206Y-139886059D01*
X191625994Y-139938720D01*
X191621600Y-139943114D01*
X191621600Y-138582190D01*
X191567186Y-138590809D01*
X191372570Y-138654044D01*
X191190250Y-138746940D01*
X191024705Y-138867217D01*
X191024704Y-138867217D01*
X190880017Y-139011904D01*
X190880017Y-139011905D01*
X190759740Y-139177450D01*
X190712365Y-139270429D01*
X190664390Y-139321225D01*
X190596569Y-139338020D01*
X190530434Y-139315482D01*
X190491395Y-139270429D01*
X190472116Y-139232593D01*
X190443887Y-139177190D01*
X190421144Y-139145887D01*
X190323571Y-139011586D01*
X190178813Y-138866828D01*
X190013213Y-138746515D01*
X190013212Y-138746514D01*
X190013210Y-138746513D01*
X189953498Y-138716088D01*
X189830823Y-138653581D01*
X189636134Y-138590322D01*
X189461595Y-138562678D01*
X189433952Y-138558300D01*
X189229248Y-138558300D01*
X189204929Y-138562151D01*
X189027065Y-138590322D01*
X188832376Y-138653581D01*
X188649986Y-138746515D01*
X188484386Y-138866828D01*
X188339628Y-139011586D01*
X188219315Y-139177186D01*
X188172085Y-139269880D01*
X188124110Y-139320676D01*
X188056289Y-139337471D01*
X187990154Y-139314934D01*
X187951115Y-139269880D01*
X187945461Y-139258783D01*
X187903887Y-139177190D01*
X187881144Y-139145887D01*
X187783571Y-139011586D01*
X187638813Y-138866828D01*
X187473213Y-138746515D01*
X187473212Y-138746514D01*
X187473210Y-138746513D01*
X187413498Y-138716088D01*
X187290823Y-138653581D01*
X187096134Y-138590322D01*
X186921595Y-138562678D01*
X186893952Y-138558300D01*
X186689248Y-138558300D01*
X186664929Y-138562151D01*
X186487065Y-138590322D01*
X186292376Y-138653581D01*
X186109986Y-138746515D01*
X185944386Y-138866828D01*
X185799628Y-139011586D01*
X185679315Y-139177186D01*
X185632085Y-139269880D01*
X185584110Y-139320676D01*
X185516289Y-139337471D01*
X185450154Y-139314934D01*
X185411115Y-139269880D01*
X185405461Y-139258783D01*
X185363887Y-139177190D01*
X185341144Y-139145887D01*
X185243571Y-139011586D01*
X185098813Y-138866828D01*
X184933213Y-138746515D01*
X184933212Y-138746514D01*
X184933210Y-138746513D01*
X184873498Y-138716088D01*
X184750823Y-138653581D01*
X184556134Y-138590322D01*
X184381595Y-138562678D01*
X184353952Y-138558300D01*
X184149248Y-138558300D01*
X184124929Y-138562151D01*
X183947065Y-138590322D01*
X183752376Y-138653581D01*
X183569986Y-138746515D01*
X183404386Y-138866828D01*
X183259628Y-139011586D01*
X183139315Y-139177186D01*
X183092085Y-139269880D01*
X183044110Y-139320676D01*
X182976289Y-139337471D01*
X182910154Y-139314934D01*
X182871115Y-139269880D01*
X182865461Y-139258783D01*
X182823887Y-139177190D01*
X182801144Y-139145887D01*
X182703571Y-139011586D01*
X182558813Y-138866828D01*
X182393213Y-138746515D01*
X182393212Y-138746514D01*
X182393210Y-138746513D01*
X182333498Y-138716088D01*
X182210823Y-138653581D01*
X182016134Y-138590322D01*
X181841595Y-138562678D01*
X181813952Y-138558300D01*
X181609248Y-138558300D01*
X181584929Y-138562151D01*
X181407065Y-138590322D01*
X181212376Y-138653581D01*
X181029986Y-138746515D01*
X180864386Y-138866828D01*
X180719628Y-139011586D01*
X180599315Y-139177186D01*
X180552085Y-139269880D01*
X180544394Y-139278023D01*
X180540417Y-139288493D01*
X180520832Y-139302970D01*
X180504110Y-139320676D01*
X180493238Y-139323368D01*
X180484232Y-139330026D01*
X180459928Y-139331616D01*
X180436289Y-139337471D01*
X180425687Y-139333858D01*
X180414511Y-139334590D01*
X180393206Y-139322789D01*
X180370154Y-139314934D01*
X180361598Y-139305282D01*
X180353391Y-139300736D01*
X180335052Y-139275333D01*
X180332411Y-139272354D01*
X180331746Y-139271119D01*
X180283887Y-139177190D01*
X180273483Y-139162870D01*
X180269521Y-139155509D01*
X180263958Y-139129171D01*
X180254912Y-139103815D01*
X180256845Y-139095499D01*
X180255082Y-139087148D01*
X180264641Y-139061982D01*
X180270740Y-139035761D01*
X180278462Y-139025597D01*
X180279893Y-139021832D01*
X180283157Y-139019419D01*
X180291025Y-139009063D01*
X184650329Y-134649760D01*
X184650333Y-134649758D01*
X184737458Y-134562633D01*
X184805911Y-134460186D01*
X184805912Y-134460185D01*
X184805914Y-134460181D01*
X184805915Y-134460179D01*
X184826533Y-134410400D01*
X184853063Y-134346351D01*
X184875588Y-134233109D01*
X184907972Y-134171198D01*
X184929338Y-134154046D01*
X184929268Y-134153950D01*
X184931271Y-134152494D01*
X184932433Y-134151562D01*
X184933194Y-134151094D01*
X184933210Y-134151087D01*
X185098819Y-134030766D01*
X185243566Y-133886019D01*
X185243568Y-133886015D01*
X185243571Y-133886013D01*
X185363884Y-133720414D01*
X185363886Y-133720411D01*
X185363887Y-133720410D01*
X185411116Y-133627717D01*
X185459089Y-133576923D01*
X185526910Y-133560128D01*
X185593045Y-133582665D01*
X185632083Y-133627717D01*
X185655267Y-133673217D01*
X185679315Y-133720414D01*
X185799628Y-133886013D01*
X185944386Y-134030771D01*
X186091139Y-134137391D01*
X186109990Y-134151087D01*
X186202274Y-134198108D01*
X186292376Y-134244018D01*
X186292378Y-134244018D01*
X186292381Y-134244020D01*
X186396737Y-134277927D01*
X186487065Y-134307277D01*
X186588157Y-134323288D01*
X186689248Y-134339300D01*
X186689249Y-134339300D01*
X186893951Y-134339300D01*
X186893952Y-134339300D01*
X187096134Y-134307277D01*
X187290819Y-134244020D01*
X187473210Y-134151087D01*
X187578987Y-134074236D01*
X187638813Y-134030771D01*
X187638815Y-134030768D01*
X187638819Y-134030766D01*
X187783566Y-133886019D01*
X187783568Y-133886015D01*
X187783571Y-133886013D01*
X187903884Y-133720414D01*
X187903886Y-133720411D01*
X187903887Y-133720410D01*
X187951116Y-133627717D01*
X187999089Y-133576923D01*
X188066910Y-133560128D01*
X188133045Y-133582665D01*
X188172083Y-133627717D01*
X188195267Y-133673217D01*
X188219315Y-133720414D01*
X188339628Y-133886013D01*
X188484386Y-134030771D01*
X188631139Y-134137391D01*
X188649990Y-134151087D01*
X188742274Y-134198108D01*
X188832376Y-134244018D01*
X188832378Y-134244018D01*
X188832381Y-134244020D01*
X188936737Y-134277927D01*
X189027065Y-134307277D01*
X189128157Y-134323288D01*
X189229248Y-134339300D01*
X189229249Y-134339300D01*
X189433951Y-134339300D01*
X189433952Y-134339300D01*
X189636134Y-134307277D01*
X189830819Y-134244020D01*
X190013210Y-134151087D01*
X190118987Y-134074236D01*
X190178813Y-134030771D01*
X190178815Y-134030768D01*
X190178819Y-134030766D01*
X190323566Y-133886019D01*
X190323568Y-133886015D01*
X190323571Y-133886013D01*
X190443884Y-133720414D01*
X190443886Y-133720411D01*
X190443887Y-133720410D01*
X190491116Y-133627717D01*
X190539089Y-133576923D01*
X190606910Y-133560128D01*
X190673045Y-133582665D01*
X190712083Y-133627717D01*
X190735267Y-133673217D01*
X190759315Y-133720414D01*
X190879628Y-133886013D01*
X191024386Y-134030771D01*
X191171139Y-134137391D01*
X191189990Y-134151087D01*
X191282274Y-134198108D01*
X191372376Y-134244018D01*
X191372378Y-134244018D01*
X191372381Y-134244020D01*
X191476737Y-134277927D01*
X191567065Y-134307277D01*
X191668157Y-134323288D01*
X191769248Y-134339300D01*
X191769249Y-134339300D01*
X191973951Y-134339300D01*
X191973952Y-134339300D01*
X192176134Y-134307277D01*
X192370819Y-134244020D01*
X192553210Y-134151087D01*
X192658987Y-134074236D01*
X192718813Y-134030771D01*
X192718815Y-134030768D01*
X192718819Y-134030766D01*
X192863566Y-133886019D01*
X192863568Y-133886015D01*
X192863571Y-133886013D01*
X192938292Y-133783166D01*
X192983887Y-133720410D01*
X193076820Y-133538019D01*
X193140077Y-133343334D01*
X193172100Y-133141152D01*
X193172100Y-132136448D01*
X193143765Y-131957552D01*
X193140077Y-131934265D01*
X193096200Y-131799228D01*
X193076820Y-131739581D01*
X193076818Y-131739578D01*
X193076818Y-131739576D01*
X193025276Y-131638421D01*
X192983887Y-131557190D01*
X192958846Y-131522724D01*
X192863571Y-131391586D01*
X192772666Y-131300681D01*
X192739181Y-131239358D01*
X192744165Y-131169666D01*
X192786037Y-131113733D01*
X192851501Y-131089316D01*
X192860347Y-131089000D01*
X193500648Y-131089000D01*
X193567687Y-131108685D01*
X193588329Y-131125319D01*
X196348415Y-133885406D01*
X196381900Y-133946729D01*
X196376916Y-134016421D01*
X196375296Y-134020538D01*
X196353893Y-134072210D01*
X196353890Y-134072219D01*
X196315913Y-134213954D01*
X196296197Y-134287534D01*
X196296194Y-134287547D01*
X196267700Y-134503986D01*
X196267100Y-134508543D01*
X196267100Y-134731457D01*
X196267100Y-134731463D01*
X196267101Y-134731466D01*
X196296194Y-134952452D01*
X196296195Y-134952457D01*
X196296196Y-134952463D01*
X196349688Y-135152098D01*
X196353890Y-135167780D01*
X196353893Y-135167790D01*
X196427110Y-135344551D01*
X196439195Y-135373726D01*
X196550652Y-135566774D01*
X196550657Y-135566780D01*
X196550658Y-135566782D01*
X196686351Y-135743622D01*
X196686357Y-135743629D01*
X196843970Y-135901242D01*
X196843976Y-135901247D01*
X197020826Y-136036948D01*
X197213874Y-136148405D01*
X197213879Y-136148407D01*
X197213883Y-136148409D01*
X197293624Y-136181439D01*
X197348028Y-136225280D01*
X197370093Y-136291574D01*
X197352814Y-136359273D01*
X197301677Y-136406884D01*
X197246172Y-136420000D01*
X196967614Y-136420000D01*
X196864910Y-136430493D01*
X196864903Y-136430494D01*
X196698481Y-136485641D01*
X196698476Y-136485643D01*
X196549255Y-136577684D01*
X196425284Y-136701655D01*
X196333243Y-136850876D01*
X196333241Y-136850881D01*
X196278094Y-137017303D01*
X196278093Y-137017310D01*
X196267600Y-137120014D01*
X196267600Y-137870000D01*
X197419118Y-137870000D01*
X197408489Y-137888409D01*
X197367600Y-138041009D01*
X197367600Y-138198991D01*
X197408489Y-138351591D01*
X197419118Y-138370000D01*
X196267600Y-138370000D01*
X196267600Y-139119985D01*
X196278093Y-139222689D01*
X196278094Y-139222696D01*
X196333241Y-139389118D01*
X196333243Y-139389123D01*
X196425284Y-139538344D01*
X196549255Y-139662315D01*
X196698476Y-139754356D01*
X196698481Y-139754358D01*
X196864903Y-139809505D01*
X196864910Y-139809506D01*
X196967614Y-139819999D01*
X196967627Y-139820000D01*
X197717600Y-139820000D01*
X197717600Y-138668482D01*
X197736009Y-138679111D01*
X197888609Y-138720000D01*
X198046591Y-138720000D01*
X198199191Y-138679111D01*
X198217600Y-138668482D01*
X198217600Y-139820000D01*
X198967573Y-139820000D01*
X198967585Y-139819999D01*
X199070289Y-139809506D01*
X199070296Y-139809505D01*
X199236718Y-139754358D01*
X199236723Y-139754356D01*
X199385944Y-139662315D01*
X199509915Y-139538344D01*
X199601956Y-139389123D01*
X199601958Y-139389118D01*
X199657105Y-139222696D01*
X199657106Y-139222689D01*
X199667599Y-139119985D01*
X199667600Y-139119972D01*
X199667600Y-138370000D01*
X198516082Y-138370000D01*
X198526711Y-138351591D01*
X198567600Y-138198991D01*
X198567600Y-138041009D01*
X198526711Y-137888409D01*
X198516082Y-137870000D01*
X199667600Y-137870000D01*
X199667600Y-137120027D01*
X199667599Y-137120014D01*
X199657106Y-137017310D01*
X199657105Y-137017303D01*
X199601958Y-136850881D01*
X199601956Y-136850876D01*
X199509915Y-136701655D01*
X199385944Y-136577684D01*
X199236723Y-136485643D01*
X199236718Y-136485641D01*
X199070296Y-136430494D01*
X199070289Y-136430493D01*
X198967585Y-136420000D01*
X198689028Y-136420000D01*
X198621989Y-136400315D01*
X198576234Y-136347511D01*
X198566290Y-136278353D01*
X198595315Y-136214797D01*
X198641576Y-136181439D01*
X198721316Y-136148409D01*
X198721314Y-136148409D01*
X198721326Y-136148405D01*
X198914374Y-136036948D01*
X199091224Y-135901247D01*
X199248847Y-135743624D01*
X199384548Y-135566774D01*
X199496005Y-135373726D01*
X199581310Y-135167781D01*
X199639004Y-134952463D01*
X199668100Y-134731457D01*
X199668100Y-134508543D01*
X199639004Y-134287537D01*
X199581310Y-134072219D01*
X199578051Y-134064352D01*
X199506100Y-133890645D01*
X199496005Y-133866274D01*
X199384548Y-133673226D01*
X199344451Y-133620970D01*
X199248848Y-133496377D01*
X199248842Y-133496370D01*
X199091229Y-133338757D01*
X199091222Y-133338751D01*
X198914382Y-133203058D01*
X198914380Y-133203057D01*
X198914374Y-133203052D01*
X198721326Y-133091595D01*
X198721322Y-133091593D01*
X198515390Y-133006293D01*
X198515383Y-133006291D01*
X198515381Y-133006290D01*
X198300063Y-132948596D01*
X198300057Y-132948595D01*
X198300052Y-132948594D01*
X198079066Y-132919501D01*
X198079063Y-132919500D01*
X198079057Y-132919500D01*
X197856143Y-132919500D01*
X197856137Y-132919500D01*
X197856133Y-132919501D01*
X197635147Y-132948594D01*
X197635140Y-132948595D01*
X197635137Y-132948596D01*
X197475789Y-132991293D01*
X197419819Y-133006290D01*
X197419810Y-133006293D01*
X197368138Y-133027696D01*
X197298669Y-133035163D01*
X197236190Y-133003888D01*
X197233006Y-133000815D01*
X194307246Y-130075056D01*
X194296959Y-130064769D01*
X194296958Y-130064767D01*
X194209833Y-129977642D01*
X194147863Y-129936235D01*
X194141510Y-129931990D01*
X194141508Y-129931988D01*
X194140437Y-129931273D01*
X194139809Y-129930522D01*
X194135729Y-129927000D01*
X194131876Y-129921030D01*
X194095630Y-129877661D01*
X194086921Y-129808337D01*
X194117075Y-129745309D01*
X194173326Y-129709510D01*
X194406013Y-129638926D01*
X194787311Y-129480987D01*
X195151293Y-129286434D01*
X195494453Y-129057142D01*
X195813486Y-128795319D01*
X196105319Y-128503486D01*
X196367142Y-128184453D01*
X196596434Y-127841293D01*
X196790987Y-127477311D01*
X196948926Y-127096013D01*
X197068730Y-126701069D01*
X197068732Y-126701059D01*
X197068735Y-126701048D01*
X197149247Y-126296284D01*
X197154324Y-126244734D01*
X197189700Y-125885557D01*
X197189700Y-125472843D01*
X197149247Y-125062115D01*
X197103503Y-124832145D01*
X197068735Y-124657351D01*
X197068732Y-124657340D01*
X197068731Y-124657337D01*
X197068730Y-124657331D01*
X196948926Y-124262387D01*
X196790987Y-123881089D01*
X196714014Y-123737084D01*
X196596440Y-123517118D01*
X196596439Y-123517116D01*
X196596434Y-123517107D01*
X196367142Y-123173947D01*
X196105319Y-122854914D01*
X196105318Y-122854913D01*
X196105314Y-122854908D01*
X195813491Y-122563085D01*
X195494458Y-122301262D01*
X195494457Y-122301261D01*
X195494453Y-122301258D01*
X195151293Y-122071966D01*
X195147529Y-122069954D01*
X195097685Y-122020993D01*
X195082224Y-121952855D01*
X195106055Y-121887175D01*
X195161612Y-121844806D01*
X195205982Y-121836596D01*
X199928411Y-121836596D01*
X199995450Y-121856281D01*
X200040474Y-121907513D01*
X202277350Y-126629808D01*
X202284785Y-126649780D01*
X202470563Y-127320255D01*
X202471836Y-127325252D01*
X202648422Y-128083810D01*
X202649486Y-128088855D01*
X202701210Y-128362026D01*
X202792620Y-128844792D01*
X202794380Y-128854084D01*
X202795233Y-128859164D01*
X202886382Y-129480983D01*
X202908195Y-129629795D01*
X202908830Y-129634863D01*
X202989658Y-130409517D01*
X202990086Y-130414655D01*
X203038638Y-131192006D01*
X203038852Y-131197158D01*
X203055073Y-131977158D01*
X203055100Y-131979736D01*
X203055100Y-151125124D01*
X203054718Y-151134853D01*
X203038886Y-151336011D01*
X203035842Y-151355229D01*
X202989880Y-151546675D01*
X202983867Y-151565181D01*
X202908520Y-151747083D01*
X202899687Y-151764419D01*
X202796815Y-151932292D01*
X202785377Y-151948035D01*
X202657508Y-152097750D01*
X202643750Y-152111508D01*
X202494035Y-152239377D01*
X202478292Y-152250815D01*
X202310419Y-152353687D01*
X202293083Y-152362520D01*
X202111181Y-152437867D01*
X202092675Y-152443880D01*
X201901229Y-152489842D01*
X201882011Y-152492886D01*
X201787329Y-152500338D01*
X201718952Y-152485974D01*
X201669195Y-152436923D01*
X201653600Y-152376720D01*
X201653600Y-151684800D01*
X200628878Y-151684800D01*
X200672933Y-151608494D01*
X200703600Y-151494044D01*
X200703600Y-151375556D01*
X200672933Y-151261106D01*
X200628878Y-151184800D01*
X201653600Y-151184800D01*
X201653600Y-150486972D01*
X201653599Y-150486955D01*
X201647198Y-150427427D01*
X201647196Y-150427420D01*
X201596954Y-150292713D01*
X201596950Y-150292706D01*
X201510790Y-150177612D01*
X201510787Y-150177609D01*
X201395693Y-150091449D01*
X201395687Y-150091446D01*
X201315630Y-150061586D01*
X201259697Y-150019714D01*
X201235280Y-149954250D01*
X201250132Y-149885977D01*
X201271281Y-149857725D01*
X201321842Y-149807165D01*
X201451415Y-149628822D01*
X201551495Y-149432406D01*
X201619615Y-149222751D01*
X201654100Y-149005022D01*
X201654100Y-148784578D01*
X201619615Y-148566849D01*
X201585555Y-148462021D01*
X201551496Y-148357196D01*
X201551495Y-148357193D01*
X201516837Y-148289175D01*
X201451415Y-148160778D01*
X201377596Y-148059174D01*
X201321847Y-147982441D01*
X201321843Y-147982436D01*
X201165963Y-147826556D01*
X201165958Y-147826552D01*
X200987625Y-147696987D01*
X200987624Y-147696986D01*
X200987622Y-147696985D01*
X200924696Y-147664922D01*
X200791206Y-147596904D01*
X200791203Y-147596903D01*
X200581552Y-147528785D01*
X200472686Y-147511542D01*
X200363822Y-147494300D01*
X200143378Y-147494300D01*
X200070801Y-147505795D01*
X199925647Y-147528785D01*
X199715996Y-147596903D01*
X199715993Y-147596904D01*
X199519574Y-147696987D01*
X199341241Y-147826552D01*
X199341236Y-147826556D01*
X199185356Y-147982436D01*
X199185352Y-147982441D01*
X199055787Y-148160774D01*
X198955704Y-148357193D01*
X198955703Y-148357196D01*
X198887585Y-148566847D01*
X198853100Y-148784578D01*
X198853100Y-149005021D01*
X198887585Y-149222752D01*
X198955703Y-149432403D01*
X198955704Y-149432406D01*
X199055787Y-149628825D01*
X199185352Y-149807158D01*
X199185356Y-149807163D01*
X199235916Y-149857723D01*
X199269401Y-149919046D01*
X199264417Y-149988738D01*
X199222545Y-150044671D01*
X199191569Y-150061585D01*
X199111518Y-150091443D01*
X199111506Y-150091449D01*
X198996412Y-150177609D01*
X198996409Y-150177612D01*
X198910249Y-150292706D01*
X198910245Y-150292713D01*
X198860003Y-150427420D01*
X198860001Y-150427427D01*
X198853600Y-150486955D01*
X198853600Y-151184800D01*
X199878322Y-151184800D01*
X199834267Y-151261106D01*
X199803600Y-151375556D01*
X199803600Y-151494044D01*
X199834267Y-151608494D01*
X199878322Y-151684800D01*
X198853600Y-151684800D01*
X198853600Y-152385100D01*
X198833915Y-152452139D01*
X198781111Y-152497894D01*
X198729600Y-152509100D01*
X196189600Y-152509100D01*
X196122561Y-152489415D01*
X196076806Y-152436611D01*
X196065600Y-152385100D01*
X196065600Y-151684800D01*
X195040878Y-151684800D01*
X195084933Y-151608494D01*
X195115600Y-151494044D01*
X195115600Y-151375556D01*
X195084933Y-151261106D01*
X195040878Y-151184800D01*
X196065600Y-151184800D01*
X196065600Y-150486972D01*
X196065599Y-150486955D01*
X196059198Y-150427427D01*
X196059196Y-150427420D01*
X196008954Y-150292713D01*
X196008950Y-150292706D01*
X195922790Y-150177612D01*
X195922787Y-150177609D01*
X195807693Y-150091449D01*
X195807687Y-150091446D01*
X195727630Y-150061586D01*
X195671697Y-150019714D01*
X195647280Y-149954250D01*
X195662132Y-149885977D01*
X195683281Y-149857725D01*
X195733842Y-149807165D01*
X195863415Y-149628822D01*
X195963495Y-149432406D01*
X196031615Y-149222751D01*
X196066100Y-149005022D01*
X196066100Y-148784578D01*
X196031615Y-148566849D01*
X195997555Y-148462021D01*
X195963496Y-148357196D01*
X195963495Y-148357193D01*
X195928837Y-148289175D01*
X195863415Y-148160778D01*
X195789596Y-148059174D01*
X195733847Y-147982441D01*
X195733843Y-147982436D01*
X195577963Y-147826556D01*
X195577958Y-147826552D01*
X195399625Y-147696987D01*
X195399624Y-147696986D01*
X195399622Y-147696985D01*
X195336696Y-147664922D01*
X195203206Y-147596904D01*
X195203203Y-147596903D01*
X194993552Y-147528785D01*
X194884686Y-147511542D01*
X194775822Y-147494300D01*
X194555378Y-147494300D01*
X194482801Y-147505795D01*
X194337647Y-147528785D01*
X194127996Y-147596903D01*
X194127993Y-147596904D01*
X193931574Y-147696987D01*
X193753241Y-147826552D01*
X193753236Y-147826556D01*
X193597356Y-147982436D01*
X193597352Y-147982441D01*
X193467787Y-148160774D01*
X193367704Y-148357193D01*
X193367703Y-148357196D01*
X193299585Y-148566847D01*
X193265100Y-148784578D01*
X193265100Y-149005021D01*
X193299585Y-149222752D01*
X193367703Y-149432403D01*
X193367704Y-149432406D01*
X193467787Y-149628825D01*
X193597352Y-149807158D01*
X193597356Y-149807163D01*
X193647916Y-149857723D01*
X193681401Y-149919046D01*
X193676417Y-149988738D01*
X193634545Y-150044671D01*
X193603569Y-150061585D01*
X193523518Y-150091443D01*
X193523506Y-150091449D01*
X193408412Y-150177609D01*
X193408409Y-150177612D01*
X193322249Y-150292706D01*
X193322245Y-150292713D01*
X193272003Y-150427420D01*
X193272001Y-150427427D01*
X193265600Y-150486955D01*
X193265600Y-151184800D01*
X194290322Y-151184800D01*
X194246267Y-151261106D01*
X194215600Y-151375556D01*
X194215600Y-151494044D01*
X194246267Y-151608494D01*
X194290322Y-151684800D01*
X193265600Y-151684800D01*
X193265600Y-152385100D01*
X193245915Y-152452139D01*
X193193111Y-152497894D01*
X193141600Y-152509100D01*
X190698187Y-152509100D01*
X190631148Y-152489415D01*
X190585393Y-152436611D01*
X190574898Y-152371843D01*
X190579199Y-152331841D01*
X190579200Y-152331827D01*
X190579200Y-151634000D01*
X189554478Y-151634000D01*
X189598533Y-151557694D01*
X189629200Y-151443244D01*
X189629200Y-151324756D01*
X189598533Y-151210306D01*
X189554478Y-151134000D01*
X190579200Y-151134000D01*
X190579200Y-150436172D01*
X190579199Y-150436155D01*
X190572798Y-150376627D01*
X190572796Y-150376620D01*
X190522554Y-150241913D01*
X190522550Y-150241906D01*
X190436390Y-150126812D01*
X190436387Y-150126809D01*
X190321293Y-150040649D01*
X190321287Y-150040646D01*
X190241230Y-150010786D01*
X190185297Y-149968914D01*
X190160880Y-149903450D01*
X190175732Y-149835177D01*
X190196881Y-149806925D01*
X190247442Y-149756365D01*
X190377015Y-149578022D01*
X190477095Y-149381606D01*
X190545215Y-149171951D01*
X190579700Y-148954222D01*
X190579700Y-148733778D01*
X190545215Y-148516049D01*
X190495698Y-148363649D01*
X190477096Y-148306396D01*
X190477095Y-148306393D01*
X190402897Y-148160774D01*
X190377015Y-148109978D01*
X190340104Y-148059174D01*
X190247447Y-147931641D01*
X190247443Y-147931636D01*
X190091563Y-147775756D01*
X190091558Y-147775752D01*
X189913225Y-147646187D01*
X189913224Y-147646186D01*
X189913222Y-147646185D01*
X189816502Y-147596903D01*
X189716806Y-147546104D01*
X189716803Y-147546103D01*
X189507152Y-147477985D01*
X189398286Y-147460742D01*
X189289422Y-147443500D01*
X189068978Y-147443500D01*
X188996401Y-147454995D01*
X188851247Y-147477985D01*
X188641596Y-147546103D01*
X188641593Y-147546104D01*
X188445174Y-147646187D01*
X188266841Y-147775752D01*
X188266836Y-147775756D01*
X188110956Y-147931636D01*
X188110952Y-147931641D01*
X187981387Y-148109974D01*
X187881304Y-148306393D01*
X187881303Y-148306396D01*
X187813185Y-148516047D01*
X187778700Y-148733778D01*
X187778700Y-148954221D01*
X187813185Y-149171952D01*
X187881303Y-149381603D01*
X187881304Y-149381606D01*
X187981387Y-149578025D01*
X188110952Y-149756358D01*
X188110956Y-149756363D01*
X188161516Y-149806923D01*
X188195001Y-149868246D01*
X188190017Y-149937938D01*
X188148145Y-149993871D01*
X188117169Y-150010785D01*
X188037118Y-150040643D01*
X188037106Y-150040649D01*
X187922012Y-150126809D01*
X187922009Y-150126812D01*
X187835849Y-150241906D01*
X187835845Y-150241913D01*
X187785603Y-150376620D01*
X187785601Y-150376627D01*
X187779200Y-150436155D01*
X187779200Y-151134000D01*
X188803922Y-151134000D01*
X188759867Y-151210306D01*
X188729200Y-151324756D01*
X188729200Y-151443244D01*
X188759867Y-151557694D01*
X188803922Y-151634000D01*
X187779200Y-151634000D01*
X187779200Y-152331841D01*
X187783502Y-152371843D01*
X187771098Y-152440603D01*
X187723488Y-152491741D01*
X187660213Y-152509100D01*
X185166000Y-152509100D01*
X185098961Y-152489415D01*
X185053206Y-152436611D01*
X185042000Y-152385100D01*
X185042000Y-151684800D01*
X184017278Y-151684800D01*
X184061333Y-151608494D01*
X184092000Y-151494044D01*
X184092000Y-151375556D01*
X184061333Y-151261106D01*
X184017278Y-151184800D01*
X185042000Y-151184800D01*
X185042000Y-150486972D01*
X185041999Y-150486955D01*
X185035598Y-150427427D01*
X185035596Y-150427420D01*
X184985354Y-150292713D01*
X184985350Y-150292706D01*
X184899190Y-150177612D01*
X184899187Y-150177609D01*
X184784093Y-150091449D01*
X184784087Y-150091446D01*
X184704030Y-150061586D01*
X184648097Y-150019714D01*
X184623680Y-149954250D01*
X184638532Y-149885977D01*
X184659681Y-149857725D01*
X184710242Y-149807165D01*
X184839815Y-149628822D01*
X184939895Y-149432406D01*
X185008015Y-149222751D01*
X185042500Y-149005022D01*
X185042500Y-148784578D01*
X185008015Y-148566849D01*
X184973955Y-148462021D01*
X184939896Y-148357196D01*
X184939895Y-148357193D01*
X184905237Y-148289175D01*
X184839815Y-148160778D01*
X184765996Y-148059174D01*
X184710247Y-147982441D01*
X184710243Y-147982436D01*
X184554363Y-147826556D01*
X184554358Y-147826552D01*
X184376025Y-147696987D01*
X184376024Y-147696986D01*
X184376022Y-147696985D01*
X184313096Y-147664922D01*
X184179606Y-147596904D01*
X184179603Y-147596903D01*
X183969952Y-147528785D01*
X183861086Y-147511542D01*
X183752222Y-147494300D01*
X183531778Y-147494300D01*
X183459201Y-147505795D01*
X183314047Y-147528785D01*
X183104396Y-147596903D01*
X183104393Y-147596904D01*
X182907974Y-147696987D01*
X182729641Y-147826552D01*
X182729636Y-147826556D01*
X182573756Y-147982436D01*
X182573752Y-147982441D01*
X182444187Y-148160774D01*
X182344104Y-148357193D01*
X182344103Y-148357196D01*
X182275985Y-148566847D01*
X182241500Y-148784578D01*
X182241500Y-149005021D01*
X182275985Y-149222752D01*
X182344103Y-149432403D01*
X182344104Y-149432406D01*
X182444187Y-149628825D01*
X182573752Y-149807158D01*
X182573756Y-149807163D01*
X182624316Y-149857723D01*
X182657801Y-149919046D01*
X182652817Y-149988738D01*
X182610945Y-150044671D01*
X182579969Y-150061585D01*
X182499918Y-150091443D01*
X182499906Y-150091449D01*
X182384812Y-150177609D01*
X182384809Y-150177612D01*
X182298649Y-150292706D01*
X182298645Y-150292713D01*
X182248403Y-150427420D01*
X182248401Y-150427427D01*
X182242000Y-150486955D01*
X182242000Y-151184800D01*
X183266722Y-151184800D01*
X183222667Y-151261106D01*
X183192000Y-151375556D01*
X183192000Y-151494044D01*
X183222667Y-151608494D01*
X183266722Y-151684800D01*
X182242000Y-151684800D01*
X182242000Y-152385100D01*
X182222315Y-152452139D01*
X182169511Y-152497894D01*
X182118000Y-152509100D01*
X179461736Y-152509100D01*
X179394697Y-152489415D01*
X179348942Y-152436611D01*
X179338998Y-152367453D01*
X179345554Y-152341767D01*
X179345996Y-152340579D01*
X179345998Y-152340572D01*
X179352399Y-152281044D01*
X179352400Y-152281027D01*
X179352400Y-151583200D01*
X178327678Y-151583200D01*
X178371733Y-151506894D01*
X178402400Y-151392444D01*
X178402400Y-151273956D01*
X178371733Y-151159506D01*
X178327678Y-151083200D01*
X179352400Y-151083200D01*
X179352400Y-150385372D01*
X179352399Y-150385355D01*
X179345998Y-150325827D01*
X179345996Y-150325820D01*
X179295754Y-150191113D01*
X179295750Y-150191106D01*
X179209590Y-150076012D01*
X179209587Y-150076009D01*
X179094493Y-149989849D01*
X179094487Y-149989846D01*
X179014430Y-149959986D01*
X178958497Y-149918114D01*
X178934080Y-149852650D01*
X178948932Y-149784377D01*
X178970081Y-149756125D01*
X179020642Y-149705565D01*
X179150215Y-149527222D01*
X179250295Y-149330806D01*
X179318415Y-149121151D01*
X179352900Y-148903422D01*
X179352900Y-148682978D01*
X179318415Y-148465249D01*
X179266801Y-148306394D01*
X179250296Y-148255596D01*
X179250295Y-148255593D01*
X179201981Y-148160774D01*
X179150215Y-148059178D01*
X179094459Y-147982436D01*
X179020647Y-147880841D01*
X179020643Y-147880836D01*
X178864763Y-147724956D01*
X178864758Y-147724952D01*
X178686425Y-147595387D01*
X178686424Y-147595386D01*
X178686422Y-147595385D01*
X178589702Y-147546103D01*
X178490006Y-147495304D01*
X178490003Y-147495303D01*
X178280352Y-147427185D01*
X178171486Y-147409942D01*
X178062622Y-147392700D01*
X177842178Y-147392700D01*
X177769601Y-147404195D01*
X177624447Y-147427185D01*
X177414796Y-147495303D01*
X177414793Y-147495304D01*
X177218374Y-147595387D01*
X177040041Y-147724952D01*
X177040036Y-147724956D01*
X176884156Y-147880836D01*
X176884152Y-147880841D01*
X176754587Y-148059174D01*
X176654504Y-148255593D01*
X176654503Y-148255596D01*
X176586385Y-148465247D01*
X176551900Y-148682978D01*
X176551900Y-148903421D01*
X176586385Y-149121152D01*
X176654503Y-149330803D01*
X176654504Y-149330806D01*
X176754587Y-149527225D01*
X176884152Y-149705558D01*
X176884156Y-149705563D01*
X176934716Y-149756123D01*
X176968201Y-149817446D01*
X176963217Y-149887138D01*
X176921345Y-149943071D01*
X176890369Y-149959985D01*
X176810318Y-149989843D01*
X176810306Y-149989849D01*
X176695212Y-150076009D01*
X176695209Y-150076012D01*
X176609049Y-150191106D01*
X176609045Y-150191113D01*
X176558803Y-150325820D01*
X176558801Y-150325827D01*
X176552400Y-150385355D01*
X176552400Y-151083200D01*
X177577122Y-151083200D01*
X177533067Y-151159506D01*
X177502400Y-151273956D01*
X177502400Y-151392444D01*
X177533067Y-151506894D01*
X177577122Y-151583200D01*
X176552400Y-151583200D01*
X176552400Y-152281044D01*
X176558801Y-152340572D01*
X176558803Y-152340579D01*
X176559246Y-152341767D01*
X176559316Y-152342752D01*
X176560587Y-152348130D01*
X176559715Y-152348335D01*
X176564230Y-152411459D01*
X176530745Y-152472782D01*
X176469422Y-152506266D01*
X176443064Y-152509100D01*
X173975336Y-152509100D01*
X173908297Y-152489415D01*
X173862542Y-152436611D01*
X173852598Y-152367453D01*
X173859154Y-152341767D01*
X173859596Y-152340579D01*
X173859598Y-152340572D01*
X173865999Y-152281044D01*
X173866000Y-152281027D01*
X173866000Y-151583200D01*
X172841278Y-151583200D01*
X172885333Y-151506894D01*
X172916000Y-151392444D01*
X172916000Y-151273956D01*
X172885333Y-151159506D01*
X172841278Y-151083200D01*
X173866000Y-151083200D01*
X173866000Y-150385372D01*
X173865999Y-150385355D01*
X173859598Y-150325827D01*
X173859596Y-150325820D01*
X173809354Y-150191113D01*
X173809350Y-150191106D01*
X173723190Y-150076012D01*
X173723187Y-150076009D01*
X173608093Y-149989849D01*
X173608087Y-149989846D01*
X173528030Y-149959986D01*
X173472097Y-149918114D01*
X173447680Y-149852650D01*
X173462532Y-149784377D01*
X173483681Y-149756125D01*
X173534242Y-149705565D01*
X173663815Y-149527222D01*
X173763895Y-149330806D01*
X173832015Y-149121151D01*
X173866500Y-148903422D01*
X173866500Y-148682978D01*
X173832015Y-148465249D01*
X173780401Y-148306394D01*
X173763896Y-148255596D01*
X173763895Y-148255593D01*
X173715581Y-148160774D01*
X173663815Y-148059178D01*
X173608059Y-147982436D01*
X173534247Y-147880841D01*
X173534243Y-147880836D01*
X173378363Y-147724956D01*
X173378358Y-147724952D01*
X173200025Y-147595387D01*
X173200024Y-147595386D01*
X173200022Y-147595385D01*
X173103302Y-147546103D01*
X173003606Y-147495304D01*
X173003603Y-147495303D01*
X172793952Y-147427185D01*
X172685086Y-147409942D01*
X172576222Y-147392700D01*
X172355778Y-147392700D01*
X172283201Y-147404195D01*
X172138047Y-147427185D01*
X171928396Y-147495303D01*
X171928393Y-147495304D01*
X171731974Y-147595387D01*
X171553641Y-147724952D01*
X171553636Y-147724956D01*
X171397756Y-147880836D01*
X171397752Y-147880841D01*
X171268187Y-148059174D01*
X171168104Y-148255593D01*
X171168103Y-148255596D01*
X171099985Y-148465247D01*
X171065500Y-148682978D01*
X171065500Y-148903421D01*
X171099985Y-149121152D01*
X171168103Y-149330803D01*
X171168104Y-149330806D01*
X171268187Y-149527225D01*
X171397752Y-149705558D01*
X171397756Y-149705563D01*
X171448316Y-149756123D01*
X171481801Y-149817446D01*
X171476817Y-149887138D01*
X171434945Y-149943071D01*
X171403969Y-149959985D01*
X171323918Y-149989843D01*
X171323906Y-149989849D01*
X171208812Y-150076009D01*
X171208809Y-150076012D01*
X171122649Y-150191106D01*
X171122645Y-150191113D01*
X171072403Y-150325820D01*
X171072401Y-150325827D01*
X171066000Y-150385355D01*
X171066000Y-151083200D01*
X172090722Y-151083200D01*
X172046667Y-151159506D01*
X172016000Y-151273956D01*
X172016000Y-151392444D01*
X172046667Y-151506894D01*
X172090722Y-151583200D01*
X171066000Y-151583200D01*
X171066000Y-152281044D01*
X171072401Y-152340572D01*
X171072403Y-152340579D01*
X171072846Y-152341767D01*
X171072916Y-152342752D01*
X171074187Y-152348130D01*
X171073315Y-152348335D01*
X171077830Y-152411459D01*
X171044345Y-152472782D01*
X170983022Y-152506266D01*
X170956664Y-152509100D01*
X168447787Y-152509100D01*
X168380748Y-152489415D01*
X168334993Y-152436611D01*
X168324498Y-152371843D01*
X168328799Y-152331841D01*
X168328800Y-152331827D01*
X168328800Y-151634000D01*
X167304078Y-151634000D01*
X167348133Y-151557694D01*
X167378800Y-151443244D01*
X167378800Y-151324756D01*
X167348133Y-151210306D01*
X167304078Y-151134000D01*
X168328800Y-151134000D01*
X168328800Y-150436172D01*
X168328799Y-150436155D01*
X168322398Y-150376627D01*
X168322396Y-150376620D01*
X168272154Y-150241913D01*
X168272150Y-150241906D01*
X168185990Y-150126812D01*
X168185987Y-150126809D01*
X168070893Y-150040649D01*
X168070887Y-150040646D01*
X167990830Y-150010786D01*
X167934897Y-149968914D01*
X167910480Y-149903450D01*
X167925332Y-149835177D01*
X167946481Y-149806925D01*
X167997042Y-149756365D01*
X168126615Y-149578022D01*
X168226695Y-149381606D01*
X168294815Y-149171951D01*
X168329300Y-148954222D01*
X168329300Y-148733778D01*
X168294815Y-148516049D01*
X168245298Y-148363649D01*
X168226696Y-148306396D01*
X168226695Y-148306393D01*
X168152497Y-148160774D01*
X168126615Y-148109978D01*
X168089704Y-148059174D01*
X167997047Y-147931641D01*
X167997043Y-147931636D01*
X167841163Y-147775756D01*
X167841158Y-147775752D01*
X167662825Y-147646187D01*
X167662824Y-147646186D01*
X167662822Y-147646185D01*
X167566102Y-147596903D01*
X167466406Y-147546104D01*
X167466403Y-147546103D01*
X167256752Y-147477985D01*
X167147886Y-147460742D01*
X167039022Y-147443500D01*
X166818578Y-147443500D01*
X166746001Y-147454995D01*
X166600847Y-147477985D01*
X166391196Y-147546103D01*
X166391193Y-147546104D01*
X166194774Y-147646187D01*
X166016441Y-147775752D01*
X166016436Y-147775756D01*
X165860556Y-147931636D01*
X165860552Y-147931641D01*
X165730987Y-148109974D01*
X165630904Y-148306393D01*
X165630903Y-148306396D01*
X165562785Y-148516047D01*
X165528300Y-148733778D01*
X165528300Y-148954221D01*
X165562785Y-149171952D01*
X165630903Y-149381603D01*
X165630904Y-149381606D01*
X165730987Y-149578025D01*
X165860552Y-149756358D01*
X165860556Y-149756363D01*
X165911116Y-149806923D01*
X165944601Y-149868246D01*
X165939617Y-149937938D01*
X165897745Y-149993871D01*
X165866769Y-150010785D01*
X165786718Y-150040643D01*
X165786706Y-150040649D01*
X165671612Y-150126809D01*
X165671609Y-150126812D01*
X165585449Y-150241906D01*
X165585445Y-150241913D01*
X165535203Y-150376620D01*
X165535201Y-150376627D01*
X165528800Y-150436155D01*
X165528800Y-151134000D01*
X166553522Y-151134000D01*
X166509467Y-151210306D01*
X166478800Y-151324756D01*
X166478800Y-151443244D01*
X166509467Y-151557694D01*
X166553522Y-151634000D01*
X165528800Y-151634000D01*
X165528800Y-152331841D01*
X165533102Y-152371843D01*
X165520698Y-152440603D01*
X165473088Y-152491741D01*
X165409813Y-152509100D01*
X162659842Y-152509100D01*
X162592803Y-152489415D01*
X162547048Y-152436611D01*
X162537104Y-152367453D01*
X162543660Y-152341767D01*
X162581996Y-152238980D01*
X162581998Y-152238972D01*
X162588399Y-152179444D01*
X162588400Y-152179427D01*
X162588400Y-151481600D01*
X161563678Y-151481600D01*
X161607733Y-151405294D01*
X161638400Y-151290844D01*
X161638400Y-151172356D01*
X161607733Y-151057906D01*
X161563678Y-150981600D01*
X162588400Y-150981600D01*
X162588400Y-150283772D01*
X162588399Y-150283755D01*
X162581998Y-150224227D01*
X162581996Y-150224220D01*
X162531754Y-150089513D01*
X162531750Y-150089506D01*
X162445590Y-149974412D01*
X162445587Y-149974409D01*
X162330493Y-149888249D01*
X162330487Y-149888246D01*
X162250430Y-149858386D01*
X162194497Y-149816514D01*
X162170080Y-149751050D01*
X162184932Y-149682777D01*
X162206081Y-149654525D01*
X162256642Y-149603965D01*
X162386215Y-149425622D01*
X162486295Y-149229206D01*
X162554415Y-149019551D01*
X162588900Y-148801822D01*
X162588900Y-148581378D01*
X162554415Y-148363649D01*
X162519306Y-148255593D01*
X162486296Y-148153996D01*
X162486295Y-148153993D01*
X162398883Y-147982441D01*
X162386215Y-147957578D01*
X162330459Y-147880836D01*
X162256647Y-147779241D01*
X162256643Y-147779236D01*
X162100763Y-147623356D01*
X162100758Y-147623352D01*
X161922425Y-147493787D01*
X161922424Y-147493786D01*
X161922422Y-147493785D01*
X161859496Y-147461722D01*
X161726006Y-147393704D01*
X161726003Y-147393703D01*
X161516352Y-147325585D01*
X161407486Y-147308342D01*
X161298622Y-147291100D01*
X161078178Y-147291100D01*
X161005601Y-147302595D01*
X160860447Y-147325585D01*
X160650796Y-147393703D01*
X160650793Y-147393704D01*
X160454374Y-147493787D01*
X160276041Y-147623352D01*
X160276036Y-147623356D01*
X160120156Y-147779236D01*
X160120152Y-147779241D01*
X159990587Y-147957574D01*
X159890504Y-148153993D01*
X159890503Y-148153996D01*
X159822385Y-148363647D01*
X159787900Y-148581378D01*
X159787900Y-148801821D01*
X159822385Y-149019552D01*
X159890503Y-149229203D01*
X159890504Y-149229206D01*
X159942272Y-149330803D01*
X159968157Y-149381606D01*
X159990587Y-149425625D01*
X160120152Y-149603958D01*
X160120156Y-149603963D01*
X160170716Y-149654523D01*
X160204201Y-149715846D01*
X160199217Y-149785538D01*
X160157345Y-149841471D01*
X160126369Y-149858385D01*
X160046318Y-149888243D01*
X160046306Y-149888249D01*
X159931212Y-149974409D01*
X159931209Y-149974412D01*
X159845049Y-150089506D01*
X159845045Y-150089513D01*
X159794803Y-150224220D01*
X159794801Y-150224227D01*
X159788400Y-150283755D01*
X159788400Y-150981600D01*
X160813122Y-150981600D01*
X160769067Y-151057906D01*
X160738400Y-151172356D01*
X160738400Y-151290844D01*
X160769067Y-151405294D01*
X160813122Y-151481600D01*
X159788400Y-151481600D01*
X159788400Y-152179444D01*
X159794801Y-152238972D01*
X159794803Y-152238980D01*
X159833140Y-152341767D01*
X159838124Y-152411459D01*
X159804639Y-152472782D01*
X159743315Y-152506266D01*
X159716958Y-152509100D01*
X157058936Y-152509100D01*
X156991897Y-152489415D01*
X156946142Y-152436611D01*
X156936198Y-152367453D01*
X156942754Y-152341767D01*
X156943196Y-152340579D01*
X156943198Y-152340572D01*
X156949599Y-152281044D01*
X156949600Y-152281027D01*
X156949600Y-151583200D01*
X155924878Y-151583200D01*
X155968933Y-151506894D01*
X155999600Y-151392444D01*
X155999600Y-151273956D01*
X155968933Y-151159506D01*
X155924878Y-151083200D01*
X156949600Y-151083200D01*
X156949600Y-150385372D01*
X156949599Y-150385355D01*
X156943198Y-150325827D01*
X156943196Y-150325820D01*
X156892954Y-150191113D01*
X156892950Y-150191106D01*
X156806790Y-150076012D01*
X156806787Y-150076009D01*
X156691693Y-149989849D01*
X156691687Y-149989846D01*
X156611630Y-149959986D01*
X156555697Y-149918114D01*
X156531280Y-149852650D01*
X156546132Y-149784377D01*
X156567281Y-149756125D01*
X156617842Y-149705565D01*
X156747415Y-149527222D01*
X156847495Y-149330806D01*
X156915615Y-149121151D01*
X156950100Y-148903422D01*
X156950100Y-148682978D01*
X156915615Y-148465249D01*
X156864001Y-148306394D01*
X156847496Y-148255596D01*
X156847495Y-148255593D01*
X156799181Y-148160774D01*
X156747415Y-148059178D01*
X156691659Y-147982436D01*
X156617847Y-147880841D01*
X156617843Y-147880836D01*
X156461963Y-147724956D01*
X156461958Y-147724952D01*
X156283625Y-147595387D01*
X156283624Y-147595386D01*
X156283622Y-147595385D01*
X156186902Y-147546103D01*
X156087206Y-147495304D01*
X156087203Y-147495303D01*
X155877552Y-147427185D01*
X155768686Y-147409942D01*
X155659822Y-147392700D01*
X155439378Y-147392700D01*
X155366801Y-147404195D01*
X155221647Y-147427185D01*
X155011996Y-147495303D01*
X155011993Y-147495304D01*
X154815574Y-147595387D01*
X154637241Y-147724952D01*
X154637236Y-147724956D01*
X154481356Y-147880836D01*
X154481352Y-147880841D01*
X154351787Y-148059174D01*
X154251704Y-148255593D01*
X154251703Y-148255596D01*
X154183585Y-148465247D01*
X154149100Y-148682978D01*
X154149100Y-148903421D01*
X154183585Y-149121152D01*
X154251703Y-149330803D01*
X154251704Y-149330806D01*
X154351787Y-149527225D01*
X154481352Y-149705558D01*
X154481356Y-149705563D01*
X154531916Y-149756123D01*
X154565401Y-149817446D01*
X154560417Y-149887138D01*
X154518545Y-149943071D01*
X154487569Y-149959985D01*
X154407518Y-149989843D01*
X154407506Y-149989849D01*
X154292412Y-150076009D01*
X154292409Y-150076012D01*
X154206249Y-150191106D01*
X154206245Y-150191113D01*
X154156003Y-150325820D01*
X154156001Y-150325827D01*
X154149600Y-150385355D01*
X154149600Y-151083200D01*
X155174322Y-151083200D01*
X155130267Y-151159506D01*
X155099600Y-151273956D01*
X155099600Y-151392444D01*
X155130267Y-151506894D01*
X155174322Y-151583200D01*
X154149600Y-151583200D01*
X154149600Y-152281044D01*
X154156001Y-152340572D01*
X154156003Y-152340579D01*
X154156446Y-152341767D01*
X154156516Y-152342752D01*
X154157787Y-152348130D01*
X154156915Y-152348335D01*
X154161430Y-152411459D01*
X154127945Y-152472782D01*
X154066622Y-152506266D01*
X154040264Y-152509100D01*
X151267736Y-152509100D01*
X151200697Y-152489415D01*
X151154942Y-152436611D01*
X151144998Y-152367453D01*
X151151554Y-152341767D01*
X151151996Y-152340579D01*
X151151998Y-152340572D01*
X151158399Y-152281044D01*
X151158400Y-152281027D01*
X151158400Y-151583200D01*
X150133678Y-151583200D01*
X150177733Y-151506894D01*
X150208400Y-151392444D01*
X150208400Y-151273956D01*
X150177733Y-151159506D01*
X150133678Y-151083200D01*
X151158400Y-151083200D01*
X151158400Y-150385372D01*
X151158399Y-150385355D01*
X151151998Y-150325827D01*
X151151996Y-150325820D01*
X151101754Y-150191113D01*
X151101750Y-150191106D01*
X151015590Y-150076012D01*
X151015587Y-150076009D01*
X150900493Y-149989849D01*
X150900487Y-149989846D01*
X150820430Y-149959986D01*
X150764497Y-149918114D01*
X150740080Y-149852650D01*
X150754932Y-149784377D01*
X150776081Y-149756125D01*
X150826642Y-149705565D01*
X150956215Y-149527222D01*
X151056295Y-149330806D01*
X151124415Y-149121151D01*
X151158900Y-148903422D01*
X151158900Y-148682978D01*
X151124415Y-148465249D01*
X151072801Y-148306394D01*
X151056296Y-148255596D01*
X151056295Y-148255593D01*
X151007981Y-148160774D01*
X150956215Y-148059178D01*
X150900459Y-147982436D01*
X150826647Y-147880841D01*
X150826643Y-147880836D01*
X150670763Y-147724956D01*
X150670758Y-147724952D01*
X150492425Y-147595387D01*
X150492424Y-147595386D01*
X150492422Y-147595385D01*
X150395702Y-147546103D01*
X150296006Y-147495304D01*
X150296003Y-147495303D01*
X150086352Y-147427185D01*
X149977486Y-147409942D01*
X149868622Y-147392700D01*
X149648178Y-147392700D01*
X149575601Y-147404195D01*
X149430447Y-147427185D01*
X149220796Y-147495303D01*
X149220793Y-147495304D01*
X149024374Y-147595387D01*
X148846041Y-147724952D01*
X148846036Y-147724956D01*
X148690156Y-147880836D01*
X148690152Y-147880841D01*
X148560587Y-148059174D01*
X148460504Y-148255593D01*
X148460503Y-148255596D01*
X148392385Y-148465247D01*
X148357900Y-148682978D01*
X148357900Y-148903421D01*
X148392385Y-149121152D01*
X148460503Y-149330803D01*
X148460504Y-149330806D01*
X148560587Y-149527225D01*
X148690152Y-149705558D01*
X148690156Y-149705563D01*
X148740716Y-149756123D01*
X148774201Y-149817446D01*
X148769217Y-149887138D01*
X148727345Y-149943071D01*
X148696369Y-149959985D01*
X148616318Y-149989843D01*
X148616306Y-149989849D01*
X148501212Y-150076009D01*
X148501209Y-150076012D01*
X148415049Y-150191106D01*
X148415045Y-150191113D01*
X148364803Y-150325820D01*
X148364801Y-150325827D01*
X148358400Y-150385355D01*
X148358400Y-151083200D01*
X149383122Y-151083200D01*
X149339067Y-151159506D01*
X149308400Y-151273956D01*
X149308400Y-151392444D01*
X149339067Y-151506894D01*
X149383122Y-151583200D01*
X148358400Y-151583200D01*
X148358400Y-152281044D01*
X148364801Y-152340572D01*
X148364803Y-152340579D01*
X148365246Y-152341767D01*
X148365316Y-152342752D01*
X148366587Y-152348130D01*
X148365715Y-152348335D01*
X148370230Y-152411459D01*
X148336745Y-152472782D01*
X148275422Y-152506266D01*
X148249064Y-152509100D01*
X145781336Y-152509100D01*
X145714297Y-152489415D01*
X145668542Y-152436611D01*
X145658598Y-152367453D01*
X145665154Y-152341767D01*
X145665596Y-152340579D01*
X145665598Y-152340572D01*
X145671999Y-152281044D01*
X145672000Y-152281027D01*
X145672000Y-151583200D01*
X144647278Y-151583200D01*
X144691333Y-151506894D01*
X144722000Y-151392444D01*
X144722000Y-151273956D01*
X144691333Y-151159506D01*
X144647278Y-151083200D01*
X145672000Y-151083200D01*
X145672000Y-150385372D01*
X145671999Y-150385355D01*
X145665598Y-150325827D01*
X145665596Y-150325820D01*
X145615354Y-150191113D01*
X145615350Y-150191106D01*
X145529190Y-150076012D01*
X145529187Y-150076009D01*
X145414093Y-149989849D01*
X145414087Y-149989846D01*
X145334030Y-149959986D01*
X145278097Y-149918114D01*
X145253680Y-149852650D01*
X145268532Y-149784377D01*
X145289681Y-149756125D01*
X145340242Y-149705565D01*
X145469815Y-149527222D01*
X145569895Y-149330806D01*
X145638015Y-149121151D01*
X145672500Y-148903422D01*
X145672500Y-148682978D01*
X145638015Y-148465249D01*
X145586401Y-148306394D01*
X145569896Y-148255596D01*
X145569895Y-148255593D01*
X145521581Y-148160774D01*
X145469815Y-148059178D01*
X145414059Y-147982436D01*
X145340247Y-147880841D01*
X145340243Y-147880836D01*
X145184363Y-147724956D01*
X145184358Y-147724952D01*
X145006025Y-147595387D01*
X145006024Y-147595386D01*
X145006022Y-147595385D01*
X144909302Y-147546103D01*
X144809606Y-147495304D01*
X144809603Y-147495303D01*
X144599952Y-147427185D01*
X144491086Y-147409942D01*
X144382222Y-147392700D01*
X144161778Y-147392700D01*
X144089201Y-147404195D01*
X143944047Y-147427185D01*
X143734396Y-147495303D01*
X143734393Y-147495304D01*
X143537974Y-147595387D01*
X143359641Y-147724952D01*
X143359636Y-147724956D01*
X143203756Y-147880836D01*
X143203752Y-147880841D01*
X143074187Y-148059174D01*
X142974104Y-148255593D01*
X142974103Y-148255596D01*
X142905985Y-148465247D01*
X142871500Y-148682978D01*
X142871500Y-148903421D01*
X142905985Y-149121152D01*
X142974103Y-149330803D01*
X142974104Y-149330806D01*
X143074187Y-149527225D01*
X143203752Y-149705558D01*
X143203756Y-149705563D01*
X143254316Y-149756123D01*
X143287801Y-149817446D01*
X143282817Y-149887138D01*
X143240945Y-149943071D01*
X143209969Y-149959985D01*
X143129918Y-149989843D01*
X143129906Y-149989849D01*
X143014812Y-150076009D01*
X143014809Y-150076012D01*
X142928649Y-150191106D01*
X142928645Y-150191113D01*
X142878403Y-150325820D01*
X142878401Y-150325827D01*
X142872000Y-150385355D01*
X142872000Y-151083200D01*
X143896722Y-151083200D01*
X143852667Y-151159506D01*
X143822000Y-151273956D01*
X143822000Y-151392444D01*
X143852667Y-151506894D01*
X143896722Y-151583200D01*
X142872000Y-151583200D01*
X142872000Y-152281044D01*
X142878401Y-152340572D01*
X142878403Y-152340579D01*
X142878846Y-152341767D01*
X142878916Y-152342752D01*
X142880187Y-152348130D01*
X142879315Y-152348335D01*
X142883830Y-152411459D01*
X142850345Y-152472782D01*
X142789022Y-152506266D01*
X142762664Y-152509100D01*
X140152187Y-152509100D01*
X140085148Y-152489415D01*
X140039393Y-152436611D01*
X140028898Y-152371843D01*
X140033199Y-152331841D01*
X140033200Y-152331827D01*
X140033200Y-151634000D01*
X139008478Y-151634000D01*
X139052533Y-151557694D01*
X139083200Y-151443244D01*
X139083200Y-151324756D01*
X139052533Y-151210306D01*
X139008478Y-151134000D01*
X140033200Y-151134000D01*
X140033200Y-150436172D01*
X140033199Y-150436155D01*
X140026798Y-150376627D01*
X140026796Y-150376620D01*
X139976554Y-150241913D01*
X139976550Y-150241906D01*
X139890390Y-150126812D01*
X139890387Y-150126809D01*
X139775293Y-150040649D01*
X139775287Y-150040646D01*
X139695230Y-150010786D01*
X139639297Y-149968914D01*
X139614880Y-149903450D01*
X139629732Y-149835177D01*
X139650881Y-149806925D01*
X139701442Y-149756365D01*
X139831015Y-149578022D01*
X139931095Y-149381606D01*
X139999215Y-149171951D01*
X140033700Y-148954222D01*
X140033700Y-148733778D01*
X139999215Y-148516049D01*
X139949698Y-148363649D01*
X139931096Y-148306396D01*
X139931095Y-148306393D01*
X139856897Y-148160774D01*
X139831015Y-148109978D01*
X139794104Y-148059174D01*
X139701447Y-147931641D01*
X139701443Y-147931636D01*
X139545563Y-147775756D01*
X139545558Y-147775752D01*
X139367225Y-147646187D01*
X139367224Y-147646186D01*
X139367222Y-147646185D01*
X139270502Y-147596903D01*
X139170806Y-147546104D01*
X139170803Y-147546103D01*
X138961152Y-147477985D01*
X138852286Y-147460742D01*
X138743422Y-147443500D01*
X138522978Y-147443500D01*
X138450401Y-147454995D01*
X138305247Y-147477985D01*
X138095596Y-147546103D01*
X138095593Y-147546104D01*
X137899174Y-147646187D01*
X137720841Y-147775752D01*
X137720836Y-147775756D01*
X137564956Y-147931636D01*
X137564952Y-147931641D01*
X137435387Y-148109974D01*
X137335304Y-148306393D01*
X137335303Y-148306396D01*
X137267185Y-148516047D01*
X137232700Y-148733778D01*
X137232700Y-148954221D01*
X137267185Y-149171952D01*
X137335303Y-149381603D01*
X137335304Y-149381606D01*
X137435387Y-149578025D01*
X137564952Y-149756358D01*
X137564956Y-149756363D01*
X137615516Y-149806923D01*
X137649001Y-149868246D01*
X137644017Y-149937938D01*
X137602145Y-149993871D01*
X137571169Y-150010785D01*
X137491118Y-150040643D01*
X137491106Y-150040649D01*
X137376012Y-150126809D01*
X137376009Y-150126812D01*
X137289849Y-150241906D01*
X137289845Y-150241913D01*
X137239603Y-150376620D01*
X137239601Y-150376627D01*
X137233200Y-150436155D01*
X137233200Y-151134000D01*
X138257922Y-151134000D01*
X138213867Y-151210306D01*
X138183200Y-151324756D01*
X138183200Y-151443244D01*
X138213867Y-151557694D01*
X138257922Y-151634000D01*
X137233200Y-151634000D01*
X137233200Y-152331841D01*
X137237502Y-152371843D01*
X137225098Y-152440603D01*
X137177488Y-152491741D01*
X137114213Y-152509100D01*
X134614987Y-152509100D01*
X134547948Y-152489415D01*
X134502193Y-152436611D01*
X134491698Y-152371843D01*
X134495999Y-152331841D01*
X134496000Y-152331827D01*
X134496000Y-151634000D01*
X133471278Y-151634000D01*
X133515333Y-151557694D01*
X133546000Y-151443244D01*
X133546000Y-151324756D01*
X133515333Y-151210306D01*
X133471278Y-151134000D01*
X134496000Y-151134000D01*
X134496000Y-150436172D01*
X134495999Y-150436155D01*
X134489598Y-150376627D01*
X134489596Y-150376620D01*
X134439354Y-150241913D01*
X134439350Y-150241906D01*
X134353190Y-150126812D01*
X134353187Y-150126809D01*
X134238093Y-150040649D01*
X134238087Y-150040646D01*
X134158030Y-150010786D01*
X134102097Y-149968914D01*
X134077680Y-149903450D01*
X134092532Y-149835177D01*
X134113681Y-149806925D01*
X134164242Y-149756365D01*
X134293815Y-149578022D01*
X134393895Y-149381606D01*
X134462015Y-149171951D01*
X134496500Y-148954222D01*
X134496500Y-148733778D01*
X134462015Y-148516049D01*
X134412498Y-148363649D01*
X134393896Y-148306396D01*
X134393895Y-148306393D01*
X134319697Y-148160774D01*
X134293815Y-148109978D01*
X134256904Y-148059174D01*
X134164247Y-147931641D01*
X134164243Y-147931636D01*
X134008363Y-147775756D01*
X134008358Y-147775752D01*
X133830025Y-147646187D01*
X133830024Y-147646186D01*
X133830022Y-147646185D01*
X133733302Y-147596903D01*
X133633606Y-147546104D01*
X133633603Y-147546103D01*
X133423952Y-147477985D01*
X133315086Y-147460742D01*
X133206222Y-147443500D01*
X132985778Y-147443500D01*
X132913201Y-147454995D01*
X132768047Y-147477985D01*
X132558396Y-147546103D01*
X132558393Y-147546104D01*
X132361974Y-147646187D01*
X132183641Y-147775752D01*
X132183636Y-147775756D01*
X132027756Y-147931636D01*
X132027752Y-147931641D01*
X131898187Y-148109974D01*
X131798104Y-148306393D01*
X131798103Y-148306396D01*
X131729985Y-148516047D01*
X131695500Y-148733778D01*
X131695500Y-148954221D01*
X131729985Y-149171952D01*
X131798103Y-149381603D01*
X131798104Y-149381606D01*
X131898187Y-149578025D01*
X132027752Y-149756358D01*
X132027756Y-149756363D01*
X132078316Y-149806923D01*
X132111801Y-149868246D01*
X132106817Y-149937938D01*
X132064945Y-149993871D01*
X132033969Y-150010785D01*
X131953918Y-150040643D01*
X131953906Y-150040649D01*
X131838812Y-150126809D01*
X131838809Y-150126812D01*
X131752649Y-150241906D01*
X131752645Y-150241913D01*
X131702403Y-150376620D01*
X131702401Y-150376627D01*
X131696000Y-150436155D01*
X131696000Y-151134000D01*
X132720722Y-151134000D01*
X132676667Y-151210306D01*
X132646000Y-151324756D01*
X132646000Y-151443244D01*
X132676667Y-151557694D01*
X132720722Y-151634000D01*
X131696000Y-151634000D01*
X131696000Y-152331841D01*
X131700302Y-152371843D01*
X131687898Y-152440603D01*
X131640288Y-152491741D01*
X131577013Y-152509100D01*
X129017336Y-152509100D01*
X128950297Y-152489415D01*
X128904542Y-152436611D01*
X128894598Y-152367453D01*
X128901154Y-152341767D01*
X128901596Y-152340579D01*
X128901598Y-152340572D01*
X128907999Y-152281044D01*
X128908000Y-152281027D01*
X128908000Y-151583200D01*
X127883278Y-151583200D01*
X127927333Y-151506894D01*
X127958000Y-151392444D01*
X127958000Y-151273956D01*
X127927333Y-151159506D01*
X127883278Y-151083200D01*
X128908000Y-151083200D01*
X128908000Y-150385372D01*
X128907999Y-150385355D01*
X128901598Y-150325827D01*
X128901596Y-150325820D01*
X128851354Y-150191113D01*
X128851350Y-150191106D01*
X128765190Y-150076012D01*
X128765187Y-150076009D01*
X128650093Y-149989849D01*
X128650087Y-149989846D01*
X128570030Y-149959986D01*
X128514097Y-149918114D01*
X128489680Y-149852650D01*
X128504532Y-149784377D01*
X128525681Y-149756125D01*
X128576242Y-149705565D01*
X128705815Y-149527222D01*
X128805895Y-149330806D01*
X128874015Y-149121151D01*
X128908500Y-148903422D01*
X128908500Y-148682978D01*
X128874015Y-148465249D01*
X128822401Y-148306394D01*
X128805896Y-148255596D01*
X128805895Y-148255593D01*
X128757581Y-148160774D01*
X128705815Y-148059178D01*
X128650059Y-147982436D01*
X128576247Y-147880841D01*
X128576243Y-147880836D01*
X128420363Y-147724956D01*
X128420358Y-147724952D01*
X128242025Y-147595387D01*
X128242024Y-147595386D01*
X128242022Y-147595385D01*
X128145302Y-147546103D01*
X128045606Y-147495304D01*
X128045603Y-147495303D01*
X127835952Y-147427185D01*
X127727086Y-147409942D01*
X127618222Y-147392700D01*
X127397778Y-147392700D01*
X127325201Y-147404195D01*
X127180047Y-147427185D01*
X126970396Y-147495303D01*
X126970393Y-147495304D01*
X126773974Y-147595387D01*
X126595641Y-147724952D01*
X126595636Y-147724956D01*
X126439756Y-147880836D01*
X126439752Y-147880841D01*
X126310187Y-148059174D01*
X126210104Y-148255593D01*
X126210103Y-148255596D01*
X126141985Y-148465247D01*
X126107500Y-148682978D01*
X126107500Y-148903421D01*
X126141985Y-149121152D01*
X126210103Y-149330803D01*
X126210104Y-149330806D01*
X126310187Y-149527225D01*
X126439752Y-149705558D01*
X126439756Y-149705563D01*
X126490316Y-149756123D01*
X126523801Y-149817446D01*
X126518817Y-149887138D01*
X126476945Y-149943071D01*
X126445969Y-149959985D01*
X126365918Y-149989843D01*
X126365906Y-149989849D01*
X126250812Y-150076009D01*
X126250809Y-150076012D01*
X126164649Y-150191106D01*
X126164645Y-150191113D01*
X126114403Y-150325820D01*
X126114401Y-150325827D01*
X126108000Y-150385355D01*
X126108000Y-151083200D01*
X127132722Y-151083200D01*
X127088667Y-151159506D01*
X127058000Y-151273956D01*
X127058000Y-151392444D01*
X127088667Y-151506894D01*
X127132722Y-151583200D01*
X126108000Y-151583200D01*
X126108000Y-152281044D01*
X126114401Y-152340572D01*
X126114403Y-152340579D01*
X126114846Y-152341767D01*
X126114916Y-152342752D01*
X126116187Y-152348130D01*
X126115315Y-152348335D01*
X126119830Y-152411459D01*
X126086345Y-152472782D01*
X126025022Y-152506266D01*
X125998664Y-152509100D01*
X123438987Y-152509100D01*
X123371948Y-152489415D01*
X123326193Y-152436611D01*
X123315698Y-152371843D01*
X123319999Y-152331841D01*
X123320000Y-152331827D01*
X123320000Y-151634000D01*
X122295278Y-151634000D01*
X122339333Y-151557694D01*
X122370000Y-151443244D01*
X122370000Y-151324756D01*
X122339333Y-151210306D01*
X122295278Y-151134000D01*
X123320000Y-151134000D01*
X123320000Y-150436172D01*
X123319999Y-150436155D01*
X123313598Y-150376627D01*
X123313596Y-150376620D01*
X123263354Y-150241913D01*
X123263350Y-150241906D01*
X123177190Y-150126812D01*
X123177187Y-150126809D01*
X123062093Y-150040649D01*
X123062087Y-150040646D01*
X122982030Y-150010786D01*
X122926097Y-149968914D01*
X122901680Y-149903450D01*
X122916532Y-149835177D01*
X122937681Y-149806925D01*
X122988242Y-149756365D01*
X123117815Y-149578022D01*
X123217895Y-149381606D01*
X123286015Y-149171951D01*
X123320500Y-148954222D01*
X123320500Y-148733778D01*
X123286015Y-148516049D01*
X123236498Y-148363649D01*
X123217896Y-148306396D01*
X123217895Y-148306393D01*
X123143697Y-148160774D01*
X123117815Y-148109978D01*
X123080904Y-148059174D01*
X122988247Y-147931641D01*
X122988243Y-147931636D01*
X122832363Y-147775756D01*
X122832358Y-147775752D01*
X122654025Y-147646187D01*
X122654024Y-147646186D01*
X122654022Y-147646185D01*
X122557302Y-147596903D01*
X122457606Y-147546104D01*
X122457603Y-147546103D01*
X122247952Y-147477985D01*
X122139086Y-147460742D01*
X122030222Y-147443500D01*
X121809778Y-147443500D01*
X121737201Y-147454995D01*
X121592047Y-147477985D01*
X121382396Y-147546103D01*
X121382393Y-147546104D01*
X121185974Y-147646187D01*
X121007641Y-147775752D01*
X121007636Y-147775756D01*
X120851756Y-147931636D01*
X120851752Y-147931641D01*
X120722187Y-148109974D01*
X120622104Y-148306393D01*
X120622103Y-148306396D01*
X120553985Y-148516047D01*
X120519500Y-148733778D01*
X120519500Y-148954221D01*
X120553985Y-149171952D01*
X120622103Y-149381603D01*
X120622104Y-149381606D01*
X120722187Y-149578025D01*
X120851752Y-149756358D01*
X120851756Y-149756363D01*
X120902316Y-149806923D01*
X120935801Y-149868246D01*
X120930817Y-149937938D01*
X120888945Y-149993871D01*
X120857969Y-150010785D01*
X120777918Y-150040643D01*
X120777906Y-150040649D01*
X120662812Y-150126809D01*
X120662809Y-150126812D01*
X120576649Y-150241906D01*
X120576645Y-150241913D01*
X120526403Y-150376620D01*
X120526401Y-150376627D01*
X120520000Y-150436155D01*
X120520000Y-151134000D01*
X121544722Y-151134000D01*
X121500667Y-151210306D01*
X121470000Y-151324756D01*
X121470000Y-151443244D01*
X121500667Y-151557694D01*
X121544722Y-151634000D01*
X120520000Y-151634000D01*
X120520000Y-152331841D01*
X120524302Y-152371843D01*
X120511898Y-152440603D01*
X120464288Y-152491741D01*
X120401013Y-152509100D01*
X117892136Y-152509100D01*
X117825097Y-152489415D01*
X117779342Y-152436611D01*
X117769398Y-152367453D01*
X117775954Y-152341767D01*
X117776396Y-152340579D01*
X117776398Y-152340572D01*
X117782799Y-152281044D01*
X117782800Y-152281027D01*
X117782800Y-151583200D01*
X116758078Y-151583200D01*
X116802133Y-151506894D01*
X116832800Y-151392444D01*
X116832800Y-151273956D01*
X116802133Y-151159506D01*
X116758078Y-151083200D01*
X117782800Y-151083200D01*
X117782800Y-150385372D01*
X117782799Y-150385355D01*
X117776398Y-150325827D01*
X117776396Y-150325820D01*
X117726154Y-150191113D01*
X117726150Y-150191106D01*
X117639990Y-150076012D01*
X117639987Y-150076009D01*
X117524893Y-149989849D01*
X117524887Y-149989846D01*
X117444830Y-149959986D01*
X117388897Y-149918114D01*
X117364480Y-149852650D01*
X117379332Y-149784377D01*
X117400481Y-149756125D01*
X117451042Y-149705565D01*
X117580615Y-149527222D01*
X117680695Y-149330806D01*
X117748815Y-149121151D01*
X117783300Y-148903422D01*
X117783300Y-148682978D01*
X117748815Y-148465249D01*
X117697201Y-148306394D01*
X117680696Y-148255596D01*
X117680695Y-148255593D01*
X117632381Y-148160774D01*
X117580615Y-148059178D01*
X117524859Y-147982436D01*
X117451047Y-147880841D01*
X117451043Y-147880836D01*
X117295163Y-147724956D01*
X117295158Y-147724952D01*
X117116825Y-147595387D01*
X117116824Y-147595386D01*
X117116822Y-147595385D01*
X117020102Y-147546103D01*
X116920406Y-147495304D01*
X116920403Y-147495303D01*
X116710752Y-147427185D01*
X116601886Y-147409942D01*
X116493022Y-147392700D01*
X116272578Y-147392700D01*
X116200001Y-147404195D01*
X116054847Y-147427185D01*
X115845196Y-147495303D01*
X115845193Y-147495304D01*
X115648774Y-147595387D01*
X115470441Y-147724952D01*
X115470436Y-147724956D01*
X115314556Y-147880836D01*
X115314552Y-147880841D01*
X115184987Y-148059174D01*
X115084904Y-148255593D01*
X115084903Y-148255596D01*
X115016785Y-148465247D01*
X114982300Y-148682978D01*
X114982300Y-148903421D01*
X115016785Y-149121152D01*
X115084903Y-149330803D01*
X115084904Y-149330806D01*
X115184987Y-149527225D01*
X115314552Y-149705558D01*
X115314556Y-149705563D01*
X115365116Y-149756123D01*
X115398601Y-149817446D01*
X115393617Y-149887138D01*
X115351745Y-149943071D01*
X115320769Y-149959985D01*
X115240718Y-149989843D01*
X115240706Y-149989849D01*
X115125612Y-150076009D01*
X115125609Y-150076012D01*
X115039449Y-150191106D01*
X115039445Y-150191113D01*
X114989203Y-150325820D01*
X114989201Y-150325827D01*
X114982800Y-150385355D01*
X114982800Y-151083200D01*
X116007522Y-151083200D01*
X115963467Y-151159506D01*
X115932800Y-151273956D01*
X115932800Y-151392444D01*
X115963467Y-151506894D01*
X116007522Y-151583200D01*
X114982800Y-151583200D01*
X114982800Y-152239802D01*
X114963115Y-152306841D01*
X114910311Y-152352596D01*
X114841153Y-152362540D01*
X114777597Y-152333515D01*
X114772757Y-152329092D01*
X114045430Y-151628214D01*
X114040011Y-151620264D01*
X114034922Y-151616731D01*
X114016913Y-151586378D01*
X114008133Y-151565182D01*
X114002121Y-151546682D01*
X113956156Y-151355224D01*
X113953113Y-151336011D01*
X113952227Y-151324756D01*
X113942569Y-151202038D01*
X113942187Y-151192309D01*
X113942187Y-133742302D01*
X114628300Y-133742302D01*
X114628300Y-133978497D01*
X114665246Y-134211768D01*
X114738233Y-134436396D01*
X114801755Y-134561063D01*
X114845457Y-134646833D01*
X114984283Y-134837910D01*
X115151290Y-135004917D01*
X115294597Y-135109036D01*
X115342368Y-135143744D01*
X115389544Y-135167781D01*
X115435594Y-135191244D01*
X115486390Y-135239218D01*
X115503300Y-135301729D01*
X115503300Y-138919069D01*
X115483615Y-138986108D01*
X115435596Y-139029553D01*
X115342369Y-139077055D01*
X115251986Y-139142723D01*
X115151290Y-139215883D01*
X115151288Y-139215885D01*
X115151287Y-139215885D01*
X114984285Y-139382887D01*
X114984285Y-139382888D01*
X114984283Y-139382890D01*
X114977269Y-139392544D01*
X114845457Y-139573966D01*
X114738233Y-139784403D01*
X114665246Y-140009031D01*
X114628300Y-140242302D01*
X114628300Y-140478497D01*
X114665246Y-140711768D01*
X114738233Y-140936396D01*
X114817798Y-141092549D01*
X114845457Y-141146833D01*
X114984283Y-141337910D01*
X115151290Y-141504917D01*
X115342367Y-141643743D01*
X115441791Y-141694402D01*
X115552803Y-141750966D01*
X115552805Y-141750966D01*
X115552808Y-141750968D01*
X115614728Y-141771087D01*
X115777431Y-141823953D01*
X116010703Y-141860900D01*
X116010708Y-141860900D01*
X116246897Y-141860900D01*
X116480168Y-141823953D01*
X116481670Y-141823465D01*
X116704792Y-141750968D01*
X116915233Y-141643743D01*
X117106310Y-141504917D01*
X117273317Y-141337910D01*
X117412143Y-141146833D01*
X117519368Y-140936392D01*
X117592353Y-140711768D01*
X117601058Y-140656806D01*
X117629300Y-140478497D01*
X117629300Y-140242347D01*
X119128800Y-140242347D01*
X119128800Y-140478452D01*
X119165734Y-140711647D01*
X119238697Y-140936202D01*
X119345887Y-141146574D01*
X119406138Y-141229504D01*
X119406140Y-141229505D01*
X120105012Y-140530633D01*
X120116282Y-140572692D01*
X120188690Y-140698108D01*
X120291092Y-140800510D01*
X120416508Y-140872918D01*
X120458565Y-140884187D01*
X119759693Y-141583058D01*
X119842628Y-141643314D01*
X120052997Y-141750502D01*
X120277552Y-141823465D01*
X120277551Y-141823465D01*
X120510748Y-141860400D01*
X120746852Y-141860400D01*
X120980047Y-141823465D01*
X121204602Y-141750502D01*
X121414963Y-141643318D01*
X121414969Y-141643314D01*
X121497904Y-141583058D01*
X121497905Y-141583058D01*
X120799033Y-140884187D01*
X120841092Y-140872918D01*
X120966508Y-140800510D01*
X121068910Y-140698108D01*
X121141318Y-140572692D01*
X121152587Y-140530634D01*
X121851458Y-141229505D01*
X121851458Y-141229504D01*
X121911714Y-141146569D01*
X121911718Y-141146563D01*
X122018902Y-140936202D01*
X122091865Y-140711647D01*
X122128800Y-140478452D01*
X122128800Y-140242347D01*
X122091865Y-140009152D01*
X122018902Y-139784597D01*
X121911714Y-139574228D01*
X121851458Y-139491294D01*
X121851458Y-139491293D01*
X121152587Y-140190165D01*
X121141318Y-140148108D01*
X121068910Y-140022692D01*
X120966508Y-139920290D01*
X120841092Y-139847882D01*
X120799034Y-139836612D01*
X121376862Y-139258783D01*
X127629900Y-139258783D01*
X127629900Y-141258801D01*
X127629901Y-141258818D01*
X127640400Y-141361596D01*
X127640401Y-141361599D01*
X127663020Y-141429857D01*
X127695586Y-141528134D01*
X127787688Y-141677456D01*
X127911744Y-141801512D01*
X128061066Y-141893614D01*
X128227603Y-141948799D01*
X128330391Y-141959300D01*
X129530408Y-141959299D01*
X129633197Y-141948799D01*
X129799734Y-141893614D01*
X129949056Y-141801512D01*
X130073112Y-141677456D01*
X130165214Y-141528134D01*
X130192355Y-141446227D01*
X130232126Y-141388784D01*
X130296642Y-141361961D01*
X130365418Y-141374276D01*
X130410377Y-141412347D01*
X130436367Y-141448118D01*
X130478434Y-141506019D01*
X130623186Y-141650771D01*
X130761098Y-141750968D01*
X130788790Y-141771087D01*
X130892545Y-141823953D01*
X130971176Y-141864018D01*
X130971178Y-141864018D01*
X130971181Y-141864020D01*
X131062256Y-141893612D01*
X131165865Y-141927277D01*
X131266957Y-141943288D01*
X131368048Y-141959300D01*
X131368049Y-141959300D01*
X131572751Y-141959300D01*
X131572752Y-141959300D01*
X131774934Y-141927277D01*
X131969619Y-141864020D01*
X132152010Y-141771087D01*
X132277826Y-141679677D01*
X132317613Y-141650771D01*
X132317615Y-141650768D01*
X132317619Y-141650766D01*
X132462366Y-141506019D01*
X132462368Y-141506015D01*
X132462371Y-141506013D01*
X132582684Y-141340414D01*
X132582683Y-141340414D01*
X132582687Y-141340410D01*
X132629916Y-141247717D01*
X132677889Y-141196923D01*
X132745710Y-141180128D01*
X132811845Y-141202665D01*
X132850883Y-141247717D01*
X132856540Y-141258818D01*
X132898115Y-141340414D01*
X133018428Y-141506013D01*
X133163186Y-141650771D01*
X133301098Y-141750968D01*
X133328790Y-141771087D01*
X133432545Y-141823953D01*
X133511176Y-141864018D01*
X133511178Y-141864018D01*
X133511181Y-141864020D01*
X133602256Y-141893612D01*
X133705865Y-141927277D01*
X133806957Y-141943288D01*
X133908048Y-141959300D01*
X133908049Y-141959300D01*
X134112751Y-141959300D01*
X134112752Y-141959300D01*
X134314934Y-141927277D01*
X134509619Y-141864020D01*
X134692010Y-141771087D01*
X134817826Y-141679677D01*
X134857613Y-141650771D01*
X134857615Y-141650768D01*
X134857619Y-141650766D01*
X135002366Y-141506019D01*
X135002368Y-141506015D01*
X135002371Y-141506013D01*
X135122684Y-141340414D01*
X135122683Y-141340414D01*
X135122687Y-141340410D01*
X135169916Y-141247717D01*
X135217889Y-141196923D01*
X135285710Y-141180128D01*
X135351845Y-141202665D01*
X135390883Y-141247717D01*
X135396540Y-141258818D01*
X135438115Y-141340414D01*
X135558428Y-141506013D01*
X135703186Y-141650771D01*
X135841098Y-141750968D01*
X135868790Y-141771087D01*
X135972545Y-141823953D01*
X136051176Y-141864018D01*
X136051178Y-141864018D01*
X136051181Y-141864020D01*
X136142256Y-141893612D01*
X136245865Y-141927277D01*
X136346957Y-141943288D01*
X136448048Y-141959300D01*
X136448049Y-141959300D01*
X136652751Y-141959300D01*
X136652752Y-141959300D01*
X136854934Y-141927277D01*
X137049619Y-141864020D01*
X137232010Y-141771087D01*
X137357826Y-141679677D01*
X137397613Y-141650771D01*
X137397615Y-141650768D01*
X137397619Y-141650766D01*
X137542366Y-141506019D01*
X137542368Y-141506015D01*
X137542371Y-141506013D01*
X137662684Y-141340414D01*
X137662683Y-141340414D01*
X137662687Y-141340410D01*
X137709916Y-141247717D01*
X137757889Y-141196923D01*
X137825710Y-141180128D01*
X137891845Y-141202665D01*
X137930883Y-141247717D01*
X137936540Y-141258818D01*
X137978115Y-141340414D01*
X138098428Y-141506013D01*
X138243186Y-141650771D01*
X138381098Y-141750968D01*
X138408790Y-141771087D01*
X138512545Y-141823953D01*
X138591176Y-141864018D01*
X138591178Y-141864018D01*
X138591181Y-141864020D01*
X138682256Y-141893612D01*
X138785865Y-141927277D01*
X138886957Y-141943288D01*
X138988048Y-141959300D01*
X138988049Y-141959300D01*
X139192751Y-141959300D01*
X139192752Y-141959300D01*
X139394934Y-141927277D01*
X139589619Y-141864020D01*
X139772010Y-141771087D01*
X139897826Y-141679677D01*
X139937613Y-141650771D01*
X139937615Y-141650768D01*
X139937619Y-141650766D01*
X140082366Y-141506019D01*
X140082368Y-141506015D01*
X140082371Y-141506013D01*
X140202684Y-141340414D01*
X140202683Y-141340414D01*
X140202687Y-141340410D01*
X140249916Y-141247717D01*
X140297889Y-141196923D01*
X140365710Y-141180128D01*
X140431845Y-141202665D01*
X140470883Y-141247717D01*
X140476540Y-141258818D01*
X140518115Y-141340414D01*
X140638428Y-141506013D01*
X140783186Y-141650771D01*
X140921098Y-141750968D01*
X140948790Y-141771087D01*
X141052545Y-141823953D01*
X141131176Y-141864018D01*
X141131178Y-141864018D01*
X141131181Y-141864020D01*
X141222256Y-141893612D01*
X141325865Y-141927277D01*
X141426957Y-141943288D01*
X141528048Y-141959300D01*
X141528049Y-141959300D01*
X141732751Y-141959300D01*
X141732752Y-141959300D01*
X141934934Y-141927277D01*
X142129619Y-141864020D01*
X142312010Y-141771087D01*
X142437826Y-141679677D01*
X142477613Y-141650771D01*
X142477615Y-141650768D01*
X142477619Y-141650766D01*
X142622366Y-141506019D01*
X142622368Y-141506015D01*
X142622371Y-141506013D01*
X142742684Y-141340414D01*
X142742683Y-141340414D01*
X142742687Y-141340410D01*
X142789916Y-141247717D01*
X142837889Y-141196923D01*
X142905710Y-141180128D01*
X142971845Y-141202665D01*
X143010883Y-141247717D01*
X143016540Y-141258818D01*
X143058115Y-141340414D01*
X143178428Y-141506013D01*
X143323186Y-141650771D01*
X143461098Y-141750968D01*
X143488790Y-141771087D01*
X143592545Y-141823953D01*
X143671176Y-141864018D01*
X143671178Y-141864018D01*
X143671181Y-141864020D01*
X143762256Y-141893612D01*
X143865865Y-141927277D01*
X143966957Y-141943288D01*
X144068048Y-141959300D01*
X144068049Y-141959300D01*
X144272751Y-141959300D01*
X144272752Y-141959300D01*
X144474934Y-141927277D01*
X144669619Y-141864020D01*
X144852010Y-141771087D01*
X144977826Y-141679677D01*
X145017613Y-141650771D01*
X145017615Y-141650768D01*
X145017619Y-141650766D01*
X145162366Y-141506019D01*
X145162368Y-141506015D01*
X145162371Y-141506013D01*
X145282684Y-141340414D01*
X145282683Y-141340414D01*
X145282687Y-141340410D01*
X145330195Y-141247169D01*
X145378170Y-141196374D01*
X145445991Y-141179579D01*
X145512125Y-141202116D01*
X145551165Y-141247170D01*
X145598540Y-141340149D01*
X145718817Y-141505694D01*
X145718817Y-141505695D01*
X145863504Y-141650382D01*
X146029050Y-141770659D01*
X146211368Y-141863554D01*
X146405978Y-141926788D01*
X146460400Y-141935407D01*
X146460400Y-140574486D01*
X146464794Y-140578880D01*
X146556006Y-140631541D01*
X146657739Y-140658800D01*
X146763061Y-140658800D01*
X146864794Y-140631541D01*
X146956006Y-140578880D01*
X146960400Y-140574486D01*
X146960400Y-141935406D01*
X147014821Y-141926788D01*
X147209431Y-141863554D01*
X147391749Y-141770659D01*
X147557294Y-141650382D01*
X147557295Y-141650382D01*
X147701982Y-141505695D01*
X147701982Y-141505694D01*
X147822259Y-141340149D01*
X147915155Y-141157831D01*
X147978390Y-140963217D01*
X148010400Y-140761117D01*
X148010400Y-140508800D01*
X147026086Y-140508800D01*
X147030480Y-140504406D01*
X147083141Y-140413194D01*
X147110400Y-140311461D01*
X147110400Y-140206139D01*
X147083141Y-140104406D01*
X147030480Y-140013194D01*
X147026086Y-140008800D01*
X148010400Y-140008800D01*
X148010400Y-139756482D01*
X147978390Y-139554382D01*
X147915155Y-139359768D01*
X147822259Y-139177450D01*
X147701982Y-139011905D01*
X147701982Y-139011904D01*
X147557295Y-138867217D01*
X147480378Y-138811333D01*
X147391749Y-138746940D01*
X147209429Y-138654044D01*
X147014813Y-138590809D01*
X146960400Y-138582190D01*
X146960400Y-139943114D01*
X146956006Y-139938720D01*
X146864794Y-139886059D01*
X146763061Y-139858800D01*
X146657739Y-139858800D01*
X146556006Y-139886059D01*
X146464794Y-139938720D01*
X146460400Y-139943114D01*
X146460400Y-138582190D01*
X146405986Y-138590809D01*
X146211370Y-138654044D01*
X146029050Y-138746940D01*
X145863505Y-138867217D01*
X145863504Y-138867217D01*
X145718817Y-139011904D01*
X145718817Y-139011905D01*
X145598540Y-139177450D01*
X145551165Y-139270429D01*
X145503190Y-139321225D01*
X145435369Y-139338020D01*
X145369234Y-139315482D01*
X145330195Y-139270429D01*
X145310916Y-139232593D01*
X145282687Y-139177190D01*
X145259944Y-139145887D01*
X145162371Y-139011586D01*
X145017613Y-138866828D01*
X144852013Y-138746515D01*
X144852012Y-138746514D01*
X144852010Y-138746513D01*
X144792298Y-138716088D01*
X144669623Y-138653581D01*
X144474934Y-138590322D01*
X144300395Y-138562678D01*
X144272752Y-138558300D01*
X144068048Y-138558300D01*
X144043729Y-138562151D01*
X143865865Y-138590322D01*
X143671176Y-138653581D01*
X143488786Y-138746515D01*
X143323186Y-138866828D01*
X143178428Y-139011586D01*
X143058115Y-139177186D01*
X143010885Y-139269880D01*
X142962910Y-139320676D01*
X142895089Y-139337471D01*
X142828954Y-139314934D01*
X142789915Y-139269880D01*
X142784261Y-139258783D01*
X142742687Y-139177190D01*
X142719944Y-139145887D01*
X142622371Y-139011586D01*
X142477613Y-138866828D01*
X142312013Y-138746515D01*
X142312012Y-138746514D01*
X142312010Y-138746513D01*
X142252298Y-138716088D01*
X142129623Y-138653581D01*
X141934934Y-138590322D01*
X141760395Y-138562678D01*
X141732752Y-138558300D01*
X141528048Y-138558300D01*
X141503729Y-138562151D01*
X141325865Y-138590322D01*
X141131176Y-138653581D01*
X140948786Y-138746515D01*
X140783186Y-138866828D01*
X140638428Y-139011586D01*
X140518115Y-139177186D01*
X140470885Y-139269880D01*
X140422910Y-139320676D01*
X140355089Y-139337471D01*
X140288954Y-139314934D01*
X140249915Y-139269880D01*
X140244261Y-139258783D01*
X140202687Y-139177190D01*
X140179944Y-139145887D01*
X140082371Y-139011586D01*
X139937613Y-138866828D01*
X139772013Y-138746515D01*
X139772012Y-138746514D01*
X139772010Y-138746513D01*
X139712298Y-138716088D01*
X139589623Y-138653581D01*
X139394934Y-138590322D01*
X139220395Y-138562678D01*
X139192752Y-138558300D01*
X138988048Y-138558300D01*
X138963729Y-138562151D01*
X138785865Y-138590322D01*
X138591176Y-138653581D01*
X138408786Y-138746515D01*
X138243186Y-138866828D01*
X138098428Y-139011586D01*
X137978115Y-139177186D01*
X137930885Y-139269880D01*
X137882910Y-139320676D01*
X137815089Y-139337471D01*
X137748954Y-139314934D01*
X137709915Y-139269880D01*
X137704261Y-139258783D01*
X137662687Y-139177190D01*
X137639944Y-139145887D01*
X137542371Y-139011586D01*
X137397613Y-138866828D01*
X137232013Y-138746515D01*
X137232012Y-138746514D01*
X137232010Y-138746513D01*
X137172298Y-138716088D01*
X137049623Y-138653581D01*
X136854934Y-138590322D01*
X136680395Y-138562678D01*
X136652752Y-138558300D01*
X136448048Y-138558300D01*
X136423729Y-138562151D01*
X136245865Y-138590322D01*
X136051176Y-138653581D01*
X135868786Y-138746515D01*
X135703186Y-138866828D01*
X135558428Y-139011586D01*
X135438115Y-139177186D01*
X135390885Y-139269880D01*
X135342910Y-139320676D01*
X135275089Y-139337471D01*
X135208954Y-139314934D01*
X135169915Y-139269880D01*
X135164261Y-139258783D01*
X135122687Y-139177190D01*
X135099944Y-139145887D01*
X135002371Y-139011586D01*
X134857613Y-138866828D01*
X134692013Y-138746515D01*
X134692012Y-138746514D01*
X134692010Y-138746513D01*
X134632298Y-138716088D01*
X134509623Y-138653581D01*
X134314934Y-138590322D01*
X134140395Y-138562678D01*
X134112752Y-138558300D01*
X133908048Y-138558300D01*
X133883729Y-138562151D01*
X133705865Y-138590322D01*
X133511176Y-138653581D01*
X133328786Y-138746515D01*
X133163186Y-138866828D01*
X133018428Y-139011586D01*
X132898115Y-139177186D01*
X132850885Y-139269880D01*
X132802910Y-139320676D01*
X132735089Y-139337471D01*
X132668954Y-139314934D01*
X132629915Y-139269880D01*
X132624261Y-139258783D01*
X132582687Y-139177190D01*
X132559944Y-139145887D01*
X132462371Y-139011586D01*
X132317613Y-138866828D01*
X132152013Y-138746515D01*
X132152012Y-138746514D01*
X132152010Y-138746513D01*
X132092298Y-138716088D01*
X131969623Y-138653581D01*
X131774934Y-138590322D01*
X131600395Y-138562678D01*
X131572752Y-138558300D01*
X131368048Y-138558300D01*
X131343729Y-138562151D01*
X131165865Y-138590322D01*
X130971176Y-138653581D01*
X130788786Y-138746515D01*
X130623186Y-138866828D01*
X130478432Y-139011582D01*
X130478428Y-139011587D01*
X130410378Y-139105251D01*
X130355048Y-139147917D01*
X130285435Y-139153896D01*
X130223640Y-139121290D01*
X130192354Y-139071370D01*
X130187246Y-139055955D01*
X130165214Y-138989466D01*
X130073112Y-138840144D01*
X129949056Y-138716088D01*
X129799734Y-138623986D01*
X129633197Y-138568801D01*
X129633195Y-138568800D01*
X129530410Y-138558300D01*
X128330398Y-138558300D01*
X128330381Y-138558301D01*
X128227603Y-138568800D01*
X128227600Y-138568801D01*
X128061068Y-138623985D01*
X128061063Y-138623987D01*
X127911742Y-138716089D01*
X127787689Y-138840142D01*
X127695587Y-138989463D01*
X127695585Y-138989468D01*
X127669433Y-139068390D01*
X127640401Y-139156003D01*
X127640401Y-139156004D01*
X127640400Y-139156004D01*
X127629900Y-139258783D01*
X121376862Y-139258783D01*
X121497905Y-139137740D01*
X121497904Y-139137738D01*
X121414974Y-139077487D01*
X121250926Y-138993900D01*
X121204602Y-138970297D01*
X120980047Y-138897334D01*
X120980048Y-138897334D01*
X120746852Y-138860400D01*
X120510748Y-138860400D01*
X120277552Y-138897334D01*
X120052997Y-138970297D01*
X119842630Y-139077484D01*
X119759694Y-139137740D01*
X120458566Y-139836612D01*
X120416508Y-139847882D01*
X120291092Y-139920290D01*
X120188690Y-140022692D01*
X120116282Y-140148108D01*
X120105012Y-140190166D01*
X119406140Y-139491294D01*
X119345884Y-139574230D01*
X119238697Y-139784597D01*
X119165734Y-140009152D01*
X119128800Y-140242347D01*
X117629300Y-140242347D01*
X117629300Y-140242302D01*
X117592353Y-140009031D01*
X117552702Y-139887000D01*
X117519368Y-139784408D01*
X117519366Y-139784405D01*
X117519366Y-139784403D01*
X117462802Y-139673391D01*
X117412143Y-139573967D01*
X117273317Y-139382890D01*
X117106310Y-139215883D01*
X116915233Y-139077057D01*
X116915232Y-139077056D01*
X116915230Y-139077055D01*
X116822004Y-139029553D01*
X116771209Y-138981578D01*
X116754300Y-138919069D01*
X116754300Y-135301729D01*
X116773985Y-135234690D01*
X116822005Y-135191244D01*
X116915233Y-135143743D01*
X117106310Y-135004917D01*
X117273317Y-134837910D01*
X117412143Y-134646833D01*
X117519368Y-134436392D01*
X117592353Y-134211768D01*
X117599550Y-134166328D01*
X117629300Y-133978497D01*
X117629300Y-133742347D01*
X119128800Y-133742347D01*
X119128800Y-133978452D01*
X119165734Y-134211647D01*
X119238697Y-134436202D01*
X119345887Y-134646574D01*
X119406138Y-134729504D01*
X119406140Y-134729505D01*
X120105012Y-134030633D01*
X120116282Y-134072692D01*
X120188690Y-134198108D01*
X120291092Y-134300510D01*
X120416508Y-134372918D01*
X120458565Y-134384187D01*
X119759693Y-135083058D01*
X119842628Y-135143314D01*
X120052997Y-135250502D01*
X120277552Y-135323465D01*
X120277551Y-135323465D01*
X120510748Y-135360400D01*
X120746852Y-135360400D01*
X120980047Y-135323465D01*
X121204602Y-135250502D01*
X121414963Y-135143318D01*
X121414969Y-135143314D01*
X121497904Y-135083058D01*
X121497905Y-135083058D01*
X120799033Y-134384187D01*
X120841092Y-134372918D01*
X120966508Y-134300510D01*
X121068910Y-134198108D01*
X121141318Y-134072692D01*
X121152587Y-134030634D01*
X121851458Y-134729505D01*
X121851458Y-134729504D01*
X121911714Y-134646569D01*
X121911718Y-134646563D01*
X122018902Y-134436202D01*
X122091865Y-134211647D01*
X122128800Y-133978452D01*
X122128800Y-133742347D01*
X122091865Y-133509152D01*
X122018902Y-133284597D01*
X121911714Y-133074228D01*
X121851458Y-132991294D01*
X121851458Y-132991293D01*
X121152587Y-133690165D01*
X121141318Y-133648108D01*
X121068910Y-133522692D01*
X120966508Y-133420290D01*
X120841092Y-133347882D01*
X120799034Y-133336612D01*
X121497905Y-132637740D01*
X121497904Y-132637738D01*
X121414974Y-132577487D01*
X121204602Y-132470297D01*
X120980047Y-132397334D01*
X120980048Y-132397334D01*
X120746852Y-132360400D01*
X120510748Y-132360400D01*
X120277552Y-132397334D01*
X120052997Y-132470297D01*
X119842630Y-132577484D01*
X119759694Y-132637740D01*
X120458566Y-133336612D01*
X120416508Y-133347882D01*
X120291092Y-133420290D01*
X120188690Y-133522692D01*
X120116282Y-133648108D01*
X120105012Y-133690166D01*
X119406140Y-132991294D01*
X119345884Y-133074230D01*
X119238697Y-133284597D01*
X119165734Y-133509152D01*
X119128800Y-133742347D01*
X117629300Y-133742347D01*
X117629300Y-133742302D01*
X117592353Y-133509031D01*
X117537025Y-133338751D01*
X117519368Y-133284408D01*
X117519366Y-133284405D01*
X117519366Y-133284403D01*
X117446375Y-133141151D01*
X117412143Y-133073967D01*
X117273317Y-132882890D01*
X117106310Y-132715883D01*
X116915233Y-132577057D01*
X116704796Y-132469833D01*
X116480168Y-132396846D01*
X116246897Y-132359900D01*
X116246892Y-132359900D01*
X116010708Y-132359900D01*
X116010703Y-132359900D01*
X115777431Y-132396846D01*
X115552803Y-132469833D01*
X115342366Y-132577057D01*
X115241962Y-132650006D01*
X115151290Y-132715883D01*
X115151288Y-132715885D01*
X115151287Y-132715885D01*
X114984285Y-132882887D01*
X114984285Y-132882888D01*
X114984283Y-132882890D01*
X114950426Y-132929490D01*
X114845457Y-133073966D01*
X114738233Y-133284403D01*
X114665246Y-133509031D01*
X114628300Y-133742302D01*
X113942187Y-133742302D01*
X113942187Y-120981183D01*
X115079100Y-120981183D01*
X115079100Y-121781201D01*
X115079101Y-121781219D01*
X115089600Y-121883996D01*
X115089601Y-121883999D01*
X115144785Y-122050531D01*
X115144787Y-122050536D01*
X115179669Y-122107088D01*
X115189334Y-122122759D01*
X115236889Y-122199857D01*
X115360945Y-122323913D01*
X115395194Y-122345037D01*
X115441920Y-122396984D01*
X115454100Y-122450577D01*
X115454100Y-126718957D01*
X115476862Y-126833384D01*
X115476862Y-126833386D01*
X115481979Y-126859111D01*
X115481982Y-126859123D01*
X115517689Y-126945328D01*
X115536671Y-126991153D01*
X115580110Y-127056164D01*
X115616069Y-127109982D01*
X115616070Y-127109983D01*
X117185002Y-128678914D01*
X117218487Y-128740237D01*
X117217096Y-128798688D01*
X117169497Y-128976334D01*
X117169494Y-128976347D01*
X117140401Y-129197333D01*
X117140400Y-129197349D01*
X117140400Y-129420250D01*
X117140401Y-129420266D01*
X117169494Y-129641252D01*
X117169495Y-129641257D01*
X117169496Y-129641263D01*
X117224648Y-129847094D01*
X117227190Y-129856580D01*
X117227193Y-129856590D01*
X117312493Y-130062522D01*
X117312495Y-130062526D01*
X117423952Y-130255574D01*
X117423957Y-130255580D01*
X117423958Y-130255582D01*
X117559651Y-130432422D01*
X117559657Y-130432429D01*
X117717270Y-130590042D01*
X117717277Y-130590048D01*
X117821535Y-130670047D01*
X117894126Y-130725748D01*
X118087174Y-130837205D01*
X118105532Y-130844809D01*
X118290581Y-130921459D01*
X118293119Y-130922510D01*
X118508437Y-130980204D01*
X118729443Y-131009300D01*
X118729450Y-131009300D01*
X118952350Y-131009300D01*
X118952357Y-131009300D01*
X119173363Y-130980204D01*
X119388681Y-130922510D01*
X119594626Y-130837205D01*
X119787674Y-130725748D01*
X119964524Y-130590047D01*
X120122147Y-130432424D01*
X120257848Y-130255574D01*
X120369305Y-130062526D01*
X120454610Y-129856581D01*
X120512304Y-129641263D01*
X120541400Y-129420257D01*
X120541400Y-129197343D01*
X120512304Y-128976337D01*
X120454610Y-128761019D01*
X120442918Y-128732793D01*
X120411455Y-128656833D01*
X120369305Y-128555074D01*
X120257848Y-128362026D01*
X120197734Y-128283683D01*
X120122148Y-128185177D01*
X120122142Y-128185170D01*
X119964529Y-128027557D01*
X119964522Y-128027551D01*
X119787682Y-127891858D01*
X119787680Y-127891857D01*
X119787674Y-127891852D01*
X119594626Y-127780395D01*
X119594616Y-127780390D01*
X119514876Y-127747361D01*
X119460472Y-127703520D01*
X119438407Y-127637226D01*
X119455686Y-127569527D01*
X119506823Y-127521916D01*
X119562328Y-127508800D01*
X119840873Y-127508800D01*
X119840885Y-127508799D01*
X119943589Y-127498306D01*
X119943596Y-127498305D01*
X120110018Y-127443158D01*
X120110023Y-127443156D01*
X120259244Y-127351115D01*
X120383215Y-127227144D01*
X120475256Y-127077923D01*
X120475258Y-127077918D01*
X120530405Y-126911496D01*
X120530406Y-126911489D01*
X120540899Y-126808785D01*
X120540900Y-126808772D01*
X120540900Y-126058800D01*
X119389382Y-126058800D01*
X119400011Y-126040391D01*
X119440900Y-125887791D01*
X119440900Y-125729809D01*
X119400011Y-125577209D01*
X119389382Y-125558800D01*
X120540900Y-125558800D01*
X120540900Y-124808827D01*
X120540899Y-124808814D01*
X120530406Y-124706110D01*
X120530405Y-124706103D01*
X120475258Y-124539681D01*
X120475256Y-124539676D01*
X120383215Y-124390455D01*
X120259244Y-124266484D01*
X120110023Y-124174443D01*
X120110018Y-124174441D01*
X119943596Y-124119294D01*
X119943589Y-124119293D01*
X119840885Y-124108800D01*
X119090900Y-124108800D01*
X119090900Y-125260317D01*
X119072491Y-125249689D01*
X118919891Y-125208800D01*
X118761909Y-125208800D01*
X118609309Y-125249689D01*
X118590900Y-125260317D01*
X118590900Y-124108800D01*
X117840914Y-124108800D01*
X117738210Y-124119293D01*
X117738203Y-124119294D01*
X117571781Y-124174441D01*
X117571776Y-124174443D01*
X117422555Y-124266484D01*
X117298584Y-124390455D01*
X117206543Y-124539676D01*
X117206541Y-124539681D01*
X117151394Y-124706103D01*
X117150352Y-124710974D01*
X117117067Y-124772406D01*
X117055853Y-124806091D01*
X116986146Y-124801333D01*
X116930076Y-124759645D01*
X116905445Y-124694260D01*
X116905100Y-124685011D01*
X116905100Y-122450577D01*
X116924785Y-122383538D01*
X116964006Y-122345037D01*
X116998254Y-122323913D01*
X116998253Y-122323913D01*
X116998256Y-122323912D01*
X117122312Y-122199856D01*
X117214414Y-122050534D01*
X117269599Y-121883997D01*
X117280100Y-121781209D01*
X117280100Y-121766848D01*
X118587500Y-121766848D01*
X118587500Y-121971551D01*
X118619522Y-122173734D01*
X118682781Y-122368423D01*
X118775715Y-122550813D01*
X118896028Y-122716413D01*
X119040786Y-122861171D01*
X119159500Y-122947420D01*
X119206390Y-122981487D01*
X119322607Y-123040703D01*
X119388776Y-123074418D01*
X119388778Y-123074418D01*
X119388781Y-123074420D01*
X119486267Y-123106095D01*
X119583465Y-123137677D01*
X119677363Y-123152549D01*
X119785648Y-123169700D01*
X119785649Y-123169700D01*
X119990351Y-123169700D01*
X119990352Y-123169700D01*
X120192534Y-123137677D01*
X120387219Y-123074420D01*
X120569610Y-122981487D01*
X120662590Y-122913932D01*
X120735213Y-122861171D01*
X120735215Y-122861168D01*
X120735219Y-122861166D01*
X120879966Y-122716419D01*
X120885523Y-122708771D01*
X120931263Y-122645815D01*
X120986593Y-122603149D01*
X121031581Y-122594700D01*
X122341057Y-122594700D01*
X122435351Y-122575942D01*
X122481220Y-122566819D01*
X122613253Y-122512129D01*
X122650164Y-122487466D01*
X122732080Y-122432732D01*
X125671911Y-119492899D01*
X125733232Y-119459416D01*
X125802923Y-119464400D01*
X125858856Y-119506271D01*
X125943952Y-119619944D01*
X125943955Y-119619947D01*
X126059164Y-119706193D01*
X126059171Y-119706197D01*
X126194017Y-119756491D01*
X126194016Y-119756491D01*
X126200944Y-119757235D01*
X126253627Y-119762900D01*
X128254372Y-119762899D01*
X128313983Y-119756491D01*
X128448831Y-119706196D01*
X128564046Y-119619946D01*
X128650296Y-119504731D01*
X128660872Y-119476374D01*
X128702740Y-119420441D01*
X128768204Y-119396022D01*
X128836477Y-119410872D01*
X128849940Y-119419388D01*
X129032723Y-119552188D01*
X129236429Y-119655982D01*
X129453871Y-119726634D01*
X129544000Y-119740909D01*
X129544000Y-118753147D01*
X129581708Y-118774918D01*
X129721591Y-118812400D01*
X129866409Y-118812400D01*
X130006292Y-118774918D01*
X130044000Y-118753147D01*
X130044000Y-119740908D01*
X130134128Y-119726634D01*
X130351570Y-119655982D01*
X130555276Y-119552188D01*
X130740242Y-119417802D01*
X130901905Y-119256139D01*
X130963371Y-119171537D01*
X131018701Y-119128870D01*
X131088314Y-119122891D01*
X131150109Y-119155496D01*
X131164007Y-119171534D01*
X131225714Y-119256466D01*
X131387434Y-119418186D01*
X131572462Y-119552617D01*
X131755933Y-119646100D01*
X131776244Y-119656449D01*
X131993751Y-119727121D01*
X131993752Y-119727121D01*
X131993755Y-119727122D01*
X132219646Y-119762900D01*
X132219647Y-119762900D01*
X132448353Y-119762900D01*
X132448354Y-119762900D01*
X132674245Y-119727122D01*
X132674248Y-119727121D01*
X132674249Y-119727121D01*
X132891755Y-119656449D01*
X132891755Y-119656448D01*
X132891758Y-119656448D01*
X133095538Y-119552617D01*
X133280566Y-119418186D01*
X133442286Y-119256466D01*
X133576717Y-119071438D01*
X133680548Y-118867658D01*
X133710681Y-118774918D01*
X133751221Y-118650149D01*
X133751221Y-118650148D01*
X133751222Y-118650145D01*
X133787000Y-118424254D01*
X133787000Y-118100546D01*
X133751222Y-117874655D01*
X133751221Y-117874651D01*
X133751221Y-117874650D01*
X133680549Y-117657144D01*
X133633488Y-117564781D01*
X133576717Y-117453362D01*
X133442286Y-117268334D01*
X133280566Y-117106614D01*
X133095538Y-116972183D01*
X133057534Y-116952819D01*
X132891755Y-116868350D01*
X132674248Y-116797678D01*
X132488812Y-116768308D01*
X132448354Y-116761900D01*
X132219646Y-116761900D01*
X132179188Y-116768308D01*
X131993753Y-116797678D01*
X131993750Y-116797678D01*
X131776244Y-116868350D01*
X131572461Y-116972183D01*
X131506550Y-117020071D01*
X131387434Y-117106614D01*
X131387432Y-117106616D01*
X131387431Y-117106616D01*
X131225716Y-117268331D01*
X131225709Y-117268340D01*
X131164007Y-117353264D01*
X131108677Y-117395930D01*
X131039063Y-117401908D01*
X130977269Y-117369301D01*
X130963372Y-117353263D01*
X130901907Y-117268663D01*
X130901902Y-117268657D01*
X130740242Y-117106997D01*
X130555276Y-116972611D01*
X130351568Y-116868817D01*
X130134124Y-116798165D01*
X130044000Y-116783890D01*
X130044000Y-117771652D01*
X130006292Y-117749882D01*
X129866409Y-117712400D01*
X129721591Y-117712400D01*
X129581708Y-117749882D01*
X129544000Y-117771652D01*
X129544000Y-116783890D01*
X129543999Y-116783890D01*
X129453875Y-116798165D01*
X129236431Y-116868817D01*
X129032719Y-116972613D01*
X128849939Y-117105410D01*
X128784132Y-117128890D01*
X128716079Y-117113064D01*
X128667384Y-117062958D01*
X128660875Y-117048433D01*
X128650296Y-117020069D01*
X128650295Y-117020067D01*
X128650293Y-117020064D01*
X128564047Y-116904855D01*
X128564044Y-116904852D01*
X128448835Y-116818606D01*
X128448828Y-116818602D01*
X128313982Y-116768308D01*
X128313983Y-116768308D01*
X128254383Y-116761901D01*
X128254381Y-116761900D01*
X128254373Y-116761900D01*
X128254364Y-116761900D01*
X126253629Y-116761900D01*
X126253623Y-116761901D01*
X126194016Y-116768308D01*
X126059171Y-116818602D01*
X126059164Y-116818606D01*
X125943955Y-116904852D01*
X125943952Y-116904855D01*
X125857706Y-117020064D01*
X125857702Y-117020071D01*
X125807408Y-117154917D01*
X125801001Y-117214516D01*
X125801000Y-117214535D01*
X125801000Y-117435920D01*
X125794238Y-117458947D01*
X125791787Y-117482824D01*
X125784572Y-117491864D01*
X125781315Y-117502959D01*
X125763180Y-117518672D01*
X125748207Y-117537437D01*
X125735017Y-117543075D01*
X125728511Y-117548714D01*
X125716722Y-117553386D01*
X125709089Y-117555966D01*
X125664780Y-117564781D01*
X125587487Y-117596797D01*
X125583666Y-117598379D01*
X125583659Y-117598382D01*
X125532753Y-117619467D01*
X125532740Y-117619474D01*
X125413919Y-117698867D01*
X125413916Y-117698870D01*
X122005407Y-121107381D01*
X121944084Y-121140866D01*
X121917726Y-121143700D01*
X121031581Y-121143700D01*
X120964542Y-121124015D01*
X120931263Y-121092585D01*
X120879969Y-121021984D01*
X120735213Y-120877228D01*
X120569611Y-120756913D01*
X120515621Y-120729403D01*
X120464825Y-120681428D01*
X120448031Y-120613607D01*
X120470569Y-120547472D01*
X120515624Y-120508433D01*
X120569349Y-120481059D01*
X120613921Y-120448674D01*
X119934447Y-119769200D01*
X119940661Y-119769200D01*
X120042394Y-119741941D01*
X120133606Y-119689280D01*
X120208080Y-119614806D01*
X120260741Y-119523594D01*
X120288000Y-119421861D01*
X120288000Y-119415647D01*
X120967474Y-120095121D01*
X120999859Y-120050549D01*
X121092755Y-119868231D01*
X121155990Y-119673617D01*
X121188000Y-119471517D01*
X121188000Y-119266882D01*
X121155990Y-119064782D01*
X121092755Y-118870168D01*
X120999859Y-118687850D01*
X120967474Y-118643277D01*
X120967474Y-118643276D01*
X120288000Y-119322751D01*
X120288000Y-119316539D01*
X120260741Y-119214806D01*
X120208080Y-119123594D01*
X120133606Y-119049120D01*
X120042394Y-118996459D01*
X119940661Y-118969200D01*
X119934446Y-118969200D01*
X120613922Y-118289724D01*
X120613921Y-118289723D01*
X120569359Y-118257347D01*
X120569350Y-118257341D01*
X120387031Y-118164444D01*
X120192417Y-118101209D01*
X119990317Y-118069200D01*
X119785683Y-118069200D01*
X119583582Y-118101209D01*
X119388968Y-118164444D01*
X119206644Y-118257343D01*
X119162077Y-118289723D01*
X119162077Y-118289724D01*
X119841554Y-118969200D01*
X119835339Y-118969200D01*
X119733606Y-118996459D01*
X119642394Y-119049120D01*
X119567920Y-119123594D01*
X119515259Y-119214806D01*
X119488000Y-119316539D01*
X119488000Y-119322753D01*
X118808524Y-118643277D01*
X118808523Y-118643277D01*
X118776143Y-118687844D01*
X118683244Y-118870168D01*
X118620009Y-119064782D01*
X118588000Y-119266882D01*
X118588000Y-119471517D01*
X118620009Y-119673617D01*
X118683244Y-119868231D01*
X118776141Y-120050550D01*
X118776147Y-120050559D01*
X118808523Y-120095121D01*
X118808524Y-120095122D01*
X119488000Y-119415646D01*
X119488000Y-119421861D01*
X119515259Y-119523594D01*
X119567920Y-119614806D01*
X119642394Y-119689280D01*
X119733606Y-119741941D01*
X119835339Y-119769200D01*
X119841553Y-119769200D01*
X119162076Y-120448674D01*
X119206652Y-120481061D01*
X119260376Y-120508434D01*
X119311172Y-120556408D01*
X119327968Y-120624228D01*
X119305431Y-120690364D01*
X119260379Y-120729403D01*
X119206386Y-120756914D01*
X119040786Y-120877228D01*
X118896028Y-121021986D01*
X118775715Y-121187586D01*
X118682781Y-121369976D01*
X118619522Y-121564665D01*
X118587500Y-121766848D01*
X117280100Y-121766848D01*
X117280099Y-120981192D01*
X117275441Y-120935597D01*
X117269599Y-120878403D01*
X117269598Y-120878400D01*
X117255413Y-120835594D01*
X117214414Y-120711866D01*
X117128598Y-120572736D01*
X117110159Y-120505345D01*
X117123654Y-120451345D01*
X117199007Y-120303459D01*
X117252514Y-120138784D01*
X117279600Y-119967771D01*
X117279600Y-119794628D01*
X117252514Y-119623615D01*
X117199008Y-119458942D01*
X117127352Y-119318311D01*
X117127351Y-119318309D01*
X117120403Y-119304673D01*
X117115890Y-119298462D01*
X117115889Y-119298461D01*
X116474455Y-119939896D01*
X116479600Y-119920696D01*
X116479600Y-119841704D01*
X116459156Y-119765404D01*
X116419660Y-119696995D01*
X116363805Y-119641140D01*
X116295396Y-119601644D01*
X116219096Y-119581200D01*
X116140104Y-119581200D01*
X116063804Y-119601644D01*
X115995395Y-119641140D01*
X115939540Y-119696995D01*
X115900044Y-119765404D01*
X115879600Y-119841704D01*
X115879600Y-119920696D01*
X115884745Y-119939897D01*
X115243309Y-119298461D01*
X115243308Y-119298461D01*
X115238803Y-119304663D01*
X115238793Y-119304680D01*
X115160192Y-119458940D01*
X115106685Y-119623615D01*
X115079600Y-119794628D01*
X115079600Y-119967771D01*
X115106685Y-120138784D01*
X115160191Y-120303457D01*
X115235546Y-120451347D01*
X115248442Y-120520016D01*
X115230600Y-120572738D01*
X115144789Y-120711859D01*
X115144785Y-120711868D01*
X115121699Y-120781537D01*
X115089601Y-120878403D01*
X115089601Y-120878404D01*
X115089600Y-120878404D01*
X115079100Y-120981183D01*
X113942187Y-120981183D01*
X113942187Y-118944908D01*
X115596861Y-118944908D01*
X115596861Y-118944909D01*
X116179600Y-119527646D01*
X116179601Y-119527646D01*
X116762337Y-118944909D01*
X116756125Y-118940396D01*
X116601859Y-118861792D01*
X116437184Y-118808285D01*
X116266171Y-118781200D01*
X116093029Y-118781200D01*
X115922015Y-118808285D01*
X115757340Y-118861792D01*
X115603080Y-118940393D01*
X115603063Y-118940403D01*
X115596861Y-118944908D01*
X113942187Y-118944908D01*
X113942187Y-118468645D01*
X113942337Y-118462551D01*
X113945430Y-118399691D01*
X113960327Y-118096914D01*
X113961519Y-118084825D01*
X114014873Y-117725711D01*
X114017249Y-117713785D01*
X114025965Y-117679047D01*
X114031763Y-117661567D01*
X114564969Y-116381872D01*
X114573115Y-116365748D01*
X114584377Y-116346995D01*
X114591132Y-116336906D01*
X114807697Y-116045508D01*
X114815412Y-116036128D01*
X115059526Y-115767412D01*
X115068149Y-115758811D01*
X115236765Y-115606386D01*
X115337449Y-115515370D01*
X115346870Y-115507660D01*
X115638770Y-115291831D01*
X115648903Y-115285081D01*
X115960590Y-115098945D01*
X115971328Y-115093229D01*
X116299801Y-114938580D01*
X116311022Y-114933957D01*
X116653078Y-114812307D01*
X116664728Y-114808799D01*
X116926451Y-114743816D01*
X117017060Y-114721319D01*
X117029016Y-114718967D01*
X117388225Y-114666500D01*
X117400344Y-114665334D01*
X117765791Y-114648251D01*
X117771513Y-114648117D01*
X117834959Y-114648273D01*
X117835603Y-114648102D01*
X117844247Y-114648100D01*
X117844252Y-114648101D01*
X117844276Y-114648100D01*
X160459085Y-114648100D01*
X160510474Y-114659249D01*
G37*
%TD.AperFunction*%
%TA.AperFunction,Conductor*%
G36*
X169570365Y-134704785D02*
G01*
X169591007Y-134721419D01*
X169874360Y-135004772D01*
X169907845Y-135066095D01*
X169909152Y-135111850D01*
X169895500Y-135198047D01*
X169895500Y-135402751D01*
X169927522Y-135604934D01*
X169990781Y-135799623D01*
X170049433Y-135914732D01*
X170083294Y-135981188D01*
X170083715Y-135982013D01*
X170204028Y-136147613D01*
X170348786Y-136292371D01*
X170514385Y-136412684D01*
X170514387Y-136412685D01*
X170514390Y-136412687D01*
X170568378Y-136440195D01*
X170619174Y-136488169D01*
X170635969Y-136555990D01*
X170613432Y-136622125D01*
X170568378Y-136661165D01*
X170514644Y-136688543D01*
X170470077Y-136720923D01*
X170470077Y-136720924D01*
X171149554Y-137400400D01*
X171143339Y-137400400D01*
X171041606Y-137427659D01*
X170950394Y-137480320D01*
X170875920Y-137554794D01*
X170823259Y-137646006D01*
X170796000Y-137747739D01*
X170796000Y-137753953D01*
X170116524Y-137074477D01*
X170116523Y-137074477D01*
X170084143Y-137119044D01*
X169991244Y-137301368D01*
X169928009Y-137495982D01*
X169896000Y-137698082D01*
X169896000Y-137902717D01*
X169928009Y-138104817D01*
X169991244Y-138299431D01*
X170084141Y-138481750D01*
X170084147Y-138481759D01*
X170116523Y-138526321D01*
X170116524Y-138526322D01*
X170796000Y-137846846D01*
X170796000Y-137853061D01*
X170823259Y-137954794D01*
X170875920Y-138046006D01*
X170950394Y-138120480D01*
X171041606Y-138173141D01*
X171143339Y-138200400D01*
X171149553Y-138200400D01*
X170470076Y-138879874D01*
X170514650Y-138912259D01*
X170696968Y-139005155D01*
X170891582Y-139068390D01*
X170984642Y-139083129D01*
X171047777Y-139113058D01*
X171084709Y-139172369D01*
X171083711Y-139242232D01*
X171052926Y-139293283D01*
X170773129Y-139573081D01*
X170711806Y-139606566D01*
X170685448Y-139609400D01*
X168504400Y-139609400D01*
X168437361Y-139589715D01*
X168391606Y-139536911D01*
X168380400Y-139485400D01*
X168380400Y-139289600D01*
X167463412Y-139289600D01*
X167496325Y-139232593D01*
X167530400Y-139105426D01*
X167530400Y-138973774D01*
X167496325Y-138846607D01*
X167463412Y-138789600D01*
X168380400Y-138789600D01*
X168380400Y-138141772D01*
X168380399Y-138141755D01*
X168373998Y-138082227D01*
X168373996Y-138082220D01*
X168323754Y-137947513D01*
X168323750Y-137947506D01*
X168237590Y-137832412D01*
X168184251Y-137792482D01*
X168122488Y-137746246D01*
X167990928Y-137697177D01*
X167934995Y-137655305D01*
X167910578Y-137589841D01*
X167925430Y-137521568D01*
X167946575Y-137493320D01*
X168060504Y-137379392D01*
X168185451Y-137207416D01*
X168281957Y-137018012D01*
X168347646Y-136815843D01*
X168380900Y-136605887D01*
X168380900Y-136393313D01*
X168347646Y-136183357D01*
X168281957Y-135981188D01*
X168185451Y-135791784D01*
X168185449Y-135791781D01*
X168185448Y-135791779D01*
X168060509Y-135619813D01*
X167910186Y-135469490D01*
X167738220Y-135344551D01*
X167737515Y-135344191D01*
X167729454Y-135340085D01*
X167678659Y-135292112D01*
X167661863Y-135224292D01*
X167684399Y-135158156D01*
X167729454Y-135119115D01*
X167738216Y-135114651D01*
X167810837Y-135061889D01*
X167910186Y-134989709D01*
X167910188Y-134989706D01*
X167910192Y-134989704D01*
X168060504Y-134839392D01*
X168135465Y-134736215D01*
X168190795Y-134693549D01*
X168235784Y-134685100D01*
X169503326Y-134685100D01*
X169570365Y-134704785D01*
G37*
%TD.AperFunction*%
%TA.AperFunction,Conductor*%
G36*
X181961600Y-134315406D02*
G01*
X182016021Y-134306788D01*
X182210631Y-134243554D01*
X182392949Y-134150659D01*
X182558494Y-134030382D01*
X182558495Y-134030382D01*
X182703182Y-133885695D01*
X182703182Y-133885694D01*
X182823461Y-133720147D01*
X182870834Y-133627171D01*
X182918808Y-133576375D01*
X182986628Y-133559579D01*
X183052764Y-133582116D01*
X183091803Y-133627169D01*
X183139313Y-133720411D01*
X183259628Y-133886013D01*
X183364581Y-133990966D01*
X183398066Y-134052289D01*
X183393082Y-134121981D01*
X183364581Y-134166328D01*
X179492329Y-138038581D01*
X179431006Y-138072066D01*
X179404648Y-138074900D01*
X172613913Y-138074900D01*
X172546874Y-138055215D01*
X172501119Y-138002411D01*
X172491175Y-137933253D01*
X172491440Y-137931502D01*
X172496000Y-137902711D01*
X172496000Y-137698082D01*
X172463990Y-137495982D01*
X172400755Y-137301368D01*
X172307859Y-137119050D01*
X172275474Y-137074477D01*
X172275474Y-137074476D01*
X171596000Y-137753953D01*
X171596000Y-137747739D01*
X171568741Y-137646006D01*
X171516080Y-137554794D01*
X171441606Y-137480320D01*
X171350394Y-137427659D01*
X171248661Y-137400400D01*
X171242446Y-137400400D01*
X171921922Y-136720924D01*
X171921921Y-136720923D01*
X171877359Y-136688547D01*
X171877350Y-136688541D01*
X171823621Y-136661165D01*
X171772825Y-136613191D01*
X171756030Y-136545370D01*
X171778567Y-136479235D01*
X171823621Y-136440195D01*
X171877610Y-136412687D01*
X171967318Y-136347511D01*
X172043213Y-136292371D01*
X172043215Y-136292368D01*
X172043219Y-136292366D01*
X172187966Y-136147619D01*
X172187968Y-136147615D01*
X172187971Y-136147613D01*
X172267645Y-136037949D01*
X172308287Y-135982010D01*
X172401220Y-135799619D01*
X172464477Y-135604934D01*
X172496500Y-135402752D01*
X172496500Y-135198048D01*
X172486165Y-135132798D01*
X172495119Y-135063505D01*
X172540115Y-135010053D01*
X172606867Y-134989413D01*
X172608638Y-134989400D01*
X174163057Y-134989400D01*
X174257351Y-134970642D01*
X174303220Y-134961519D01*
X174435253Y-134906829D01*
X174554079Y-134827432D01*
X174655132Y-134726379D01*
X174734529Y-134607553D01*
X174789219Y-134475520D01*
X174812350Y-134359234D01*
X174817100Y-134335357D01*
X174817100Y-134182380D01*
X174836785Y-134115341D01*
X174868214Y-134082062D01*
X174938819Y-134030766D01*
X175083566Y-133886019D01*
X175083568Y-133886015D01*
X175083571Y-133886013D01*
X175203884Y-133720414D01*
X175203886Y-133720411D01*
X175203887Y-133720410D01*
X175251116Y-133627717D01*
X175299089Y-133576923D01*
X175366910Y-133560128D01*
X175433045Y-133582665D01*
X175472083Y-133627717D01*
X175495267Y-133673217D01*
X175519315Y-133720414D01*
X175639628Y-133886013D01*
X175784386Y-134030771D01*
X175931139Y-134137391D01*
X175949990Y-134151087D01*
X176042274Y-134198108D01*
X176132376Y-134244018D01*
X176132378Y-134244018D01*
X176132381Y-134244020D01*
X176236737Y-134277927D01*
X176327065Y-134307277D01*
X176428157Y-134323288D01*
X176529248Y-134339300D01*
X176529249Y-134339300D01*
X176733951Y-134339300D01*
X176733952Y-134339300D01*
X176936134Y-134307277D01*
X177130819Y-134244020D01*
X177313210Y-134151087D01*
X177418987Y-134074236D01*
X177478813Y-134030771D01*
X177478815Y-134030768D01*
X177478819Y-134030766D01*
X177623566Y-133886019D01*
X177623568Y-133886015D01*
X177623571Y-133886013D01*
X177743884Y-133720414D01*
X177743886Y-133720411D01*
X177743887Y-133720410D01*
X177791116Y-133627717D01*
X177839089Y-133576923D01*
X177906910Y-133560128D01*
X177973045Y-133582665D01*
X178012083Y-133627717D01*
X178035267Y-133673217D01*
X178059315Y-133720414D01*
X178179628Y-133886013D01*
X178324386Y-134030771D01*
X178471139Y-134137391D01*
X178489990Y-134151087D01*
X178582274Y-134198108D01*
X178672376Y-134244018D01*
X178672378Y-134244018D01*
X178672381Y-134244020D01*
X178776737Y-134277927D01*
X178867065Y-134307277D01*
X178968157Y-134323288D01*
X179069248Y-134339300D01*
X179069249Y-134339300D01*
X179273951Y-134339300D01*
X179273952Y-134339300D01*
X179476134Y-134307277D01*
X179670819Y-134244020D01*
X179853210Y-134151087D01*
X179958987Y-134074236D01*
X180018813Y-134030771D01*
X180018815Y-134030768D01*
X180018819Y-134030766D01*
X180163566Y-133886019D01*
X180163568Y-133886015D01*
X180163571Y-133886013D01*
X180283884Y-133720414D01*
X180283886Y-133720411D01*
X180283887Y-133720410D01*
X180331395Y-133627169D01*
X180379370Y-133576374D01*
X180447191Y-133559579D01*
X180513325Y-133582116D01*
X180552365Y-133627170D01*
X180599740Y-133720149D01*
X180720017Y-133885694D01*
X180720017Y-133885695D01*
X180864704Y-134030382D01*
X181030250Y-134150659D01*
X181212568Y-134243554D01*
X181407178Y-134306788D01*
X181461600Y-134315407D01*
X181461600Y-132954486D01*
X181465994Y-132958880D01*
X181557206Y-133011541D01*
X181658939Y-133038800D01*
X181764261Y-133038800D01*
X181865994Y-133011541D01*
X181957206Y-132958880D01*
X181961600Y-132954486D01*
X181961600Y-134315406D01*
G37*
%TD.AperFunction*%
%TA.AperFunction,Conductor*%
G36*
X141377925Y-121192785D02*
G01*
X141423680Y-121245589D01*
X141433624Y-121314747D01*
X141428817Y-121335418D01*
X141403810Y-121412378D01*
X141403810Y-121412381D01*
X141371800Y-121614482D01*
X141371800Y-121819117D01*
X141403809Y-122021217D01*
X141467044Y-122215831D01*
X141559941Y-122398150D01*
X141559947Y-122398159D01*
X141592323Y-122442721D01*
X141592324Y-122442722D01*
X142271800Y-121763246D01*
X142271800Y-121769461D01*
X142299059Y-121871194D01*
X142351720Y-121962406D01*
X142426194Y-122036880D01*
X142517406Y-122089541D01*
X142619139Y-122116800D01*
X142625353Y-122116800D01*
X141945876Y-122796274D01*
X141990450Y-122828659D01*
X142172768Y-122921555D01*
X142367382Y-122984790D01*
X142569483Y-123016800D01*
X142774117Y-123016800D01*
X142976217Y-122984790D01*
X143170831Y-122921555D01*
X143353149Y-122828659D01*
X143397721Y-122796274D01*
X142718247Y-122116800D01*
X142724461Y-122116800D01*
X142826194Y-122089541D01*
X142917406Y-122036880D01*
X142991880Y-121962406D01*
X143044541Y-121871194D01*
X143071800Y-121769461D01*
X143071800Y-121763247D01*
X143751274Y-122442721D01*
X143783659Y-122398149D01*
X143876555Y-122215831D01*
X143939790Y-122021217D01*
X143971800Y-121819117D01*
X143971800Y-121614482D01*
X143939789Y-121412381D01*
X143939789Y-121412378D01*
X143914783Y-121335418D01*
X143912788Y-121265577D01*
X143948868Y-121205744D01*
X144011569Y-121174916D01*
X144032714Y-121173100D01*
X144435086Y-121173100D01*
X144502125Y-121192785D01*
X144547880Y-121245589D01*
X144557824Y-121314747D01*
X144553017Y-121335418D01*
X144528010Y-121412378D01*
X144528010Y-121412381D01*
X144496000Y-121614482D01*
X144496000Y-121819117D01*
X144528009Y-122021217D01*
X144591244Y-122215831D01*
X144684141Y-122398150D01*
X144684147Y-122398159D01*
X144716523Y-122442721D01*
X144716524Y-122442722D01*
X145396000Y-121763246D01*
X145396000Y-121769461D01*
X145423259Y-121871194D01*
X145475920Y-121962406D01*
X145550394Y-122036880D01*
X145641606Y-122089541D01*
X145743339Y-122116800D01*
X145749553Y-122116800D01*
X145070076Y-122796274D01*
X145114650Y-122828659D01*
X145296968Y-122921555D01*
X145491582Y-122984790D01*
X145693683Y-123016800D01*
X145898317Y-123016800D01*
X146100417Y-122984790D01*
X146295031Y-122921555D01*
X146477349Y-122828659D01*
X146521921Y-122796274D01*
X145842447Y-122116800D01*
X145848661Y-122116800D01*
X145950394Y-122089541D01*
X146041606Y-122036880D01*
X146116080Y-121962406D01*
X146168741Y-121871194D01*
X146196000Y-121769461D01*
X146196000Y-121763247D01*
X146875474Y-122442721D01*
X146907859Y-122398149D01*
X147000755Y-122215831D01*
X147063990Y-122021217D01*
X147096000Y-121819117D01*
X147096000Y-121614482D01*
X147063989Y-121412381D01*
X147063989Y-121412378D01*
X147038983Y-121335418D01*
X147036988Y-121265577D01*
X147073068Y-121205744D01*
X147135769Y-121174916D01*
X147156914Y-121173100D01*
X147440014Y-121173100D01*
X147507053Y-121192785D01*
X147552808Y-121245589D01*
X147562752Y-121314747D01*
X147557945Y-121335418D01*
X147524723Y-121437661D01*
X147524723Y-121437664D01*
X147492700Y-121639848D01*
X147492700Y-121844551D01*
X147524722Y-122046734D01*
X147587981Y-122241423D01*
X147651891Y-122366853D01*
X147667244Y-122396984D01*
X147680915Y-122423813D01*
X147801228Y-122589413D01*
X147945986Y-122734171D01*
X148090144Y-122838906D01*
X148111590Y-122854487D01*
X148227807Y-122913703D01*
X148293976Y-122947418D01*
X148293978Y-122947418D01*
X148293981Y-122947420D01*
X148364245Y-122970250D01*
X148488665Y-123010677D01*
X148527324Y-123016800D01*
X148690848Y-123042700D01*
X148690849Y-123042700D01*
X148895551Y-123042700D01*
X148895552Y-123042700D01*
X149097734Y-123010677D01*
X149292419Y-122947420D01*
X149474810Y-122854487D01*
X149567790Y-122786932D01*
X149640413Y-122734171D01*
X149640415Y-122734168D01*
X149640419Y-122734166D01*
X149785166Y-122589419D01*
X149785168Y-122589415D01*
X149785171Y-122589413D01*
X149908351Y-122419869D01*
X149910023Y-122421084D01*
X149955408Y-122380031D01*
X150009315Y-122367700D01*
X150719448Y-122367700D01*
X150786487Y-122387385D01*
X150807129Y-122404019D01*
X151318161Y-122915051D01*
X151351646Y-122976374D01*
X151346662Y-123046066D01*
X151304790Y-123101999D01*
X151286776Y-123113216D01*
X151209582Y-123152549D01*
X151037613Y-123277490D01*
X150887290Y-123427813D01*
X150762351Y-123599779D01*
X150665844Y-123789185D01*
X150665843Y-123789187D01*
X150665843Y-123789188D01*
X150635985Y-123881081D01*
X150600153Y-123991360D01*
X150566900Y-124201313D01*
X150566900Y-124413886D01*
X150588040Y-124547362D01*
X150600154Y-124623843D01*
X150660259Y-124808827D01*
X150665844Y-124826014D01*
X150762351Y-125015420D01*
X150887290Y-125187386D01*
X151000830Y-125300926D01*
X151034315Y-125362249D01*
X151029331Y-125431941D01*
X150987459Y-125487874D01*
X150956483Y-125504789D01*
X150825069Y-125553803D01*
X150825064Y-125553806D01*
X150709855Y-125640052D01*
X150709852Y-125640055D01*
X150623606Y-125755264D01*
X150623602Y-125755271D01*
X150573308Y-125890117D01*
X150566901Y-125949716D01*
X150566900Y-125949735D01*
X150566900Y-126160361D01*
X150547215Y-126227400D01*
X150494411Y-126273155D01*
X150490355Y-126274921D01*
X150446019Y-126293286D01*
X150446007Y-126293292D01*
X150343567Y-126361741D01*
X150343563Y-126361744D01*
X150256444Y-126448863D01*
X150256441Y-126448867D01*
X150187992Y-126551307D01*
X150187987Y-126551316D01*
X150140838Y-126665145D01*
X150140835Y-126665155D01*
X150116800Y-126785989D01*
X150116800Y-127077247D01*
X150097115Y-127144286D01*
X150080481Y-127164928D01*
X149220027Y-128025381D01*
X149158704Y-128058866D01*
X149132346Y-128061700D01*
X148193198Y-128061700D01*
X148193180Y-128061701D01*
X148090403Y-128072200D01*
X148090400Y-128072201D01*
X147923868Y-128127385D01*
X147923863Y-128127387D01*
X147774542Y-128219489D01*
X147650489Y-128343542D01*
X147558387Y-128492863D01*
X147558385Y-128492868D01*
X147514169Y-128626304D01*
X147474396Y-128683749D01*
X147409880Y-128710572D01*
X147396463Y-128711300D01*
X147012115Y-128711300D01*
X146945076Y-128691615D01*
X146912393Y-128658228D01*
X146911151Y-128659131D01*
X146787971Y-128489586D01*
X146643213Y-128344828D01*
X146477613Y-128224515D01*
X146477612Y-128224514D01*
X146477610Y-128224513D01*
X146413191Y-128191690D01*
X146295223Y-128131581D01*
X146100534Y-128068322D01*
X145916756Y-128039215D01*
X145898352Y-128036300D01*
X145693648Y-128036300D01*
X145675244Y-128039215D01*
X145491465Y-128068322D01*
X145296776Y-128131581D01*
X145114386Y-128224515D01*
X144948786Y-128344828D01*
X144804028Y-128489586D01*
X144683715Y-128655186D01*
X144590781Y-128837576D01*
X144527522Y-129032265D01*
X144495500Y-129234448D01*
X144495500Y-129439151D01*
X144527522Y-129641334D01*
X144590781Y-129836023D01*
X144649682Y-129951620D01*
X144683712Y-130018409D01*
X144683715Y-130018413D01*
X144804028Y-130184013D01*
X144948786Y-130328771D01*
X145066998Y-130414655D01*
X145114390Y-130449087D01*
X145223949Y-130504910D01*
X145296776Y-130542018D01*
X145296778Y-130542018D01*
X145296781Y-130542020D01*
X145343950Y-130557346D01*
X145491465Y-130605277D01*
X145592557Y-130621288D01*
X145693648Y-130637300D01*
X145693649Y-130637300D01*
X145898351Y-130637300D01*
X145898352Y-130637300D01*
X146100534Y-130605277D01*
X146295219Y-130542020D01*
X146477610Y-130449087D01*
X146571523Y-130380856D01*
X146643213Y-130328771D01*
X146643215Y-130328768D01*
X146643219Y-130328766D01*
X146787966Y-130184019D01*
X146787968Y-130184015D01*
X146787971Y-130184013D01*
X146911151Y-130014469D01*
X146912823Y-130015684D01*
X146958208Y-129974631D01*
X147012115Y-129962300D01*
X147380952Y-129962300D01*
X147447991Y-129981985D01*
X147493746Y-130034789D01*
X147502206Y-130060348D01*
X147503201Y-130064999D01*
X147541341Y-130180095D01*
X147558386Y-130231534D01*
X147650488Y-130380856D01*
X147774544Y-130504912D01*
X147923866Y-130597014D01*
X148090403Y-130652199D01*
X148193191Y-130662700D01*
X149393208Y-130662699D01*
X149495997Y-130652199D01*
X149662534Y-130597014D01*
X149811856Y-130504912D01*
X149935912Y-130380856D01*
X150028014Y-130231534D01*
X150083199Y-130064997D01*
X150093700Y-129962209D01*
X150093699Y-128972251D01*
X150113383Y-128905213D01*
X150130013Y-128884576D01*
X150803773Y-128210816D01*
X150865094Y-128177333D01*
X150934783Y-128182316D01*
X150959917Y-128191691D01*
X151019527Y-128198100D01*
X152815272Y-128198099D01*
X152874883Y-128191691D01*
X152935568Y-128169056D01*
X153005258Y-128164073D01*
X153066581Y-128197558D01*
X153100066Y-128258881D01*
X153102900Y-128285239D01*
X153102900Y-131415464D01*
X153083215Y-131482503D01*
X153030411Y-131528258D01*
X152961253Y-131538202D01*
X152940583Y-131533395D01*
X152907742Y-131522724D01*
X152907735Y-131522723D01*
X152806643Y-131506711D01*
X152705552Y-131490700D01*
X152500848Y-131490700D01*
X152476529Y-131494551D01*
X152298665Y-131522722D01*
X152103976Y-131585981D01*
X151921586Y-131678915D01*
X151755986Y-131799228D01*
X151611228Y-131943986D01*
X151490915Y-132109586D01*
X151397981Y-132291976D01*
X151334722Y-132486665D01*
X151305005Y-132674291D01*
X151275075Y-132737426D01*
X151270213Y-132742574D01*
X150155626Y-133857160D01*
X150094303Y-133890645D01*
X150048547Y-133891952D01*
X149992007Y-133882997D01*
X149962352Y-133878300D01*
X149757648Y-133878300D01*
X149671450Y-133891952D01*
X149602157Y-133882997D01*
X149564374Y-133857162D01*
X149407580Y-133700368D01*
X149288753Y-133620971D01*
X149156720Y-133566281D01*
X149137395Y-133562437D01*
X149123027Y-133559579D01*
X149016557Y-133538400D01*
X149016555Y-133538400D01*
X148086168Y-133538400D01*
X148019129Y-133518715D01*
X147973374Y-133465911D01*
X147963430Y-133396753D01*
X147968237Y-133376081D01*
X147978877Y-133343334D01*
X147991821Y-133261611D01*
X148010900Y-133141152D01*
X148010900Y-132136448D01*
X147982565Y-131957552D01*
X147978877Y-131934265D01*
X147935000Y-131799228D01*
X147915620Y-131739581D01*
X147915618Y-131739578D01*
X147915618Y-131739576D01*
X147864076Y-131638421D01*
X147822687Y-131557190D01*
X147797646Y-131522724D01*
X147702371Y-131391586D01*
X147557613Y-131246828D01*
X147392013Y-131126515D01*
X147392012Y-131126514D01*
X147392010Y-131126513D01*
X147292151Y-131075632D01*
X147209623Y-131033581D01*
X147014934Y-130970322D01*
X146837640Y-130942242D01*
X146812752Y-130938300D01*
X146608048Y-130938300D01*
X146583729Y-130942151D01*
X146405865Y-130970322D01*
X146211176Y-131033581D01*
X146028786Y-131126515D01*
X145863186Y-131246828D01*
X145718428Y-131391586D01*
X145598115Y-131557186D01*
X145550885Y-131649880D01*
X145502910Y-131700676D01*
X145435089Y-131717471D01*
X145368954Y-131694934D01*
X145329915Y-131649880D01*
X145324076Y-131638421D01*
X145282687Y-131557190D01*
X145257646Y-131522724D01*
X145162371Y-131391586D01*
X145017621Y-131246836D01*
X145017619Y-131246834D01*
X144947013Y-131195535D01*
X144904349Y-131140207D01*
X144895900Y-131095219D01*
X144895900Y-130942242D01*
X144868020Y-130802085D01*
X144868019Y-130802084D01*
X144868019Y-130802080D01*
X144813329Y-130670047D01*
X144813328Y-130670046D01*
X144813325Y-130670040D01*
X144733932Y-130551221D01*
X144733929Y-130551217D01*
X144632882Y-130450170D01*
X144632878Y-130450167D01*
X144514059Y-130370774D01*
X144514050Y-130370769D01*
X144382020Y-130316081D01*
X144382014Y-130316079D01*
X144241857Y-130288200D01*
X144241855Y-130288200D01*
X143831438Y-130288200D01*
X143764399Y-130268515D01*
X143718644Y-130215711D01*
X143708700Y-130146553D01*
X143731119Y-130091315D01*
X143752038Y-130062522D01*
X143784087Y-130018410D01*
X143877020Y-129836019D01*
X143940277Y-129641334D01*
X143972300Y-129439152D01*
X143972300Y-129234448D01*
X143949705Y-129091793D01*
X143940277Y-129032265D01*
X143897783Y-128901482D01*
X143877020Y-128837581D01*
X143877018Y-128837578D01*
X143877018Y-128837576D01*
X143838010Y-128761019D01*
X143784087Y-128655190D01*
X143750212Y-128608564D01*
X143663771Y-128489586D01*
X143519013Y-128344828D01*
X143353413Y-128224515D01*
X143353412Y-128224514D01*
X143353410Y-128224513D01*
X143288991Y-128191690D01*
X143171023Y-128131581D01*
X142976334Y-128068322D01*
X142792556Y-128039215D01*
X142774152Y-128036300D01*
X142569448Y-128036300D01*
X142551044Y-128039215D01*
X142367265Y-128068322D01*
X142172576Y-128131581D01*
X141990186Y-128224515D01*
X141824586Y-128344828D01*
X141679832Y-128489582D01*
X141679828Y-128489587D01*
X141580819Y-128625862D01*
X141578317Y-128627791D01*
X141577110Y-128630712D01*
X141550830Y-128648986D01*
X141525489Y-128668528D01*
X141522340Y-128668798D01*
X141519747Y-128670602D01*
X141487763Y-128671768D01*
X141455876Y-128674507D01*
X141453082Y-128673032D01*
X141449924Y-128673148D01*
X141422381Y-128656833D01*
X141394081Y-128641901D01*
X141391711Y-128638667D01*
X141389809Y-128637540D01*
X141382060Y-128625493D01*
X141369658Y-128608564D01*
X141367655Y-128604570D01*
X141314129Y-128475347D01*
X141273206Y-128414101D01*
X141234732Y-128356520D01*
X141234730Y-128356517D01*
X141234727Y-128356514D01*
X136754992Y-123876780D01*
X136721507Y-123815457D01*
X136726491Y-123745765D01*
X136754988Y-123701423D01*
X138119968Y-122336442D01*
X138181289Y-122302959D01*
X138250981Y-122307943D01*
X138306914Y-122349815D01*
X138318132Y-122367831D01*
X138333713Y-122398411D01*
X138454028Y-122564013D01*
X138598786Y-122708771D01*
X138714252Y-122792660D01*
X138764390Y-122829087D01*
X138880607Y-122888303D01*
X138946776Y-122922018D01*
X138946778Y-122922018D01*
X138946781Y-122922020D01*
X139024948Y-122947418D01*
X139141465Y-122985277D01*
X139242557Y-123001288D01*
X139343648Y-123017300D01*
X139343649Y-123017300D01*
X139548351Y-123017300D01*
X139548352Y-123017300D01*
X139750534Y-122985277D01*
X139945219Y-122922020D01*
X140127610Y-122829087D01*
X140267913Y-122727152D01*
X140293213Y-122708771D01*
X140293215Y-122708768D01*
X140293219Y-122708766D01*
X140437966Y-122564019D01*
X140437968Y-122564015D01*
X140437971Y-122564013D01*
X140493585Y-122487465D01*
X140558287Y-122398410D01*
X140651220Y-122216019D01*
X140714477Y-122021334D01*
X140746500Y-121819152D01*
X140746500Y-121614448D01*
X140724502Y-121475558D01*
X140713715Y-121407454D01*
X140715762Y-121407129D01*
X140715846Y-121405435D01*
X140712215Y-121395698D01*
X140717557Y-121371137D01*
X140718810Y-121346035D01*
X140725251Y-121335770D01*
X140727067Y-121327425D01*
X140748219Y-121299171D01*
X140837974Y-121209418D01*
X140899297Y-121175933D01*
X140925654Y-121173100D01*
X141310886Y-121173100D01*
X141377925Y-121192785D01*
G37*
%TD.AperFunction*%
%TA.AperFunction,Conductor*%
G36*
X135885133Y-125074791D02*
G01*
X135929480Y-125103292D01*
X138833747Y-128007559D01*
X138867232Y-128068882D01*
X138862248Y-128138574D01*
X138820376Y-128194507D01*
X138802364Y-128205723D01*
X138764649Y-128224940D01*
X138764645Y-128224943D01*
X138720077Y-128257323D01*
X138720077Y-128257324D01*
X139399554Y-128936800D01*
X139393339Y-128936800D01*
X139291606Y-128964059D01*
X139200394Y-129016720D01*
X139125920Y-129091194D01*
X139073259Y-129182406D01*
X139046000Y-129284139D01*
X139046000Y-129290353D01*
X138366524Y-128610877D01*
X138366523Y-128610877D01*
X138334143Y-128655444D01*
X138241244Y-128837768D01*
X138178009Y-129032382D01*
X138146000Y-129234482D01*
X138146000Y-129439117D01*
X138178009Y-129641217D01*
X138241244Y-129835831D01*
X138334141Y-130018150D01*
X138334147Y-130018159D01*
X138366523Y-130062721D01*
X138366524Y-130062722D01*
X139046000Y-129383246D01*
X139046000Y-129389461D01*
X139073259Y-129491194D01*
X139125920Y-129582406D01*
X139200394Y-129656880D01*
X139291606Y-129709541D01*
X139393339Y-129736800D01*
X139399553Y-129736800D01*
X138720076Y-130416274D01*
X138764650Y-130448659D01*
X138946968Y-130541555D01*
X139141582Y-130604790D01*
X139343683Y-130636800D01*
X139548317Y-130636800D01*
X139750417Y-130604790D01*
X139945031Y-130541555D01*
X140127349Y-130448659D01*
X140171921Y-130416274D01*
X139492447Y-129736800D01*
X139498661Y-129736800D01*
X139600394Y-129709541D01*
X139691606Y-129656880D01*
X139766080Y-129582406D01*
X139818741Y-129491194D01*
X139846000Y-129389461D01*
X139846000Y-129383246D01*
X140531790Y-130069037D01*
X140576571Y-130078444D01*
X140605606Y-130100018D01*
X141296032Y-130790444D01*
X141329517Y-130851767D01*
X141324533Y-130921459D01*
X141282661Y-130977392D01*
X141246670Y-130996055D01*
X141135339Y-131032229D01*
X141131178Y-131033581D01*
X140948786Y-131126515D01*
X140783186Y-131246828D01*
X140638428Y-131391586D01*
X140518115Y-131557186D01*
X140470885Y-131649880D01*
X140422910Y-131700676D01*
X140355089Y-131717471D01*
X140288954Y-131694934D01*
X140249915Y-131649880D01*
X140244076Y-131638421D01*
X140202687Y-131557190D01*
X140177646Y-131522724D01*
X140082371Y-131391586D01*
X139937613Y-131246828D01*
X139772013Y-131126515D01*
X139772012Y-131126514D01*
X139772010Y-131126513D01*
X139672151Y-131075632D01*
X139589623Y-131033581D01*
X139394934Y-130970322D01*
X139217640Y-130942242D01*
X139192752Y-130938300D01*
X138988048Y-130938300D01*
X138963729Y-130942151D01*
X138785865Y-130970322D01*
X138591176Y-131033581D01*
X138408786Y-131126515D01*
X138243186Y-131246828D01*
X138098428Y-131391586D01*
X137978113Y-131557188D01*
X137930603Y-131650430D01*
X137882628Y-131701226D01*
X137814807Y-131718020D01*
X137748672Y-131695482D01*
X137709634Y-131650428D01*
X137662261Y-131557452D01*
X137541982Y-131391905D01*
X137541982Y-131391904D01*
X137397295Y-131247217D01*
X137231749Y-131126940D01*
X137049429Y-131034044D01*
X136854813Y-130970809D01*
X136800400Y-130962190D01*
X136800400Y-132323114D01*
X136796006Y-132318720D01*
X136704794Y-132266059D01*
X136603061Y-132238800D01*
X136497739Y-132238800D01*
X136396006Y-132266059D01*
X136304794Y-132318720D01*
X136300400Y-132323114D01*
X136300400Y-130962190D01*
X136245986Y-130970809D01*
X136051370Y-131034044D01*
X135869050Y-131126940D01*
X135703505Y-131247217D01*
X135703504Y-131247217D01*
X135558817Y-131391904D01*
X135558817Y-131391905D01*
X135438540Y-131557450D01*
X135391165Y-131650429D01*
X135343190Y-131701225D01*
X135275369Y-131718020D01*
X135209234Y-131695482D01*
X135170195Y-131650429D01*
X135159390Y-131629224D01*
X135122687Y-131557190D01*
X135097646Y-131522724D01*
X135002371Y-131391586D01*
X134857613Y-131246828D01*
X134692013Y-131126515D01*
X134692012Y-131126514D01*
X134692010Y-131126513D01*
X134592151Y-131075632D01*
X134509623Y-131033581D01*
X134314934Y-130970322D01*
X134137640Y-130942242D01*
X134112752Y-130938300D01*
X133908048Y-130938300D01*
X133883729Y-130942151D01*
X133705865Y-130970322D01*
X133511176Y-131033581D01*
X133328786Y-131126515D01*
X133163186Y-131246828D01*
X133018428Y-131391586D01*
X132898115Y-131557186D01*
X132850885Y-131649880D01*
X132802910Y-131700676D01*
X132735089Y-131717471D01*
X132668954Y-131694934D01*
X132629915Y-131649880D01*
X132624076Y-131638421D01*
X132582687Y-131557190D01*
X132557646Y-131522724D01*
X132462371Y-131391586D01*
X132317613Y-131246828D01*
X132152013Y-131126515D01*
X132152012Y-131126514D01*
X132152010Y-131126513D01*
X132052151Y-131075632D01*
X131969623Y-131033581D01*
X131774934Y-130970322D01*
X131597640Y-130942242D01*
X131572752Y-130938300D01*
X131368048Y-130938300D01*
X131343729Y-130942151D01*
X131165865Y-130970322D01*
X130971176Y-131033581D01*
X130788786Y-131126515D01*
X130623186Y-131246828D01*
X130478428Y-131391586D01*
X130358115Y-131557186D01*
X130310885Y-131649880D01*
X130262910Y-131700676D01*
X130195089Y-131717471D01*
X130128954Y-131694934D01*
X130089915Y-131649880D01*
X130084076Y-131638421D01*
X130042687Y-131557190D01*
X130017646Y-131522724D01*
X129922371Y-131391586D01*
X129781779Y-131250994D01*
X129748294Y-131189671D01*
X129753278Y-131119979D01*
X129781779Y-131075632D01*
X130576077Y-130281334D01*
X131167058Y-129690353D01*
X131624322Y-129233089D01*
X134189661Y-129233089D01*
X134189662Y-129233090D01*
X134195871Y-129237601D01*
X134350142Y-129316208D01*
X134514815Y-129369714D01*
X134685829Y-129396800D01*
X134858971Y-129396800D01*
X135029984Y-129369714D01*
X135194657Y-129316208D01*
X135348925Y-129237603D01*
X135355136Y-129233090D01*
X135355136Y-129233088D01*
X134772401Y-128650353D01*
X134772400Y-128650353D01*
X134189661Y-129233089D01*
X131624322Y-129233089D01*
X133509241Y-127348169D01*
X133570562Y-127314686D01*
X133640254Y-127319670D01*
X133696187Y-127361542D01*
X133714625Y-127396846D01*
X133729972Y-127443156D01*
X133737586Y-127466134D01*
X133737587Y-127466136D01*
X133737589Y-127466140D01*
X133823400Y-127605262D01*
X133841840Y-127672654D01*
X133828346Y-127726653D01*
X133752991Y-127874542D01*
X133699485Y-128039215D01*
X133672400Y-128210228D01*
X133672400Y-128383371D01*
X133699485Y-128554384D01*
X133752992Y-128719059D01*
X133831596Y-128873325D01*
X133836109Y-128879536D01*
X133836109Y-128879537D01*
X134477545Y-128238100D01*
X134472400Y-128257304D01*
X134472400Y-128336296D01*
X134492844Y-128412596D01*
X134532340Y-128481005D01*
X134588195Y-128536860D01*
X134656604Y-128576356D01*
X134732904Y-128596800D01*
X134811896Y-128596800D01*
X134888196Y-128576356D01*
X134956605Y-128536860D01*
X135012460Y-128481005D01*
X135051956Y-128412596D01*
X135072400Y-128336296D01*
X135072400Y-128257304D01*
X135067254Y-128238101D01*
X135708689Y-128879536D01*
X135713203Y-128873325D01*
X135791808Y-128719057D01*
X135845314Y-128554384D01*
X135872400Y-128383371D01*
X135872400Y-128210228D01*
X135845314Y-128039215D01*
X135791807Y-127874540D01*
X135716454Y-127726654D01*
X135703557Y-127657985D01*
X135721397Y-127605265D01*
X135807214Y-127466134D01*
X135862399Y-127299597D01*
X135872900Y-127196809D01*
X135872899Y-126396792D01*
X135867811Y-126346988D01*
X135862399Y-126294003D01*
X135862398Y-126294000D01*
X135840329Y-126227400D01*
X135807214Y-126127466D01*
X135715112Y-125978144D01*
X135591056Y-125854088D01*
X135441734Y-125761986D01*
X135372445Y-125739026D01*
X135315002Y-125699254D01*
X135288179Y-125634739D01*
X135300494Y-125565963D01*
X135323766Y-125533644D01*
X135754122Y-125103289D01*
X135815441Y-125069807D01*
X135885133Y-125074791D01*
G37*
%TD.AperFunction*%
%TA.AperFunction,Conductor*%
G36*
X161432765Y-117198785D02*
G01*
X161453407Y-117215419D01*
X166912032Y-122674044D01*
X166945517Y-122735367D01*
X166940533Y-122805059D01*
X166898661Y-122860992D01*
X166897237Y-122862042D01*
X166748304Y-122970250D01*
X166748295Y-122970257D01*
X166612457Y-123106095D01*
X166612457Y-123106096D01*
X166612455Y-123106098D01*
X166571169Y-123162923D01*
X166499535Y-123261518D01*
X166412316Y-123432693D01*
X166352953Y-123615397D01*
X166322900Y-123805145D01*
X166322900Y-123997254D01*
X166352953Y-124187002D01*
X166412316Y-124369706D01*
X166478052Y-124498718D01*
X166499535Y-124540881D01*
X166612455Y-124696302D01*
X166748298Y-124832145D01*
X166903719Y-124945065D01*
X167074891Y-125032282D01*
X167074893Y-125032283D01*
X167139481Y-125053269D01*
X167197156Y-125092706D01*
X167224355Y-125157065D01*
X167212441Y-125225911D01*
X167165197Y-125277387D01*
X167139481Y-125289131D01*
X167074893Y-125310116D01*
X166903718Y-125397335D01*
X166844456Y-125440392D01*
X166748298Y-125510255D01*
X166748296Y-125510257D01*
X166748295Y-125510257D01*
X166612457Y-125646095D01*
X166612457Y-125646096D01*
X166612455Y-125646098D01*
X166575981Y-125696300D01*
X166499535Y-125801518D01*
X166412316Y-125972693D01*
X166352953Y-126155397D01*
X166322900Y-126345145D01*
X166322900Y-126537254D01*
X166352953Y-126727002D01*
X166412316Y-126909706D01*
X166470536Y-127023968D01*
X166499535Y-127080881D01*
X166612455Y-127236302D01*
X166748298Y-127372145D01*
X166866786Y-127458231D01*
X166909451Y-127513559D01*
X166917900Y-127558548D01*
X166917900Y-127863851D01*
X166898215Y-127930890D01*
X166866785Y-127964169D01*
X166748301Y-128050252D01*
X166748295Y-128050257D01*
X166612457Y-128186095D01*
X166612457Y-128186096D01*
X166612455Y-128186098D01*
X166581514Y-128228685D01*
X166499535Y-128341518D01*
X166412316Y-128512693D01*
X166352953Y-128695397D01*
X166322900Y-128885145D01*
X166322900Y-129077254D01*
X166345811Y-129221910D01*
X166336856Y-129291204D01*
X166311019Y-129328989D01*
X164931929Y-130708081D01*
X164870606Y-130741566D01*
X164844248Y-130744400D01*
X164341643Y-130744400D01*
X164274604Y-130724715D01*
X164228849Y-130671911D01*
X164218905Y-130602753D01*
X164223712Y-130582081D01*
X164234390Y-130549217D01*
X164266400Y-130347117D01*
X164266400Y-130094800D01*
X163282086Y-130094800D01*
X163286480Y-130090406D01*
X163339141Y-129999194D01*
X163366400Y-129897461D01*
X163366400Y-129792139D01*
X163339141Y-129690406D01*
X163286480Y-129599194D01*
X163282086Y-129594800D01*
X164266400Y-129594800D01*
X164266400Y-129342482D01*
X164234390Y-129140382D01*
X164171155Y-128945768D01*
X164078259Y-128763450D01*
X163957982Y-128597905D01*
X163957982Y-128597904D01*
X163813295Y-128453217D01*
X163647749Y-128332940D01*
X163465429Y-128240044D01*
X163270813Y-128176809D01*
X163216400Y-128168190D01*
X163216400Y-129529114D01*
X163212006Y-129524720D01*
X163120794Y-129472059D01*
X163019061Y-129444800D01*
X162913739Y-129444800D01*
X162812006Y-129472059D01*
X162720794Y-129524720D01*
X162716400Y-129529114D01*
X162716400Y-128168190D01*
X162661986Y-128176809D01*
X162467370Y-128240044D01*
X162285050Y-128332940D01*
X162119505Y-128453217D01*
X162119504Y-128453217D01*
X161974817Y-128597904D01*
X161974817Y-128597905D01*
X161854540Y-128763450D01*
X161807165Y-128856429D01*
X161759190Y-128907225D01*
X161691369Y-128924020D01*
X161625234Y-128901482D01*
X161586195Y-128856429D01*
X161556774Y-128798688D01*
X161538687Y-128763190D01*
X161517419Y-128733917D01*
X161418371Y-128597586D01*
X161273613Y-128452828D01*
X161108013Y-128332515D01*
X161108012Y-128332514D01*
X161108010Y-128332513D01*
X161048298Y-128302088D01*
X160925623Y-128239581D01*
X160730934Y-128176322D01*
X160545199Y-128146905D01*
X160528752Y-128144300D01*
X160324048Y-128144300D01*
X160307601Y-128146905D01*
X160121865Y-128176322D01*
X159927176Y-128239581D01*
X159744786Y-128332515D01*
X159579186Y-128452828D01*
X159434428Y-128597586D01*
X159314115Y-128763186D01*
X159266885Y-128855880D01*
X159218910Y-128906676D01*
X159151089Y-128923471D01*
X159084954Y-128900934D01*
X159045915Y-128855880D01*
X159045000Y-128854084D01*
X158998687Y-128763190D01*
X158977419Y-128733917D01*
X158878371Y-128597586D01*
X158733613Y-128452828D01*
X158564069Y-128329649D01*
X158565284Y-128327976D01*
X158524231Y-128282592D01*
X158511900Y-128228685D01*
X158511900Y-127891691D01*
X158510926Y-127886796D01*
X158510924Y-127886790D01*
X158508487Y-127874540D01*
X158495581Y-127809651D01*
X158487863Y-127770848D01*
X158440711Y-127657014D01*
X158440710Y-127657013D01*
X158440707Y-127657007D01*
X158372259Y-127554568D01*
X158331250Y-127513559D01*
X158285133Y-127467442D01*
X158285132Y-127467441D01*
X155208146Y-124390455D01*
X154916923Y-124099232D01*
X154883438Y-124037909D01*
X154888422Y-123968217D01*
X154930294Y-123912284D01*
X154995758Y-123887867D01*
X155036937Y-123892893D01*
X155037119Y-123892138D01*
X155041859Y-123893275D01*
X155041866Y-123893277D01*
X155244048Y-123925300D01*
X155244049Y-123925300D01*
X155448751Y-123925300D01*
X155448752Y-123925300D01*
X155650934Y-123893277D01*
X155845619Y-123830020D01*
X156028010Y-123737087D01*
X156145886Y-123651446D01*
X156193613Y-123616771D01*
X156193615Y-123616768D01*
X156193619Y-123616766D01*
X156338366Y-123472019D01*
X156338368Y-123472015D01*
X156338371Y-123472013D01*
X156458684Y-123306414D01*
X156458685Y-123306413D01*
X156458687Y-123306410D01*
X156505916Y-123213717D01*
X156553889Y-123162923D01*
X156621710Y-123146128D01*
X156687845Y-123168665D01*
X156726883Y-123213717D01*
X156751240Y-123261519D01*
X156774115Y-123306414D01*
X156894428Y-123472013D01*
X157039186Y-123616771D01*
X157188712Y-123725406D01*
X157204790Y-123737087D01*
X157306871Y-123789100D01*
X157387176Y-123830018D01*
X157387178Y-123830018D01*
X157387181Y-123830020D01*
X157491537Y-123863927D01*
X157581865Y-123893277D01*
X157682957Y-123909288D01*
X157784048Y-123925300D01*
X157784049Y-123925300D01*
X157988751Y-123925300D01*
X157988752Y-123925300D01*
X158190934Y-123893277D01*
X158385619Y-123830020D01*
X158568010Y-123737087D01*
X158685886Y-123651446D01*
X158733613Y-123616771D01*
X158733615Y-123616768D01*
X158733619Y-123616766D01*
X158878366Y-123472019D01*
X158878368Y-123472015D01*
X158878371Y-123472013D01*
X158998684Y-123306414D01*
X158998685Y-123306413D01*
X158998687Y-123306410D01*
X159045916Y-123213717D01*
X159093889Y-123162923D01*
X159161710Y-123146128D01*
X159227845Y-123168665D01*
X159266883Y-123213717D01*
X159291240Y-123261519D01*
X159314115Y-123306414D01*
X159434428Y-123472013D01*
X159579186Y-123616771D01*
X159728712Y-123725406D01*
X159744790Y-123737087D01*
X159846871Y-123789100D01*
X159927176Y-123830018D01*
X159927178Y-123830018D01*
X159927181Y-123830020D01*
X160031537Y-123863927D01*
X160121865Y-123893277D01*
X160222957Y-123909288D01*
X160324048Y-123925300D01*
X160324049Y-123925300D01*
X160528751Y-123925300D01*
X160528752Y-123925300D01*
X160730934Y-123893277D01*
X160925619Y-123830020D01*
X161108010Y-123737087D01*
X161225886Y-123651446D01*
X161273613Y-123616771D01*
X161273615Y-123616768D01*
X161273619Y-123616766D01*
X161418366Y-123472019D01*
X161418368Y-123472015D01*
X161418371Y-123472013D01*
X161538684Y-123306414D01*
X161538685Y-123306413D01*
X161538687Y-123306410D01*
X161585916Y-123213717D01*
X161633889Y-123162923D01*
X161701710Y-123146128D01*
X161767845Y-123168665D01*
X161806883Y-123213717D01*
X161831240Y-123261519D01*
X161854115Y-123306414D01*
X161974428Y-123472013D01*
X162119186Y-123616771D01*
X162268712Y-123725406D01*
X162284790Y-123737087D01*
X162386871Y-123789100D01*
X162467176Y-123830018D01*
X162467178Y-123830018D01*
X162467181Y-123830020D01*
X162571537Y-123863927D01*
X162661865Y-123893277D01*
X162762957Y-123909288D01*
X162864048Y-123925300D01*
X162864049Y-123925300D01*
X163068751Y-123925300D01*
X163068752Y-123925300D01*
X163270934Y-123893277D01*
X163465619Y-123830020D01*
X163648010Y-123737087D01*
X163765886Y-123651446D01*
X163813613Y-123616771D01*
X163813615Y-123616768D01*
X163813619Y-123616766D01*
X163958366Y-123472019D01*
X163958368Y-123472015D01*
X163958371Y-123472013D01*
X164011132Y-123399390D01*
X164078687Y-123306410D01*
X164169272Y-123128627D01*
X164171618Y-123124023D01*
X164171618Y-123124022D01*
X164171620Y-123124019D01*
X164234877Y-122929334D01*
X164266900Y-122727152D01*
X164266900Y-121722448D01*
X164254381Y-121643408D01*
X164234877Y-121520265D01*
X164198222Y-121407454D01*
X164171620Y-121325581D01*
X164171618Y-121325578D01*
X164171618Y-121325576D01*
X164125915Y-121235880D01*
X164078687Y-121143190D01*
X164064756Y-121124015D01*
X163958371Y-120977586D01*
X163813613Y-120832828D01*
X163648013Y-120712515D01*
X163648012Y-120712514D01*
X163648010Y-120712513D01*
X163552759Y-120663980D01*
X163465623Y-120619581D01*
X163270934Y-120556322D01*
X163093640Y-120528242D01*
X163068752Y-120524300D01*
X162864048Y-120524300D01*
X162839729Y-120528151D01*
X162661865Y-120556322D01*
X162467176Y-120619581D01*
X162284786Y-120712515D01*
X162119186Y-120832828D01*
X161974428Y-120977586D01*
X161854115Y-121143186D01*
X161806885Y-121235880D01*
X161758910Y-121286676D01*
X161691089Y-121303471D01*
X161624954Y-121280934D01*
X161585915Y-121235880D01*
X161563957Y-121192785D01*
X161538687Y-121143190D01*
X161524756Y-121124015D01*
X161418371Y-120977586D01*
X161273613Y-120832828D01*
X161108013Y-120712515D01*
X161108012Y-120712514D01*
X161108010Y-120712513D01*
X161012759Y-120663980D01*
X160925623Y-120619581D01*
X160730934Y-120556322D01*
X160553640Y-120528242D01*
X160528752Y-120524300D01*
X160324048Y-120524300D01*
X160299729Y-120528151D01*
X160121865Y-120556322D01*
X159927176Y-120619581D01*
X159744786Y-120712515D01*
X159579186Y-120832828D01*
X159434428Y-120977586D01*
X159314115Y-121143186D01*
X159266885Y-121235880D01*
X159218910Y-121286676D01*
X159151089Y-121303471D01*
X159084954Y-121280934D01*
X159045915Y-121235880D01*
X159023957Y-121192785D01*
X158998687Y-121143190D01*
X158984756Y-121124015D01*
X158878371Y-120977586D01*
X158733613Y-120832828D01*
X158568013Y-120712515D01*
X158568012Y-120712514D01*
X158568010Y-120712513D01*
X158472759Y-120663980D01*
X158385623Y-120619581D01*
X158190934Y-120556322D01*
X158013640Y-120528242D01*
X157988752Y-120524300D01*
X157784048Y-120524300D01*
X157759729Y-120528151D01*
X157581865Y-120556322D01*
X157387176Y-120619581D01*
X157204786Y-120712515D01*
X157039186Y-120832828D01*
X156894428Y-120977586D01*
X156774115Y-121143186D01*
X156726885Y-121235880D01*
X156678910Y-121286676D01*
X156611089Y-121303471D01*
X156544954Y-121280934D01*
X156505915Y-121235880D01*
X156483957Y-121192785D01*
X156458687Y-121143190D01*
X156444756Y-121124015D01*
X156338371Y-120977586D01*
X156193621Y-120832836D01*
X156193619Y-120832834D01*
X156123013Y-120781535D01*
X156080349Y-120726207D01*
X156071900Y-120681219D01*
X156071900Y-120528242D01*
X156044020Y-120388087D01*
X156044019Y-120388080D01*
X156044014Y-120388069D01*
X156042411Y-120382782D01*
X156041782Y-120312916D01*
X156079026Y-120253800D01*
X156141675Y-120224304D01*
X156158821Y-120221588D01*
X156353431Y-120158355D01*
X156535749Y-120065459D01*
X156580321Y-120033074D01*
X155900846Y-119353600D01*
X155907061Y-119353600D01*
X156008794Y-119326341D01*
X156100006Y-119273680D01*
X156174480Y-119199206D01*
X156227141Y-119107994D01*
X156254400Y-119006261D01*
X156254400Y-119000048D01*
X156933874Y-119679522D01*
X156933874Y-119679521D01*
X156966259Y-119634949D01*
X157059155Y-119452631D01*
X157122390Y-119258017D01*
X157154400Y-119055917D01*
X157154400Y-118851282D01*
X157122390Y-118649182D01*
X157059155Y-118454568D01*
X156966259Y-118272250D01*
X156933874Y-118227677D01*
X156933874Y-118227676D01*
X156254400Y-118907151D01*
X156254400Y-118900939D01*
X156227141Y-118799206D01*
X156174480Y-118707994D01*
X156100006Y-118633520D01*
X156008794Y-118580859D01*
X155907061Y-118553600D01*
X155900846Y-118553600D01*
X156580322Y-117874124D01*
X156580321Y-117874123D01*
X156535759Y-117841747D01*
X156535750Y-117841741D01*
X156482021Y-117814365D01*
X156431225Y-117766391D01*
X156414430Y-117698570D01*
X156436967Y-117632435D01*
X156482021Y-117593395D01*
X156536010Y-117565887D01*
X156585544Y-117529898D01*
X156701613Y-117445571D01*
X156701615Y-117445568D01*
X156701619Y-117445566D01*
X156846366Y-117300819D01*
X156851082Y-117294328D01*
X156897663Y-117230215D01*
X156952993Y-117187549D01*
X156997981Y-117179100D01*
X161365726Y-117179100D01*
X161432765Y-117198785D01*
G37*
%TD.AperFunction*%
%TD*%
M02*
