%TF.GenerationSoftware,KiCad,Pcbnew,9.0.7-9.0.7~ubuntu24.04.1*%
%TF.CreationDate,2026-03-14T17:51:37+01:00*%
%TF.ProjectId,atiny85v-meter,6174696e-7938-4357-962d-6d657465722e,1.0*%
%TF.SameCoordinates,Original*%
%TF.FileFunction,Legend,Top*%
%TF.FilePolarity,Positive*%
%FSLAX46Y46*%
G04 Gerber Fmt 4.6, Leading zero omitted, Abs format (unit mm)*
G04 Created by KiCad (PCBNEW 9.0.7-9.0.7~ubuntu24.04.1) date 2026-03-14 17:51:37*
%MOMM*%
%LPD*%
G01*
G04 APERTURE LIST*
%ADD10C,0.100000*%
%ADD11C,0.125000*%
%ADD12C,0.150000*%
%ADD13C,0.200000*%
%ADD14C,0.120000*%
G04 APERTURE END LIST*
D10*
X177343561Y-122503216D02*
X177819751Y-122503216D01*
X177248323Y-122788931D02*
X177581656Y-121788931D01*
X177581656Y-121788931D02*
X177914989Y-122788931D01*
X178105466Y-121788931D02*
X178676894Y-121788931D01*
X178391180Y-122788931D02*
X178391180Y-121788931D01*
X179010228Y-122788931D02*
X179010228Y-122122264D01*
X179010228Y-121788931D02*
X178962609Y-121836550D01*
X178962609Y-121836550D02*
X179010228Y-121884169D01*
X179010228Y-121884169D02*
X179057847Y-121836550D01*
X179057847Y-121836550D02*
X179010228Y-121788931D01*
X179010228Y-121788931D02*
X179010228Y-121884169D01*
X179486418Y-122122264D02*
X179486418Y-122788931D01*
X179486418Y-122217502D02*
X179534037Y-122169883D01*
X179534037Y-122169883D02*
X179629275Y-122122264D01*
X179629275Y-122122264D02*
X179772132Y-122122264D01*
X179772132Y-122122264D02*
X179867370Y-122169883D01*
X179867370Y-122169883D02*
X179914989Y-122265121D01*
X179914989Y-122265121D02*
X179914989Y-122788931D01*
X180295942Y-122122264D02*
X180534037Y-122788931D01*
X180772132Y-122122264D02*
X180534037Y-122788931D01*
X180534037Y-122788931D02*
X180438799Y-123027026D01*
X180438799Y-123027026D02*
X180391180Y-123074645D01*
X180391180Y-123074645D02*
X180295942Y-123122264D01*
X181295942Y-122217502D02*
X181200704Y-122169883D01*
X181200704Y-122169883D02*
X181153085Y-122122264D01*
X181153085Y-122122264D02*
X181105466Y-122027026D01*
X181105466Y-122027026D02*
X181105466Y-121979407D01*
X181105466Y-121979407D02*
X181153085Y-121884169D01*
X181153085Y-121884169D02*
X181200704Y-121836550D01*
X181200704Y-121836550D02*
X181295942Y-121788931D01*
X181295942Y-121788931D02*
X181486418Y-121788931D01*
X181486418Y-121788931D02*
X181581656Y-121836550D01*
X181581656Y-121836550D02*
X181629275Y-121884169D01*
X181629275Y-121884169D02*
X181676894Y-121979407D01*
X181676894Y-121979407D02*
X181676894Y-122027026D01*
X181676894Y-122027026D02*
X181629275Y-122122264D01*
X181629275Y-122122264D02*
X181581656Y-122169883D01*
X181581656Y-122169883D02*
X181486418Y-122217502D01*
X181486418Y-122217502D02*
X181295942Y-122217502D01*
X181295942Y-122217502D02*
X181200704Y-122265121D01*
X181200704Y-122265121D02*
X181153085Y-122312740D01*
X181153085Y-122312740D02*
X181105466Y-122407978D01*
X181105466Y-122407978D02*
X181105466Y-122598454D01*
X181105466Y-122598454D02*
X181153085Y-122693692D01*
X181153085Y-122693692D02*
X181200704Y-122741312D01*
X181200704Y-122741312D02*
X181295942Y-122788931D01*
X181295942Y-122788931D02*
X181486418Y-122788931D01*
X181486418Y-122788931D02*
X181581656Y-122741312D01*
X181581656Y-122741312D02*
X181629275Y-122693692D01*
X181629275Y-122693692D02*
X181676894Y-122598454D01*
X181676894Y-122598454D02*
X181676894Y-122407978D01*
X181676894Y-122407978D02*
X181629275Y-122312740D01*
X181629275Y-122312740D02*
X181581656Y-122265121D01*
X181581656Y-122265121D02*
X181486418Y-122217502D01*
X182581656Y-121788931D02*
X182105466Y-121788931D01*
X182105466Y-121788931D02*
X182057847Y-122265121D01*
X182057847Y-122265121D02*
X182105466Y-122217502D01*
X182105466Y-122217502D02*
X182200704Y-122169883D01*
X182200704Y-122169883D02*
X182438799Y-122169883D01*
X182438799Y-122169883D02*
X182534037Y-122217502D01*
X182534037Y-122217502D02*
X182581656Y-122265121D01*
X182581656Y-122265121D02*
X182629275Y-122360359D01*
X182629275Y-122360359D02*
X182629275Y-122598454D01*
X182629275Y-122598454D02*
X182581656Y-122693692D01*
X182581656Y-122693692D02*
X182534037Y-122741312D01*
X182534037Y-122741312D02*
X182438799Y-122788931D01*
X182438799Y-122788931D02*
X182200704Y-122788931D01*
X182200704Y-122788931D02*
X182105466Y-122741312D01*
X182105466Y-122741312D02*
X182057847Y-122693692D01*
X183676895Y-121788931D02*
X184010228Y-122788931D01*
X184010228Y-122788931D02*
X184343561Y-121788931D01*
X184676895Y-122407978D02*
X185438800Y-122407978D01*
X185914990Y-122788931D02*
X185914990Y-121788931D01*
X185914990Y-121788931D02*
X186248323Y-122503216D01*
X186248323Y-122503216D02*
X186581656Y-121788931D01*
X186581656Y-121788931D02*
X186581656Y-122788931D01*
X187438799Y-122741312D02*
X187343561Y-122788931D01*
X187343561Y-122788931D02*
X187153085Y-122788931D01*
X187153085Y-122788931D02*
X187057847Y-122741312D01*
X187057847Y-122741312D02*
X187010228Y-122646073D01*
X187010228Y-122646073D02*
X187010228Y-122265121D01*
X187010228Y-122265121D02*
X187057847Y-122169883D01*
X187057847Y-122169883D02*
X187153085Y-122122264D01*
X187153085Y-122122264D02*
X187343561Y-122122264D01*
X187343561Y-122122264D02*
X187438799Y-122169883D01*
X187438799Y-122169883D02*
X187486418Y-122265121D01*
X187486418Y-122265121D02*
X187486418Y-122360359D01*
X187486418Y-122360359D02*
X187010228Y-122455597D01*
X187772133Y-122122264D02*
X188153085Y-122122264D01*
X187914990Y-121788931D02*
X187914990Y-122646073D01*
X187914990Y-122646073D02*
X187962609Y-122741312D01*
X187962609Y-122741312D02*
X188057847Y-122788931D01*
X188057847Y-122788931D02*
X188153085Y-122788931D01*
X188867371Y-122741312D02*
X188772133Y-122788931D01*
X188772133Y-122788931D02*
X188581657Y-122788931D01*
X188581657Y-122788931D02*
X188486419Y-122741312D01*
X188486419Y-122741312D02*
X188438800Y-122646073D01*
X188438800Y-122646073D02*
X188438800Y-122265121D01*
X188438800Y-122265121D02*
X188486419Y-122169883D01*
X188486419Y-122169883D02*
X188581657Y-122122264D01*
X188581657Y-122122264D02*
X188772133Y-122122264D01*
X188772133Y-122122264D02*
X188867371Y-122169883D01*
X188867371Y-122169883D02*
X188914990Y-122265121D01*
X188914990Y-122265121D02*
X188914990Y-122360359D01*
X188914990Y-122360359D02*
X188438800Y-122455597D01*
X189343562Y-122788931D02*
X189343562Y-122122264D01*
X189343562Y-122312740D02*
X189391181Y-122217502D01*
X189391181Y-122217502D02*
X189438800Y-122169883D01*
X189438800Y-122169883D02*
X189534038Y-122122264D01*
X189534038Y-122122264D02*
X189629276Y-122122264D01*
X179534038Y-124398875D02*
X179534038Y-123398875D01*
X179534038Y-123398875D02*
X179867371Y-124113160D01*
X179867371Y-124113160D02*
X180200704Y-123398875D01*
X180200704Y-123398875D02*
X180200704Y-124398875D01*
X180676895Y-124303636D02*
X180724514Y-124351256D01*
X180724514Y-124351256D02*
X180676895Y-124398875D01*
X180676895Y-124398875D02*
X180629276Y-124351256D01*
X180629276Y-124351256D02*
X180676895Y-124303636D01*
X180676895Y-124303636D02*
X180676895Y-124398875D01*
X181105466Y-124113160D02*
X181581656Y-124113160D01*
X181010228Y-124398875D02*
X181343561Y-123398875D01*
X181343561Y-123398875D02*
X181676894Y-124398875D01*
X182010228Y-123732208D02*
X182010228Y-124398875D01*
X182010228Y-123827446D02*
X182057847Y-123779827D01*
X182057847Y-123779827D02*
X182153085Y-123732208D01*
X182153085Y-123732208D02*
X182295942Y-123732208D01*
X182295942Y-123732208D02*
X182391180Y-123779827D01*
X182391180Y-123779827D02*
X182438799Y-123875065D01*
X182438799Y-123875065D02*
X182438799Y-124398875D01*
X183343561Y-123732208D02*
X183343561Y-124541732D01*
X183343561Y-124541732D02*
X183295942Y-124636970D01*
X183295942Y-124636970D02*
X183248323Y-124684589D01*
X183248323Y-124684589D02*
X183153085Y-124732208D01*
X183153085Y-124732208D02*
X183010228Y-124732208D01*
X183010228Y-124732208D02*
X182914990Y-124684589D01*
X183343561Y-124351256D02*
X183248323Y-124398875D01*
X183248323Y-124398875D02*
X183057847Y-124398875D01*
X183057847Y-124398875D02*
X182962609Y-124351256D01*
X182962609Y-124351256D02*
X182914990Y-124303636D01*
X182914990Y-124303636D02*
X182867371Y-124208398D01*
X182867371Y-124208398D02*
X182867371Y-123922684D01*
X182867371Y-123922684D02*
X182914990Y-123827446D01*
X182914990Y-123827446D02*
X182962609Y-123779827D01*
X182962609Y-123779827D02*
X183057847Y-123732208D01*
X183057847Y-123732208D02*
X183248323Y-123732208D01*
X183248323Y-123732208D02*
X183343561Y-123779827D01*
X184200704Y-124351256D02*
X184105466Y-124398875D01*
X184105466Y-124398875D02*
X183914990Y-124398875D01*
X183914990Y-124398875D02*
X183819752Y-124351256D01*
X183819752Y-124351256D02*
X183772133Y-124256017D01*
X183772133Y-124256017D02*
X183772133Y-123875065D01*
X183772133Y-123875065D02*
X183819752Y-123779827D01*
X183819752Y-123779827D02*
X183914990Y-123732208D01*
X183914990Y-123732208D02*
X184105466Y-123732208D01*
X184105466Y-123732208D02*
X184200704Y-123779827D01*
X184200704Y-123779827D02*
X184248323Y-123875065D01*
X184248323Y-123875065D02*
X184248323Y-123970303D01*
X184248323Y-123970303D02*
X183772133Y-124065541D01*
X184819752Y-124398875D02*
X184724514Y-124351256D01*
X184724514Y-124351256D02*
X184676895Y-124256017D01*
X184676895Y-124256017D02*
X184676895Y-123398875D01*
X185200705Y-124398875D02*
X185200705Y-123732208D01*
X185200705Y-123398875D02*
X185153086Y-123446494D01*
X185153086Y-123446494D02*
X185200705Y-123494113D01*
X185200705Y-123494113D02*
X185248324Y-123446494D01*
X185248324Y-123446494D02*
X185200705Y-123398875D01*
X185200705Y-123398875D02*
X185200705Y-123494113D01*
X185676895Y-123732208D02*
X185676895Y-124398875D01*
X185676895Y-123827446D02*
X185724514Y-123779827D01*
X185724514Y-123779827D02*
X185819752Y-123732208D01*
X185819752Y-123732208D02*
X185962609Y-123732208D01*
X185962609Y-123732208D02*
X186057847Y-123779827D01*
X186057847Y-123779827D02*
X186105466Y-123875065D01*
X186105466Y-123875065D02*
X186105466Y-124398875D01*
X186581657Y-124398875D02*
X186581657Y-123732208D01*
X186581657Y-123398875D02*
X186534038Y-123446494D01*
X186534038Y-123446494D02*
X186581657Y-123494113D01*
X186581657Y-123494113D02*
X186629276Y-123446494D01*
X186629276Y-123446494D02*
X186581657Y-123398875D01*
X186581657Y-123398875D02*
X186581657Y-123494113D01*
X181724514Y-125104057D02*
X181772133Y-125056438D01*
X181772133Y-125056438D02*
X181867371Y-125008819D01*
X181867371Y-125008819D02*
X182105466Y-125008819D01*
X182105466Y-125008819D02*
X182200704Y-125056438D01*
X182200704Y-125056438D02*
X182248323Y-125104057D01*
X182248323Y-125104057D02*
X182295942Y-125199295D01*
X182295942Y-125199295D02*
X182295942Y-125294533D01*
X182295942Y-125294533D02*
X182248323Y-125437390D01*
X182248323Y-125437390D02*
X181676895Y-126008819D01*
X181676895Y-126008819D02*
X182295942Y-126008819D01*
X182914990Y-125008819D02*
X183010228Y-125008819D01*
X183010228Y-125008819D02*
X183105466Y-125056438D01*
X183105466Y-125056438D02*
X183153085Y-125104057D01*
X183153085Y-125104057D02*
X183200704Y-125199295D01*
X183200704Y-125199295D02*
X183248323Y-125389771D01*
X183248323Y-125389771D02*
X183248323Y-125627866D01*
X183248323Y-125627866D02*
X183200704Y-125818342D01*
X183200704Y-125818342D02*
X183153085Y-125913580D01*
X183153085Y-125913580D02*
X183105466Y-125961200D01*
X183105466Y-125961200D02*
X183010228Y-126008819D01*
X183010228Y-126008819D02*
X182914990Y-126008819D01*
X182914990Y-126008819D02*
X182819752Y-125961200D01*
X182819752Y-125961200D02*
X182772133Y-125913580D01*
X182772133Y-125913580D02*
X182724514Y-125818342D01*
X182724514Y-125818342D02*
X182676895Y-125627866D01*
X182676895Y-125627866D02*
X182676895Y-125389771D01*
X182676895Y-125389771D02*
X182724514Y-125199295D01*
X182724514Y-125199295D02*
X182772133Y-125104057D01*
X182772133Y-125104057D02*
X182819752Y-125056438D01*
X182819752Y-125056438D02*
X182914990Y-125008819D01*
X183629276Y-125104057D02*
X183676895Y-125056438D01*
X183676895Y-125056438D02*
X183772133Y-125008819D01*
X183772133Y-125008819D02*
X184010228Y-125008819D01*
X184010228Y-125008819D02*
X184105466Y-125056438D01*
X184105466Y-125056438D02*
X184153085Y-125104057D01*
X184153085Y-125104057D02*
X184200704Y-125199295D01*
X184200704Y-125199295D02*
X184200704Y-125294533D01*
X184200704Y-125294533D02*
X184153085Y-125437390D01*
X184153085Y-125437390D02*
X183581657Y-126008819D01*
X183581657Y-126008819D02*
X184200704Y-126008819D01*
X185057847Y-125008819D02*
X184867371Y-125008819D01*
X184867371Y-125008819D02*
X184772133Y-125056438D01*
X184772133Y-125056438D02*
X184724514Y-125104057D01*
X184724514Y-125104057D02*
X184629276Y-125246914D01*
X184629276Y-125246914D02*
X184581657Y-125437390D01*
X184581657Y-125437390D02*
X184581657Y-125818342D01*
X184581657Y-125818342D02*
X184629276Y-125913580D01*
X184629276Y-125913580D02*
X184676895Y-125961200D01*
X184676895Y-125961200D02*
X184772133Y-126008819D01*
X184772133Y-126008819D02*
X184962609Y-126008819D01*
X184962609Y-126008819D02*
X185057847Y-125961200D01*
X185057847Y-125961200D02*
X185105466Y-125913580D01*
X185105466Y-125913580D02*
X185153085Y-125818342D01*
X185153085Y-125818342D02*
X185153085Y-125580247D01*
X185153085Y-125580247D02*
X185105466Y-125485009D01*
X185105466Y-125485009D02*
X185057847Y-125437390D01*
X185057847Y-125437390D02*
X184962609Y-125389771D01*
X184962609Y-125389771D02*
X184772133Y-125389771D01*
X184772133Y-125389771D02*
X184676895Y-125437390D01*
X184676895Y-125437390D02*
X184629276Y-125485009D01*
X184629276Y-125485009D02*
X184581657Y-125580247D01*
X162444400Y-137024372D02*
X162468209Y-136952944D01*
X162468209Y-136952944D02*
X162468209Y-136833896D01*
X162468209Y-136833896D02*
X162444400Y-136786277D01*
X162444400Y-136786277D02*
X162420590Y-136762468D01*
X162420590Y-136762468D02*
X162372971Y-136738658D01*
X162372971Y-136738658D02*
X162325352Y-136738658D01*
X162325352Y-136738658D02*
X162277733Y-136762468D01*
X162277733Y-136762468D02*
X162253923Y-136786277D01*
X162253923Y-136786277D02*
X162230114Y-136833896D01*
X162230114Y-136833896D02*
X162206304Y-136929134D01*
X162206304Y-136929134D02*
X162182495Y-136976753D01*
X162182495Y-136976753D02*
X162158685Y-137000563D01*
X162158685Y-137000563D02*
X162111066Y-137024372D01*
X162111066Y-137024372D02*
X162063447Y-137024372D01*
X162063447Y-137024372D02*
X162015828Y-137000563D01*
X162015828Y-137000563D02*
X161992019Y-136976753D01*
X161992019Y-136976753D02*
X161968209Y-136929134D01*
X161968209Y-136929134D02*
X161968209Y-136810087D01*
X161968209Y-136810087D02*
X161992019Y-136738658D01*
X162420590Y-136238659D02*
X162444400Y-136262468D01*
X162444400Y-136262468D02*
X162468209Y-136333897D01*
X162468209Y-136333897D02*
X162468209Y-136381516D01*
X162468209Y-136381516D02*
X162444400Y-136452944D01*
X162444400Y-136452944D02*
X162396780Y-136500563D01*
X162396780Y-136500563D02*
X162349161Y-136524373D01*
X162349161Y-136524373D02*
X162253923Y-136548182D01*
X162253923Y-136548182D02*
X162182495Y-136548182D01*
X162182495Y-136548182D02*
X162087257Y-136524373D01*
X162087257Y-136524373D02*
X162039638Y-136500563D01*
X162039638Y-136500563D02*
X161992019Y-136452944D01*
X161992019Y-136452944D02*
X161968209Y-136381516D01*
X161968209Y-136381516D02*
X161968209Y-136333897D01*
X161968209Y-136333897D02*
X161992019Y-136262468D01*
X161992019Y-136262468D02*
X162015828Y-136238659D01*
X162468209Y-136024373D02*
X161968209Y-136024373D01*
X162468209Y-135738659D02*
X162182495Y-135952944D01*
X161968209Y-135738659D02*
X162253923Y-136024373D01*
X162468209Y-134231963D02*
X161968209Y-134231963D01*
X161968209Y-134231963D02*
X162325352Y-134065296D01*
X162325352Y-134065296D02*
X161968209Y-133898630D01*
X161968209Y-133898630D02*
X162468209Y-133898630D01*
X162468209Y-133660534D02*
X161968209Y-133660534D01*
X162444400Y-133446248D02*
X162468209Y-133374820D01*
X162468209Y-133374820D02*
X162468209Y-133255772D01*
X162468209Y-133255772D02*
X162444400Y-133208153D01*
X162444400Y-133208153D02*
X162420590Y-133184344D01*
X162420590Y-133184344D02*
X162372971Y-133160534D01*
X162372971Y-133160534D02*
X162325352Y-133160534D01*
X162325352Y-133160534D02*
X162277733Y-133184344D01*
X162277733Y-133184344D02*
X162253923Y-133208153D01*
X162253923Y-133208153D02*
X162230114Y-133255772D01*
X162230114Y-133255772D02*
X162206304Y-133351010D01*
X162206304Y-133351010D02*
X162182495Y-133398629D01*
X162182495Y-133398629D02*
X162158685Y-133422439D01*
X162158685Y-133422439D02*
X162111066Y-133446248D01*
X162111066Y-133446248D02*
X162063447Y-133446248D01*
X162063447Y-133446248D02*
X162015828Y-133422439D01*
X162015828Y-133422439D02*
X161992019Y-133398629D01*
X161992019Y-133398629D02*
X161968209Y-133351010D01*
X161968209Y-133351010D02*
X161968209Y-133231963D01*
X161968209Y-133231963D02*
X161992019Y-133160534D01*
X161968209Y-132851011D02*
X161968209Y-132755773D01*
X161968209Y-132755773D02*
X161992019Y-132708154D01*
X161992019Y-132708154D02*
X162039638Y-132660535D01*
X162039638Y-132660535D02*
X162134876Y-132636725D01*
X162134876Y-132636725D02*
X162301542Y-132636725D01*
X162301542Y-132636725D02*
X162396780Y-132660535D01*
X162396780Y-132660535D02*
X162444400Y-132708154D01*
X162444400Y-132708154D02*
X162468209Y-132755773D01*
X162468209Y-132755773D02*
X162468209Y-132851011D01*
X162468209Y-132851011D02*
X162444400Y-132898630D01*
X162444400Y-132898630D02*
X162396780Y-132946249D01*
X162396780Y-132946249D02*
X162301542Y-132970058D01*
X162301542Y-132970058D02*
X162134876Y-132970058D01*
X162134876Y-132970058D02*
X162039638Y-132946249D01*
X162039638Y-132946249D02*
X161992019Y-132898630D01*
X161992019Y-132898630D02*
X161968209Y-132851011D01*
X162442809Y-139813649D02*
X162204714Y-139980315D01*
X162442809Y-140099363D02*
X161942809Y-140099363D01*
X161942809Y-140099363D02*
X161942809Y-139908887D01*
X161942809Y-139908887D02*
X161966619Y-139861268D01*
X161966619Y-139861268D02*
X161990428Y-139837458D01*
X161990428Y-139837458D02*
X162038047Y-139813649D01*
X162038047Y-139813649D02*
X162109476Y-139813649D01*
X162109476Y-139813649D02*
X162157095Y-139837458D01*
X162157095Y-139837458D02*
X162180904Y-139861268D01*
X162180904Y-139861268D02*
X162204714Y-139908887D01*
X162204714Y-139908887D02*
X162204714Y-140099363D01*
X162419000Y-139408887D02*
X162442809Y-139456506D01*
X162442809Y-139456506D02*
X162442809Y-139551744D01*
X162442809Y-139551744D02*
X162419000Y-139599363D01*
X162419000Y-139599363D02*
X162371380Y-139623172D01*
X162371380Y-139623172D02*
X162180904Y-139623172D01*
X162180904Y-139623172D02*
X162133285Y-139599363D01*
X162133285Y-139599363D02*
X162109476Y-139551744D01*
X162109476Y-139551744D02*
X162109476Y-139456506D01*
X162109476Y-139456506D02*
X162133285Y-139408887D01*
X162133285Y-139408887D02*
X162180904Y-139385077D01*
X162180904Y-139385077D02*
X162228523Y-139385077D01*
X162228523Y-139385077D02*
X162276142Y-139623172D01*
X162419000Y-139194601D02*
X162442809Y-139146982D01*
X162442809Y-139146982D02*
X162442809Y-139051744D01*
X162442809Y-139051744D02*
X162419000Y-139004125D01*
X162419000Y-139004125D02*
X162371380Y-138980316D01*
X162371380Y-138980316D02*
X162347571Y-138980316D01*
X162347571Y-138980316D02*
X162299952Y-139004125D01*
X162299952Y-139004125D02*
X162276142Y-139051744D01*
X162276142Y-139051744D02*
X162276142Y-139123173D01*
X162276142Y-139123173D02*
X162252333Y-139170792D01*
X162252333Y-139170792D02*
X162204714Y-139194601D01*
X162204714Y-139194601D02*
X162180904Y-139194601D01*
X162180904Y-139194601D02*
X162133285Y-139170792D01*
X162133285Y-139170792D02*
X162109476Y-139123173D01*
X162109476Y-139123173D02*
X162109476Y-139051744D01*
X162109476Y-139051744D02*
X162133285Y-139004125D01*
X162419000Y-138575554D02*
X162442809Y-138623173D01*
X162442809Y-138623173D02*
X162442809Y-138718411D01*
X162442809Y-138718411D02*
X162419000Y-138766030D01*
X162419000Y-138766030D02*
X162371380Y-138789839D01*
X162371380Y-138789839D02*
X162180904Y-138789839D01*
X162180904Y-138789839D02*
X162133285Y-138766030D01*
X162133285Y-138766030D02*
X162109476Y-138718411D01*
X162109476Y-138718411D02*
X162109476Y-138623173D01*
X162109476Y-138623173D02*
X162133285Y-138575554D01*
X162133285Y-138575554D02*
X162180904Y-138551744D01*
X162180904Y-138551744D02*
X162228523Y-138551744D01*
X162228523Y-138551744D02*
X162276142Y-138789839D01*
X162109476Y-138408887D02*
X162109476Y-138218411D01*
X161942809Y-138337459D02*
X162371380Y-138337459D01*
X162371380Y-138337459D02*
X162419000Y-138313649D01*
X162419000Y-138313649D02*
X162442809Y-138266030D01*
X162442809Y-138266030D02*
X162442809Y-138218411D01*
X168985284Y-133247866D02*
X169747189Y-133247866D01*
X169366236Y-133628819D02*
X169366236Y-132866914D01*
X170699569Y-132628819D02*
X170223379Y-132628819D01*
X170223379Y-132628819D02*
X170175760Y-133105009D01*
X170175760Y-133105009D02*
X170223379Y-133057390D01*
X170223379Y-133057390D02*
X170318617Y-133009771D01*
X170318617Y-133009771D02*
X170556712Y-133009771D01*
X170556712Y-133009771D02*
X170651950Y-133057390D01*
X170651950Y-133057390D02*
X170699569Y-133105009D01*
X170699569Y-133105009D02*
X170747188Y-133200247D01*
X170747188Y-133200247D02*
X170747188Y-133438342D01*
X170747188Y-133438342D02*
X170699569Y-133533580D01*
X170699569Y-133533580D02*
X170651950Y-133581200D01*
X170651950Y-133581200D02*
X170556712Y-133628819D01*
X170556712Y-133628819D02*
X170318617Y-133628819D01*
X170318617Y-133628819D02*
X170223379Y-133581200D01*
X170223379Y-133581200D02*
X170175760Y-133533580D01*
X171080522Y-132962152D02*
X171318617Y-133628819D01*
X171318617Y-133628819D02*
X171556712Y-132962152D01*
X169580209Y-137152963D02*
X169080209Y-137152963D01*
X169080209Y-137152963D02*
X169437352Y-136986296D01*
X169437352Y-136986296D02*
X169080209Y-136819630D01*
X169080209Y-136819630D02*
X169580209Y-136819630D01*
X169080209Y-136486296D02*
X169080209Y-136391058D01*
X169080209Y-136391058D02*
X169104019Y-136343439D01*
X169104019Y-136343439D02*
X169151638Y-136295820D01*
X169151638Y-136295820D02*
X169246876Y-136272010D01*
X169246876Y-136272010D02*
X169413542Y-136272010D01*
X169413542Y-136272010D02*
X169508780Y-136295820D01*
X169508780Y-136295820D02*
X169556400Y-136343439D01*
X169556400Y-136343439D02*
X169580209Y-136391058D01*
X169580209Y-136391058D02*
X169580209Y-136486296D01*
X169580209Y-136486296D02*
X169556400Y-136533915D01*
X169556400Y-136533915D02*
X169508780Y-136581534D01*
X169508780Y-136581534D02*
X169413542Y-136605343D01*
X169413542Y-136605343D02*
X169246876Y-136605343D01*
X169246876Y-136605343D02*
X169151638Y-136581534D01*
X169151638Y-136581534D02*
X169104019Y-136533915D01*
X169104019Y-136533915D02*
X169080209Y-136486296D01*
X169556400Y-136081533D02*
X169580209Y-136010105D01*
X169580209Y-136010105D02*
X169580209Y-135891057D01*
X169580209Y-135891057D02*
X169556400Y-135843438D01*
X169556400Y-135843438D02*
X169532590Y-135819629D01*
X169532590Y-135819629D02*
X169484971Y-135795819D01*
X169484971Y-135795819D02*
X169437352Y-135795819D01*
X169437352Y-135795819D02*
X169389733Y-135819629D01*
X169389733Y-135819629D02*
X169365923Y-135843438D01*
X169365923Y-135843438D02*
X169342114Y-135891057D01*
X169342114Y-135891057D02*
X169318304Y-135986295D01*
X169318304Y-135986295D02*
X169294495Y-136033914D01*
X169294495Y-136033914D02*
X169270685Y-136057724D01*
X169270685Y-136057724D02*
X169223066Y-136081533D01*
X169223066Y-136081533D02*
X169175447Y-136081533D01*
X169175447Y-136081533D02*
X169127828Y-136057724D01*
X169127828Y-136057724D02*
X169104019Y-136033914D01*
X169104019Y-136033914D02*
X169080209Y-135986295D01*
X169080209Y-135986295D02*
X169080209Y-135867248D01*
X169080209Y-135867248D02*
X169104019Y-135795819D01*
X169580209Y-135581534D02*
X169080209Y-135581534D01*
X169559893Y-139458238D02*
X169464655Y-139410619D01*
X169464655Y-139410619D02*
X169321798Y-139410619D01*
X169321798Y-139410619D02*
X169178941Y-139458238D01*
X169178941Y-139458238D02*
X169083703Y-139553476D01*
X169083703Y-139553476D02*
X169036084Y-139648714D01*
X169036084Y-139648714D02*
X168988465Y-139839190D01*
X168988465Y-139839190D02*
X168988465Y-139982047D01*
X168988465Y-139982047D02*
X169036084Y-140172523D01*
X169036084Y-140172523D02*
X169083703Y-140267761D01*
X169083703Y-140267761D02*
X169178941Y-140363000D01*
X169178941Y-140363000D02*
X169321798Y-140410619D01*
X169321798Y-140410619D02*
X169417036Y-140410619D01*
X169417036Y-140410619D02*
X169559893Y-140363000D01*
X169559893Y-140363000D02*
X169607512Y-140315380D01*
X169607512Y-140315380D02*
X169607512Y-139982047D01*
X169607512Y-139982047D02*
X169417036Y-139982047D01*
X170036084Y-140410619D02*
X170036084Y-139410619D01*
X170036084Y-139410619D02*
X170607512Y-140410619D01*
X170607512Y-140410619D02*
X170607512Y-139410619D01*
X171083703Y-140410619D02*
X171083703Y-139410619D01*
X171083703Y-139410619D02*
X171321798Y-139410619D01*
X171321798Y-139410619D02*
X171464655Y-139458238D01*
X171464655Y-139458238D02*
X171559893Y-139553476D01*
X171559893Y-139553476D02*
X171607512Y-139648714D01*
X171607512Y-139648714D02*
X171655131Y-139839190D01*
X171655131Y-139839190D02*
X171655131Y-139982047D01*
X171655131Y-139982047D02*
X171607512Y-140172523D01*
X171607512Y-140172523D02*
X171559893Y-140267761D01*
X171559893Y-140267761D02*
X171464655Y-140363000D01*
X171464655Y-140363000D02*
X171321798Y-140410619D01*
X171321798Y-140410619D02*
X171083703Y-140410619D01*
X197093493Y-140677438D02*
X196998255Y-140629819D01*
X196998255Y-140629819D02*
X196855398Y-140629819D01*
X196855398Y-140629819D02*
X196712541Y-140677438D01*
X196712541Y-140677438D02*
X196617303Y-140772676D01*
X196617303Y-140772676D02*
X196569684Y-140867914D01*
X196569684Y-140867914D02*
X196522065Y-141058390D01*
X196522065Y-141058390D02*
X196522065Y-141201247D01*
X196522065Y-141201247D02*
X196569684Y-141391723D01*
X196569684Y-141391723D02*
X196617303Y-141486961D01*
X196617303Y-141486961D02*
X196712541Y-141582200D01*
X196712541Y-141582200D02*
X196855398Y-141629819D01*
X196855398Y-141629819D02*
X196950636Y-141629819D01*
X196950636Y-141629819D02*
X197093493Y-141582200D01*
X197093493Y-141582200D02*
X197141112Y-141534580D01*
X197141112Y-141534580D02*
X197141112Y-141201247D01*
X197141112Y-141201247D02*
X196950636Y-141201247D01*
X197569684Y-141629819D02*
X197569684Y-140629819D01*
X197569684Y-140629819D02*
X198141112Y-141629819D01*
X198141112Y-141629819D02*
X198141112Y-140629819D01*
X198617303Y-141629819D02*
X198617303Y-140629819D01*
X198617303Y-140629819D02*
X198855398Y-140629819D01*
X198855398Y-140629819D02*
X198998255Y-140677438D01*
X198998255Y-140677438D02*
X199093493Y-140772676D01*
X199093493Y-140772676D02*
X199141112Y-140867914D01*
X199141112Y-140867914D02*
X199188731Y-141058390D01*
X199188731Y-141058390D02*
X199188731Y-141201247D01*
X199188731Y-141201247D02*
X199141112Y-141391723D01*
X199141112Y-141391723D02*
X199093493Y-141486961D01*
X199093493Y-141486961D02*
X198998255Y-141582200D01*
X198998255Y-141582200D02*
X198855398Y-141629819D01*
X198855398Y-141629819D02*
X198617303Y-141629819D01*
D11*
X196259112Y-131665404D02*
X196735302Y-131665404D01*
X196163874Y-131951119D02*
X196497207Y-130951119D01*
X196497207Y-130951119D02*
X196830540Y-131951119D01*
X197592445Y-131284452D02*
X197592445Y-131951119D01*
X197163874Y-131284452D02*
X197163874Y-131808261D01*
X197163874Y-131808261D02*
X197211493Y-131903500D01*
X197211493Y-131903500D02*
X197306731Y-131951119D01*
X197306731Y-131951119D02*
X197449588Y-131951119D01*
X197449588Y-131951119D02*
X197544826Y-131903500D01*
X197544826Y-131903500D02*
X197592445Y-131855880D01*
X198497207Y-131951119D02*
X198497207Y-130951119D01*
X198497207Y-131903500D02*
X198401969Y-131951119D01*
X198401969Y-131951119D02*
X198211493Y-131951119D01*
X198211493Y-131951119D02*
X198116255Y-131903500D01*
X198116255Y-131903500D02*
X198068636Y-131855880D01*
X198068636Y-131855880D02*
X198021017Y-131760642D01*
X198021017Y-131760642D02*
X198021017Y-131474928D01*
X198021017Y-131474928D02*
X198068636Y-131379690D01*
X198068636Y-131379690D02*
X198116255Y-131332071D01*
X198116255Y-131332071D02*
X198211493Y-131284452D01*
X198211493Y-131284452D02*
X198401969Y-131284452D01*
X198401969Y-131284452D02*
X198497207Y-131332071D01*
X198973398Y-131951119D02*
X198973398Y-131284452D01*
X198973398Y-130951119D02*
X198925779Y-130998738D01*
X198925779Y-130998738D02*
X198973398Y-131046357D01*
X198973398Y-131046357D02*
X199021017Y-130998738D01*
X199021017Y-130998738D02*
X198973398Y-130951119D01*
X198973398Y-130951119D02*
X198973398Y-131046357D01*
X199592445Y-131951119D02*
X199497207Y-131903500D01*
X199497207Y-131903500D02*
X199449588Y-131855880D01*
X199449588Y-131855880D02*
X199401969Y-131760642D01*
X199401969Y-131760642D02*
X199401969Y-131474928D01*
X199401969Y-131474928D02*
X199449588Y-131379690D01*
X199449588Y-131379690D02*
X199497207Y-131332071D01*
X199497207Y-131332071D02*
X199592445Y-131284452D01*
X199592445Y-131284452D02*
X199735302Y-131284452D01*
X199735302Y-131284452D02*
X199830540Y-131332071D01*
X199830540Y-131332071D02*
X199878159Y-131379690D01*
X199878159Y-131379690D02*
X199925778Y-131474928D01*
X199925778Y-131474928D02*
X199925778Y-131760642D01*
X199925778Y-131760642D02*
X199878159Y-131855880D01*
X199878159Y-131855880D02*
X199830540Y-131903500D01*
X199830540Y-131903500D02*
X199735302Y-131951119D01*
X199735302Y-131951119D02*
X199592445Y-131951119D01*
X201116255Y-131951119D02*
X201116255Y-130951119D01*
X201592445Y-131951119D02*
X201592445Y-130951119D01*
X201592445Y-130951119D02*
X202163873Y-131951119D01*
X202163873Y-131951119D02*
X202163873Y-130951119D01*
D12*
X143126619Y-126122038D02*
X143126619Y-126693466D01*
X143126619Y-126407752D02*
X142126619Y-126407752D01*
X142126619Y-126407752D02*
X142269476Y-126502990D01*
X142269476Y-126502990D02*
X142364714Y-126598228D01*
X142364714Y-126598228D02*
X142412333Y-126693466D01*
X142126619Y-125502990D02*
X142126619Y-125407752D01*
X142126619Y-125407752D02*
X142174238Y-125312514D01*
X142174238Y-125312514D02*
X142221857Y-125264895D01*
X142221857Y-125264895D02*
X142317095Y-125217276D01*
X142317095Y-125217276D02*
X142507571Y-125169657D01*
X142507571Y-125169657D02*
X142745666Y-125169657D01*
X142745666Y-125169657D02*
X142936142Y-125217276D01*
X142936142Y-125217276D02*
X143031380Y-125264895D01*
X143031380Y-125264895D02*
X143079000Y-125312514D01*
X143079000Y-125312514D02*
X143126619Y-125407752D01*
X143126619Y-125407752D02*
X143126619Y-125502990D01*
X143126619Y-125502990D02*
X143079000Y-125598228D01*
X143079000Y-125598228D02*
X143031380Y-125645847D01*
X143031380Y-125645847D02*
X142936142Y-125693466D01*
X142936142Y-125693466D02*
X142745666Y-125741085D01*
X142745666Y-125741085D02*
X142507571Y-125741085D01*
X142507571Y-125741085D02*
X142317095Y-125693466D01*
X142317095Y-125693466D02*
X142221857Y-125645847D01*
X142221857Y-125645847D02*
X142174238Y-125598228D01*
X142174238Y-125598228D02*
X142126619Y-125502990D01*
X143126619Y-124741085D02*
X142126619Y-124741085D01*
X142745666Y-124645847D02*
X143126619Y-124360133D01*
X142459952Y-124360133D02*
X142840904Y-124741085D01*
X123898819Y-119667066D02*
X123898819Y-120143256D01*
X123898819Y-120143256D02*
X122898819Y-120143256D01*
X123898819Y-119333732D02*
X122898819Y-119333732D01*
X122898819Y-119333732D02*
X123613104Y-119000399D01*
X123613104Y-119000399D02*
X122898819Y-118667066D01*
X122898819Y-118667066D02*
X123898819Y-118667066D01*
X122898819Y-118286113D02*
X122898819Y-117619447D01*
X122898819Y-117619447D02*
X123898819Y-118048018D01*
X123327390Y-117095637D02*
X123279771Y-117190875D01*
X123279771Y-117190875D02*
X123232152Y-117238494D01*
X123232152Y-117238494D02*
X123136914Y-117286113D01*
X123136914Y-117286113D02*
X123089295Y-117286113D01*
X123089295Y-117286113D02*
X122994057Y-117238494D01*
X122994057Y-117238494D02*
X122946438Y-117190875D01*
X122946438Y-117190875D02*
X122898819Y-117095637D01*
X122898819Y-117095637D02*
X122898819Y-116905161D01*
X122898819Y-116905161D02*
X122946438Y-116809923D01*
X122946438Y-116809923D02*
X122994057Y-116762304D01*
X122994057Y-116762304D02*
X123089295Y-116714685D01*
X123089295Y-116714685D02*
X123136914Y-116714685D01*
X123136914Y-116714685D02*
X123232152Y-116762304D01*
X123232152Y-116762304D02*
X123279771Y-116809923D01*
X123279771Y-116809923D02*
X123327390Y-116905161D01*
X123327390Y-116905161D02*
X123327390Y-117095637D01*
X123327390Y-117095637D02*
X123375009Y-117190875D01*
X123375009Y-117190875D02*
X123422628Y-117238494D01*
X123422628Y-117238494D02*
X123517866Y-117286113D01*
X123517866Y-117286113D02*
X123708342Y-117286113D01*
X123708342Y-117286113D02*
X123803580Y-117238494D01*
X123803580Y-117238494D02*
X123851200Y-117190875D01*
X123851200Y-117190875D02*
X123898819Y-117095637D01*
X123898819Y-117095637D02*
X123898819Y-116905161D01*
X123898819Y-116905161D02*
X123851200Y-116809923D01*
X123851200Y-116809923D02*
X123803580Y-116762304D01*
X123803580Y-116762304D02*
X123708342Y-116714685D01*
X123708342Y-116714685D02*
X123517866Y-116714685D01*
X123517866Y-116714685D02*
X123422628Y-116762304D01*
X123422628Y-116762304D02*
X123375009Y-116809923D01*
X123375009Y-116809923D02*
X123327390Y-116905161D01*
X122898819Y-116095637D02*
X122898819Y-116000399D01*
X122898819Y-116000399D02*
X122946438Y-115905161D01*
X122946438Y-115905161D02*
X122994057Y-115857542D01*
X122994057Y-115857542D02*
X123089295Y-115809923D01*
X123089295Y-115809923D02*
X123279771Y-115762304D01*
X123279771Y-115762304D02*
X123517866Y-115762304D01*
X123517866Y-115762304D02*
X123708342Y-115809923D01*
X123708342Y-115809923D02*
X123803580Y-115857542D01*
X123803580Y-115857542D02*
X123851200Y-115905161D01*
X123851200Y-115905161D02*
X123898819Y-116000399D01*
X123898819Y-116000399D02*
X123898819Y-116095637D01*
X123898819Y-116095637D02*
X123851200Y-116190875D01*
X123851200Y-116190875D02*
X123803580Y-116238494D01*
X123803580Y-116238494D02*
X123708342Y-116286113D01*
X123708342Y-116286113D02*
X123517866Y-116333732D01*
X123517866Y-116333732D02*
X123279771Y-116333732D01*
X123279771Y-116333732D02*
X123089295Y-116286113D01*
X123089295Y-116286113D02*
X122994057Y-116238494D01*
X122994057Y-116238494D02*
X122946438Y-116190875D01*
X122946438Y-116190875D02*
X122898819Y-116095637D01*
X123898819Y-115286113D02*
X123898819Y-115095637D01*
X123898819Y-115095637D02*
X123851200Y-115000399D01*
X123851200Y-115000399D02*
X123803580Y-114952780D01*
X123803580Y-114952780D02*
X123660723Y-114857542D01*
X123660723Y-114857542D02*
X123470247Y-114809923D01*
X123470247Y-114809923D02*
X123089295Y-114809923D01*
X123089295Y-114809923D02*
X122994057Y-114857542D01*
X122994057Y-114857542D02*
X122946438Y-114905161D01*
X122946438Y-114905161D02*
X122898819Y-115000399D01*
X122898819Y-115000399D02*
X122898819Y-115190875D01*
X122898819Y-115190875D02*
X122946438Y-115286113D01*
X122946438Y-115286113D02*
X122994057Y-115333732D01*
X122994057Y-115333732D02*
X123089295Y-115381351D01*
X123089295Y-115381351D02*
X123327390Y-115381351D01*
X123327390Y-115381351D02*
X123422628Y-115333732D01*
X123422628Y-115333732D02*
X123470247Y-115286113D01*
X123470247Y-115286113D02*
X123517866Y-115190875D01*
X123517866Y-115190875D02*
X123517866Y-115000399D01*
X123517866Y-115000399D02*
X123470247Y-114905161D01*
X123470247Y-114905161D02*
X123422628Y-114857542D01*
X123422628Y-114857542D02*
X123327390Y-114809923D01*
X158341219Y-119403619D02*
X158341219Y-119975047D01*
X158341219Y-119689333D02*
X157341219Y-119689333D01*
X157341219Y-119689333D02*
X157484076Y-119784571D01*
X157484076Y-119784571D02*
X157579314Y-119879809D01*
X157579314Y-119879809D02*
X157626933Y-119975047D01*
X157341219Y-118784571D02*
X157341219Y-118689333D01*
X157341219Y-118689333D02*
X157388838Y-118594095D01*
X157388838Y-118594095D02*
X157436457Y-118546476D01*
X157436457Y-118546476D02*
X157531695Y-118498857D01*
X157531695Y-118498857D02*
X157722171Y-118451238D01*
X157722171Y-118451238D02*
X157960266Y-118451238D01*
X157960266Y-118451238D02*
X158150742Y-118498857D01*
X158150742Y-118498857D02*
X158245980Y-118546476D01*
X158245980Y-118546476D02*
X158293600Y-118594095D01*
X158293600Y-118594095D02*
X158341219Y-118689333D01*
X158341219Y-118689333D02*
X158341219Y-118784571D01*
X158341219Y-118784571D02*
X158293600Y-118879809D01*
X158293600Y-118879809D02*
X158245980Y-118927428D01*
X158245980Y-118927428D02*
X158150742Y-118975047D01*
X158150742Y-118975047D02*
X157960266Y-119022666D01*
X157960266Y-119022666D02*
X157722171Y-119022666D01*
X157722171Y-119022666D02*
X157531695Y-118975047D01*
X157531695Y-118975047D02*
X157436457Y-118927428D01*
X157436457Y-118927428D02*
X157388838Y-118879809D01*
X157388838Y-118879809D02*
X157341219Y-118784571D01*
X157341219Y-117832190D02*
X157341219Y-117736952D01*
X157341219Y-117736952D02*
X157388838Y-117641714D01*
X157388838Y-117641714D02*
X157436457Y-117594095D01*
X157436457Y-117594095D02*
X157531695Y-117546476D01*
X157531695Y-117546476D02*
X157722171Y-117498857D01*
X157722171Y-117498857D02*
X157960266Y-117498857D01*
X157960266Y-117498857D02*
X158150742Y-117546476D01*
X158150742Y-117546476D02*
X158245980Y-117594095D01*
X158245980Y-117594095D02*
X158293600Y-117641714D01*
X158293600Y-117641714D02*
X158341219Y-117736952D01*
X158341219Y-117736952D02*
X158341219Y-117832190D01*
X158341219Y-117832190D02*
X158293600Y-117927428D01*
X158293600Y-117927428D02*
X158245980Y-117975047D01*
X158245980Y-117975047D02*
X158150742Y-118022666D01*
X158150742Y-118022666D02*
X157960266Y-118070285D01*
X157960266Y-118070285D02*
X157722171Y-118070285D01*
X157722171Y-118070285D02*
X157531695Y-118022666D01*
X157531695Y-118022666D02*
X157436457Y-117975047D01*
X157436457Y-117975047D02*
X157388838Y-117927428D01*
X157388838Y-117927428D02*
X157341219Y-117832190D01*
X157674552Y-117070285D02*
X158341219Y-117070285D01*
X157769790Y-117070285D02*
X157722171Y-117022666D01*
X157722171Y-117022666D02*
X157674552Y-116927428D01*
X157674552Y-116927428D02*
X157674552Y-116784571D01*
X157674552Y-116784571D02*
X157722171Y-116689333D01*
X157722171Y-116689333D02*
X157817409Y-116641714D01*
X157817409Y-116641714D02*
X158341219Y-116641714D01*
X157817409Y-115832190D02*
X157817409Y-116165523D01*
X158341219Y-116165523D02*
X157341219Y-116165523D01*
X157341219Y-116165523D02*
X157341219Y-115689333D01*
X171676219Y-127658666D02*
X171676219Y-128230094D01*
X171676219Y-127944380D02*
X170676219Y-127944380D01*
X170676219Y-127944380D02*
X170819076Y-128039618D01*
X170819076Y-128039618D02*
X170914314Y-128134856D01*
X170914314Y-128134856D02*
X170961933Y-128230094D01*
X170676219Y-127039618D02*
X170676219Y-126944380D01*
X170676219Y-126944380D02*
X170723838Y-126849142D01*
X170723838Y-126849142D02*
X170771457Y-126801523D01*
X170771457Y-126801523D02*
X170866695Y-126753904D01*
X170866695Y-126753904D02*
X171057171Y-126706285D01*
X171057171Y-126706285D02*
X171295266Y-126706285D01*
X171295266Y-126706285D02*
X171485742Y-126753904D01*
X171485742Y-126753904D02*
X171580980Y-126801523D01*
X171580980Y-126801523D02*
X171628600Y-126849142D01*
X171628600Y-126849142D02*
X171676219Y-126944380D01*
X171676219Y-126944380D02*
X171676219Y-127039618D01*
X171676219Y-127039618D02*
X171628600Y-127134856D01*
X171628600Y-127134856D02*
X171580980Y-127182475D01*
X171580980Y-127182475D02*
X171485742Y-127230094D01*
X171485742Y-127230094D02*
X171295266Y-127277713D01*
X171295266Y-127277713D02*
X171057171Y-127277713D01*
X171057171Y-127277713D02*
X170866695Y-127230094D01*
X170866695Y-127230094D02*
X170771457Y-127182475D01*
X170771457Y-127182475D02*
X170723838Y-127134856D01*
X170723838Y-127134856D02*
X170676219Y-127039618D01*
X170676219Y-126087237D02*
X170676219Y-125991999D01*
X170676219Y-125991999D02*
X170723838Y-125896761D01*
X170723838Y-125896761D02*
X170771457Y-125849142D01*
X170771457Y-125849142D02*
X170866695Y-125801523D01*
X170866695Y-125801523D02*
X171057171Y-125753904D01*
X171057171Y-125753904D02*
X171295266Y-125753904D01*
X171295266Y-125753904D02*
X171485742Y-125801523D01*
X171485742Y-125801523D02*
X171580980Y-125849142D01*
X171580980Y-125849142D02*
X171628600Y-125896761D01*
X171628600Y-125896761D02*
X171676219Y-125991999D01*
X171676219Y-125991999D02*
X171676219Y-126087237D01*
X171676219Y-126087237D02*
X171628600Y-126182475D01*
X171628600Y-126182475D02*
X171580980Y-126230094D01*
X171580980Y-126230094D02*
X171485742Y-126277713D01*
X171485742Y-126277713D02*
X171295266Y-126325332D01*
X171295266Y-126325332D02*
X171057171Y-126325332D01*
X171057171Y-126325332D02*
X170866695Y-126277713D01*
X170866695Y-126277713D02*
X170771457Y-126230094D01*
X170771457Y-126230094D02*
X170723838Y-126182475D01*
X170723838Y-126182475D02*
X170676219Y-126087237D01*
X171676219Y-125325332D02*
X170676219Y-125325332D01*
X171676219Y-124753904D02*
X171104790Y-125182475D01*
X170676219Y-124753904D02*
X171247647Y-125325332D01*
X153484628Y-142409104D02*
X153960818Y-142409104D01*
X153389390Y-142694819D02*
X153722723Y-141694819D01*
X153722723Y-141694819D02*
X154056056Y-142694819D01*
X154246533Y-141694819D02*
X154817961Y-141694819D01*
X154532247Y-142694819D02*
X154532247Y-141694819D01*
X155008438Y-142028152D02*
X155389390Y-142028152D01*
X155151295Y-141694819D02*
X155151295Y-142551961D01*
X155151295Y-142551961D02*
X155198914Y-142647200D01*
X155198914Y-142647200D02*
X155294152Y-142694819D01*
X155294152Y-142694819D02*
X155389390Y-142694819D01*
X155722724Y-142694819D02*
X155722724Y-142028152D01*
X155722724Y-141694819D02*
X155675105Y-141742438D01*
X155675105Y-141742438D02*
X155722724Y-141790057D01*
X155722724Y-141790057D02*
X155770343Y-141742438D01*
X155770343Y-141742438D02*
X155722724Y-141694819D01*
X155722724Y-141694819D02*
X155722724Y-141790057D01*
X156198914Y-142028152D02*
X156198914Y-142694819D01*
X156198914Y-142123390D02*
X156246533Y-142075771D01*
X156246533Y-142075771D02*
X156341771Y-142028152D01*
X156341771Y-142028152D02*
X156484628Y-142028152D01*
X156484628Y-142028152D02*
X156579866Y-142075771D01*
X156579866Y-142075771D02*
X156627485Y-142171009D01*
X156627485Y-142171009D02*
X156627485Y-142694819D01*
X157008438Y-142028152D02*
X157246533Y-142694819D01*
X157484628Y-142028152D02*
X157246533Y-142694819D01*
X157246533Y-142694819D02*
X157151295Y-142932914D01*
X157151295Y-142932914D02*
X157103676Y-142980533D01*
X157103676Y-142980533D02*
X157008438Y-143028152D01*
X158008438Y-142123390D02*
X157913200Y-142075771D01*
X157913200Y-142075771D02*
X157865581Y-142028152D01*
X157865581Y-142028152D02*
X157817962Y-141932914D01*
X157817962Y-141932914D02*
X157817962Y-141885295D01*
X157817962Y-141885295D02*
X157865581Y-141790057D01*
X157865581Y-141790057D02*
X157913200Y-141742438D01*
X157913200Y-141742438D02*
X158008438Y-141694819D01*
X158008438Y-141694819D02*
X158198914Y-141694819D01*
X158198914Y-141694819D02*
X158294152Y-141742438D01*
X158294152Y-141742438D02*
X158341771Y-141790057D01*
X158341771Y-141790057D02*
X158389390Y-141885295D01*
X158389390Y-141885295D02*
X158389390Y-141932914D01*
X158389390Y-141932914D02*
X158341771Y-142028152D01*
X158341771Y-142028152D02*
X158294152Y-142075771D01*
X158294152Y-142075771D02*
X158198914Y-142123390D01*
X158198914Y-142123390D02*
X158008438Y-142123390D01*
X158008438Y-142123390D02*
X157913200Y-142171009D01*
X157913200Y-142171009D02*
X157865581Y-142218628D01*
X157865581Y-142218628D02*
X157817962Y-142313866D01*
X157817962Y-142313866D02*
X157817962Y-142504342D01*
X157817962Y-142504342D02*
X157865581Y-142599580D01*
X157865581Y-142599580D02*
X157913200Y-142647200D01*
X157913200Y-142647200D02*
X158008438Y-142694819D01*
X158008438Y-142694819D02*
X158198914Y-142694819D01*
X158198914Y-142694819D02*
X158294152Y-142647200D01*
X158294152Y-142647200D02*
X158341771Y-142599580D01*
X158341771Y-142599580D02*
X158389390Y-142504342D01*
X158389390Y-142504342D02*
X158389390Y-142313866D01*
X158389390Y-142313866D02*
X158341771Y-142218628D01*
X158341771Y-142218628D02*
X158294152Y-142171009D01*
X158294152Y-142171009D02*
X158198914Y-142123390D01*
X159294152Y-141694819D02*
X158817962Y-141694819D01*
X158817962Y-141694819D02*
X158770343Y-142171009D01*
X158770343Y-142171009D02*
X158817962Y-142123390D01*
X158817962Y-142123390D02*
X158913200Y-142075771D01*
X158913200Y-142075771D02*
X159151295Y-142075771D01*
X159151295Y-142075771D02*
X159246533Y-142123390D01*
X159246533Y-142123390D02*
X159294152Y-142171009D01*
X159294152Y-142171009D02*
X159341771Y-142266247D01*
X159341771Y-142266247D02*
X159341771Y-142504342D01*
X159341771Y-142504342D02*
X159294152Y-142599580D01*
X159294152Y-142599580D02*
X159246533Y-142647200D01*
X159246533Y-142647200D02*
X159151295Y-142694819D01*
X159151295Y-142694819D02*
X158913200Y-142694819D01*
X158913200Y-142694819D02*
X158817962Y-142647200D01*
X158817962Y-142647200D02*
X158770343Y-142599580D01*
X137945019Y-119565466D02*
X137945019Y-120041656D01*
X137945019Y-120041656D02*
X136945019Y-120041656D01*
X137945019Y-119232132D02*
X136945019Y-119232132D01*
X136945019Y-119232132D02*
X137659304Y-118898799D01*
X137659304Y-118898799D02*
X136945019Y-118565466D01*
X136945019Y-118565466D02*
X137945019Y-118565466D01*
X136945019Y-118184513D02*
X136945019Y-117517847D01*
X136945019Y-117517847D02*
X137945019Y-117946418D01*
X137373590Y-116994037D02*
X137325971Y-117089275D01*
X137325971Y-117089275D02*
X137278352Y-117136894D01*
X137278352Y-117136894D02*
X137183114Y-117184513D01*
X137183114Y-117184513D02*
X137135495Y-117184513D01*
X137135495Y-117184513D02*
X137040257Y-117136894D01*
X137040257Y-117136894D02*
X136992638Y-117089275D01*
X136992638Y-117089275D02*
X136945019Y-116994037D01*
X136945019Y-116994037D02*
X136945019Y-116803561D01*
X136945019Y-116803561D02*
X136992638Y-116708323D01*
X136992638Y-116708323D02*
X137040257Y-116660704D01*
X137040257Y-116660704D02*
X137135495Y-116613085D01*
X137135495Y-116613085D02*
X137183114Y-116613085D01*
X137183114Y-116613085D02*
X137278352Y-116660704D01*
X137278352Y-116660704D02*
X137325971Y-116708323D01*
X137325971Y-116708323D02*
X137373590Y-116803561D01*
X137373590Y-116803561D02*
X137373590Y-116994037D01*
X137373590Y-116994037D02*
X137421209Y-117089275D01*
X137421209Y-117089275D02*
X137468828Y-117136894D01*
X137468828Y-117136894D02*
X137564066Y-117184513D01*
X137564066Y-117184513D02*
X137754542Y-117184513D01*
X137754542Y-117184513D02*
X137849780Y-117136894D01*
X137849780Y-117136894D02*
X137897400Y-117089275D01*
X137897400Y-117089275D02*
X137945019Y-116994037D01*
X137945019Y-116994037D02*
X137945019Y-116803561D01*
X137945019Y-116803561D02*
X137897400Y-116708323D01*
X137897400Y-116708323D02*
X137849780Y-116660704D01*
X137849780Y-116660704D02*
X137754542Y-116613085D01*
X137754542Y-116613085D02*
X137564066Y-116613085D01*
X137564066Y-116613085D02*
X137468828Y-116660704D01*
X137468828Y-116660704D02*
X137421209Y-116708323D01*
X137421209Y-116708323D02*
X137373590Y-116803561D01*
X136945019Y-115994037D02*
X136945019Y-115898799D01*
X136945019Y-115898799D02*
X136992638Y-115803561D01*
X136992638Y-115803561D02*
X137040257Y-115755942D01*
X137040257Y-115755942D02*
X137135495Y-115708323D01*
X137135495Y-115708323D02*
X137325971Y-115660704D01*
X137325971Y-115660704D02*
X137564066Y-115660704D01*
X137564066Y-115660704D02*
X137754542Y-115708323D01*
X137754542Y-115708323D02*
X137849780Y-115755942D01*
X137849780Y-115755942D02*
X137897400Y-115803561D01*
X137897400Y-115803561D02*
X137945019Y-115898799D01*
X137945019Y-115898799D02*
X137945019Y-115994037D01*
X137945019Y-115994037D02*
X137897400Y-116089275D01*
X137897400Y-116089275D02*
X137849780Y-116136894D01*
X137849780Y-116136894D02*
X137754542Y-116184513D01*
X137754542Y-116184513D02*
X137564066Y-116232132D01*
X137564066Y-116232132D02*
X137325971Y-116232132D01*
X137325971Y-116232132D02*
X137135495Y-116184513D01*
X137135495Y-116184513D02*
X137040257Y-116136894D01*
X137040257Y-116136894D02*
X136992638Y-116089275D01*
X136992638Y-116089275D02*
X136945019Y-115994037D01*
X136945019Y-114755942D02*
X136945019Y-115232132D01*
X136945019Y-115232132D02*
X137421209Y-115279751D01*
X137421209Y-115279751D02*
X137373590Y-115232132D01*
X137373590Y-115232132D02*
X137325971Y-115136894D01*
X137325971Y-115136894D02*
X137325971Y-114898799D01*
X137325971Y-114898799D02*
X137373590Y-114803561D01*
X137373590Y-114803561D02*
X137421209Y-114755942D01*
X137421209Y-114755942D02*
X137516447Y-114708323D01*
X137516447Y-114708323D02*
X137754542Y-114708323D01*
X137754542Y-114708323D02*
X137849780Y-114755942D01*
X137849780Y-114755942D02*
X137897400Y-114803561D01*
X137897400Y-114803561D02*
X137945019Y-114898799D01*
X137945019Y-114898799D02*
X137945019Y-115136894D01*
X137945019Y-115136894D02*
X137897400Y-115232132D01*
X137897400Y-115232132D02*
X137849780Y-115279751D01*
X129529295Y-129985419D02*
X130195961Y-129985419D01*
X130195961Y-129985419D02*
X129767390Y-130985419D01*
X131005485Y-130318752D02*
X131005485Y-130985419D01*
X130767390Y-129937800D02*
X130529295Y-130652085D01*
X130529295Y-130652085D02*
X131148342Y-130652085D01*
X131529295Y-130985419D02*
X131529295Y-129985419D01*
X131529295Y-130461609D02*
X132100723Y-130461609D01*
X132100723Y-130985419D02*
X132100723Y-129985419D01*
X133148342Y-130890180D02*
X133100723Y-130937800D01*
X133100723Y-130937800D02*
X132957866Y-130985419D01*
X132957866Y-130985419D02*
X132862628Y-130985419D01*
X132862628Y-130985419D02*
X132719771Y-130937800D01*
X132719771Y-130937800D02*
X132624533Y-130842561D01*
X132624533Y-130842561D02*
X132576914Y-130747323D01*
X132576914Y-130747323D02*
X132529295Y-130556847D01*
X132529295Y-130556847D02*
X132529295Y-130413990D01*
X132529295Y-130413990D02*
X132576914Y-130223514D01*
X132576914Y-130223514D02*
X132624533Y-130128276D01*
X132624533Y-130128276D02*
X132719771Y-130033038D01*
X132719771Y-130033038D02*
X132862628Y-129985419D01*
X132862628Y-129985419D02*
X132957866Y-129985419D01*
X132957866Y-129985419D02*
X133100723Y-130033038D01*
X133100723Y-130033038D02*
X133148342Y-130080657D01*
X134053104Y-129985419D02*
X133576914Y-129985419D01*
X133576914Y-129985419D02*
X133529295Y-130461609D01*
X133529295Y-130461609D02*
X133576914Y-130413990D01*
X133576914Y-130413990D02*
X133672152Y-130366371D01*
X133672152Y-130366371D02*
X133910247Y-130366371D01*
X133910247Y-130366371D02*
X134005485Y-130413990D01*
X134005485Y-130413990D02*
X134053104Y-130461609D01*
X134053104Y-130461609D02*
X134100723Y-130556847D01*
X134100723Y-130556847D02*
X134100723Y-130794942D01*
X134100723Y-130794942D02*
X134053104Y-130890180D01*
X134053104Y-130890180D02*
X134005485Y-130937800D01*
X134005485Y-130937800D02*
X133910247Y-130985419D01*
X133910247Y-130985419D02*
X133672152Y-130985419D01*
X133672152Y-130985419D02*
X133576914Y-130937800D01*
X133576914Y-130937800D02*
X133529295Y-130890180D01*
X134576914Y-130985419D02*
X134767390Y-130985419D01*
X134767390Y-130985419D02*
X134862628Y-130937800D01*
X134862628Y-130937800D02*
X134910247Y-130890180D01*
X134910247Y-130890180D02*
X135005485Y-130747323D01*
X135005485Y-130747323D02*
X135053104Y-130556847D01*
X135053104Y-130556847D02*
X135053104Y-130175895D01*
X135053104Y-130175895D02*
X135005485Y-130080657D01*
X135005485Y-130080657D02*
X134957866Y-130033038D01*
X134957866Y-130033038D02*
X134862628Y-129985419D01*
X134862628Y-129985419D02*
X134672152Y-129985419D01*
X134672152Y-129985419D02*
X134576914Y-130033038D01*
X134576914Y-130033038D02*
X134529295Y-130080657D01*
X134529295Y-130080657D02*
X134481676Y-130175895D01*
X134481676Y-130175895D02*
X134481676Y-130413990D01*
X134481676Y-130413990D02*
X134529295Y-130509228D01*
X134529295Y-130509228D02*
X134576914Y-130556847D01*
X134576914Y-130556847D02*
X134672152Y-130604466D01*
X134672152Y-130604466D02*
X134862628Y-130604466D01*
X134862628Y-130604466D02*
X134957866Y-130556847D01*
X134957866Y-130556847D02*
X135005485Y-130509228D01*
X135005485Y-130509228D02*
X135053104Y-130413990D01*
X135957866Y-129985419D02*
X135481676Y-129985419D01*
X135481676Y-129985419D02*
X135434057Y-130461609D01*
X135434057Y-130461609D02*
X135481676Y-130413990D01*
X135481676Y-130413990D02*
X135576914Y-130366371D01*
X135576914Y-130366371D02*
X135815009Y-130366371D01*
X135815009Y-130366371D02*
X135910247Y-130413990D01*
X135910247Y-130413990D02*
X135957866Y-130461609D01*
X135957866Y-130461609D02*
X136005485Y-130556847D01*
X136005485Y-130556847D02*
X136005485Y-130794942D01*
X136005485Y-130794942D02*
X135957866Y-130890180D01*
X135957866Y-130890180D02*
X135910247Y-130937800D01*
X135910247Y-130937800D02*
X135815009Y-130985419D01*
X135815009Y-130985419D02*
X135576914Y-130985419D01*
X135576914Y-130985419D02*
X135481676Y-130937800D01*
X135481676Y-130937800D02*
X135434057Y-130890180D01*
X149527419Y-131122704D02*
X148527419Y-131122704D01*
X149527419Y-130551276D02*
X148955990Y-130979847D01*
X148527419Y-130551276D02*
X149098847Y-131122704D01*
X181878695Y-129172619D02*
X182545361Y-129172619D01*
X182545361Y-129172619D02*
X182116790Y-130172619D01*
X183354885Y-129505952D02*
X183354885Y-130172619D01*
X183116790Y-129125000D02*
X182878695Y-129839285D01*
X182878695Y-129839285D02*
X183497742Y-129839285D01*
X183878695Y-130172619D02*
X183878695Y-129172619D01*
X183878695Y-129648809D02*
X184450123Y-129648809D01*
X184450123Y-130172619D02*
X184450123Y-129172619D01*
X185497742Y-130077380D02*
X185450123Y-130125000D01*
X185450123Y-130125000D02*
X185307266Y-130172619D01*
X185307266Y-130172619D02*
X185212028Y-130172619D01*
X185212028Y-130172619D02*
X185069171Y-130125000D01*
X185069171Y-130125000D02*
X184973933Y-130029761D01*
X184973933Y-130029761D02*
X184926314Y-129934523D01*
X184926314Y-129934523D02*
X184878695Y-129744047D01*
X184878695Y-129744047D02*
X184878695Y-129601190D01*
X184878695Y-129601190D02*
X184926314Y-129410714D01*
X184926314Y-129410714D02*
X184973933Y-129315476D01*
X184973933Y-129315476D02*
X185069171Y-129220238D01*
X185069171Y-129220238D02*
X185212028Y-129172619D01*
X185212028Y-129172619D02*
X185307266Y-129172619D01*
X185307266Y-129172619D02*
X185450123Y-129220238D01*
X185450123Y-129220238D02*
X185497742Y-129267857D01*
X186402504Y-129172619D02*
X185926314Y-129172619D01*
X185926314Y-129172619D02*
X185878695Y-129648809D01*
X185878695Y-129648809D02*
X185926314Y-129601190D01*
X185926314Y-129601190D02*
X186021552Y-129553571D01*
X186021552Y-129553571D02*
X186259647Y-129553571D01*
X186259647Y-129553571D02*
X186354885Y-129601190D01*
X186354885Y-129601190D02*
X186402504Y-129648809D01*
X186402504Y-129648809D02*
X186450123Y-129744047D01*
X186450123Y-129744047D02*
X186450123Y-129982142D01*
X186450123Y-129982142D02*
X186402504Y-130077380D01*
X186402504Y-130077380D02*
X186354885Y-130125000D01*
X186354885Y-130125000D02*
X186259647Y-130172619D01*
X186259647Y-130172619D02*
X186021552Y-130172619D01*
X186021552Y-130172619D02*
X185926314Y-130125000D01*
X185926314Y-130125000D02*
X185878695Y-130077380D01*
X186926314Y-130172619D02*
X187116790Y-130172619D01*
X187116790Y-130172619D02*
X187212028Y-130125000D01*
X187212028Y-130125000D02*
X187259647Y-130077380D01*
X187259647Y-130077380D02*
X187354885Y-129934523D01*
X187354885Y-129934523D02*
X187402504Y-129744047D01*
X187402504Y-129744047D02*
X187402504Y-129363095D01*
X187402504Y-129363095D02*
X187354885Y-129267857D01*
X187354885Y-129267857D02*
X187307266Y-129220238D01*
X187307266Y-129220238D02*
X187212028Y-129172619D01*
X187212028Y-129172619D02*
X187021552Y-129172619D01*
X187021552Y-129172619D02*
X186926314Y-129220238D01*
X186926314Y-129220238D02*
X186878695Y-129267857D01*
X186878695Y-129267857D02*
X186831076Y-129363095D01*
X186831076Y-129363095D02*
X186831076Y-129601190D01*
X186831076Y-129601190D02*
X186878695Y-129696428D01*
X186878695Y-129696428D02*
X186926314Y-129744047D01*
X186926314Y-129744047D02*
X187021552Y-129791666D01*
X187021552Y-129791666D02*
X187212028Y-129791666D01*
X187212028Y-129791666D02*
X187307266Y-129744047D01*
X187307266Y-129744047D02*
X187354885Y-129696428D01*
X187354885Y-129696428D02*
X187402504Y-129601190D01*
X188307266Y-129172619D02*
X187831076Y-129172619D01*
X187831076Y-129172619D02*
X187783457Y-129648809D01*
X187783457Y-129648809D02*
X187831076Y-129601190D01*
X187831076Y-129601190D02*
X187926314Y-129553571D01*
X187926314Y-129553571D02*
X188164409Y-129553571D01*
X188164409Y-129553571D02*
X188259647Y-129601190D01*
X188259647Y-129601190D02*
X188307266Y-129648809D01*
X188307266Y-129648809D02*
X188354885Y-129744047D01*
X188354885Y-129744047D02*
X188354885Y-129982142D01*
X188354885Y-129982142D02*
X188307266Y-130077380D01*
X188307266Y-130077380D02*
X188259647Y-130125000D01*
X188259647Y-130125000D02*
X188164409Y-130172619D01*
X188164409Y-130172619D02*
X187926314Y-130172619D01*
X187926314Y-130172619D02*
X187831076Y-130125000D01*
X187831076Y-130125000D02*
X187783457Y-130077380D01*
X150922171Y-115440619D02*
X150350743Y-115440619D01*
X150636457Y-115440619D02*
X150636457Y-114440619D01*
X150636457Y-114440619D02*
X150541219Y-114583476D01*
X150541219Y-114583476D02*
X150445981Y-114678714D01*
X150445981Y-114678714D02*
X150350743Y-114726333D01*
X151541219Y-114440619D02*
X151636457Y-114440619D01*
X151636457Y-114440619D02*
X151731695Y-114488238D01*
X151731695Y-114488238D02*
X151779314Y-114535857D01*
X151779314Y-114535857D02*
X151826933Y-114631095D01*
X151826933Y-114631095D02*
X151874552Y-114821571D01*
X151874552Y-114821571D02*
X151874552Y-115059666D01*
X151874552Y-115059666D02*
X151826933Y-115250142D01*
X151826933Y-115250142D02*
X151779314Y-115345380D01*
X151779314Y-115345380D02*
X151731695Y-115393000D01*
X151731695Y-115393000D02*
X151636457Y-115440619D01*
X151636457Y-115440619D02*
X151541219Y-115440619D01*
X151541219Y-115440619D02*
X151445981Y-115393000D01*
X151445981Y-115393000D02*
X151398362Y-115345380D01*
X151398362Y-115345380D02*
X151350743Y-115250142D01*
X151350743Y-115250142D02*
X151303124Y-115059666D01*
X151303124Y-115059666D02*
X151303124Y-114821571D01*
X151303124Y-114821571D02*
X151350743Y-114631095D01*
X151350743Y-114631095D02*
X151398362Y-114535857D01*
X151398362Y-114535857D02*
X151445981Y-114488238D01*
X151445981Y-114488238D02*
X151541219Y-114440619D01*
X152731695Y-114773952D02*
X152731695Y-115440619D01*
X152303124Y-114773952D02*
X152303124Y-115297761D01*
X152303124Y-115297761D02*
X152350743Y-115393000D01*
X152350743Y-115393000D02*
X152445981Y-115440619D01*
X152445981Y-115440619D02*
X152588838Y-115440619D01*
X152588838Y-115440619D02*
X152684076Y-115393000D01*
X152684076Y-115393000D02*
X152731695Y-115345380D01*
X153541219Y-114916809D02*
X153207886Y-114916809D01*
X153207886Y-115440619D02*
X153207886Y-114440619D01*
X153207886Y-114440619D02*
X153684076Y-114440619D01*
X159624923Y-120215819D02*
X159148733Y-120215819D01*
X159148733Y-120215819D02*
X159148733Y-119215819D01*
X159958257Y-120215819D02*
X159958257Y-119215819D01*
X159958257Y-119215819D02*
X160291590Y-119930104D01*
X160291590Y-119930104D02*
X160624923Y-119215819D01*
X160624923Y-119215819D02*
X160624923Y-120215819D01*
X161005876Y-119215819D02*
X161624923Y-119215819D01*
X161624923Y-119215819D02*
X161291590Y-119596771D01*
X161291590Y-119596771D02*
X161434447Y-119596771D01*
X161434447Y-119596771D02*
X161529685Y-119644390D01*
X161529685Y-119644390D02*
X161577304Y-119692009D01*
X161577304Y-119692009D02*
X161624923Y-119787247D01*
X161624923Y-119787247D02*
X161624923Y-120025342D01*
X161624923Y-120025342D02*
X161577304Y-120120580D01*
X161577304Y-120120580D02*
X161529685Y-120168200D01*
X161529685Y-120168200D02*
X161434447Y-120215819D01*
X161434447Y-120215819D02*
X161148733Y-120215819D01*
X161148733Y-120215819D02*
X161053495Y-120168200D01*
X161053495Y-120168200D02*
X161005876Y-120120580D01*
X162529685Y-119215819D02*
X162053495Y-119215819D01*
X162053495Y-119215819D02*
X162005876Y-119692009D01*
X162005876Y-119692009D02*
X162053495Y-119644390D01*
X162053495Y-119644390D02*
X162148733Y-119596771D01*
X162148733Y-119596771D02*
X162386828Y-119596771D01*
X162386828Y-119596771D02*
X162482066Y-119644390D01*
X162482066Y-119644390D02*
X162529685Y-119692009D01*
X162529685Y-119692009D02*
X162577304Y-119787247D01*
X162577304Y-119787247D02*
X162577304Y-120025342D01*
X162577304Y-120025342D02*
X162529685Y-120120580D01*
X162529685Y-120120580D02*
X162482066Y-120168200D01*
X162482066Y-120168200D02*
X162386828Y-120215819D01*
X162386828Y-120215819D02*
X162148733Y-120215819D01*
X162148733Y-120215819D02*
X162053495Y-120168200D01*
X162053495Y-120168200D02*
X162005876Y-120120580D01*
X163148733Y-119644390D02*
X163053495Y-119596771D01*
X163053495Y-119596771D02*
X163005876Y-119549152D01*
X163005876Y-119549152D02*
X162958257Y-119453914D01*
X162958257Y-119453914D02*
X162958257Y-119406295D01*
X162958257Y-119406295D02*
X163005876Y-119311057D01*
X163005876Y-119311057D02*
X163053495Y-119263438D01*
X163053495Y-119263438D02*
X163148733Y-119215819D01*
X163148733Y-119215819D02*
X163339209Y-119215819D01*
X163339209Y-119215819D02*
X163434447Y-119263438D01*
X163434447Y-119263438D02*
X163482066Y-119311057D01*
X163482066Y-119311057D02*
X163529685Y-119406295D01*
X163529685Y-119406295D02*
X163529685Y-119453914D01*
X163529685Y-119453914D02*
X163482066Y-119549152D01*
X163482066Y-119549152D02*
X163434447Y-119596771D01*
X163434447Y-119596771D02*
X163339209Y-119644390D01*
X163339209Y-119644390D02*
X163148733Y-119644390D01*
X163148733Y-119644390D02*
X163053495Y-119692009D01*
X163053495Y-119692009D02*
X163005876Y-119739628D01*
X163005876Y-119739628D02*
X162958257Y-119834866D01*
X162958257Y-119834866D02*
X162958257Y-120025342D01*
X162958257Y-120025342D02*
X163005876Y-120120580D01*
X163005876Y-120120580D02*
X163053495Y-120168200D01*
X163053495Y-120168200D02*
X163148733Y-120215819D01*
X163148733Y-120215819D02*
X163339209Y-120215819D01*
X163339209Y-120215819D02*
X163434447Y-120168200D01*
X163434447Y-120168200D02*
X163482066Y-120120580D01*
X163482066Y-120120580D02*
X163529685Y-120025342D01*
X163529685Y-120025342D02*
X163529685Y-119834866D01*
X163529685Y-119834866D02*
X163482066Y-119739628D01*
X163482066Y-119739628D02*
X163434447Y-119692009D01*
X163434447Y-119692009D02*
X163339209Y-119644390D01*
X139900819Y-126122038D02*
X139900819Y-126693466D01*
X139900819Y-126407752D02*
X138900819Y-126407752D01*
X138900819Y-126407752D02*
X139043676Y-126502990D01*
X139043676Y-126502990D02*
X139138914Y-126598228D01*
X139138914Y-126598228D02*
X139186533Y-126693466D01*
X138900819Y-125502990D02*
X138900819Y-125407752D01*
X138900819Y-125407752D02*
X138948438Y-125312514D01*
X138948438Y-125312514D02*
X138996057Y-125264895D01*
X138996057Y-125264895D02*
X139091295Y-125217276D01*
X139091295Y-125217276D02*
X139281771Y-125169657D01*
X139281771Y-125169657D02*
X139519866Y-125169657D01*
X139519866Y-125169657D02*
X139710342Y-125217276D01*
X139710342Y-125217276D02*
X139805580Y-125264895D01*
X139805580Y-125264895D02*
X139853200Y-125312514D01*
X139853200Y-125312514D02*
X139900819Y-125407752D01*
X139900819Y-125407752D02*
X139900819Y-125502990D01*
X139900819Y-125502990D02*
X139853200Y-125598228D01*
X139853200Y-125598228D02*
X139805580Y-125645847D01*
X139805580Y-125645847D02*
X139710342Y-125693466D01*
X139710342Y-125693466D02*
X139519866Y-125741085D01*
X139519866Y-125741085D02*
X139281771Y-125741085D01*
X139281771Y-125741085D02*
X139091295Y-125693466D01*
X139091295Y-125693466D02*
X138996057Y-125645847D01*
X138996057Y-125645847D02*
X138948438Y-125598228D01*
X138948438Y-125598228D02*
X138900819Y-125502990D01*
X139900819Y-124741085D02*
X138900819Y-124741085D01*
X139519866Y-124645847D02*
X139900819Y-124360133D01*
X139234152Y-124360133D02*
X139615104Y-124741085D01*
X122392819Y-122166819D02*
X122392819Y-122738247D01*
X122392819Y-122452533D02*
X121392819Y-122452533D01*
X121392819Y-122452533D02*
X121535676Y-122547771D01*
X121535676Y-122547771D02*
X121630914Y-122643009D01*
X121630914Y-122643009D02*
X121678533Y-122738247D01*
X121392819Y-121547771D02*
X121392819Y-121452533D01*
X121392819Y-121452533D02*
X121440438Y-121357295D01*
X121440438Y-121357295D02*
X121488057Y-121309676D01*
X121488057Y-121309676D02*
X121583295Y-121262057D01*
X121583295Y-121262057D02*
X121773771Y-121214438D01*
X121773771Y-121214438D02*
X122011866Y-121214438D01*
X122011866Y-121214438D02*
X122202342Y-121262057D01*
X122202342Y-121262057D02*
X122297580Y-121309676D01*
X122297580Y-121309676D02*
X122345200Y-121357295D01*
X122345200Y-121357295D02*
X122392819Y-121452533D01*
X122392819Y-121452533D02*
X122392819Y-121547771D01*
X122392819Y-121547771D02*
X122345200Y-121643009D01*
X122345200Y-121643009D02*
X122297580Y-121690628D01*
X122297580Y-121690628D02*
X122202342Y-121738247D01*
X122202342Y-121738247D02*
X122011866Y-121785866D01*
X122011866Y-121785866D02*
X121773771Y-121785866D01*
X121773771Y-121785866D02*
X121583295Y-121738247D01*
X121583295Y-121738247D02*
X121488057Y-121690628D01*
X121488057Y-121690628D02*
X121440438Y-121643009D01*
X121440438Y-121643009D02*
X121392819Y-121547771D01*
X121392819Y-120595390D02*
X121392819Y-120500152D01*
X121392819Y-120500152D02*
X121440438Y-120404914D01*
X121440438Y-120404914D02*
X121488057Y-120357295D01*
X121488057Y-120357295D02*
X121583295Y-120309676D01*
X121583295Y-120309676D02*
X121773771Y-120262057D01*
X121773771Y-120262057D02*
X122011866Y-120262057D01*
X122011866Y-120262057D02*
X122202342Y-120309676D01*
X122202342Y-120309676D02*
X122297580Y-120357295D01*
X122297580Y-120357295D02*
X122345200Y-120404914D01*
X122345200Y-120404914D02*
X122392819Y-120500152D01*
X122392819Y-120500152D02*
X122392819Y-120595390D01*
X122392819Y-120595390D02*
X122345200Y-120690628D01*
X122345200Y-120690628D02*
X122297580Y-120738247D01*
X122297580Y-120738247D02*
X122202342Y-120785866D01*
X122202342Y-120785866D02*
X122011866Y-120833485D01*
X122011866Y-120833485D02*
X121773771Y-120833485D01*
X121773771Y-120833485D02*
X121583295Y-120785866D01*
X121583295Y-120785866D02*
X121488057Y-120738247D01*
X121488057Y-120738247D02*
X121440438Y-120690628D01*
X121440438Y-120690628D02*
X121392819Y-120595390D01*
X121726152Y-119833485D02*
X122392819Y-119833485D01*
X121821390Y-119833485D02*
X121773771Y-119785866D01*
X121773771Y-119785866D02*
X121726152Y-119690628D01*
X121726152Y-119690628D02*
X121726152Y-119547771D01*
X121726152Y-119547771D02*
X121773771Y-119452533D01*
X121773771Y-119452533D02*
X121869009Y-119404914D01*
X121869009Y-119404914D02*
X122392819Y-119404914D01*
X121869009Y-118595390D02*
X121869009Y-118928723D01*
X122392819Y-118928723D02*
X121392819Y-118928723D01*
X121392819Y-118928723D02*
X121392819Y-118452533D01*
X150514228Y-129318609D02*
X150180895Y-129318609D01*
X150180895Y-129842419D02*
X150180895Y-128842419D01*
X150180895Y-128842419D02*
X150657085Y-128842419D01*
X151180895Y-129842419D02*
X151085657Y-129794800D01*
X151085657Y-129794800D02*
X151038038Y-129699561D01*
X151038038Y-129699561D02*
X151038038Y-128842419D01*
X151990419Y-129842419D02*
X151990419Y-129318609D01*
X151990419Y-129318609D02*
X151942800Y-129223371D01*
X151942800Y-129223371D02*
X151847562Y-129175752D01*
X151847562Y-129175752D02*
X151657086Y-129175752D01*
X151657086Y-129175752D02*
X151561848Y-129223371D01*
X151990419Y-129794800D02*
X151895181Y-129842419D01*
X151895181Y-129842419D02*
X151657086Y-129842419D01*
X151657086Y-129842419D02*
X151561848Y-129794800D01*
X151561848Y-129794800D02*
X151514229Y-129699561D01*
X151514229Y-129699561D02*
X151514229Y-129604323D01*
X151514229Y-129604323D02*
X151561848Y-129509085D01*
X151561848Y-129509085D02*
X151657086Y-129461466D01*
X151657086Y-129461466D02*
X151895181Y-129461466D01*
X151895181Y-129461466D02*
X151990419Y-129413847D01*
X152418991Y-129794800D02*
X152514229Y-129842419D01*
X152514229Y-129842419D02*
X152704705Y-129842419D01*
X152704705Y-129842419D02*
X152799943Y-129794800D01*
X152799943Y-129794800D02*
X152847562Y-129699561D01*
X152847562Y-129699561D02*
X152847562Y-129651942D01*
X152847562Y-129651942D02*
X152799943Y-129556704D01*
X152799943Y-129556704D02*
X152704705Y-129509085D01*
X152704705Y-129509085D02*
X152561848Y-129509085D01*
X152561848Y-129509085D02*
X152466610Y-129461466D01*
X152466610Y-129461466D02*
X152418991Y-129366228D01*
X152418991Y-129366228D02*
X152418991Y-129318609D01*
X152418991Y-129318609D02*
X152466610Y-129223371D01*
X152466610Y-129223371D02*
X152561848Y-129175752D01*
X152561848Y-129175752D02*
X152704705Y-129175752D01*
X152704705Y-129175752D02*
X152799943Y-129223371D01*
X153276134Y-129842419D02*
X153276134Y-128842419D01*
X153704705Y-129842419D02*
X153704705Y-129318609D01*
X153704705Y-129318609D02*
X153657086Y-129223371D01*
X153657086Y-129223371D02*
X153561848Y-129175752D01*
X153561848Y-129175752D02*
X153418991Y-129175752D01*
X153418991Y-129175752D02*
X153323753Y-129223371D01*
X153323753Y-129223371D02*
X153276134Y-129270990D01*
X174826848Y-124543457D02*
X174874467Y-124495838D01*
X174874467Y-124495838D02*
X174969705Y-124448219D01*
X174969705Y-124448219D02*
X175207800Y-124448219D01*
X175207800Y-124448219D02*
X175303038Y-124495838D01*
X175303038Y-124495838D02*
X175350657Y-124543457D01*
X175350657Y-124543457D02*
X175398276Y-124638695D01*
X175398276Y-124638695D02*
X175398276Y-124733933D01*
X175398276Y-124733933D02*
X175350657Y-124876790D01*
X175350657Y-124876790D02*
X174779229Y-125448219D01*
X174779229Y-125448219D02*
X175398276Y-125448219D01*
X175826848Y-125352980D02*
X175874467Y-125400600D01*
X175874467Y-125400600D02*
X175826848Y-125448219D01*
X175826848Y-125448219D02*
X175779229Y-125400600D01*
X175779229Y-125400600D02*
X175826848Y-125352980D01*
X175826848Y-125352980D02*
X175826848Y-125448219D01*
X176255419Y-124543457D02*
X176303038Y-124495838D01*
X176303038Y-124495838D02*
X176398276Y-124448219D01*
X176398276Y-124448219D02*
X176636371Y-124448219D01*
X176636371Y-124448219D02*
X176731609Y-124495838D01*
X176731609Y-124495838D02*
X176779228Y-124543457D01*
X176779228Y-124543457D02*
X176826847Y-124638695D01*
X176826847Y-124638695D02*
X176826847Y-124733933D01*
X176826847Y-124733933D02*
X176779228Y-124876790D01*
X176779228Y-124876790D02*
X176207800Y-125448219D01*
X176207800Y-125448219D02*
X176826847Y-125448219D01*
X177683990Y-124781552D02*
X177683990Y-125448219D01*
X177255419Y-124781552D02*
X177255419Y-125305361D01*
X177255419Y-125305361D02*
X177303038Y-125400600D01*
X177303038Y-125400600D02*
X177398276Y-125448219D01*
X177398276Y-125448219D02*
X177541133Y-125448219D01*
X177541133Y-125448219D02*
X177636371Y-125400600D01*
X177636371Y-125400600D02*
X177683990Y-125352980D01*
X178493514Y-124924409D02*
X178160181Y-124924409D01*
X178160181Y-125448219D02*
X178160181Y-124448219D01*
X178160181Y-124448219D02*
X178636371Y-124448219D01*
X115209771Y-117955219D02*
X114638343Y-117955219D01*
X114924057Y-117955219D02*
X114924057Y-116955219D01*
X114924057Y-116955219D02*
X114828819Y-117098076D01*
X114828819Y-117098076D02*
X114733581Y-117193314D01*
X114733581Y-117193314D02*
X114638343Y-117240933D01*
X115828819Y-116955219D02*
X115924057Y-116955219D01*
X115924057Y-116955219D02*
X116019295Y-117002838D01*
X116019295Y-117002838D02*
X116066914Y-117050457D01*
X116066914Y-117050457D02*
X116114533Y-117145695D01*
X116114533Y-117145695D02*
X116162152Y-117336171D01*
X116162152Y-117336171D02*
X116162152Y-117574266D01*
X116162152Y-117574266D02*
X116114533Y-117764742D01*
X116114533Y-117764742D02*
X116066914Y-117859980D01*
X116066914Y-117859980D02*
X116019295Y-117907600D01*
X116019295Y-117907600D02*
X115924057Y-117955219D01*
X115924057Y-117955219D02*
X115828819Y-117955219D01*
X115828819Y-117955219D02*
X115733581Y-117907600D01*
X115733581Y-117907600D02*
X115685962Y-117859980D01*
X115685962Y-117859980D02*
X115638343Y-117764742D01*
X115638343Y-117764742D02*
X115590724Y-117574266D01*
X115590724Y-117574266D02*
X115590724Y-117336171D01*
X115590724Y-117336171D02*
X115638343Y-117145695D01*
X115638343Y-117145695D02*
X115685962Y-117050457D01*
X115685962Y-117050457D02*
X115733581Y-117002838D01*
X115733581Y-117002838D02*
X115828819Y-116955219D01*
X117019295Y-117288552D02*
X117019295Y-117955219D01*
X116590724Y-117288552D02*
X116590724Y-117812361D01*
X116590724Y-117812361D02*
X116638343Y-117907600D01*
X116638343Y-117907600D02*
X116733581Y-117955219D01*
X116733581Y-117955219D02*
X116876438Y-117955219D01*
X116876438Y-117955219D02*
X116971676Y-117907600D01*
X116971676Y-117907600D02*
X117019295Y-117859980D01*
X117828819Y-117431409D02*
X117495486Y-117431409D01*
X117495486Y-117955219D02*
X117495486Y-116955219D01*
X117495486Y-116955219D02*
X117971676Y-116955219D01*
D13*
X123235866Y-130577837D02*
X123235866Y-129815933D01*
X123616819Y-130196885D02*
X122854914Y-130196885D01*
X123616819Y-128054028D02*
X123616819Y-128625456D01*
X123616819Y-128339742D02*
X122616819Y-128339742D01*
X122616819Y-128339742D02*
X122759676Y-128434980D01*
X122759676Y-128434980D02*
X122854914Y-128530218D01*
X122854914Y-128530218D02*
X122902533Y-128625456D01*
X122712057Y-127673075D02*
X122664438Y-127625456D01*
X122664438Y-127625456D02*
X122616819Y-127530218D01*
X122616819Y-127530218D02*
X122616819Y-127292123D01*
X122616819Y-127292123D02*
X122664438Y-127196885D01*
X122664438Y-127196885D02*
X122712057Y-127149266D01*
X122712057Y-127149266D02*
X122807295Y-127101647D01*
X122807295Y-127101647D02*
X122902533Y-127101647D01*
X122902533Y-127101647D02*
X123045390Y-127149266D01*
X123045390Y-127149266D02*
X123616819Y-127720694D01*
X123616819Y-127720694D02*
X123616819Y-127101647D01*
X122950152Y-126768313D02*
X123616819Y-126530218D01*
X123616819Y-126530218D02*
X122950152Y-126292123D01*
X123235866Y-125149265D02*
X123235866Y-124387361D01*
D14*
%TO.C,C9*%
X170276000Y-137315400D02*
X170276000Y-135785400D01*
X172116000Y-135785400D02*
X172116000Y-137315400D01*
%TO.C,R6*%
X143158800Y-144306936D02*
X143158800Y-145761064D01*
X144978800Y-144306936D02*
X144978800Y-145761064D01*
%TO.C,R18*%
X138076000Y-122256800D02*
X138406000Y-122256800D01*
X138076000Y-128796800D02*
X138076000Y-122256800D01*
X138406000Y-128796800D02*
X138076000Y-128796800D01*
X140486000Y-128796800D02*
X140816000Y-128796800D01*
X140816000Y-122256800D02*
X140486000Y-122256800D01*
X140816000Y-128796800D02*
X140816000Y-122256800D01*
%TO.C,R15*%
X193755600Y-144459336D02*
X193755600Y-145913464D01*
X195575600Y-144459336D02*
X195575600Y-145913464D01*
%TO.C,R10*%
X165764800Y-144510136D02*
X165764800Y-145964264D01*
X167584800Y-144510136D02*
X167584800Y-145964264D01*
%TO.C,R13*%
X182579600Y-144459336D02*
X182579600Y-145913464D01*
X184399600Y-144459336D02*
X184399600Y-145913464D01*
%TO.C,R14*%
X188167600Y-144459336D02*
X188167600Y-145913464D01*
X189987600Y-144459336D02*
X189987600Y-145913464D01*
%TO.C,D16*%
X199017600Y-151724800D02*
X199173600Y-151724800D01*
X201333600Y-151724800D02*
X201489600Y-151724800D01*
X199018084Y-151724800D02*
G75*
G02*
X199173600Y-148493363I1235516J1560000D01*
G01*
X199173600Y-151205761D02*
G75*
G02*
X199173600Y-149123839I1080000J1040961D01*
G01*
X201333600Y-148493363D02*
G75*
G02*
X201489116Y-151724800I-1080000J-1671437D01*
G01*
X201333600Y-149123839D02*
G75*
G02*
X201333600Y-151205761I-1080000J-1040961D01*
G01*
%TO.C,R16*%
X199292800Y-144510136D02*
X199292800Y-145964264D01*
X201112800Y-144510136D02*
X201112800Y-145964264D01*
%TO.C,U5*%
X124684000Y-115002400D02*
X134904000Y-115002400D01*
X124684000Y-116382400D02*
X134904000Y-116382400D01*
X124684000Y-119622400D02*
X124684000Y-115002400D01*
X127944000Y-115002400D02*
X127944000Y-116382400D01*
X131644000Y-115002400D02*
X131644000Y-116382400D01*
X134904000Y-115002400D02*
X134904000Y-119622400D01*
X134904000Y-119622400D02*
X124684000Y-119622400D01*
%TO.C,C7*%
X154934400Y-118468600D02*
X154934400Y-116938600D01*
X156774400Y-116938600D02*
X156774400Y-118468600D01*
%TO.C,D1*%
X115146800Y-151623200D02*
X115302800Y-151623200D01*
X117462800Y-151623200D02*
X117618800Y-151623200D01*
X115147284Y-151623200D02*
G75*
G02*
X115302800Y-148391763I1235516J1560000D01*
G01*
X115302800Y-151104161D02*
G75*
G02*
X115302800Y-149022239I1080000J1040961D01*
G01*
X117462800Y-148391763D02*
G75*
G02*
X117618316Y-151623200I-1080000J-1671437D01*
G01*
X117462800Y-149022239D02*
G75*
G02*
X117462800Y-151104161I-1080000J-1040961D01*
G01*
%TO.C,D6*%
X143036000Y-151623200D02*
X143192000Y-151623200D01*
X145352000Y-151623200D02*
X145508000Y-151623200D01*
X143036484Y-151623200D02*
G75*
G02*
X143192000Y-148391763I1235516J1560000D01*
G01*
X143192000Y-151104161D02*
G75*
G02*
X143192000Y-149022239I1080000J1040961D01*
G01*
X145352000Y-148391763D02*
G75*
G02*
X145507516Y-151623200I-1080000J-1671437D01*
G01*
X145352000Y-149022239D02*
G75*
G02*
X145352000Y-151104161I-1080000J-1040961D01*
G01*
%TO.C,D14*%
X187943200Y-151674000D02*
X188099200Y-151674000D01*
X190259200Y-151674000D02*
X190415200Y-151674000D01*
X187943684Y-151674000D02*
G75*
G02*
X188099200Y-148442563I1235516J1560000D01*
G01*
X188099200Y-151154961D02*
G75*
G02*
X188099200Y-149073039I1080000J1040961D01*
G01*
X190259200Y-148442563D02*
G75*
G02*
X190414716Y-151674000I-1080000J-1671437D01*
G01*
X190259200Y-149073039D02*
G75*
G02*
X190259200Y-151154961I-1080000J-1040961D01*
G01*
%TO.C,D4*%
X131860000Y-151674000D02*
X132016000Y-151674000D01*
X134176000Y-151674000D02*
X134332000Y-151674000D01*
X131860484Y-151674000D02*
G75*
G02*
X132016000Y-148442563I1235516J1560000D01*
G01*
X132016000Y-151154961D02*
G75*
G02*
X132016000Y-149073039I1080000J1040961D01*
G01*
X134176000Y-148442563D02*
G75*
G02*
X134331516Y-151674000I-1080000J-1671437D01*
G01*
X134176000Y-149073039D02*
G75*
G02*
X134176000Y-151154961I-1080000J-1040961D01*
G01*
%TO.C,RV1*%
X165013400Y-121566200D02*
X170063400Y-121566200D01*
X165013400Y-131316200D02*
X165013400Y-121566200D01*
X170063400Y-121566200D02*
X170063400Y-131316200D01*
X170063400Y-131316200D02*
X165013400Y-131316200D01*
%TO.C,R3*%
X126496400Y-144357736D02*
X126496400Y-145811864D01*
X128316400Y-144357736D02*
X128316400Y-145811864D01*
%TO.C,U1*%
X151273200Y-133951200D02*
X151273200Y-135601200D01*
X151273200Y-137601200D02*
X151273200Y-139251200D01*
X151273200Y-139251200D02*
X161553200Y-139251200D01*
X161553200Y-133951200D02*
X151273200Y-133951200D01*
X161553200Y-139251200D02*
X161553200Y-133951200D01*
X151273200Y-135601200D02*
G75*
G02*
X151273200Y-137601200I0J-1000000D01*
G01*
%TO.C,C8*%
X125165600Y-137366200D02*
X125165600Y-135836200D01*
X127005600Y-135836200D02*
X127005600Y-137366200D01*
%TO.C,U6*%
X138654000Y-114885600D02*
X148874000Y-114885600D01*
X138654000Y-116265600D02*
X148874000Y-116265600D01*
X138654000Y-119505600D02*
X138654000Y-114885600D01*
X141914000Y-114885600D02*
X141914000Y-116265600D01*
X145614000Y-114885600D02*
X145614000Y-116265600D01*
X148874000Y-114885600D02*
X148874000Y-119505600D01*
X148874000Y-119505600D02*
X138654000Y-119505600D01*
%TO.C,U2*%
X127600400Y-134198800D02*
X127600400Y-135448800D01*
X127600400Y-137448800D02*
X127600400Y-138698800D01*
X127600400Y-138698800D02*
X148040400Y-138698800D01*
X148040400Y-134198800D02*
X127600400Y-134198800D01*
X148040400Y-138698800D02*
X148040400Y-134198800D01*
X127600400Y-135448800D02*
G75*
G02*
X127600400Y-137448800I0J-1000000D01*
G01*
%TO.C,R11*%
X171454400Y-144459336D02*
X171454400Y-145913464D01*
X173274400Y-144459336D02*
X173274400Y-145913464D01*
%TO.C,D7*%
X148522400Y-151623200D02*
X148678400Y-151623200D01*
X150838400Y-151623200D02*
X150994400Y-151623200D01*
X148522884Y-151623200D02*
G75*
G02*
X148678400Y-148391763I1235516J1560000D01*
G01*
X148678400Y-151104161D02*
G75*
G02*
X148678400Y-149022239I1080000J1040961D01*
G01*
X150838400Y-148391763D02*
G75*
G02*
X150993916Y-151623200I-1080000J-1671437D01*
G01*
X150838400Y-149022239D02*
G75*
G02*
X150838400Y-151104161I-1080000J-1040961D01*
G01*
%TO.C,R5*%
X137520000Y-144408536D02*
X137520000Y-145862664D01*
X139340000Y-144408536D02*
X139340000Y-145862664D01*
%TO.C,R2*%
X120959200Y-144306936D02*
X120959200Y-145761064D01*
X122779200Y-144306936D02*
X122779200Y-145761064D01*
%TO.C,D2*%
X120684000Y-151674000D02*
X120840000Y-151674000D01*
X123000000Y-151674000D02*
X123156000Y-151674000D01*
X120684484Y-151674000D02*
G75*
G02*
X120840000Y-148442563I1235516J1560000D01*
G01*
X120840000Y-151154961D02*
G75*
G02*
X120840000Y-149073039I1080000J1040961D01*
G01*
X123000000Y-148442563D02*
G75*
G02*
X123155516Y-151674000I-1080000J-1671437D01*
G01*
X123000000Y-149073039D02*
G75*
G02*
X123000000Y-151154961I-1080000J-1040961D01*
G01*
%TO.C,D13*%
X182406000Y-151724800D02*
X182562000Y-151724800D01*
X184722000Y-151724800D02*
X184878000Y-151724800D01*
X182406484Y-151724800D02*
G75*
G02*
X182562000Y-148493363I1235516J1560000D01*
G01*
X182562000Y-151205761D02*
G75*
G02*
X182562000Y-149123839I1080000J1040961D01*
G01*
X184722000Y-148493363D02*
G75*
G02*
X184877516Y-151724800I-1080000J-1671437D01*
G01*
X184722000Y-149123839D02*
G75*
G02*
X184722000Y-151205761I-1080000J-1040961D01*
G01*
%TO.C,D17*%
X147673200Y-126832200D02*
X149913200Y-126832200D01*
X147673200Y-126952200D02*
X149913200Y-126952200D01*
X147673200Y-127072200D02*
X149913200Y-127072200D01*
X148793200Y-122782200D02*
X148793200Y-123432200D01*
X148793200Y-128322200D02*
X148793200Y-127672200D01*
X147673200Y-127672200D02*
X149913200Y-127672200D01*
X149913200Y-123432200D01*
X147673200Y-123432200D01*
X147673200Y-127672200D01*
%TO.C,C2*%
X148940000Y-137193800D02*
X148940000Y-135663800D01*
X150780000Y-135663800D02*
X150780000Y-137193800D01*
%TO.C,D8*%
X154313600Y-151623200D02*
X154469600Y-151623200D01*
X156629600Y-151623200D02*
X156785600Y-151623200D01*
X154314084Y-151623200D02*
G75*
G02*
X154469600Y-148391763I1235516J1560000D01*
G01*
X154469600Y-151104161D02*
G75*
G02*
X154469600Y-149022239I1080000J1040961D01*
G01*
X156629600Y-148391763D02*
G75*
G02*
X156785116Y-151623200I-1080000J-1671437D01*
G01*
X156629600Y-149022239D02*
G75*
G02*
X156629600Y-151104161I-1080000J-1040961D01*
G01*
%TO.C,D11*%
X171230000Y-151623200D02*
X171386000Y-151623200D01*
X173546000Y-151623200D02*
X173702000Y-151623200D01*
X171230484Y-151623200D02*
G75*
G02*
X171386000Y-148391763I1235516J1560000D01*
G01*
X171386000Y-151104161D02*
G75*
G02*
X171386000Y-149022239I1080000J1040961D01*
G01*
X173546000Y-148391763D02*
G75*
G02*
X173701516Y-151623200I-1080000J-1671437D01*
G01*
X173546000Y-149022239D02*
G75*
G02*
X173546000Y-151104161I-1080000J-1040961D01*
G01*
%TO.C,D12*%
X176716400Y-151623200D02*
X176872400Y-151623200D01*
X179032400Y-151623200D02*
X179188400Y-151623200D01*
X176716884Y-151623200D02*
G75*
G02*
X176872400Y-148391763I1235516J1560000D01*
G01*
X176872400Y-151104161D02*
G75*
G02*
X176872400Y-149022239I1080000J1040961D01*
G01*
X179032400Y-148391763D02*
G75*
G02*
X179187916Y-151623200I-1080000J-1671437D01*
G01*
X179032400Y-149022239D02*
G75*
G02*
X179032400Y-151104161I-1080000J-1040961D01*
G01*
%TO.C,D10*%
X165692800Y-151674000D02*
X165848800Y-151674000D01*
X168008800Y-151674000D02*
X168164800Y-151674000D01*
X165693284Y-151674000D02*
G75*
G02*
X165848800Y-148442563I1235516J1560000D01*
G01*
X165848800Y-151154961D02*
G75*
G02*
X165848800Y-149073039I1080000J1040961D01*
G01*
X168008800Y-148442563D02*
G75*
G02*
X168164316Y-151674000I-1080000J-1671437D01*
G01*
X168008800Y-149073039D02*
G75*
G02*
X168008800Y-151154961I-1080000J-1040961D01*
G01*
%TO.C,U3*%
X172761600Y-134198800D02*
X172761600Y-135448800D01*
X172761600Y-137448800D02*
X172761600Y-138698800D01*
X172761600Y-138698800D02*
X193201600Y-138698800D01*
X193201600Y-134198800D02*
X172761600Y-134198800D01*
X193201600Y-138698800D02*
X193201600Y-134198800D01*
X172761600Y-135448800D02*
G75*
G02*
X172761600Y-137448800I0J-1000000D01*
G01*
%TO.C,R8*%
X154487200Y-144408536D02*
X154487200Y-145862664D01*
X156307200Y-144408536D02*
X156307200Y-145862664D01*
%TO.C,C6*%
X151052000Y-117844000D02*
X149812000Y-117844000D01*
X151052000Y-117884000D02*
X149812000Y-117884000D01*
X151052000Y-117924000D02*
X149814000Y-117924000D01*
X151052000Y-117964000D02*
X149815000Y-117964000D01*
X151052000Y-118004000D02*
X149818000Y-118004000D01*
X151052000Y-118044000D02*
X149821000Y-118044000D01*
X151052000Y-118084000D02*
X149826000Y-118084000D01*
X151052000Y-118124000D02*
X149831000Y-118124000D01*
X151052000Y-118164000D02*
X149836000Y-118164000D01*
X151052000Y-118204000D02*
X149843000Y-118204000D01*
X151052000Y-118244000D02*
X149850000Y-118244000D01*
X151052000Y-118284000D02*
X149858000Y-118284000D01*
X151052000Y-118324000D02*
X149867000Y-118324000D01*
X151052000Y-118364000D02*
X149877000Y-118364000D01*
X151052000Y-118404000D02*
X149887000Y-118404000D01*
X151052000Y-118444000D02*
X149899000Y-118444000D01*
X151052000Y-118484000D02*
X149911000Y-118484000D01*
X151052000Y-118524000D02*
X149924000Y-118524000D01*
X151052000Y-118564000D02*
X149938000Y-118564000D01*
X151052000Y-118604000D02*
X149953000Y-118604000D01*
X151052000Y-118644000D02*
X149969000Y-118644000D01*
X151052000Y-118684000D02*
X149986000Y-118684000D01*
X151052000Y-118724000D02*
X150003000Y-118724000D01*
X151052000Y-118764000D02*
X150022000Y-118764000D01*
X151052000Y-118804000D02*
X150042000Y-118804000D01*
X151052000Y-118844000D02*
X150063000Y-118844000D01*
X151052000Y-118884000D02*
X150085000Y-118884000D01*
X151052000Y-118924000D02*
X150108000Y-118924000D01*
X151052000Y-118964000D02*
X150132000Y-118964000D01*
X151052000Y-119004000D02*
X150158000Y-119004000D01*
X151052000Y-119044000D02*
X150184000Y-119044000D01*
X151052000Y-119084000D02*
X150212000Y-119084000D01*
X151052000Y-119124000D02*
X150242000Y-119124000D01*
X151052000Y-119164000D02*
X150273000Y-119164000D01*
X151052000Y-119204000D02*
X150306000Y-119204000D01*
X151052000Y-119244000D02*
X150340000Y-119244000D01*
X151052000Y-119284000D02*
X150376000Y-119284000D01*
X151052000Y-119324000D02*
X150414000Y-119324000D01*
X151052000Y-119364000D02*
X150454000Y-119364000D01*
X151052000Y-119404000D02*
X150496000Y-119404000D01*
X152262000Y-119924000D02*
X151522000Y-119924000D01*
X152429000Y-119884000D02*
X151355000Y-119884000D01*
X152555000Y-119844000D02*
X151229000Y-119844000D01*
X152660000Y-119804000D02*
X151124000Y-119804000D01*
X152751000Y-119764000D02*
X151033000Y-119764000D01*
X152832000Y-119724000D02*
X150952000Y-119724000D01*
X152905000Y-119684000D02*
X150879000Y-119684000D01*
X152972000Y-119644000D02*
X150812000Y-119644000D01*
X153034000Y-119604000D02*
X150750000Y-119604000D01*
X153087000Y-115574199D02*
X153087000Y-115974199D01*
X153091000Y-119564000D02*
X150693000Y-119564000D01*
X153145000Y-119524000D02*
X150639000Y-119524000D01*
X153195000Y-119484000D02*
X150589000Y-119484000D01*
X153243000Y-119444000D02*
X150541000Y-119444000D01*
X153287000Y-115774199D02*
X152887000Y-115774199D01*
X153288000Y-119404000D02*
X152732000Y-119404000D01*
X153330000Y-119364000D02*
X152732000Y-119364000D01*
X153370000Y-119324000D02*
X152732000Y-119324000D01*
X153408000Y-119284000D02*
X152732000Y-119284000D01*
X153444000Y-119244000D02*
X152732000Y-119244000D01*
X153478000Y-119204000D02*
X152732000Y-119204000D01*
X153511000Y-119164000D02*
X152732000Y-119164000D01*
X153542000Y-119124000D02*
X152732000Y-119124000D01*
X153572000Y-119084000D02*
X152732000Y-119084000D01*
X153600000Y-119044000D02*
X152732000Y-119044000D01*
X153626000Y-119004000D02*
X152732000Y-119004000D01*
X153652000Y-118964000D02*
X152732000Y-118964000D01*
X153676000Y-118924000D02*
X152732000Y-118924000D01*
X153699000Y-118884000D02*
X152732000Y-118884000D01*
X153721000Y-118844000D02*
X152732000Y-118844000D01*
X153742000Y-118804000D02*
X152732000Y-118804000D01*
X153762000Y-118764000D02*
X152732000Y-118764000D01*
X153781000Y-118724000D02*
X152732000Y-118724000D01*
X153798000Y-118684000D02*
X152732000Y-118684000D01*
X153815000Y-118644000D02*
X152732000Y-118644000D01*
X153831000Y-118604000D02*
X152732000Y-118604000D01*
X153846000Y-118564000D02*
X152732000Y-118564000D01*
X153860000Y-118524000D02*
X152732000Y-118524000D01*
X153873000Y-118484000D02*
X152732000Y-118484000D01*
X153885000Y-118444000D02*
X152732000Y-118444000D01*
X153897000Y-118404000D02*
X152732000Y-118404000D01*
X153907000Y-118364000D02*
X152732000Y-118364000D01*
X153917000Y-118324000D02*
X152732000Y-118324000D01*
X153926000Y-118284000D02*
X152732000Y-118284000D01*
X153934000Y-118244000D02*
X152732000Y-118244000D01*
X153941000Y-118204000D02*
X152732000Y-118204000D01*
X153948000Y-118164000D02*
X152732000Y-118164000D01*
X153953000Y-118124000D02*
X152732000Y-118124000D01*
X153958000Y-118084000D02*
X152732000Y-118084000D01*
X153963000Y-118044000D02*
X152732000Y-118044000D01*
X153966000Y-118004000D02*
X152732000Y-118004000D01*
X153969000Y-117964000D02*
X152732000Y-117964000D01*
X153970000Y-117924000D02*
X152732000Y-117924000D01*
X153972000Y-117844000D02*
X152732000Y-117844000D01*
X153972000Y-117884000D02*
X152732000Y-117884000D01*
X154012000Y-117844000D02*
G75*
G02*
X149772000Y-117844000I-2120000J0D01*
G01*
X149772000Y-117844000D02*
G75*
G02*
X154012000Y-117844000I2120000J0D01*
G01*
%TO.C,U4*%
X154016400Y-123784800D02*
X154016400Y-125034800D01*
X154016400Y-127034800D02*
X154016400Y-128284800D01*
X154016400Y-128284800D02*
X164296400Y-128284800D01*
X164296400Y-123784800D02*
X154016400Y-123784800D01*
X164296400Y-128284800D02*
X164296400Y-123784800D01*
X154016400Y-125034800D02*
G75*
G02*
X154016400Y-127034800I0J-1000000D01*
G01*
%TO.C,SW1*%
X115128800Y-134860400D02*
X115128800Y-139360400D01*
X117628800Y-140610400D02*
X119128800Y-140610400D01*
X119128800Y-133610400D02*
X117628800Y-133610400D01*
X121628800Y-139360400D02*
X121628800Y-134860400D01*
%TO.C,D5*%
X137397200Y-151674000D02*
X137553200Y-151674000D01*
X139713200Y-151674000D02*
X139869200Y-151674000D01*
X137397684Y-151674000D02*
G75*
G02*
X137553200Y-148442563I1235516J1560000D01*
G01*
X137553200Y-151154961D02*
G75*
G02*
X137553200Y-149073039I1080000J1040961D01*
G01*
X139713200Y-148442563D02*
G75*
G02*
X139868716Y-151674000I-1080000J-1671437D01*
G01*
X139713200Y-149073039D02*
G75*
G02*
X139713200Y-151154961I-1080000J-1040961D01*
G01*
%TO.C,R20*%
X141301800Y-122256800D02*
X141301800Y-128796800D01*
X141301800Y-128796800D02*
X141631800Y-128796800D01*
X141631800Y-122256800D02*
X141301800Y-122256800D01*
X143711800Y-122256800D02*
X144041800Y-122256800D01*
X144041800Y-122256800D02*
X144041800Y-128796800D01*
X144041800Y-128796800D02*
X143711800Y-128796800D01*
%TO.C,C5*%
X118968000Y-121384200D02*
X118968000Y-119854200D01*
X120808000Y-119854200D02*
X120808000Y-121384200D01*
%TO.C,D3*%
X126272000Y-151623200D02*
X126428000Y-151623200D01*
X128588000Y-151623200D02*
X128744000Y-151623200D01*
X126272484Y-151623200D02*
G75*
G02*
X126428000Y-148391763I1235516J1560000D01*
G01*
X126428000Y-151104161D02*
G75*
G02*
X126428000Y-149022239I1080000J1040961D01*
G01*
X128588000Y-148391763D02*
G75*
G02*
X128743516Y-151623200I-1080000J-1671437D01*
G01*
X128588000Y-149022239D02*
G75*
G02*
X128588000Y-151104161I-1080000J-1040961D01*
G01*
%TO.C,R1*%
X115523600Y-144357736D02*
X115523600Y-145811864D01*
X117343600Y-144357736D02*
X117343600Y-145811864D01*
%TO.C,R19*%
X144426000Y-122256800D02*
X144426000Y-128796800D01*
X144426000Y-128796800D02*
X144756000Y-128796800D01*
X144756000Y-122256800D02*
X144426000Y-122256800D01*
X146836000Y-122256800D02*
X147166000Y-122256800D01*
X147166000Y-122256800D02*
X147166000Y-128796800D01*
X147166000Y-128796800D02*
X146836000Y-128796800D01*
%TO.C,C1*%
X133932400Y-127546800D02*
X132692400Y-127546800D01*
X133932400Y-127586800D02*
X132692400Y-127586800D01*
X133932400Y-127626800D02*
X132694400Y-127626800D01*
X133932400Y-127666800D02*
X132695400Y-127666800D01*
X133932400Y-127706800D02*
X132698400Y-127706800D01*
X133932400Y-127746800D02*
X132701400Y-127746800D01*
X133932400Y-127786800D02*
X132706400Y-127786800D01*
X133932400Y-127826800D02*
X132711400Y-127826800D01*
X133932400Y-127866800D02*
X132716400Y-127866800D01*
X133932400Y-127906800D02*
X132723400Y-127906800D01*
X133932400Y-127946800D02*
X132730400Y-127946800D01*
X133932400Y-127986800D02*
X132738400Y-127986800D01*
X133932400Y-128026800D02*
X132747400Y-128026800D01*
X133932400Y-128066800D02*
X132757400Y-128066800D01*
X133932400Y-128106800D02*
X132767400Y-128106800D01*
X133932400Y-128146800D02*
X132779400Y-128146800D01*
X133932400Y-128186800D02*
X132791400Y-128186800D01*
X133932400Y-128226800D02*
X132804400Y-128226800D01*
X133932400Y-128266800D02*
X132818400Y-128266800D01*
X133932400Y-128306800D02*
X132833400Y-128306800D01*
X133932400Y-128346800D02*
X132849400Y-128346800D01*
X133932400Y-128386800D02*
X132866400Y-128386800D01*
X133932400Y-128426800D02*
X132883400Y-128426800D01*
X133932400Y-128466800D02*
X132902400Y-128466800D01*
X133932400Y-128506800D02*
X132922400Y-128506800D01*
X133932400Y-128546800D02*
X132943400Y-128546800D01*
X133932400Y-128586800D02*
X132965400Y-128586800D01*
X133932400Y-128626800D02*
X132988400Y-128626800D01*
X133932400Y-128666800D02*
X133012400Y-128666800D01*
X133932400Y-128706800D02*
X133038400Y-128706800D01*
X133932400Y-128746800D02*
X133064400Y-128746800D01*
X133932400Y-128786800D02*
X133092400Y-128786800D01*
X133932400Y-128826800D02*
X133122400Y-128826800D01*
X133932400Y-128866800D02*
X133153400Y-128866800D01*
X133932400Y-128906800D02*
X133186400Y-128906800D01*
X133932400Y-128946800D02*
X133220400Y-128946800D01*
X133932400Y-128986800D02*
X133256400Y-128986800D01*
X133932400Y-129026800D02*
X133294400Y-129026800D01*
X133932400Y-129066800D02*
X133334400Y-129066800D01*
X133932400Y-129106800D02*
X133376400Y-129106800D01*
X135142400Y-129626800D02*
X134402400Y-129626800D01*
X135309400Y-129586800D02*
X134235400Y-129586800D01*
X135435400Y-129546800D02*
X134109400Y-129546800D01*
X135540400Y-129506800D02*
X134004400Y-129506800D01*
X135631400Y-129466800D02*
X133913400Y-129466800D01*
X135712400Y-129426800D02*
X133832400Y-129426800D01*
X135785400Y-129386800D02*
X133759400Y-129386800D01*
X135852400Y-129346800D02*
X133692400Y-129346800D01*
X135914400Y-129306800D02*
X133630400Y-129306800D01*
X135967400Y-125276999D02*
X135967400Y-125676999D01*
X135971400Y-129266800D02*
X133573400Y-129266800D01*
X136025400Y-129226800D02*
X133519400Y-129226800D01*
X136075400Y-129186800D02*
X133469400Y-129186800D01*
X136123400Y-129146800D02*
X133421400Y-129146800D01*
X136167400Y-125476999D02*
X135767400Y-125476999D01*
X136168400Y-129106800D02*
X135612400Y-129106800D01*
X136210400Y-129066800D02*
X135612400Y-129066800D01*
X136250400Y-129026800D02*
X135612400Y-129026800D01*
X136288400Y-128986800D02*
X135612400Y-128986800D01*
X136324400Y-128946800D02*
X135612400Y-128946800D01*
X136358400Y-128906800D02*
X135612400Y-128906800D01*
X136391400Y-128866800D02*
X135612400Y-128866800D01*
X136422400Y-128826800D02*
X135612400Y-128826800D01*
X136452400Y-128786800D02*
X135612400Y-128786800D01*
X136480400Y-128746800D02*
X135612400Y-128746800D01*
X136506400Y-128706800D02*
X135612400Y-128706800D01*
X136532400Y-128666800D02*
X135612400Y-128666800D01*
X136556400Y-128626800D02*
X135612400Y-128626800D01*
X136579400Y-128586800D02*
X135612400Y-128586800D01*
X136601400Y-128546800D02*
X135612400Y-128546800D01*
X136622400Y-128506800D02*
X135612400Y-128506800D01*
X136642400Y-128466800D02*
X135612400Y-128466800D01*
X136661400Y-128426800D02*
X135612400Y-128426800D01*
X136678400Y-128386800D02*
X135612400Y-128386800D01*
X136695400Y-128346800D02*
X135612400Y-128346800D01*
X136711400Y-128306800D02*
X135612400Y-128306800D01*
X136726400Y-128266800D02*
X135612400Y-128266800D01*
X136740400Y-128226800D02*
X135612400Y-128226800D01*
X136753400Y-128186800D02*
X135612400Y-128186800D01*
X136765400Y-128146800D02*
X135612400Y-128146800D01*
X136777400Y-128106800D02*
X135612400Y-128106800D01*
X136787400Y-128066800D02*
X135612400Y-128066800D01*
X136797400Y-128026800D02*
X135612400Y-128026800D01*
X136806400Y-127986800D02*
X135612400Y-127986800D01*
X136814400Y-127946800D02*
X135612400Y-127946800D01*
X136821400Y-127906800D02*
X135612400Y-127906800D01*
X136828400Y-127866800D02*
X135612400Y-127866800D01*
X136833400Y-127826800D02*
X135612400Y-127826800D01*
X136838400Y-127786800D02*
X135612400Y-127786800D01*
X136843400Y-127746800D02*
X135612400Y-127746800D01*
X136846400Y-127706800D02*
X135612400Y-127706800D01*
X136849400Y-127666800D02*
X135612400Y-127666800D01*
X136850400Y-127626800D02*
X135612400Y-127626800D01*
X136852400Y-127546800D02*
X135612400Y-127546800D01*
X136852400Y-127586800D02*
X135612400Y-127586800D01*
X136892400Y-127546800D02*
G75*
G02*
X132652400Y-127546800I-2120000J0D01*
G01*
X132652400Y-127546800D02*
G75*
G02*
X136892400Y-127546800I2120000J0D01*
G01*
%TO.C,J3*%
X163110400Y-140419600D02*
X163110400Y-132579600D01*
X165760400Y-137769600D02*
X165760400Y-140419600D01*
X165760400Y-140419600D02*
X163110400Y-140419600D01*
X168410400Y-132579600D02*
X163110400Y-132579600D01*
X168410400Y-137769600D02*
X165760400Y-137769600D01*
X168410400Y-137769600D02*
X168410400Y-132579600D01*
X168410400Y-139039600D02*
X168410400Y-140419600D01*
X168410400Y-140419600D02*
X167030400Y-140419600D01*
%TO.C,J8*%
X150537400Y-125577600D02*
X150537400Y-122927600D01*
X153297400Y-122927600D02*
X150537400Y-122927600D01*
X153297400Y-125577600D02*
X150537400Y-125577600D01*
X153297400Y-125577600D02*
X153297400Y-122927600D01*
X153297400Y-126847600D02*
X153297400Y-128227600D01*
X153297400Y-128227600D02*
X151917400Y-128227600D01*
%TO.C,R9*%
X160126000Y-144306936D02*
X160126000Y-145761064D01*
X161946000Y-144306936D02*
X161946000Y-145761064D01*
%TO.C,D15*%
X193429600Y-151724800D02*
X193585600Y-151724800D01*
X195745600Y-151724800D02*
X195901600Y-151724800D01*
X193430084Y-151724800D02*
G75*
G02*
X193585600Y-148493363I1235516J1560000D01*
G01*
X193585600Y-151205761D02*
G75*
G02*
X193585600Y-149123839I1080000J1040961D01*
G01*
X195745600Y-148493363D02*
G75*
G02*
X195901116Y-151724800I-1080000J-1671437D01*
G01*
X195745600Y-149123839D02*
G75*
G02*
X195745600Y-151205761I-1080000J-1040961D01*
G01*
%TO.C,C3*%
X174221399Y-126770200D02*
X174621399Y-126770200D01*
X174421399Y-126570200D02*
X174421399Y-126970200D01*
X176491200Y-125885200D02*
X176491200Y-127125200D01*
X176491200Y-128805200D02*
X176491200Y-130045200D01*
X176531200Y-125885200D02*
X176531200Y-127125200D01*
X176531200Y-128805200D02*
X176531200Y-130045200D01*
X176571200Y-125887200D02*
X176571200Y-127125200D01*
X176571200Y-128805200D02*
X176571200Y-130043200D01*
X176611200Y-125888200D02*
X176611200Y-127125200D01*
X176611200Y-128805200D02*
X176611200Y-130042200D01*
X176651200Y-125891200D02*
X176651200Y-127125200D01*
X176651200Y-128805200D02*
X176651200Y-130039200D01*
X176691200Y-125894200D02*
X176691200Y-127125200D01*
X176691200Y-128805200D02*
X176691200Y-130036200D01*
X176731200Y-125899200D02*
X176731200Y-127125200D01*
X176731200Y-128805200D02*
X176731200Y-130031200D01*
X176771200Y-125904200D02*
X176771200Y-127125200D01*
X176771200Y-128805200D02*
X176771200Y-130026200D01*
X176811200Y-125909200D02*
X176811200Y-127125200D01*
X176811200Y-128805200D02*
X176811200Y-130021200D01*
X176851200Y-125916200D02*
X176851200Y-127125200D01*
X176851200Y-128805200D02*
X176851200Y-130014200D01*
X176891200Y-125923200D02*
X176891200Y-127125200D01*
X176891200Y-128805200D02*
X176891200Y-130007200D01*
X176931200Y-125931200D02*
X176931200Y-127125200D01*
X176931200Y-128805200D02*
X176931200Y-129999200D01*
X176971200Y-125940200D02*
X176971200Y-127125200D01*
X176971200Y-128805200D02*
X176971200Y-129990200D01*
X177011200Y-125950200D02*
X177011200Y-127125200D01*
X177011200Y-128805200D02*
X177011200Y-129980200D01*
X177051200Y-125960200D02*
X177051200Y-127125200D01*
X177051200Y-128805200D02*
X177051200Y-129970200D01*
X177091200Y-125972200D02*
X177091200Y-127125200D01*
X177091200Y-128805200D02*
X177091200Y-129958200D01*
X177131200Y-125984200D02*
X177131200Y-127125200D01*
X177131200Y-128805200D02*
X177131200Y-129946200D01*
X177171200Y-125997200D02*
X177171200Y-127125200D01*
X177171200Y-128805200D02*
X177171200Y-129933200D01*
X177211200Y-126011200D02*
X177211200Y-127125200D01*
X177211200Y-128805200D02*
X177211200Y-129919200D01*
X177251200Y-126026200D02*
X177251200Y-127125200D01*
X177251200Y-128805200D02*
X177251200Y-129904200D01*
X177291200Y-126042200D02*
X177291200Y-127125200D01*
X177291200Y-128805200D02*
X177291200Y-129888200D01*
X177331200Y-126059200D02*
X177331200Y-127125200D01*
X177331200Y-128805200D02*
X177331200Y-129871200D01*
X177371200Y-126076200D02*
X177371200Y-127125200D01*
X177371200Y-128805200D02*
X177371200Y-129854200D01*
X177411200Y-126095200D02*
X177411200Y-127125200D01*
X177411200Y-128805200D02*
X177411200Y-129835200D01*
X177451200Y-126115200D02*
X177451200Y-127125200D01*
X177451200Y-128805200D02*
X177451200Y-129815200D01*
X177491200Y-126136200D02*
X177491200Y-127125200D01*
X177491200Y-128805200D02*
X177491200Y-129794200D01*
X177531200Y-126158200D02*
X177531200Y-127125200D01*
X177531200Y-128805200D02*
X177531200Y-129772200D01*
X177571200Y-126181200D02*
X177571200Y-127125200D01*
X177571200Y-128805200D02*
X177571200Y-129749200D01*
X177611200Y-126205200D02*
X177611200Y-127125200D01*
X177611200Y-128805200D02*
X177611200Y-129725200D01*
X177651200Y-126231200D02*
X177651200Y-127125200D01*
X177651200Y-128805200D02*
X177651200Y-129699200D01*
X177691200Y-126257200D02*
X177691200Y-127125200D01*
X177691200Y-128805200D02*
X177691200Y-129673200D01*
X177731200Y-126285200D02*
X177731200Y-127125200D01*
X177731200Y-128805200D02*
X177731200Y-129645200D01*
X177771200Y-126315200D02*
X177771200Y-127125200D01*
X177771200Y-128805200D02*
X177771200Y-129615200D01*
X177811200Y-126346200D02*
X177811200Y-127125200D01*
X177811200Y-128805200D02*
X177811200Y-129584200D01*
X177851200Y-126379200D02*
X177851200Y-127125200D01*
X177851200Y-128805200D02*
X177851200Y-129551200D01*
X177891200Y-126413200D02*
X177891200Y-127125200D01*
X177891200Y-128805200D02*
X177891200Y-129517200D01*
X177931200Y-126449200D02*
X177931200Y-127125200D01*
X177931200Y-128805200D02*
X177931200Y-129481200D01*
X177971200Y-126487200D02*
X177971200Y-127125200D01*
X177971200Y-128805200D02*
X177971200Y-129443200D01*
X178011200Y-126527200D02*
X178011200Y-127125200D01*
X178011200Y-128805200D02*
X178011200Y-129403200D01*
X178051200Y-126569200D02*
X178051200Y-127125200D01*
X178051200Y-128805200D02*
X178051200Y-129361200D01*
X178091200Y-126614200D02*
X178091200Y-129316200D01*
X178131200Y-126662200D02*
X178131200Y-129268200D01*
X178171200Y-126712200D02*
X178171200Y-129218200D01*
X178211200Y-126766200D02*
X178211200Y-129164200D01*
X178251200Y-126823200D02*
X178251200Y-129107200D01*
X178291200Y-126885200D02*
X178291200Y-129045200D01*
X178331200Y-126952200D02*
X178331200Y-128978200D01*
X178371200Y-127025200D02*
X178371200Y-128905200D01*
X178411200Y-127106200D02*
X178411200Y-128824200D01*
X178451200Y-127197200D02*
X178451200Y-128733200D01*
X178491200Y-127302200D02*
X178491200Y-128628200D01*
X178531200Y-127428200D02*
X178531200Y-128502200D01*
X178571200Y-127595200D02*
X178571200Y-128335200D01*
X178611200Y-127965200D02*
G75*
G02*
X174371200Y-127965200I-2120000J0D01*
G01*
X174371200Y-127965200D02*
G75*
G02*
X178611200Y-127965200I2120000J0D01*
G01*
%TO.C,R12*%
X176991600Y-144408536D02*
X176991600Y-145862664D01*
X178811600Y-144408536D02*
X178811600Y-145862664D01*
%TO.C,R4*%
X131728800Y-144306936D02*
X131728800Y-145761064D01*
X133548800Y-144306936D02*
X133548800Y-145761064D01*
%TO.C,R7*%
X148696000Y-144306936D02*
X148696000Y-145761064D01*
X150516000Y-144306936D02*
X150516000Y-145761064D01*
%TO.C,D9*%
X159952400Y-151521600D02*
X160108400Y-151521600D01*
X162268400Y-151521600D02*
X162424400Y-151521600D01*
X159952884Y-151521600D02*
G75*
G02*
X160108400Y-148290163I1235516J1560000D01*
G01*
X160108400Y-151002561D02*
G75*
G02*
X160108400Y-148920639I1080000J1040961D01*
G01*
X162268400Y-148290163D02*
G75*
G02*
X162423916Y-151521600I-1080000J-1671437D01*
G01*
X162268400Y-148920639D02*
G75*
G02*
X162268400Y-151002561I-1080000J-1040961D01*
G01*
%TO.C,C4*%
X114099600Y-120591200D02*
X115339600Y-120591200D01*
X114099600Y-120631200D02*
X115339600Y-120631200D01*
X114101600Y-120551200D02*
X115339600Y-120551200D01*
X114102600Y-120511200D02*
X115339600Y-120511200D01*
X114105600Y-120471200D02*
X115339600Y-120471200D01*
X114108600Y-120431200D02*
X115339600Y-120431200D01*
X114113600Y-120391200D02*
X115339600Y-120391200D01*
X114118600Y-120351200D02*
X115339600Y-120351200D01*
X114123600Y-120311200D02*
X115339600Y-120311200D01*
X114130600Y-120271200D02*
X115339600Y-120271200D01*
X114137600Y-120231200D02*
X115339600Y-120231200D01*
X114145600Y-120191200D02*
X115339600Y-120191200D01*
X114154600Y-120151200D02*
X115339600Y-120151200D01*
X114164600Y-120111200D02*
X115339600Y-120111200D01*
X114174600Y-120071200D02*
X115339600Y-120071200D01*
X114186600Y-120031200D02*
X115339600Y-120031200D01*
X114198600Y-119991200D02*
X115339600Y-119991200D01*
X114211600Y-119951200D02*
X115339600Y-119951200D01*
X114225600Y-119911200D02*
X115339600Y-119911200D01*
X114240600Y-119871200D02*
X115339600Y-119871200D01*
X114256600Y-119831200D02*
X115339600Y-119831200D01*
X114273600Y-119791200D02*
X115339600Y-119791200D01*
X114290600Y-119751200D02*
X115339600Y-119751200D01*
X114309600Y-119711200D02*
X115339600Y-119711200D01*
X114329600Y-119671200D02*
X115339600Y-119671200D01*
X114350600Y-119631200D02*
X115339600Y-119631200D01*
X114372600Y-119591200D02*
X115339600Y-119591200D01*
X114395600Y-119551200D02*
X115339600Y-119551200D01*
X114419600Y-119511200D02*
X115339600Y-119511200D01*
X114445600Y-119471200D02*
X115339600Y-119471200D01*
X114471600Y-119431200D02*
X115339600Y-119431200D01*
X114499600Y-119391200D02*
X115339600Y-119391200D01*
X114529600Y-119351200D02*
X115339600Y-119351200D01*
X114560600Y-119311200D02*
X115339600Y-119311200D01*
X114593600Y-119271200D02*
X115339600Y-119271200D01*
X114627600Y-119231200D02*
X115339600Y-119231200D01*
X114663600Y-119191200D02*
X115339600Y-119191200D01*
X114701600Y-119151200D02*
X115339600Y-119151200D01*
X114741600Y-119111200D02*
X115339600Y-119111200D01*
X114783600Y-119071200D02*
X115339600Y-119071200D01*
X114784600Y-122701001D02*
X115184600Y-122701001D01*
X114828600Y-119031200D02*
X117530600Y-119031200D01*
X114876600Y-118991200D02*
X117482600Y-118991200D01*
X114926600Y-118951200D02*
X117432600Y-118951200D01*
X114980600Y-118911200D02*
X117378600Y-118911200D01*
X114984600Y-122901001D02*
X114984600Y-122501001D01*
X115037600Y-118871200D02*
X117321600Y-118871200D01*
X115099600Y-118831200D02*
X117259600Y-118831200D01*
X115166600Y-118791200D02*
X117192600Y-118791200D01*
X115239600Y-118751200D02*
X117119600Y-118751200D01*
X115320600Y-118711200D02*
X117038600Y-118711200D01*
X115411600Y-118671200D02*
X116947600Y-118671200D01*
X115516600Y-118631200D02*
X116842600Y-118631200D01*
X115642600Y-118591200D02*
X116716600Y-118591200D01*
X115809600Y-118551200D02*
X116549600Y-118551200D01*
X117019600Y-119071200D02*
X117575600Y-119071200D01*
X117019600Y-119111200D02*
X117617600Y-119111200D01*
X117019600Y-119151200D02*
X117657600Y-119151200D01*
X117019600Y-119191200D02*
X117695600Y-119191200D01*
X117019600Y-119231200D02*
X117731600Y-119231200D01*
X117019600Y-119271200D02*
X117765600Y-119271200D01*
X117019600Y-119311200D02*
X117798600Y-119311200D01*
X117019600Y-119351200D02*
X117829600Y-119351200D01*
X117019600Y-119391200D02*
X117859600Y-119391200D01*
X117019600Y-119431200D02*
X117887600Y-119431200D01*
X117019600Y-119471200D02*
X117913600Y-119471200D01*
X117019600Y-119511200D02*
X117939600Y-119511200D01*
X117019600Y-119551200D02*
X117963600Y-119551200D01*
X117019600Y-119591200D02*
X117986600Y-119591200D01*
X117019600Y-119631200D02*
X118008600Y-119631200D01*
X117019600Y-119671200D02*
X118029600Y-119671200D01*
X117019600Y-119711200D02*
X118049600Y-119711200D01*
X117019600Y-119751200D02*
X118068600Y-119751200D01*
X117019600Y-119791200D02*
X118085600Y-119791200D01*
X117019600Y-119831200D02*
X118102600Y-119831200D01*
X117019600Y-119871200D02*
X118118600Y-119871200D01*
X117019600Y-119911200D02*
X118133600Y-119911200D01*
X117019600Y-119951200D02*
X118147600Y-119951200D01*
X117019600Y-119991200D02*
X118160600Y-119991200D01*
X117019600Y-120031200D02*
X118172600Y-120031200D01*
X117019600Y-120071200D02*
X118184600Y-120071200D01*
X117019600Y-120111200D02*
X118194600Y-120111200D01*
X117019600Y-120151200D02*
X118204600Y-120151200D01*
X117019600Y-120191200D02*
X118213600Y-120191200D01*
X117019600Y-120231200D02*
X118221600Y-120231200D01*
X117019600Y-120271200D02*
X118228600Y-120271200D01*
X117019600Y-120311200D02*
X118235600Y-120311200D01*
X117019600Y-120351200D02*
X118240600Y-120351200D01*
X117019600Y-120391200D02*
X118245600Y-120391200D01*
X117019600Y-120431200D02*
X118250600Y-120431200D01*
X117019600Y-120471200D02*
X118253600Y-120471200D01*
X117019600Y-120511200D02*
X118256600Y-120511200D01*
X117019600Y-120551200D02*
X118257600Y-120551200D01*
X117019600Y-120591200D02*
X118259600Y-120591200D01*
X117019600Y-120631200D02*
X118259600Y-120631200D01*
X118299600Y-120631200D02*
G75*
G02*
X114059600Y-120631200I-2120000J0D01*
G01*
X114059600Y-120631200D02*
G75*
G02*
X118299600Y-120631200I2120000J0D01*
G01*
%TO.C,J2*%
X114220900Y-131178800D02*
X114220900Y-126108800D01*
X114220900Y-125508800D02*
X114220900Y-123938800D01*
X114220900Y-123938800D02*
X122060900Y-123938800D01*
X114740900Y-123938800D02*
X114740900Y-131178800D01*
X115840900Y-123938800D02*
X115840900Y-131178800D01*
X122060900Y-131178800D02*
X114220900Y-131178800D01*
X122060900Y-123938800D02*
X122060900Y-131178800D01*
X114220900Y-125808800D02*
X113610900Y-126248800D01*
X113610900Y-125368800D01*
X114220900Y-125808800D01*
G36*
X114220900Y-125808800D02*
G01*
X113610900Y-126248800D01*
X113610900Y-125368800D01*
X114220900Y-125808800D01*
G37*
%TO.C,J1*%
X194747600Y-139990000D02*
X194747600Y-132750000D01*
X194747600Y-132750000D02*
X202587600Y-132750000D01*
X200967600Y-139990000D02*
X200967600Y-132750000D01*
X202067600Y-139990000D02*
X202067600Y-132750000D01*
X202587600Y-139990000D02*
X194747600Y-139990000D01*
X202587600Y-138420000D02*
X202587600Y-139990000D01*
X202587600Y-132750000D02*
X202587600Y-137820000D01*
X203197600Y-138560000D02*
X202587600Y-138120000D01*
X203197600Y-137680000D01*
X203197600Y-138560000D01*
G36*
X203197600Y-138560000D02*
G01*
X202587600Y-138120000D01*
X203197600Y-137680000D01*
X203197600Y-138560000D01*
G37*
%TD*%
M02*
