M48
; DRILL file {KiCad 9.0.7-9.0.7~ubuntu24.04.1} date 2026-03-14T17:51:31+0100
; FORMAT={-:-/ absolute / inch / decimal}
; #@! TF.CreationDate,2026-03-14T17:51:31+01:00
; #@! TF.GenerationSoftware,Kicad,Pcbnew,9.0.7-9.0.7~ubuntu24.04.1
; #@! TF.FileFunction,Plated,1,2,PTH
FMAT,2
INCH
; #@! TA.AperFunction,Plated,PTH,ComponentDrill
T1C0.0236
; #@! TA.AperFunction,Plated,PTH,ComponentDrill
T2C0.0315
; #@! TA.AperFunction,Plated,PTH,ComponentDrill
T3C0.0354
; #@! TA.AperFunction,Plated,PTH,ComponentDrill
T4C0.0394
; #@! TA.AperFunction,Plated,PTH,ComponentDrill
T5C0.0433
; #@! TA.AperFunction,Plated,PTH,ComponentDrill
T6C0.0472
; #@! TA.AperFunction,Plated,PTH,ComponentDrill
T7C0.1457
%
G90
G05
T1
X4.574Y-4.7197
X4.574Y-4.7788
X5.306Y-4.992
X5.306Y-5.0511
X5.98Y-4.61
X5.98Y-4.6691
X6.9189Y-5.038
X6.978Y-5.038
T2
X4.72Y-4.6996
X4.72Y-4.798
X4.964Y-5.3288
X4.964Y-5.4272
X5.076Y-5.222
X5.076Y-5.522
X5.176Y-5.222
X5.176Y-5.522
X5.276Y-5.222
X5.276Y-5.522
X5.376Y-5.222
X5.376Y-5.522
X5.476Y-5.222
X5.476Y-5.522
X5.49Y-4.792
X5.49Y-5.092
X5.576Y-5.222
X5.576Y-5.522
X5.617Y-4.792
X5.617Y-5.092
X5.676Y-5.222
X5.676Y-5.522
X5.74Y-4.792
X5.74Y-5.092
X5.776Y-5.222
X5.776Y-5.522
X5.858Y-4.793
X5.858Y-5.093
X5.9Y-5.322
X5.9Y-5.4204
X6.008Y-5.228
X6.008Y-5.528
X6.108Y-5.228
X6.108Y-5.528
X6.116Y-4.812
X6.116Y-5.112
X6.136Y-4.5848
X6.136Y-4.6832
X6.208Y-5.228
X6.208Y-5.528
X6.216Y-4.812
X6.216Y-5.112
X6.308Y-5.228
X6.308Y-5.528
X6.316Y-4.812
X6.316Y-5.112
X6.416Y-4.812
X6.416Y-5.112
X6.5962Y-4.878
X6.5962Y-4.978
X6.5962Y-5.078
X6.74Y-5.3268
X6.74Y-5.4252
X6.854Y-5.222
X6.854Y-5.522
X6.954Y-5.222
X6.954Y-5.522
X7.054Y-5.222
X7.054Y-5.522
X7.154Y-5.222
X7.154Y-5.522
X7.254Y-5.222
X7.254Y-5.522
X7.354Y-5.222
X7.354Y-5.522
X7.454Y-5.222
X7.454Y-5.522
X7.554Y-5.222
X7.554Y-5.522
T3
X4.582Y-5.858
X4.582Y-5.958
X4.8Y-5.86
X4.8Y-5.96
X5.02Y-5.858
X5.02Y-5.958
X5.24Y-5.86
X5.24Y-5.96
X5.458Y-5.86
X5.458Y-5.96
X5.68Y-5.858
X5.68Y-5.958
X5.896Y-5.858
X5.896Y-5.958
X6.124Y-5.858
X6.124Y-5.958
X6.346Y-5.854
X6.346Y-5.954
X6.572Y-5.86
X6.572Y-5.96
X6.79Y-5.858
X6.79Y-5.958
X7.006Y-5.858
X7.006Y-5.958
X7.23Y-5.862
X7.23Y-5.962
X7.448Y-5.86
X7.448Y-5.96
X7.664Y-5.862
X7.664Y-5.962
X7.884Y-5.862
X7.884Y-5.962
T4
X5.981Y-4.894
X5.981Y-4.994
X6.476Y-5.274
X6.476Y-5.374
X6.476Y-5.474
X6.576Y-5.274
X6.576Y-5.374
X6.576Y-5.474
T5
X4.572Y-5.2701
X4.572Y-5.526
X4.7492Y-5.2701
X4.7492Y-5.526
X5.01Y-4.656
X5.11Y-4.656
X5.21Y-4.656
X5.56Y-4.6514
X5.66Y-4.6514
X5.76Y-4.6514
T6
X4.6788Y-4.9531
X4.6788Y-5.0909
X7.794Y-5.3
X7.794Y-5.4378
T7
X5.03Y-4.95
X7.598Y-4.948
M30
